<?xml version="1.0" encoding="UTF-8"?>
<svg width="642px" height="361px" viewBox="0 0 642 361" version="1.1" xmlns="http://www.w3.org/2000/svg" xmlns:xlink="http://www.w3.org/1999/xlink">
    <!-- Generator: Sketch 54.1 (76490) - https://sketchapp.com -->
    <title>connected</title>
    <desc>Created with Sketch.</desc>
    <g id="connected" stroke="none" stroke-width="1" fill="none" fill-rule="evenodd">
        <path d="M811.960002,-107.415455 C810.333417,62.0586427 810.346749,146.825732 812,146.885813 L811.960002,493.360776 C809.540123,495.483625 596.928954,491.47825 595.029049,493.360776 L-24,493.360776 L-24,378.236281 C-24,374.388385 -24,212.504473 -24,-107.415455 C-22.2700865,-108.346705 -20.40018,-107.886087 -18.60027,-107.886087 C156.773184,-107.886087 433.626608,-107.72921 811.960002,-107.415455 Z" id="Path" fill="#CCEBF7" fill-rule="nonzero"></path>
        <g id="Group-5" transform="translate(15.000000, 108.000000)" fill-rule="nonzero">
            <path d="M43.8536776,211.785125 C32.9024517,212.10561 21.9512259,212.035504 11,211.785125 C12.8218676,206.437035 15.7338275,197.108975 17.4455822,191.760886 C19.8156539,184.294661 20.9352252,176.487675 20.7589786,168.655935 C20.3685785,151.449908 21.3395738,134.374078 25.8742222,117.668808 C26.825197,114.143476 28.0364386,110.658204 29.2677008,107.243038 C33.6722157,94.9344186 41.8706198,86.261299 54.0731283,81.4740575 C55.2525984,79.8991252 57.111346,78.9804555 59.0782589,79.0003155 C66.1555137,82.4555422 72.0415473,87.6734351 78.4781454,92.0901161 C80.8290906,93.9288966 82.433248,96.5587221 82.9927732,99.4913117 C82.9927732,103.327114 85.3652052,105.219977 88.578499,106.602068 C90.8107873,107.603583 93.0831166,108.43484 95.3154049,109.416325 C96.1262361,109.917083 97.0972314,110.307673 96.7268517,111.569582 C97.3574982,119.862126 98.3785449,128.13464 98.0682268,136.487275 C98.1640724,137.635704 98.3959329,138.768677 98.7589348,139.86238 C99.7599609,149.516984 97.5276726,158.63077 94.2042659,167.574299 C90.9309104,173.653495 88.1981091,180.133297 82.1919523,184.199448 C72.5520707,190.909598 62.4316965,192.772416 51.570563,187.264083 C41.5603017,181.064706 36.0746785,171.780662 33.1917232,160.663846 C35.7643604,169.497208 36.5751915,178.691115 39.1177979,187.594583 C39.8085059,191.240098 41.3300656,194.605188 42.2009584,198.240687 C42.3466127,200.36321 97.1937839,203.78199 97.6546428,206.917781 C97.7690962,207.696549 104.100261,217.53845 92.844975,218.258121 C77.782524,219.221224 43.9715423,211.029159 43.8536776,211.785125 Z" id="Path" fill="#00B59C"></path>
            <path d="M96.6574101,111.86639 L95.086032,110.977814 C93.4245749,109.310486 93.2143906,107.193879 93.1443291,104.987415 C92.8540746,97.0002161 93.7848909,89.1328253 94.6956896,81.2454665 C94.8363252,80.5977803 95.188325,80.0149073 95.6965674,79.5881228 C103.083045,75.4747154 108.087434,69.1548444 112.251086,62.0362535 C112.668891,61.111788 113.398508,60.3627793 114.312894,59.9196458 C119.997879,58.1524781 119.557493,54.0790067 118.68673,49.5063354 C117.685852,44.1848642 119.207186,38.953249 119.937827,33.7116498 C120.588397,28.9692505 120.388222,28.7196506 115.81421,29.2787545 C110.91589,30.1320576 106.363633,32.3627177 102.692703,35.7084495 C99.2997273,39.192865 96.7374803,39.7020489 93.5646978,37.5954252 C88.8205372,34.4205137 85.1172895,36.2575694 84.6368682,42.0283205 C84.6279476,43.6918089 84.8674494,45.3473464 85.3474914,46.9404478 C85.8379215,49.2667194 85.4776055,51.2435511 83.0754989,52.3817269 C82.9138871,52.4165618 82.7466805,52.4165618 82.5850688,52.3817269 C80.7634713,51.5231031 78.8217684,47.9588156 77.8008731,49.3865274 C76.139416,51.6928311 72.6463526,53.2503348 73.1968354,57.0841902 C73.4988129,59.0627299 73.2957112,61.0852852 72.6063175,62.9647653 C67.1615425,67.9567646 63.3882334,74.2566676 59.0644415,80.1372427 L54,81.8345224 C55.3211586,76.7826192 54.8007022,71.64086 54.7906934,66.5290528 C54.7906934,53.1904308 55.9617204,40.0015688 59.7950822,27.1721308 C61.876908,20.2632039 65.0196641,13.9033969 70.2042109,8.72170165 C74.4179063,4.50845429 79.2121107,1.80279071 85.4275616,3.66979842 C87.1690889,4.19895034 88.3000808,3.25047049 89.6212394,2.76125456 C97.1478402,-0.0342650097 104.804555,-1.02268086 112.641428,1.28362279 C118.756791,3.10071051 123.771189,6.57514198 126.54362,12.5256051 C127.544498,14.7520367 128.255121,17.2081003 127.124129,19.75402 C123.651083,27.5515228 124.611926,35.7284175 125.39261,43.7855043 C126.46355,54.7179826 129.956613,65.151261 132.398755,75.8041873 C133.83001,81.9742984 134.940984,88.2142974 132.819123,94.4642805 C131.401332,99.1890311 128.22488,103.193526 123.941338,105.656343 C125.029805,100.534203 125.185756,95.2585226 124.401742,90.0813052 C122.710258,95.4127603 121.479178,100.864024 119.297265,106.055703 C118.472752,108.412427 116.45078,110.151584 113.992613,110.61839 C108.298571,111.82291 102.465834,112.242822 96.6574101,111.86639 L96.6574101,111.86639 Z" id="Path" fill="#161111"></path>
            <path d="M93.1475934,167.905476 C95.7762027,159.186889 97.8870556,150.378317 98.2056749,141.219802 C98.2056749,140.809869 98.7035176,140.409934 98.9623957,140 C103.891038,151.358158 108.829637,162.716317 114.076899,174.794359 L119.602953,168.405395 L137.226583,148.128682 C138.431363,146.738907 139.596314,145.249149 141.776865,146.28898 C146.326361,147.000636 150.461232,149.353975 153.40647,152.907907 C154.919912,154.147706 156.57275,155.067557 155.806072,157.707129 C152.122036,170.395072 147.292962,182.483112 139.287652,193.131386 C134.427964,199.474235 128.074099,204.504312 120.797775,207.769012 C115.679953,207.839001 110.552173,207.878995 105.424394,207.998975 C103.087383,208.034123 100.826681,207.164026 99.1117485,205.569369 C95.3779285,204.569531 95.8658143,201.510027 95.6666773,198.750475 C94.6709919,194.131224 94.2229335,189.431985 93.6753066,184.752744 C93.4164284,179.133655 90.3995018,173.604552 93.1475934,167.905476 Z" id="Path" fill="#00AE8A"></path>
            <path d="M98.5275268,211.162103 C98.7502181,211.165663 98.9721414,211.189399 99.1906191,211.233022 C101.400927,217.970408 98.989682,222.803088 93.1122724,226.197109 C92.7965417,226.672376 92.4141305,227.098958 91.9769779,227.463535 C81.3775468,233.430934 69.7533366,235.842208 57.817674,236.703378 C42.5891332,237.721402 27.2999238,236.114516 12.6068305,231.951748 C12.3054249,230.330723 10.9691933,229.814022 9.71333656,229.621525 C6.91026427,229.196006 6.79974887,227.362221 7.13129506,225.214363 C7.70030644,220.60093 9.02794025,216.115414 11.059615,211.942221 C12.5365026,210.92908 14.2143272,211.010131 15.8921518,211 C41.5920046,211 67.3019042,211.060788 93.001757,211 C94.8503782,211 96.648765,211.618016 98.5275268,211.162103 Z" id="Path" fill="#00B59C"></path>
            <path d="M12.3733707,231.86624 C13.5473116,229.692151 15.3579663,231.067389 16.6313938,231.380862 C28.0348386,234.136841 39.7317058,235.437835 51.4516763,235.253775 C64.2953862,234.98075 76.6715095,232.60442 88.3810731,227.063019 C89.3759383,226.597865 90.271317,225.586661 91.5646418,226.183271 C92.4301745,234.899854 91.6939742,243.646772 91.9426905,252.373467 C92.0123311,254.780133 90.6095712,255.619433 88.5899948,255.862122 C87.2665116,255.973697 85.937615,256.004088 84.6105339,255.95313 C62.2592288,255.95313 39.9079236,255.95313 17.5566185,255.95313 C15.1589933,255.95313 12.4231139,256.549741 11.1198405,253.485792 C10.768928,246.254412 11.1892197,239.005668 12.3733707,231.86624 L12.3733707,231.86624 Z" id="Path" fill="#0D1417"></path>
            <path d="M153.715285,153 C149.589084,151.18469 145.662673,148.940525 142,146.304055 C143.393006,144.287204 144.715862,142.109005 146.199063,140.112323 C148.494016,137.006372 150.077433,134.06177 149.325811,129.705372 C148.483994,124.854846 151.500505,120.942155 156.511319,118.995894 C160.028911,117.634519 163.736914,116.767274 167.364744,115.678174 C168.847945,114.619327 170.311103,114.760507 171.082768,116.384072 C172.084931,118.400923 170.411319,119.802634 168.968205,120.185836 C163.506417,121.648053 162.313843,125.833018 161.832804,130.612955 C160.750468,132.528963 161.582264,133.708821 163.356092,134.495393 C165.12992,135.281965 165.771305,133.880253 166.532949,132.881912 C167.256331,131.95569 167.651391,130.812795 167.655371,129.634782 C167.244484,125.298553 169.659697,122.011086 171.89452,118.77404 C174.901009,114.296631 177.636914,114.508401 180.913987,119.106821 C181.250173,120.094566 181.359809,121.14607 181.234679,122.182518 C182.116582,124.683413 182.868204,126.427989 179.691348,128.717115 C176.81514,130.784387 174.28969,133.759242 171.433525,136.179464 C170.77257,136.905535 169.966595,137.482865 169.068421,137.873618 C160.860706,139.799711 157.924369,147.05029 153.715285,153 Z" id="Path" fill="#F68820"></path>
            <path d="M11.6342899,252.874137 C12.8137111,254.195979 14.392936,253.788494 15.8422247,253.788494 L88.276674,253.788494 C92.4846088,253.788494 93.2242458,253.828249 101.020419,253.828249 C120.15103,253.828249 139.291636,253.828249 158.422247,253.828249 C160.041452,253.828249 162.98001,252.834383 163,255.08052 C163,258.131689 159.871535,256.630951 158.242335,256.630951 C107.167403,256.730338 56.0858066,256.730338 4.99754722,256.630951 C3.19843022,256.630951 0,257.624817 0,255.130213 C0,252.63561 3.19843022,254.136347 4.93757665,253.768617 C7.13649742,253.381009 9.59529065,254.653158 11.6342899,252.874137 Z" id="Path" fill="#2F97D3"></path>
            <path d="M160,131.487386 C160.000511,131.321503 160.027649,131.156758 160.080396,130.999329 C161.547632,128.280157 159.648265,124.654593 161.497384,122.533041 C163.195759,120.540973 166.753303,120.859704 169.124999,119.26605 C169.667675,118.897518 170.129954,118.449302 170.652531,118.040928 C170.160103,115.74009 168.240638,116.845688 167.034691,116.367592 L168.039646,115.291875 C170.413277,112.21734 173.149443,109.435244 176.189838,107.004873 C178.772574,106.885349 180.360404,108.996941 182.561258,109.763887 C184.671665,110.919286 187.917672,111.696193 187.998069,114.066753 C188.088515,116.875569 184.983201,118.399501 182.722051,119.953313 C181.981191,120.616205 180.96616,120.889902 179.988571,120.690379 C178.662029,119.694345 178.370592,117.79192 176.441077,116.706243 C171.908726,120.521053 168.843611,125.222333 168.120043,131.31806 C164.391657,136.188665 162.994768,136.208586 160,131.487386 Z" id="Path" fill="#ECF6FB"></path>
            <path d="M97.9897669,211.968108 C97.8999221,212.881329 98.279267,213.794549 97.4407152,215 C97.3134032,214.281378 96.8786707,213.638659 96.2324943,213.213737 C95.5863179,212.788816 94.7818387,212.616637 93.9966631,212.735213 C85.2617485,213.109634 76.4968856,212.169017 67.7719537,213.255749 C66.2146432,213.447525 64.5575051,212.780874 62.9502808,212.790007 C45.7799344,212.899593 28.6095879,212.433851 11.4392414,213.018312 C11.3394138,213.018312 11.2196207,212.808271 11.1098104,212.698685 C11.1098104,212.406454 11.039931,212.114223 11,211.785464 C12.287776,210.780922 13.8450865,211.14621 15.3025694,211.137078 C41.4973305,211.137078 67.6920916,211.137078 93.8868527,211.137078 C95.2345253,211.164474 96.8916634,210.470427 97.9897669,211.968108 Z" id="Path" fill="#00B397"></path>
            <path d="M187.695342,114.144633 C186.145443,112.152942 183.81066,111.570755 182.081927,110.140823 C181.942833,109.262436 182.276756,108.3985 183.270281,108.929618 C191.654681,113.470522 191.381494,113.470522 184.828841,119.548585 C183.623802,120.666346 182.280632,121.97862 180.998985,123 C180.250076,122.579776 179.861335,121.701401 180.045201,120.844888 C182.771688,118.833579 185.330572,116.592422 187.695342,114.144633 Z" id="Path" fill="#3899D4"></path>
            <path d="M176,107.306213 C172.808931,109.403866 170.552859,112.851137 168.039646,115.291875 C167.581244,115.639102 165.827907,116.244274 166.069773,115.949318 C168.344996,113.174672 173.022204,108.19696 175.588995,106 C178.843058,105.42926 176.478499,106.896191 176,107.306213 Z" id="Path" fill="#53B2E4"></path>
            <path d="M176,107.306213 L176,106.115936 C178.974504,105.489474 180,106.845038 182.959691,108.766768 L182.008499,110 C180,108.766768 178.389518,107.191362 176,107.306213 Z" id="Path" fill="#42A3DB"></path>
            <path d="M45.0114269,208.771468 C43.1483661,205.964731 41.7894588,202.83285 41,199.52631 C43.8781988,197.1475 47.2477974,197.563013 50.5873103,197.614952 C61.7691629,197.791545 72.961044,198.248609 84.1428965,197.791545 C87.7130665,197.646115 91.3935507,195.651654 94.7330636,198.612182 C95.7359203,203.151659 93.9207496,206.496536 89.1571802,208.771468 C74.4352434,209.076177 59.7199923,209.076177 45.0114269,208.771468 Z" id="Path" fill="#00B397"></path>
            <path d="M89,207.693509 C91.6826827,205.255176 93.2342342,202.088256 95.006006,199.047625 C94.8158158,198.532758 95.006006,198.076177 95.5065065,198.008176 C96.2572573,197.920746 96.6176176,198.552187 96.997998,199.05734 C96.8278278,201.456815 96.9079079,203.78829 99,205.536895 C97.9289289,206.828921 97.1581582,208.354094 94.8558559,207.926657 C92.9130959,207.701582 90.9552287,207.623631 89,207.693509 Z" id="Path" fill="#00B69D"></path>
            <path d="M72.2458963,62.9198703 C72.5607123,59.7988266 71.3211244,56.5573568 72.5705503,53.5868458 C72.9050423,52.804076 71.7736724,48.6995523 75.3940563,51.2385364 C76.2302863,51.820596 76.0138503,50.405589 76.0630403,49.93392 C76.1035701,48.602599 76.5935757,47.3264039 77.4501982,46.3211363 C78.5028642,46.7225567 77.6666342,48.2680253 78.9554122,48.5991972 C80.4015982,48.5389841 79.6047202,46.0602131 81.3362081,46 C83.2251041,47.6658947 80.7164142,50.6062992 83.0086681,52.1216613 C85.2123801,55.9050486 88.31135,58.9056662 91.3709679,61.9163193 C94.2067076,64.7316764 96.2865794,68.2423831 97.4114998,72.1123977 C98.3952998,75.1230508 98.3067578,78.0032422 95.8964478,80.4117647 C94.9913519,88.7813803 95.1979499,97.1811024 95.0700559,105.570789 C95.0700559,107.377181 95.0700559,109.193608 95.0208659,111 C91.9907619,110.227266 89.314826,108.591478 86.501158,107.316968 C81.8674601,105.219546 81.8772981,105.199475 82.1330861,100.081365 C81.2279902,93.5683187 83.8252221,87.4165509 84.0121441,81.0138953 C83.7563561,78.8361896 81.8969741,78.1638104 80.4704642,77.1301528 C75.6695203,73.6578663 71.6752924,69.6838042 72.2458963,62.9198703 Z" id="Path" fill="#F58720"></path>
            <path d="M97,199.784657 C96.33,199.784657 95.68,198.454362 95,199.784657 C89.25,197.738049 83.54,200.214444 77.76,199.927919 C68.61,199.467433 59.4,200.060949 50.25,199.528831 C47.1,199.344636 44.09,200.449804 41,199.784657 C40.39,195.916569 38.09,192.529434 38,188.528316 C41,185.151414 44.78,184.926287 48.8,185.867726 C49.86,186.123552 50.8,187.198021 52,186.491942 C62.64,192.068947 72.54,189.960941 82,183.42203 C86.38,183.810886 91.2,181.242393 95,185.468638 C95.6666667,190.237233 96.3333333,195.00924 97,199.784657 Z" id="Path" fill="#00B293"></path>
            <path d="M71.7462444,63 C72.73817,64.2362911 75.9520091,64.5852443 73.3234061,67.3170489 C72.1826917,68.5034895 73.6309031,69.3609172 74.3153318,70.1286142 C76.9814248,73.217488 80.1145639,75.8653692 83.5997557,77.9750748 C84.2345881,78.3240279 85.8117498,78.5633101 84.4825695,79.9690927 C83.1434699,82.9601196 81.8440473,85.9511466 80.5843018,88.9421735 C79.9097923,90.5473579 79.5328606,92.4815553 77.4299782,93 C70.9923809,89.0817547 65.0606656,84.445663 59,80.0388833 C59.7935405,78.4037886 60.7061121,76.8185444 61.3409445,75.1236291 C63.2999644,69.9884234 66.979786,65.7009168 71.7462444,63 L71.7462444,63 Z" id="Path" fill="#F79325"></path>
            <path d="M52,185.999027 C51.5056375,186.93811 50.3682913,187.329979 49.4026526,186.893934 C45.3211067,184.963347 41.6808089,186.712942 37.9602843,188 C35.2726816,180.13688 34.2798731,171.911774 33.0564121,163.757055 C32.7555611,161.746027 31.1409938,159.785274 32.6051356,157 C36.9574474,168.432695 41.2495891,179.45313 52,185.999027 Z" id="Path" fill="#00B090"></path>
            <path d="M63.1461817,125.982063 C60.8438512,122.400224 62.7641807,118.505605 62.5163963,114.641256 L64.5812667,118.495516 C68.5871153,116.336323 70.4454986,111.735426 76,110 C73.418912,116.41704 72.0457732,122.400224 69.371766,128 C67.4294542,126.985444 65.3239129,126.302962 63.1461817,125.982063 L63.1461817,125.982063 Z" id="Path" fill="#00B396"></path>
            <path d="M95,185 C91.1966128,184.164163 87.2844231,183.938138 83.41,184.330394 C82.12,184.450323 82.09,183.840682 82,183.001176 C85.338912,180.295778 88.0655952,176.913272 90,173.077014 C90.92,171.348031 91.36,169.319224 93,168 C92.6,171.997648 93.53,175.845385 94.45,179.643151 C94.8153112,181.405401 94.9996005,183.200328 95,185 Z" id="Path" fill="#00B090"></path>
            <path d="M63.0161599,126.033403 C66.8258714,124.33234 67.514013,124.559807 69,128.011384 L65.9482415,147 C64.5021468,139.978168 62.8166985,133.124464 63.0161599,126.033403 Z" id="Path" fill="#00B193"></path>
            <path d="M78,93.0903055 C79.5183884,89.5159823 81.0367768,85.9217464 82.5855329,82.3673359 C83.0815398,81.2522267 83.3143593,79.7089952 85.1971609,80.0475105 C85.4805934,80.6349341 86.0980714,81.2820957 85.9867229,81.7799123 C84.6707863,87.8333622 84.2253924,94.0560697 82.3425908,100 C81.6784638,97.3013587 80.1573582,94.8810581 78,93.0903055 L78,93.0903055 Z" id="Path" fill="#271C12"></path>
            <path d="M96.4508179,80 C98.7190791,73.8645374 96.193286,68.8590308 92.4392641,64.3292952 C90.2700536,61.7125551 87.6055895,59.5022026 85.2481827,57.0143172 C83.9704285,55.6662996 82.1181802,54.3975771 83.475175,52.05837 C84.9114102,50.0759912 85.4561891,48.1828194 84.2576756,45.7643172 C82.7421997,42.7114537 83.5346054,39.589207 85.1194167,36.7940529 C87.5857794,32.4328194 91.6765737,31.8381057 94.6282848,35.8028634 C96.609299,38.5187225 98.144585,37.9636564 100.24446,36.5462555 C103.80038,34.1475771 105.464432,30.7676211 105.196995,26 C109.539185,28.2763384 114.640287,28.6111263 119.242386,26.9218062 C121.342261,26.1387665 121.90685,27.0506608 121.966281,28.904185 C122.060396,30.5625064 121.957322,32.2261448 121.659223,33.8601322 C120.208637,40.2901321 119.946788,46.9315711 120.886628,53.4559471 C121.877135,59.4030837 121.193685,59.2147577 116.766118,59.6508811 C114.87425,59.839207 114.369091,61.1376652 113.675736,62.4162996 C111.88802,65.754816 109.770998,68.9059719 107.356301,71.8226872 C104.335254,75.3215859 100.977435,78.4438326 96.4508179,80 Z" id="Path" fill="#F79325"></path>
            <path d="M160.151557,131.132927 C163.795893,134.333393 163.795893,134.333393 167.844087,131 C168.622956,134.067539 166.315197,135.417257 164.651687,136.593147 C162.565088,138.065565 161.526597,135.130953 159.968859,134.292492 C158.23804,133.33133 159.161143,132.145215 160.151557,131.132927 Z" id="Path" fill="#3A9CD4"></path>
            <path d="M76.9969053,57.3171073 C76.8157564,57.7257161 76.6225308,58.2673604 75.9220883,57.849249 C75.4926283,57.5888093 75.1830606,57.2251003 75.0404969,56.8134731 C74.9506382,56.6019219 75.0127163,56.3686835 75.2029038,56.2032809 C75.3930913,56.0378782 75.6818391,55.9660097 75.9583181,56.0152604 C76.9244457,56.0912807 77.0210585,56.6994427 76.9969053,57.3171073 Z" id="Path" fill="#CC6E28"></path>
            <path d="M111,39.1645561 C111.227983,38.0953602 112.181369,38.0757419 112.948222,38.1149785 C114.678824,38.2130698 116.730675,37.3302475 117.93277,39.2920749 C118.079878,39.7249431 117.982065,40.1989824 117.673698,40.5476444 C116.005273,41.7639774 114.564832,40.1454698 112.948222,40.1160424 C112.212458,40.0669967 111.227983,40.2435612 111,39.1645561 Z" id="Path" fill="#331F0F"></path>
            <path d="M102,62 C104.584759,62.9314358 105.732504,65.4152646 108,65.8058667 C104.911353,66.2565614 104.911353,66.2565614 102,62 Z" id="Path" fill="#DE7026"></path>
            <path d="M111.063883,47.960584 C110.440317,48.1127809 110.159713,47.8003767 110.024607,47.4318999 C109.906152,46.9163794 110.222785,46.3993797 110.814457,46.1422311 C110.989415,46.011573 111.244022,45.9665869 111.475349,46.0254592 C111.706677,46.0843315 111.87647,46.2373265 111.916089,46.4225939 C112.103158,47.0474024 112.040802,47.6802212 111.063883,47.960584 Z" id="Path" fill="#432711"></path>
        </g>
        <g id="Group-4" transform="translate(461.000000, 62.000000)" fill-rule="nonzero">
            <path d="M41.3069437,237.601156 C39.537543,236.218892 40.2211751,234.255676 40.2010683,232.522838 C40.1005341,217.968997 40.0603205,203.40514 40,188.8513 C40.5227775,186.938166 42.2519645,187.048347 43.6493889,186.848019 C64.5102211,183.843096 84.4461392,177.622907 103.839173,169.539666 C105.375037,168.874815 106.979909,168.381017 108.624598,168.067254 C111.11199,167.855687 113.495343,166.976469 115.521239,165.523087 C119.803993,164.351167 123.65445,161.566606 128.389608,162.05741 C130.40029,163.920461 130.028314,166.334416 129.857406,168.688271 C128.852065,186.717805 125.966735,204.747339 128.118166,222.89707 C128.731424,228.065536 127.786403,232.913477 123.091459,236.238925 C114.666699,241.447457 105.236597,242.969951 95.4144129,242.929885 C88.0854748,242.929885 80.76659,242.799672 73.4477053,243 C64.2715576,242.705834 55.1322636,241.701164 46.1124752,239.995078 C44.2825622,239.769522 42.5860024,238.924365 41.3069437,237.601156 Z" id="Path" fill="#2AC1F1"></path>
            <path d="M8.75163445,151.18648 C8.05040786,150.182635 6.67800724,149.650597 7.06869063,147.873792 C11.2459976,128.74051 17.82751,110.831919 31.912147,96.476938 C40.7976897,87.4423348 52.2377006,83.5474169 63.9682198,80.0741139 C65.8850567,79.6154182 67.8243951,79.2568964 69.7783829,79 C72.3629038,81.4594198 88.9218689,78.0463474 91.9371432,79.6826145 C94.0985124,81.1426522 99.2026278,82.6613358 101.503406,83.1397776 C105.896328,84.0532764 113.38183,86.8873976 117.302767,88.3744145 C121.223704,89.8614313 128.383698,95.489099 131.222262,98.5868984 C134.060826,101.684698 138.151139,107.066047 137.5,109.174121 C136.578388,111.302272 136.885768,112.006417 135.673647,114.074337 C132.197567,117.246487 139.961147,119.665753 138.89929,124.956015 C137.406679,132.344313 127.459279,137.152729 134.060826,141.188185 C134.614954,141.524043 128.819339,151.400189 116.944556,154.67413 C102.199949,158.739296 80.5621565,156.459571 79.2249069,158.183278 C70.890328,160.793274 62.1951182,161.034197 53.6201188,161.937657 C49.2324438,162.389388 44.7746462,163.995539 40.3268661,162.088234 C38.7140449,161.084389 38.5938347,159.337699 38.3233616,157.721509 C37.9927833,155.71382 36.7305754,154.960936 34.8773337,154.810359 C29.2757332,155.141627 23.6595136,155.141627 18.0579131,154.810359 C14.6619729,154.629667 11.0957348,154.368668 8.75163445,151.18648 Z" id="Path" fill="#4DB8E9"></path>
            <path d="M41.1164173,238 C51.7083116,239.863606 62.3891614,241.192129 73.1174985,241.980409 C79.2584095,242.76654 85.4395229,242.368499 91.5804339,242.249087 C94.9574324,242.179429 95.9423903,243.383503 95.9926432,246.478271 C96.0931492,252.946436 95.138343,259.334992 94.6860664,265.753401 C93.9322721,276.460701 92.8367577,287.138148 92.2940258,297.855399 C92.3471535,299.026733 91.9235574,300.170224 91.1181067,301.029775 C89.9807075,301.741625 88.63976,302.066553 87.2988822,301.95522 C74.112507,302.014927 60.9294821,302.014927 47.7498073,301.95522 C46.5773192,302.010516 45.4094908,301.774475 44.3527076,301.2686 C41.5083904,297.656379 43.5486603,293.476949 42.9858272,289.596051 C39.7696382,283.794605 39.2972604,277.396097 39.0660968,270.987639 C38.6741238,259.922102 40.1113583,248.966027 41.1164173,238 Z" id="Path" fill="#0D1417"></path>
            <path d="M8.89407223,151 C17.6682106,154.078043 26.8411734,153.125554 35.8147239,153.306025 C36.7419908,156.103335 34.8176628,157.867945 33.7408367,159.863159 C35.6053411,159.933342 37.9085524,159.261587 39.7232037,160.996119 C48.6967543,161.206669 57.5406869,159.532294 66.4444432,158.690094 C70.891336,158.268993 75.308317,157.456871 79.7352687,156.825221 C87.2798206,154.884648 94.8228015,153.36482 100.13514,152.965135 C103.425442,153.967754 107.662952,153.336104 108.709866,158.088522 C109.108691,161.617743 111.401932,165.10686 108.709866,168.676186 C90.6830003,176.346227 72.3370747,182.98357 53.043941,186.643132 C48.6469012,187.475307 44.209979,188.006695 39.7830274,188.648372 C32.0457096,189.443711 24.229889,188.887414 16.68112,187.004076 C4.95568059,183.845823 2.66243989,179.985737 4.62665041,167.793881 C5.48241366,162.065558 6.91216393,156.438963 8.89407223,151 Z" id="Path" fill="#894B20"></path>
            <path d="M90.9347897,300.327871 C89.7551324,293.596551 90.8948014,287.8743 91.6345864,281.233266 C92.1944238,276.297634 92.4043628,271.311842 92.7142728,266.406305 C93.1941334,258.85238 94.7736745,251.358645 93.9239214,243.333226 C88.6254606,243.333226 83.1670464,243.383385 77.7086321,243.333226 C76.129091,243.333226 74.359605,243.965228 73,242.500589 C80.5977928,242.500589 88.1955855,242.610939 95.7933783,242.330049 C104.91073,241.988969 113.868127,240.714933 121.975772,236 C124.205124,238.568134 123.63529,242.019064 124.664991,244.93831 C125.198268,247.008491 126.051721,248.981965 127.194256,250.786834 C129.713524,249.442576 128.683823,243.600407 131.842905,243.179073 C132.392746,261.627504 133.252496,281.106993 132.882603,299.575488 C131.183097,301.391239 128.883765,300.989968 126.884346,301 C115.497654,301.050159 104.100965,301 92.7142728,301 C92.0595054,300.999952 91.4270778,300.761078 90.9347897,300.327871 Z" id="Path" fill="#0C1F2A"></path>
            <path d="M110.598536,27.7257248 C109.261521,26.1148477 109.95516,24.179769 109.774211,22.3966597 C109.392206,18.4758457 108.608092,17.3310085 104.818207,16.7028677 C97.7812836,15.6086871 90.7443608,14.8184455 83.5566467,16.3178782 C81.1640929,16.8244434 80.4704533,17.6957354 80.6614555,19.8840967 C81.0116154,23.2508246 80.1206616,26.6297291 78.1583215,29.3771271 C77.0525194,30.9880042 75.3536051,32.5482248 73.5943744,31.6870641 C70.0036988,29.9180846 67.665494,31.0535867 65.6015634,33.198908 C65.0767943,33.7443713 65.8178679,38.3792216 65.3124821,39.0241055 C65.1099648,38.1886091 63.6697999,33.3290072 63.4902987,32.4932126 C62.1461464,26.2345644 61.5058239,19.9591959 62.445878,13.5419014 C63.280256,7.82784676 65.9844449,3.8867701 71.664247,2.30628692 C82.9833672,-0.842742454 94.9473855,-0.765585618 106.225591,2.52917557 C110.890066,3.83611359 111.744549,5.30515245 111.915446,10.147915 C112.201977,16.0395584 111.759605,21.9442356 110.598536,27.7257248 Z" id="Path" fill="#130F0E"></path>
            <path d="M71.5685893,57.7125701 C70.2667963,52.8332023 69.2333117,47.8536422 66.4508533,43.5353517 C64.7118168,40.8401773 64.7118168,37.5 65,34.8887514 C65.8645496,31.1014804 68.1402031,29.3881911 72.0753943,29.468345 C77.04407,29.5785565 78.6042342,28.0957097 79.5681573,23.0259765 C80.9991359,15.4614536 81.794124,14.7100109 89.3067617,14.1389145 C94.2348401,13.7800659 99.1884793,14.1173014 104.023979,15.1408381 C110.185137,16.4032618 111.327933,17.9362048 110.761504,24.2583425 C110.556384,25.4060511 110.638355,26.5872153 111,27.6949403 C109.946641,33.5662123 110.542882,39.5877729 109.390149,45.4690642 C107.313243,56.0393577 104.123353,65.747997 92.8345215,69.9961529 C92.2382804,70.2265953 91.9500972,71.2986535 91.5227911,72 C87.9254699,71.0782303 84.0697775,71.3988459 80.7308274,69.2547295 C76.3484554,66.4393243 72.6517606,63.1730535 71.5685893,57.7125701 Z" id="Path" fill="#894B20"></path>
            <path d="M131.883039,243.693258 C129.932439,246.356602 130.182516,250.067329 127.451676,253 C123.948676,247.481409 122.060555,241.09704 122,234.566068 C126.00123,231.184518 126.251307,226.765561 125.781163,221.957577 C124.070637,204.760553 126.321329,187.653305 127.371652,170.526107 C127.505202,169.715459 127.719666,168.920151 128.011849,168.15204 C133.013387,165.857774 138.014924,163.473732 143.816708,164.102161 C147.3678,186.975 142.426281,208.790482 135.634192,230.386512 C134.263771,234.785519 132.553245,239.09475 131.883039,243.693258 Z" id="Path" fill="#894B20"></path>
            <path d="M143.478927,163.949112 C138.369869,165.593465 133.487224,168.124772 127.92534,167.995217 C127.482358,165.942267 128.75224,163.630208 127,161.776574 C127.157505,158.168963 130.297754,157.232181 132.571728,155.617725 C133.181041,155.15493 133.954274,154.972339 134.702963,155.114454 C135.451652,155.256569 136.107025,155.710337 136.509345,156.365158 C137.493749,157.760367 136.558565,158.816739 135.682445,159.823282 C135.006096,160.394597 134.521197,161.164015 134.294435,162.025718 C138.094236,160.221913 141.470742,158.627389 142.041697,154.391935 C142.671715,149.997029 140.702907,146.578768 136.942483,144.017564 C134.422408,142.233691 130.967149,142.16393 129.067249,139.373514 C128.555359,134.75936 129.421634,130.205002 129.687424,125.630712 C130.986837,121.096284 130.081185,116.093466 132.640636,111.798217 C133.62504,110.133933 134.127087,108.140778 135.928546,107.044543 C136.912951,106.835262 137.385465,107.383379 137.611878,108.270333 C144.945689,124.115914 147.45592,140.93814 147.997342,158.268621 C148.105627,161.955958 144.876781,162.005786 143.478927,163.949112 Z" id="Path" fill="#3EB6F1"></path>
            <path d="M90.9352493,299.450741 L91.993418,299.546778 L92.7321396,299.824217 C93.233803,300.01877 93.7575405,300.140785 94.2894446,300.187023 C106.43842,300.293731 118.587395,300.325743 130.736371,300.187023 C131.272445,300.133965 131.799514,300.004779 132.303658,299.802876 L133.072328,299.568119 C136.745971,300.379097 164.469527,299.792205 168.173117,299.909583 C170.169662,299.909583 171.367589,300.507146 170.898401,302.940079 C169.131459,304.359289 167.065035,303.94313 165.108421,303.94313 C114.695664,303.94313 56.2862344,303.94313 5.88013239,303.94313 C3.88358756,303.94313 1.88704272,304.36996 0.100135094,302.876054 C-0.0962742968,301.859849 -0.00236641873,300.803997 0.369668647,299.845559 C1.63747462,298.575739 3.20476231,299.16263 4.63229187,299.151959 C22.4514545,299.034581 24.2805999,299.290679 42.1097453,299.002569 C42.7708936,298.975059 43.4235606,299.169058 43.9765147,299.557448 C46.2326104,300.411109 48.5585851,299.962937 50.8546117,299.973608 C62.2548827,300.026962 73.645171,299.973608 85.045442,299.973608 C87.0120387,299.994949 89.0085835,300.208365 90.9352493,299.450741 Z" id="Path" fill="#3393D1"></path>
            <path d="M91,80.3482303 C90.303264,83.6085318 87.4868802,83.8116658 85.1611557,84.4109113 C83.142649,84.782826 81.0976918,84.9798717 79.0475423,85 C76.9278946,84.4413814 74.8082469,83.8624493 72.678786,83.3241441 C70.5493252,82.7858389 69.9114682,81.485781 70.0096001,79.4544405 C70.5296988,74.0612315 70.1567978,68.5867689 71.1969953,63.2037166 C72.6591597,62.5943145 73.7876758,63.4576342 74.60217,64.4022075 C78.2865131,68.6419527 83.3177445,71.3735612 88.7822205,72.1009879 C89.5578763,72.320612 90.2604729,72.7562243 90.8135495,73.360419 C90.8789707,75.6829183 90.9411209,78.0121887 91,80.3482303 Z" id="Path" fill="#894B20"></path>
            <path d="M90.8134118,72.9981312 C84.5283339,73.068123 79.0288908,71.1783438 74.7766429,66.2689173 C73.8175661,64.9302548 72.5888057,63.8155304 71.1725436,62.9992992 C70.9106505,61.0054612 70.9470724,58.9827243 71.2805684,57 C72.2626118,58.4798271 73.2446552,59.9996496 74.3445438,61.4294826 C78.0664883,66.4288986 83.0061667,69.3685552 89.1832197,69.618526 C90.6562848,69.678519 90.7152074,70.3284431 91,71.2383368 L90.8134118,72.9981312 Z" id="Path" fill="#6C3214"></path>
            <path d="M43.8712326,299.632287 C38.4231144,300.274898 32.9650179,299.8757 27.5069214,299.895173 C13.1083232,299.963329 14.6997468,299.895173 0.291170312,299.895173 C-0.706653542,297.947868 1.13932059,298.794946 1.64821075,298.785209 C7.46552382,298.717053 13.2828369,298.785209 19.10015,298.785209 C30.7247979,298.785209 26.359424,298.69758 38.0239848,298.843628 C41.0174564,298.843628 42.1749321,298.006287 42.0152803,294.949018 C41.9254761,293.001712 41.0174564,290.713629 42.9632129,289 C44.9887953,292.398048 43.3224295,296.097928 43.8712326,299.632287 Z" id="Path" fill="#D8EFF6"></path>
            <path d="M130.092395,140.041609 C139.762314,141.502644 144.220007,147.336777 143.991662,153.971478 C143.812957,158.444647 136.992388,164.599007 132.772968,164.088646 C132.117717,164.008589 131.383041,163.818454 131.323473,163.00788 C131.295703,162.531121 131.464559,162.063977 131.790091,161.716966 C133.448075,160.366008 135.175555,159.105115 137.091669,157.64408 C135.671958,155.862818 134.39124,155.322435 132.643903,156.993619 C130.896567,158.664803 129.000309,160.32598 127.183477,161.997164 C123.614793,164.223362 119.586174,165.592904 115.408811,166 C112.152411,163.438185 112.728238,159.545427 112.003491,156.112995 C111.924066,154.061542 113.214713,152.680563 114.376294,151.24955 C114.739091,150.712437 115.133616,150.19781 115.557732,149.708458 C115.961624,149.214337 116.392507,148.743274 116.848378,148.297458 C117.910679,147.246714 118.92334,146.135927 119.945929,145.035147 C122.924344,142.463325 125.74391,139.621311 130.092395,140.041609 Z" id="Path" fill="#894B20"></path>
            <path d="M112.581335,155.354434 C113.380724,158.923056 114.186946,162.491678 115,166.0603 C113.91365,169.240456 111.402748,169.279961 108.63563,168.736766 C109.209551,165.210942 107.241823,161.951776 107.508286,158.465456 C106.924117,156.42107 106.278456,154.337179 109.086568,153.270543 C111.177279,152.470566 112.140645,153.527326 112.581335,155.354434 Z" id="Path" fill="#0A3046"></path>
            <path d="M39.9061556,160.615082 C37.62759,161.023004 35.3023579,161.107228 33,160.865236 C33.2805021,157.97885 35.4277942,155.852546 36.0758508,153.235557 C38.8228371,152.542824 40.3124001,153.312527 39.9448456,156.420202 C39.8481207,157.844152 39.9255006,159.210375 39.9061556,160.615082 Z" id="Path" fill="#C8E6F1"></path>
            <path d="M100,154.036896 L100.914453,153.156206 C105.496443,152.33173 109.874142,150.045684 114.738251,151.441671 C114.932815,152.13498 115.428954,153.01567 114.174014,153.174944 C112.919074,153.334218 112.66614,154.111848 112.510489,155.048752 C109.232079,152.996932 108.171703,153.643396 107.64638,158 C106.731927,156.069978 105.78829,154.252384 102.94765,155.039383 C101.838633,155.376669 100.972822,154.421026 100,154.036896 Z" id="Path" fill="#283A42"></path>
            <path d="M83,53 C88.4328358,54.0219548 93.4676617,54.7475428 99,54.0219548 C97.5472637,57.9462614 94.840796,59.131729 91.8059701,58.9886553 C88.1940299,58.814923 84.6616915,57.8747245 83,53 Z" id="Path" fill="#F8F5F2"></path>
            <path d="M98.3586537,35 C97.9548273,40.1315789 101.589265,46.2105263 95,50 C98.4866962,46.9802632 98.3980514,43.3684211 97.1176262,39.3322368 C96.694101,38.0098684 96.5365102,36.1940789 98.3586537,35 Z" id="Path" fill="#673915"></path>
            <path d="M83,30.6900436 C85.1169935,28.4567184 87.310275,29.0799719 89.4368045,29.0799719 C90.247365,29.0799719 91.0960696,29.4123738 90.9911736,30.5134551 C90.9553433,30.9528061 90.7576671,31.357612 90.4432365,31.6355334 C90.1288059,31.9134549 89.7244381,32.0407885 89.3223724,31.9884885 C87.1958429,31.6664741 85.1074575,31.1574838 83,30.6900436 Z" id="Path" fill="#1C120C"></path>
            <path d="M108,32.3239697 C106.019856,32.5486861 104.208024,32.7520009 102.366489,32.9981188 C101.678458,33.0363825 101.082807,32.4865813 101.01009,31.7461277 C100.968206,31.396577 101.05779,31.0434745 101.258779,30.7659029 C101.459768,30.4883312 101.755365,30.3094852 102.079368,30.2694202 C104.257527,29.8841921 106.48519,29.4882633 108,32.3239697 Z" id="Path" fill="#160F0D"></path>
            <path d="M103.87808,38.9993067 C103.312076,38.8245889 102.936305,38.0991714 103.008974,37.3215159 C103.035334,36.934934 103.175048,36.5786079 103.397033,36.331816 C103.619017,36.0850242 103.904858,35.9682383 104.190958,36.0074419 C104.955771,36.0074419 105.007918,36.9226006 104.999227,37.6852328 C104.990535,38.447865 104.555983,39.0227723 103.87808,38.9993067 Z" id="Path" fill="#25160C"></path>
            <path d="M86.8780801,38.9993067 C86.3120755,38.8245889 85.9363049,38.0991714 86.0089744,37.3215159 C86.0353338,36.934934 86.1750481,36.5786079 86.3970326,36.331816 C86.619017,36.0850242 86.9048577,35.9682383 87.1909582,36.0074419 C87.9557712,36.0074419 88.0079176,36.9226006 87.9992265,37.6852328 C87.9905355,38.447865 87.5559826,39.0227723 86.8780801,38.9993067 Z" id="Path" fill="#25160C"></path>
            <path d="M114.135813,149.188004 L115.137817,150.312483 L114.376294,151.24955 C109.566675,151.324515 105.107757,153.957671 100.137817,152.964381 C100.137817,152.177245 100.137817,151.446334 101.240022,151.277662 C105.538619,150.528009 109.837216,149.834579 114.135813,149.188004 Z" id="Path" fill="#5D696E"></path>
        </g>
        <g id="Group" transform="translate(220.000000, 158.000000)" fill-rule="nonzero">
            <path d="M74.2400661,19.7413807 C81.8057234,4.43833323 101.668069,-3.85248229 117.78751,1.76129882 C129.026204,5.66697215 134.63557,14.0476881 136.152694,25.5049958 C136.492598,29.1434966 137.594473,32.6695473 139.386564,35.8535318 C141.449206,39.5619965 145.317624,41.9023508 149.557282,42.0067153 C152.041616,42.1178869 154.515767,42.3948629 156.963242,42.8357969 C163.401038,44.0544469 167.183867,48.89908 165.2675,55.0422747 C162.412911,64.1721607 165.896307,70.0256762 173.252362,74.6505528 C181.237225,79.64502 186.646969,86.4374954 187.76485,96.1067838 C188.573317,103.099038 187.425493,109.621812 182.3052,114.935925 C179.191104,115.45535 167.787559,127.258052 166.5,125.5 C154.073558,108.938347 136.720718,107.724766 116,103 C113.055582,102.330741 114.856955,77.9909521 119,76 C118.311306,73.9223017 120.801796,72.492943 121.85979,71.0645254 C123.927107,68.2438686 125.668276,65.1977757 127.049951,61.984584 C128.61698,58.4285234 130.423555,55.2220755 133.896971,53.0544767 C136.242524,51.5861034 137.280556,48.9889805 137.579989,46.2320346 C137.809553,44.2342477 137.709743,42.1465604 135.943092,40.7481096 C134.176441,39.3496588 132.419771,40.3685301 130.952553,41.3874014 C128.33751,43.1554428 126.281408,42.2963944 124.295173,40.388508 C121.511064,37.5169734 119.157667,34.2566347 117.308419,30.7092306 C115.960973,28.3018974 114.663433,28.1720413 112.647255,29.8701601 C103.664285,37.491717 92.9545878,39.8590945 81.4563856,39.3296809 C77.5837273,39.1498801 73.8208608,39.4395592 70.3474456,41.3274678 C69.8465734,41.3556592 69.3571371,41.1706155 69,40.8180321 C69.3508926,33.5168788 71.1312793,26.355788 74.2400661,19.7413807 Z" id="Path" fill="#161111"></path>
            <path d="M69.0730771,41 L70.4321381,41.1196013 C72.0710057,42.4451827 71.7612198,44.3887043 71.991061,46.10299 C72.3907848,49.192691 73.5999493,51.8837209 76.2281335,53.6179402 C78.8981639,55.3382011 80.7688316,58.0507016 81.4245431,61.1528239 C82.6137215,66.2059801 87.2305316,69.5946844 88,74.8272425 C92.769207,78 102.956895,80.7740864 99.349387,82 C92.6407383,84.2776943 96.1376756,100.610007 91,106 C83.5255329,113.841548 67.9808143,111.711112 60.9214166,119 C58.4731082,121.521595 47.9431248,124.732795 45.4715624,124.552034 C43,124.371274 33.6835605,118.495001 33.077947,119 C22.0389074,114.468439 17.9883727,106.372093 20.9263428,94.7109635 C22.6442454,87.5835681 26.4747507,81.1374824 31.9187479,76.2126246 C35.4363175,73.0332226 36.9152957,69.4451827 36.4356271,64.7807309 C36.1658135,62.3289037 35.8160551,59.7275748 36.8253578,57.4053156 C38.2358408,53.9493488 41.3845825,51.5038238 45.0896478,50.986711 C47.5655379,50.6874156 50.068607,50.6874156 52.5444971,50.986711 C60.4390425,51.5647841 65.9052658,48.1860465 69.0730771,41 Z" id="Path" fill="#161111"></path>
            <path d="M12.6292086,203.780851 C7.52666688,195.446565 8.58886915,186.623787 11.0507959,177.860824 C16.0739207,160.095636 25.5146156,144.653282 36.6925573,130.197882 C37.7845409,128.78225 38.5588566,127.037633 40.2464677,126.150371 C40.593917,125.980893 41.0207833,125.921078 41.1200546,126.150371 C45.636896,135.960104 50.5508224,145.570452 55.722854,155.06117 C55.982924,155.670291 56.0622112,156.341898 55.9511779,156.995202 C54.9584655,160.414652 51.7817858,161.451453 49.1411708,162.976747 C39.5019334,168.748938 30.4086877,175.209006 23.2710856,184.051723 C19.1016935,189.20582 16.3220988,194.848411 17.7714589,201.81691 C18.1355116,202.778607 17.8046013,203.865808 16.9673618,204.458759 C15.3492406,205.216421 13.8403178,205.336052 12.6292086,203.780851 Z" id="Path" fill="#FFDF68"></path>
            <path d="M175.303033,130.715586 C182.152496,140.515131 188.831225,150.424003 193.862869,161.296927 C198.251748,170.778435 202.188682,180.389146 202.90175,191.023542 C203.203046,195.585399 202.90175,199.89879 200.712332,203.943836 C199.708012,205.166294 198.422482,205.166294 197.046563,204.748869 C195.957435,204.227554 195.289041,203.112111 195.349262,201.916343 C195.268917,189.284271 186.912973,181.661298 178.346123,174.088018 C173.605732,169.903831 168.302921,166.514738 163.37171,162.549202 C162.859506,161.19754 162.61847,159.567596 160.489311,159.965143 C158.269763,159.587473 156.421814,158.782439 156,156.27789 C160.891039,148.048657 166.16372,140.057952 171.476573,132.087124 C172.031313,131.050977 173.000864,130.293507 174.148065,130 C174.63695,130.009489 175.080863,130.284525 175.303033,130.715586 Z" id="Path" fill="#FFDF68"></path>
            <path d="M195.920611,203.723809 L200.247249,203.803016 L218.735615,203.931728 C219.897397,203.931728 221.069195,203.931728 222.230977,203.931728 C223.112329,203.931728 223.913559,204.208954 223.993682,205.23865 C224.073805,206.268346 223.382744,206.684185 222.4413,206.733689 C221.499856,206.783194 220.438227,206.793095 219.43669,206.793095 C147.77341,206.839299 76.1201443,206.829398 4.47689434,206.763392 C2.89446655,206.763392 -0.00998953146,207.852493 2.58343289e-05,205.357461 C0.0100412001,202.862429 2.89446655,204.139648 4.50694044,203.971332 C6.98073579,203.723809 9.51462333,203.803016 11.9884187,203.73371 L16.7957943,203.73371 C20.020742,201.238678 23.8065503,202.33768 27.3820359,202.169364 C30.2078537,202.001016 33.041929,202.020863 35.8650507,202.22877 C43.8773433,202.288175 51.9897896,201.80303 60.0421437,202.357482 C75.1553307,201.743625 90.278533,202.109959 105.39172,202.11986 C121.836951,202.11986 138.292197,201.733724 154.727412,202.347581 C161.155702,201.996082 167.598731,201.996082 174.027022,202.347581 C179.805888,201.852535 185.584754,202.139662 191.36362,202.189166 C193.02912,202.077498 194.670433,202.630237 195.920611,203.723809 L195.920611,203.723809 Z" id="Path" fill="#2C91CF"></path>
            <path d="M40.2464677,126.150371 L41.8838967,123.400536 C42.7167991,122.063305 42.5528141,121.696331 44,120.812376 C47.475321,123.383662 47.5488707,128.151387 50.0498965,131.295186 C51.9382212,137.743487 55.694782,143.348086 58.2460292,149.495065 C59.0696602,151.503882 60.4859037,153.291728 59.8330255,155.642044 C59.4800216,156.671901 58.3708821,157.233141 57.3319997,156.907599 C54.2082285,154.024947 52.4806123,150.198151 50.8534389,146.451708 C47.7497563,139.2501 42.8780691,133.452419 40.2464677,126.150371 Z" id="Path" fill="#FFE588"></path>
            <path d="M40.9183793,126 C44.8214915,129.328593 46.1691133,134.173764 48.1456254,138.52654 C50.6911333,144.120152 53.725778,149.438022 56.5208456,154.883916 C56.7540165,155.487037 56.9148287,156.115011 57,156.755018 C56.8901938,158.094334 56.0916031,158.182965 55.0035232,157.808745 C55.153259,155.780075 53.5660599,154.539239 52.5877863,153.12114 C50.7410452,150.422813 48.9541985,147.773726 48.3053435,144.50422 C47.9815679,143.080366 47.3176044,141.753446 46.368761,140.633992 C43.2578546,136.599506 41.0836594,131.939883 40,126.984791 C40.0896613,126.510091 40.4463244,126.127637 40.9183793,126 Z" id="Path" fill="#FFE174"></path>
            <path d="M174.571998,131 C174.281103,130.918586 173.990207,130.826995 173.709701,130.725227 C171.872483,130.275774 170.34345,129.032617 169.55405,127.346537 C169.099654,126.559048 168.917435,125.648726 169.034593,124.751459 C169.54366,123.448831 170.748799,122.817871 171.798101,122.054613 C172.309438,121.68334 172.843771,121.343463 173.398027,121.036935 C174.121592,120.586422 174.909338,120.243468 175.735581,120.019258 C176.376234,119.936056 177.022658,120.124908 177.512122,120.538273 C179.776952,122.919639 179.226328,125.290828 177.397841,127.580603 C176.493987,128.761109 175.112233,129.524367 174.571998,131 Z" id="Path" fill="#D4ECF4"></path>
            <path d="M119.547454,76.1225848 C118.323591,76.3940856 117.895737,77.5705888 117.079829,78.3247576 C111.657023,84.6798861 103.51784,85.7156112 93.6075394,81.3414325 C93.0004858,80.7835544 92.4805052,80.1360115 92.0652737,79.4208161 C90.8115609,77.5404221 88.8513909,76.4644747 87.1996741,75.0466374 C83.5280866,69.9283456 80.2346031,64.5988865 78.6923373,58.3845361 C78.6125304,57.366414 78.0284071,56.4582362 77.1401215,55.9711962 C70.5233041,53.0852438 69.5083937,47.4742284 70.1750505,41.0889331 C71.687466,38.5247594 73.8068376,37.7404239 76.8217183,37.93148 C82.4197727,38.4220686 88.0568121,38.1923045 93.5975893,37.2477003 C102.021998,35.7952695 109.700978,31.4732988 115.358461,25 C116.900727,26.5787266 117.19923,28.5998988 118.134539,30.25907 C120.032453,33.7828698 122.429157,37.0078363 125.248862,39.8319852 C126.850828,41.3704894 128.104541,42.2654363 130.114461,40.1437083 C131.567176,38.5951484 133.646747,37.5996457 135.955171,38.8565936 C138.263595,40.1135415 139.009852,42.1950472 138.999902,44.6988874 C138.999902,49.7970681 137.129283,53.8896904 132.393035,56.0214741 C131.028385,56.5417228 129.99999,57.7010829 129.636857,59.1286493 C127.461853,65.4322957 124.027618,71.2166974 119.547454,76.1225848 L119.547454,76.1225848 Z" id="Path" fill="#F79325"></path>
            <path d="M54.7217277,157.694037 C55.4723867,157.505195 56.2630808,157.395866 56.7234849,156.63056 C57.5092355,156.622929 58.2476438,156.256298 58.7252421,155.636657 C59.2531462,155.001177 59.6632013,154.277644 59.9363053,153.499764 C60.3666831,152.704641 60.8471048,151.949275 61.3475441,151.193908 C62.9689674,149.464516 64.1399954,146.512623 67.3528158,148.888052 C68.463791,156.978426 74.9394756,158.429525 81.3050636,159.82099 C85.2285078,160.665808 89.2520398,159.940259 93.2255279,160.039649 C95.1171884,160.039649 97.849587,159.890564 97.9196485,162.494591 C97.98971,164.939593 95.4074432,165.158252 93.4257036,165.38685 C92.0924265,165.467239 90.7554663,165.467239 89.4221891,165.38685 C91.6341309,165.446484 93.8360638,165.267581 96.0480055,165.217886 C97.3691653,165.217886 98.8504657,165.59557 98.9905887,167.205693 C99.1307117,168.815817 97.6794377,169.352525 96.4183306,169.750086 C93.4757475,170.674416 90.4931293,169.352525 87.8408009,169.829598 C89.3170629,169.716668 90.8015186,169.773365 92.2646844,169.998562 C93.5858442,170.346428 95.7777683,170.078074 95.607619,172.125515 C95.4474784,173.904603 93.7559935,174.202774 92.094535,173.844968 C91.6011993,173.770212 91.1010174,173.75021 90.6032259,173.785334 C88.6515126,173.785334 86.6897905,173.894664 84.5379015,173.676005 C84.0674886,173.676005 84.5379015,174.282286 84.7080509,174.212713 C86.7098081,173.348017 88.9417674,174.003993 91.0836476,173.815151 C94.1663538,174.600335 93.4457212,176.021617 91.5940957,177.383265 C89.901525,178.453093 87.9118061,178.964449 85.9091052,178.844303 C81.1148967,178.913876 76.2906618,179.371072 71.6365762,177.780826 C69.5049877,176.875416 67.3228194,176.092257 65.1008389,175.435214 C59.716112,173.914542 57.4941614,178.337412 54.381429,181.070647 C49.6100168,186.331731 45.4067419,192.074705 41.84042,198.205543 C40.3691284,200.839387 38.4874766,203.17506 35.3747441,204 L16.5982614,204 C13.0251248,197.10231 16.0377694,191.22834 19.8110817,185.692298 C25.1057296,177.919973 32.7224158,172.572772 40.1889703,167.056608 C44.8430558,163.617702 50.4579848,161.689529 54.7217277,157.694037 Z" id="Path" fill="#F79325"></path>
            <path d="M195.625813,203.94038 L174.269955,204 C171.496985,202.837414 170.120475,200.432749 168.75394,197.9784 C165.402437,192.01642 161.901313,186.05444 157.133401,181.03644 C153.472681,176.495398 149.492771,172.97783 143.238627,176.743814 C137.142881,178.942115 130.499864,179.133679 124.286675,177.290329 C122.291733,176.704068 119.389091,176.535145 120.236942,173.06726 C122.760544,171.874864 125.274171,173.166626 127.817723,172.848654 C124.685663,173.047386 121.633402,172.182899 118.501342,172.341885 C115.149839,169.887537 117.314351,168.864064 119.718257,168.496408 C121.773048,168.178436 123.897661,169.042923 126.042224,168.824317 C123.139583,169.08267 120.346664,168.247992 117.434048,168.317549 C115.788221,168.317549 113.823202,167.592175 114.012722,165.555165 C114.202241,163.518155 116.077487,163.319422 117.852986,163.349232 C119.318581,163.384197 120.774944,163.590978 122.191985,163.965303 C122.082264,163.856 121.773048,163.895747 121.433907,163.746697 C119.528737,162.921957 115.688473,164.144163 116.207158,160.765707 C116.596172,158.221929 120.057397,158.887684 122.271783,158.907557 C127.04967,158.907557 131.807608,159.593185 136.565545,158.221929 C141.802269,156.711561 145.981673,154.306896 147.308309,148.583395 C151.248321,146.596068 151.757031,150.163319 153.293137,152.150646 C153.663282,152.936212 154.079618,153.699346 154.539975,154.436072 C155.090587,155.028944 155.517757,155.724669 155.796789,156.483018 C157.263072,157.546238 158.52986,158.907557 160.355232,159.414325 C161.901313,159.225529 162.350175,160.457672 162.948657,161.401652 C171.193123,166.622108 178.833529,172.73376 185.730899,179.625438 C187.920225,181.882203 189.893769,184.33722 191.625954,186.958673 C195.057254,192.115786 196.822778,197.700174 195.625813,203.94038 Z" id="Path" fill="#F79425"></path>
            <path d="M155.83519,156 C155.084165,155.85046 154.333139,155.69095 154.012701,154.853525 C153.712291,148.871918 158.819266,145.691697 161.022275,141.016073 C164.46698,137.676343 165.127882,132.861149 167.511137,128.953165 C168.342273,127.587365 168.512505,125.693189 170.795623,126.042116 C171.526622,127.597334 173.439234,128.195495 174,129.900253 C168.562574,137.098121 163.986323,144.854272 159.159731,152.460882 C158.398552,153.921817 157.248426,155.146176 155.83519,156 L155.83519,156 Z" id="Path" fill="#FDE697"></path>
            <path d="M162.938478,161 C161.775482,160.653545 160.761166,160.089054 160,159.364667 C162.509008,158.473411 163.232326,159.291077 162.938478,161 Z" id="Path" fill="#DDE5CA"></path>
            <path d="M143.900806,174.939687 C150.615182,170.644421 154.107057,175.487806 157.78849,179.822935 C158.237446,188.044732 158.307283,196.216699 154.476198,203.850513 C142.224706,203.850513 129.963238,204 117.711747,204 C98.5064362,204 79.291149,203.910308 60.0858386,203.870444 C58.7627362,202.852028 57.8750781,201.370664 57.6016192,199.724666 C56.2846837,193.127297 54.229466,186.66945 54,179.88273 C55.8866612,177.567881 58.113463,175.551851 60.6046314,173.903242 C62.1410562,172.767139 63.5976668,172.587755 65.0343238,174.032798 C68.2169181,176.02596 69.3642483,179.474132 71.0203946,182.543603 C71.4857933,183.418939 71.7739577,184.377302 71.8684212,185.363928 C71.8684212,189.718989 74.0433603,191.971263 78.3234009,192.339998 C81.7953219,194.542443 85.8359197,194.004289 89.4674693,193.894665 C101.439611,193.535895 113.51152,194.2634 125.533546,193.655485 C127.34711,193.580241 129.116055,193.07099 130.691543,192.170579 C132.589244,191.525915 134.607564,191.314769 136.5978,191.552698 C140.947678,192.00116 142.583871,189.778784 142.873197,185.832321 C143.222385,182.204765 143.232362,178.537345 143.900806,174.939687 Z" id="Path" fill="#FFDE69"></path>
            <path d="M53.99754,180 C56.5362854,182.532613 55.9655597,186.08226 56.7724477,189.153303 C58.100861,194.029082 58.9471095,199.044454 60,204 L36,204 C38.8994039,200.86711 41.4350051,197.407908 43.5571956,193.690071 C46.4900392,188.723896 49.9947103,184.128339 53.99754,180 L53.99754,180 Z" id="Path" fill="#CDEBF7"></path>
            <path d="M155,203.77262 C155.797432,196.553881 156.594864,189.335142 157.392296,182.116403 C157.389314,181.29966 157.760828,180.524002 158.405981,180 C162.575508,184.253402 166.113579,189.050885 168.917892,194.253728 C170.750236,197.543524 172.781144,200.725313 175,203.782463 C168.319818,204.028557 161.659909,204.11715 155,203.77262 Z" id="Path" fill="#CDEBF6"></path>
            <path d="M93.2075326,82.9015748 C92.9308225,81.9065139 92.9308225,80.8552971 93.2075326,79.8602362 C96.2423363,79.761811 98.7927575,81.5433071 101.738593,81.9370079 C107.481984,82.7047244 112.325807,80.519685 117.130089,78 C117.420059,80.2834646 117.71003,82.5800525 118,84.8897638 L117.673783,87.8425197 L116.962038,88 L116.428229,87.5177165 C115.607744,85.0275591 114.075515,84.8897638 111.841425,85.8543307 C107.844869,87.4717475 103.43758,87.7920786 99.2474838,86.769685 C96.7959161,86.2185039 94.5618261,85.253937 93.2075326,82.9015748 Z" id="Path" fill="#F47C21"></path>
            <path d="M118,88.9463438 C118,89.9244061 117.937761,93.8242233 117.911087,94.7533824 C117.72204,94.9379817 117.4705,95.0253378 117.219366,94.993606 C116.968233,94.9618743 116.741249,94.8140549 116.595176,94.5871119 C115.768286,92.9537479 115.706047,88.398629 117.030849,87 L117.617674,87 C117.751044,87.6357405 117.893304,88.2910421 118,88.9463438 Z" id="Path" fill="#F69E40"></path>
            <path d="M44,120.812376 C44.0498454,120.524702 44.0996908,120.237029 44.1595053,119.949355 C44.3001289,119.515189 44.5273001,119.113701 44.8274339,118.7689 C46.8212504,116.923819 48.6854688,114.910102 50.5596563,112.916224 C51.4935968,112.143952 52.7302879,111.837221 53.9192371,112.082962 C57.9687702,113.625216 62.3996492,113.878247 66.5999101,112.807106 C70.8467393,111.596892 74.8642796,113.402294 79.1111087,113.08486 C85.9000539,112.578951 92.7986591,113.283256 99.6673569,112.658309 C102.398886,112.410315 104.871218,115.386251 107.871912,113.59077 C108.300582,113.848684 108.629562,114.52323 108.958542,114.582749 C113.624073,114.860503 118.279634,116.080637 122.915257,115.574727 C127.550881,115.068818 132.01703,112.033363 136.542993,115.773123 C137.320582,116.41791 138.616562,116.894059 139.244615,116.001278 C141.148709,113.313016 143.561227,114.235556 145.864085,114.840663 C150.848627,116.159995 155.663694,114.433952 160.568482,114.275235 C162.021248,114.528732 163.345501,115.262732 164.326826,116.358391 C165.323735,117.469407 169.418701,119.833475 169,121.5 C166.079059,125.626632 159.132934,124.641415 154.50728,123.500639 C150.908441,122.617778 147.160066,122.012671 143.371815,123.500639 C139.583563,124.988608 135.625838,123.500639 131.678081,124.492618 C127.730324,125.484597 123.702815,121.953152 119.715182,124.562057 C114.102588,121.357965 108.11117,123.341923 102.438762,123.877591 C96.0984254,124.472779 89.2297275,125.077886 83.6669795,123.639516 C76.4693019,121.784516 70.3881615,123.93711 63.8185361,124.3835 C62.3630501,124.482698 60.1399446,124.651335 59.4919543,123.808153 C56.3716314,119.741039 53.4108139,125.653234 50.4200892,123.718875 C50.1509239,123.550238 50.4200892,124.542217 50.4200892,124.968768 C50.4200892,127.101523 50.8487597,129.293796 49.0443558,131 C45.9140638,128.222459 45.684775,124.155345 44,120.812376 Z" id="Path" fill="#FDE79A"></path>
            <path d="M49,130.794965 C49.0500082,128.846509 49.2100344,126.898054 49.1300213,124.969686 C49,122.127352 48.9499918,122.087178 51.3403837,123.181928 C52.0605017,123.513367 52.5905886,123.553541 53.0906706,122.971013 C53.7007706,122.237832 53.0906706,121.89635 52.6205935,121.414258 C52.2769632,121.165311 52.068487,120.769777 52.0567215,120.344443 C52.044956,119.919109 52.2312452,119.512562 52.5605837,119.244844 C53.1506804,118.722578 53.7907854,119.154452 54.3808821,119.445716 C54.9980891,119.69019 55.5908356,119.99285 56.1511723,120.349638 C59.9353803,123.394626 65.1158649,124.010318 69.5033612,121.936524 C72.6838826,120.570597 75.7743892,121.062732 78.8448926,120.389812 C80.8452205,119.947895 81.4353173,122.127352 82.7655353,122.971013 C83.2356124,123.262277 83.6856862,123.352669 84.0757501,122.971013 C84.4658141,122.589357 84.5858337,122.117309 84.0757501,121.735652 C83.5656665,121.353996 83.0755862,120.731294 83.6956878,120.15881 C84.000898,119.85312 84.4355027,119.716311 84.8598718,119.792337 C85.2842409,119.868364 85.6449226,120.14765 85.8260371,120.540466 C86.9362191,122.950926 88.8265289,122.278006 90.8268569,122.358355 C97.6979833,122.639575 104.539105,121.293735 111.410231,122.047004 C113.410559,122.267962 112.56042,119.967982 113.650598,119.295062 C115.06083,119.747023 115.4909,121.303778 116.991146,122.006829 C118.801443,122.820359 119.991638,123.161841 121.871946,122.17757 C123.342187,121.394171 125.202492,120.219071 126.872766,122.498965 C127.532874,123.412931 128.793081,123.503323 129.943269,122.498965 C131.093458,121.494606 132.313658,121.183255 133.053779,123.10158 C133.793901,125.019904 133.953927,123.392844 134.143958,122.85049 C135.064109,120.188941 136.644368,121.133037 138.314642,121.986742 C139.224791,122.448747 140.815052,123.252234 141.125102,122.9911 C144.685686,119.34528 149.266437,122.217744 153.12707,120.922122 C153.77672,120.707507 154.477748,120.707507 155.127398,120.922122 C160.788326,123.001144 160.778324,123.021231 165.589113,119.797241 C165.709133,119.716892 165.909165,119.747023 166.079193,119.726936 C169.22971,119.274975 169.849811,121.374083 170.179866,123.744369 L171,125.753086 C168.489588,128.615507 167.609444,132.291458 165.99918,135.625928 C164.999016,137.825473 164.558944,140.466935 162.088539,141.752514 C160.148221,137.263032 163.638793,133.998868 164.698967,130.292785 C161.638465,128.515071 158.567962,128.083197 155.337432,129.94126 C154.104994,130.550593 152.647421,130.482338 151.476799,129.760475 C149.716511,128.856553 148.036235,126.7474 146.47598,130.101957 C146.185932,130.734703 144.895721,130.75479 144.135596,130.373134 C138.674701,127.601105 133.263814,129.107643 127.532874,129.418994 C121.181833,129.760475 114.2707,132.000194 107.869651,128.605463 C106.632803,128.108924 105.290594,127.936124 103.969011,128.103284 C103.158879,127.581018 103.258895,128.34433 103.098869,128.766161 C98.289784,129.243254 93.4455825,129.243254 88.6364978,128.766161 C87.9963929,128.766161 87.2262666,127.992805 86.7561895,128.233851 C80.5251681,131.518102 73.754058,126.767488 67.48303,129.639952 C65.6709057,130.605933 63.4812847,130.517674 61.7520905,129.40895 C59.8917855,128.223807 57.8414494,129.228166 55.8811281,129.147817 C53.3707165,129.057425 53.190687,130.453483 53.5307427,132.371807 C54.2408592,136.38924 56.0411543,139.984843 57.5313986,143.700969 C57.7360079,144.111788 57.9163496,144.53435 58.0714871,144.96646 C58.5315626,148.059884 61.4920479,150.349821 60.8819479,153.784726 C60.6319069,154.698693 59.8817839,154.869433 59.1216593,155 C57.1188299,149.54709 54.7047678,144.255515 51.9004755,139.171313 C50.3591896,136.614442 49.3709531,133.760492 49,130.794965 L49,130.794965 Z" id="Path" fill="#FCE8A1"></path>
            <path d="M113,64.2688809 C107.806524,68.8837072 100.487064,69.2593326 95,65.1632271 C97.3487064,64.1794463 107.897638,63.6428386 113,64.2688809 Z" id="Path" fill="#E6EFEE"></path>
            <path d="M109,41.0574316 C112.457661,39.3209068 115.764113,39.9089364 119,41.4800778 C115.643145,42.0956713 112.296371,42.389686 109,41.0574316 Z" id="Path" fill="#35200F"></path>
            <path d="M96,41.0068973 C92.7715736,42.6261054 89.3604061,41.7733864 86,41.7925486 C89.1167513,39.5122437 92.4771574,39.5888926 96,41.0068973 Z" id="Path" fill="#35200F"></path>
            <path d="M101.155298,56 C101.155298,52.4959047 101.155298,48.9918094 101.155298,45.4877141 C100.960509,44.5892745 101.241872,43.6560069 101.905298,43 L101.905298,56 L101.155298,56 Z" id="Path" fill="#F47421"></path>
            <path d="M90.4710023,48 C91.1704014,48.2705825 91.8698006,48.6088106 91.9630538,49.4431065 C92.0535818,49.7999602 91.97584,50.1772689 91.7507905,50.473296 C91.525741,50.7693232 91.1765559,50.9535885 90.7973885,50.9764072 C89.6317233,51.1229727 88.9556374,50.5818078 89.002264,49.4882036 C89.037234,48.6990047 89.7133198,48.2705825 90.4710023,48 Z" id="Path" fill="#5A3515"></path>
            <path d="M113.471002,48 C114.170401,48.2705825 114.869801,48.6088106 114.963054,49.4431065 C115.053582,49.7999602 114.97584,50.1772689 114.75079,50.473296 C114.525741,50.7693232 114.176556,50.9535885 113.797389,50.9764072 C112.631723,51.1229727 111.955637,50.5818078 112.002264,49.4882036 C112.037234,48.6990047 112.71332,48.2705825 113.471002,48 Z" id="Path" fill="#5A3515" transform="translate(113.500000, 49.500000) scale(-1, -1) translate(-113.500000, -49.500000) "></path>
            <path d="M144.438773,174.666893 C145.210391,174.956992 145.851737,175.167063 145.721464,176.347465 C145.210391,180.939027 144.719361,185.530589 144.438773,190.142158 C144.308499,192.022798 143.566943,192.743043 141.693012,192.73304 C138.215716,192.73304 134.748441,192.833074 131.271145,192.903097 C125.919917,194.64369 120.418374,193.773394 114.966936,193.843417 C104.64528,193.963458 94.3336445,193.843417 84.0119881,193.843417 C82.007783,193.843417 80.0035779,194.033482 78.1797512,192.913101 C77.5183635,192.85308 76.8569758,192.773053 76.1755461,192.743043 C71.4957272,192.562982 71.5358113,192.562982 71.03476,187.741341 C70.8243184,185.740661 70.3934143,183.810004 70.0326574,181.849337 C69.6017533,179.618578 67.6476533,177.167744 71.03476,175.507179 C77.6452141,177.550164 84.6980518,177.695756 91.387463,175.927322 C92.1390399,175.727254 93.1311214,175.587206 92.8805958,174.476828 C92.7102384,173.686559 91.788304,173.976658 91.2171055,173.71657 C90.86971,173.549846 90.7494577,173.379788 90.8563486,173.206396 C90.9632396,173.033004 91.0834919,172.942973 91.2171055,172.936304 C92.7503225,172.476148 94.5741491,172.996324 96.2276183,171.245729 C92.2192081,169.445116 88.0604825,170.48547 84.2023876,169.435113 C89.0926481,168.214698 94.4238337,169.635181 99.0735896,166.63416 C94.4138127,165.153656 89.5235522,166.083973 84.7735861,165.043619 C88.9423327,162.882884 94.0630768,164.923578 98.6126224,161.762502 C96.1875342,160.392036 94.0630768,160.93222 92.0989558,161.082271 C84.8337122,161.672472 77.9893517,160.912213 71.3955169,157.230961 C68.709882,155.73045 67.136581,154.480025 67.2668543,151.40898 C67.2444704,150.247996 67.1574874,149.089149 67.0063077,147.937799 C63.198318,144.936778 65.3929226,140.435246 64,136.814014 C64.2304836,132.292476 67.6276113,132.132421 70.8343395,132.092407 C85.0040697,131.932353 99.1737999,132.01238 113.333509,132.092407 C122.833441,132.092407 132.323353,132.002377 141.813264,132.092407 C144.298478,132.092407 146.823777,131.92235 149.118591,133.282813 C152.485656,138.354538 150.752019,143.186182 148.437162,147.987816 C148.346973,148.818098 148.22672,149.648381 148.166594,150.478663 C147.916068,153.829803 146.523146,155.630416 143.04585,157.14093 C136.788248,159.918244 129.883491,160.915267 123.093988,160.02191 C120.92527,159.742808 118.727241,159.783254 116.5703,160.141951 C120.08768,163.433071 124.947878,162.142632 128.996372,163.913234 C126.741641,165.073629 124.416763,164.393397 122.121949,164.293363 C119.827134,164.193329 117.181583,163.583122 114.105128,165.293704 C119.406251,167.934602 124.717394,167.394419 129.697844,168.384755 C126.230569,169.385096 122.683126,168.684858 119.265956,169.024973 C118.464274,169.105001 117.472193,169.275058 117.93316,170.465463 C118.063433,170.785572 118.774926,170.885606 119.215851,171.085674 C119.78705,171.715889 121.660981,170.815583 121.15993,172.726233 C119.706881,174.416808 121.480603,174.556855 122.322369,174.816944 C128.69415,176.885525 135.529396,177.069655 142.003663,175.347124 L144.438773,174.666893 Z" id="Path" fill="#8ED4F5"></path>
            <path d="M65.255102,137.734753 C67.1836735,140.965382 65.377551,144.801754 67,148.082862 C64.3265306,148.082862 63.755102,150.768323 62.0510204,152 C58.6428571,150.86928 58.8877551,147.164152 57,144.932999 L57,144.932999 C57.1938776,137.139106 58.5816327,135.92762 65.255102,137.734753 Z" id="Path" fill="#F9EAB7"></path>
            <path d="M71,175.66 C68.8630137,177.51 70.6712329,179.93 69.9726027,182 C67.7534247,179.65 66.489726,176.73 65,174 C67.091306,174.171347 69.1287727,174.735047 71,175.66 L71,175.66 Z" id="Path" fill="#FCDF79"></path>
            <path d="M57.0139684,145 C59.975369,146.41 59.6328941,150.14 62,152 L60.841629,154 C59.733622,150.88 56.7722214,148.62 57.0139684,145 Z" id="Path" fill="#FCE9A9"></path>
            <path d="M91,173.148473 L91,173.772237 C88.5258724,173.916183 86.032491,174.300038 83,173.556319 C85.6105135,172.9955 88.3265211,172.857036 91,173.148473 L91,173.148473 Z" id="Path" fill="#9BCFE2"></path>
            <path d="M65.377574,138.119447 C65.0068004,138.780849 65.487804,140.528134 63.8644168,139.639684 C60.2969735,137.66535 58.4531264,138.237907 58.5332937,141.979269 C58.56477,143.171986 58.1100372,144.32744 57.2706592,145.187562 C54.2558313,140.712602 52.4454625,135.556008 52.0096824,130.202369 C51.9194943,128.899309 52.4706442,127.833169 53.1921496,128.168806 C55.8276485,129.392892 58.2026037,127.685094 60.7378935,128.010859 C61.0485416,128.010859 61.5896707,127.78381 61.6898798,127.912142 C64.5759013,131.564659 67.7024247,128.593287 70.6485717,128.139191 C73.5947187,127.685094 76.5609075,126.727542 79.2064273,129.205331 C80.1283508,130.064166 81.0402535,129.906219 82.2126997,128.899309 C84.4874459,126.924975 86.0406866,126.924975 88.8565618,128.237907 C90.4098026,128.948667 92.333817,127.25074 93.8068905,128.879566 C95.9012603,126.174729 97.8152538,127.07305 99.9096236,128.988154 C100.427815,129.414039 101.109449,129.594801 101.774645,129.482737 C102.43984,129.370673 103.02176,128.977044 103.366837,128.405726 C104.469137,127.793682 105.110475,125.582428 106.904217,127.418559 C108.497542,129.067127 110.912581,127.645607 112.77647,128.938796 C113.417808,129.383021 115.071258,128.267522 115.552261,130.281343 C115.812805,131.357354 116.865,130.449161 116.814896,130.014808 C116.353934,126.42152 117.816986,127.872655 119.229935,129.027641 C119.560625,129.294176 120.412402,129.452122 120.632862,129.244817 C123.14811,126.924975 125.092166,128.593287 127.577351,129.570582 C130.062536,130.547878 128.168585,127.78381 129.120571,126.609082 C131.916404,127.981244 135.133116,127.764067 138.26966,127.764067 C140.514344,127.764067 143.280114,126.470879 144.282205,130.014808 C144.665067,130.43237 145.257324,130.596231 145.80489,130.436094 C146.352456,130.275956 146.758007,129.820282 146.847558,129.264561 C147.168227,127.744324 148.290568,126.816387 149.693495,125 C149.693495,127.290227 149.553203,128.761106 152.038388,129.175716 C153.631712,129.432379 154.764075,130.103653 156.327337,129.007897 C158.992898,127.161895 159.544048,127.290227 163.572453,129.402764 C164.19375,129.728529 164.19375,129.728529 166.999604,127.66535 C167.049708,133.292201 162.329861,137.063179 162.43007,142.166831 C159.934864,146.530109 156.517734,150.330701 154.503531,155 C153.591629,154.664363 153.411252,153.923988 153.38119,153.084896 C153.852172,149.461994 155.846333,146.342547 156.868466,142.887463 C157.369511,141.189536 157.680159,140.261599 155.395392,139.777887 C152.38912,139.146101 151.206653,136.24383 149.152366,134.4077 C122.703849,134.4077 96.2653533,134.4077 69.8368781,134.4077 C67.2214211,134.427443 64.6460477,134.239882 65.377574,138.119447 Z" id="Path" fill="#FCE9A9"></path>
            <path d="M148.720266,134 C150.506812,135.084567 152.932122,135.27537 153.640752,137.876321 C153.850347,138.649577 154.818475,138.699789 155.766642,138.498943 C158.132069,137.986786 159.669097,139.242072 158.71095,141.029598 C156.615002,144.946089 156.535156,149.856765 152.932122,153 C151.175519,151.483615 151.115634,148.300211 148.091481,148.039112 C147.522581,143.329281 149.838104,138.739958 148.720266,134 Z" id="Path" fill="#FAEAB5"></path>
            <path d="M120.841325,173.432314 L119,172 C122.693813,172.107533 126.372237,172.484283 130,173.126638 C130,173.414847 130,173.694323 129.923278,174 L120.841325,173.432314 Z" id="Path" fill="#B5C6C0"></path>
            <path d="M78,193 L131,193 C130.474336,194.099603 129.188991,194.779011 127.82,194.680886 C121.44,194.680886 115.06,194.680886 108.7,194.871502 C103.62,195.001467 98.58,194.412291 93.48,194.871502 C89.26,195.209412 84.96,194.784858 80.7,194.68955 C79.4887044,194.650686 78.4234138,193.984071 78,193 L78,193 Z" id="Path" fill="#FFE274"></path>
            <path d="M90.811215,93.4880644 L92.0869159,93 C95.0799065,93.159368 96.3163551,95.8487021 98.3280374,97.4324212 C100.290654,100.121755 103.960748,101.61583 104,105.679713 C100.349533,110.759566 96.6990654,111.994668 90.4873832,110.261541 C85.9242991,107.641931 83.1668224,103.846981 83,98.3687079 C84.5308411,94.9721784 87.4257009,93.8267213 90.811215,93.4880644 Z" id="Path" fill="#E7F5F8"></path>
            <path d="M97.5917039,98 L92.7220805,93.1671249 L93.2202505,89.1759008 C99.1271232,87.1079089 104.586417,87.8771801 110.605124,87.143043 C112.745552,86.8499481 114.922396,87.0083377 117,87.6083411 C117,89.407494 117,91.2066469 117,93.0057998 C117,95.8596285 115.230988,97.0073639 112.862139,97.6174215 C107.849939,96.9660041 102.705571,97.9483002 97.5917039,98 Z" id="Path" fill="#F9A34B"></path>
            <path d="M116.964769,88.0809115 C115.900257,88.8463409 115.436998,90.4409855 113.396684,89.5373535 C110.390425,88.208483 107.167321,88.9207576 104.003357,89.7180799 C100.405702,90.6323428 96.8376179,89.0164363 93.2202505,89.1759008 C92.9265832,87.0615041 92.9265832,84.911719 93.2202505,82.7973223 C101.10552,87.5281013 108.813371,86.9008744 116.4128,82 C117.339319,84.2218715 116.866203,86.1673379 116.964769,88.0809115 Z" id="Path" fill="#F69E40"></path>
            <path d="M113.712002,97.3379113 C115.250441,96.3097611 116.562601,94.9575062 117.563053,93.3691839 L118.55304,93 L124.403866,96.2406146 C124.82956,97.1635744 125.779948,97.2661255 126.522439,97.686585 C129.314203,99.4504638 127.403528,101.573271 126.799635,103.449956 C126.194691,105.419046 125.065771,107.171412 123.542577,108.505725 C120.809368,110.96172 117.253849,112.206608 113.642703,111.971952 C109.92035,111.643789 107.019687,110.290114 106,106.188071 C106.712791,101.542506 109.742152,98.999239 113.712002,97.3379113 Z" id="Path" fill="#E7F5F8"></path>
            <path d="M123.00295,107.173703 C124.399931,104.236552 127.094817,101.730182 126.163496,98 C130.582317,98 134.664277,99.5468998 138.865129,100.555322 C140.25502,101.068163 145.245668,103.208549 148,105.36246 C143.383026,110.03253 137.418609,109.278662 132.05856,108.142963 C129.551919,107.624066 127.758631,106.977893 125.489775,108.348564 C124.459377,108.965365 122.923688,109.43531 123.00295,107.173703 Z" id="Path" fill="#FCE288"></path>
            <path d="M123.183283,107.565371 C123.653238,108.346766 124.593146,108.964165 124.993107,108.009126 C125.883021,105.848229 128.072808,106.639272 129.482672,105.771055 C130.622561,105.076481 131.242501,105.433414 131.422483,106.735741 C131.542472,107.53643 132.362392,108.578291 132.992331,108.076654 C135.052131,106.455982 136.741967,106.803269 138.481798,108.395001 C140.481604,106.21481 143.481312,108.163476 145.641103,106.648919 C146.441019,106.072716 146.50929,105.11932 147.507568,105.119324 C149.452967,105.882063 150.707296,106.417653 151.270556,106.726094 C152.115446,107.188754 155.640132,109.369333 157,111.549524 C154.550379,114.337311 150.690832,115.569827 147.000971,114.742635 C139.641685,113.546424 132.092418,114.192764 124.66314,114.742635 C122.173381,114.945219 119.833608,115.263565 117.373847,114.684754 C115.134065,114.154176 112.844287,113.720067 110.694496,115.147803 C109.604601,115.880964 108.864673,115.224978 108.264732,114.347113 C106.144937,114.086648 106.194933,116.729888 104.4651,117 C102.575284,113.903358 101.225415,113.34384 98.4656829,115.070628 C97.9121412,115.600348 97.0194189,115.600348 96.4658771,115.070628 C94.9401589,114.02744 92.9109827,113.981646 91.3363751,114.954866 C90.0365013,115.697674 88.8566159,117.086822 88.1766819,114.453229 C88.1103469,114.224532 87.9193596,114.049351 87.6792667,113.996981 C87.4391737,113.944611 87.1886504,114.023487 87.0267935,114.202411 C84.6670226,116.469423 82.0272789,114.472523 79.5475197,114.742635 C78.6976022,114.839103 78.3376371,113.99018 77.8676827,114.105942 C76.4378216,114.462876 76.917775,117 75.0279585,116.768475 C73.9380643,116.614126 75.5979031,113.980533 73.0981458,114.308526 C71.1983303,114.568991 69.2585186,113.449955 67.3087079,114.443582 C63.5590719,116.372954 59.6594505,114.395348 55.8298223,114.684754 C55.2698767,114.684754 51.0756238,113.662186 50.465683,113.179843 C51.6255704,111.588111 52.4337353,110.729541 53.9552471,109.562271 C55.4767589,108.395001 62.363585,105.764412 65.1089215,106.272691 C65.9288419,106.745387 66.6087758,107.903011 67.6686729,107.430315 C72.5182021,105.269418 78.0576643,108.144182 82.8372003,105.346593 C84.6270265,104.295085 85.836909,105.87717 87.0967867,106.89009 C88.3566644,107.903011 88.8366178,110.227904 91.2763809,109.562271 C96.6758567,111.366234 100.86545,109.465802 104.405106,105.578117 C104.626818,105.361306 104.929339,105.239256 105.245025,105.239256 C105.560711,105.239256 105.863231,105.361306 106.084943,105.578117 C109.344627,110.922478 114.25415,112.282685 119.783613,109.340393 C120.933502,108.838756 121.823415,107.806542 123.183283,107.565371 Z" id="Path" fill="#FEE690"></path>
            <path d="M108,113.848276 C108.309533,113.954483 108.7289,114.244138 108.918613,114.147586 C112.812735,111.994483 113.751319,111.830345 118.344386,113.394483 C119.270753,113.601568 120.233769,113.601568 121.160136,113.394483 C126.1526,113.085517 131.224943,111.772414 136.267332,113.307586 C136.407121,113.307586 136.596835,113.24 136.726639,113.307586 C137.934815,113.771034 138.144499,109.657931 140.171439,112.737931 C140.900339,113.838621 142.877355,112.197241 144.385079,112.148966 C146.202336,112.148966 147.380558,113.462069 148.958176,113.703448 C149.597212,113.8 150.785418,113.828966 150.845328,113.645517 C151.753956,110.584828 154.839299,112.148966 156.626601,111 C157.290032,111.564835 161.436677,113.842029 161.908128,114.71099 C157.594639,114.71099 152.63263,118.627586 148.079503,115.547586 C146.971176,114.784828 146.39205,116.136552 145.523361,116.406897 C144.654672,116.677241 143.646194,117.314483 143.466466,115.566897 C143.356631,114.408276 142.90731,113.81931 141.739073,115.18069 C138.823474,118.56 137.834966,118.714483 134.749623,115.769655 C133.321778,114.408276 132.45309,113.307586 131.115109,115.518621 C130.226451,116.966897 129.247928,116.252414 128.119631,115.914483 C126.122645,115.306207 123.975885,114.388966 123.077242,117.401379 C123.007347,117.642759 122.66786,117.797241 122.458176,118 C121.26997,115.103448 117.984928,117.893793 117.275998,116.725517 C115.468726,113.771034 112.563112,115.924138 111.884137,116.252414 C108.579126,117.845517 108.309533,116.097931 108,113.848276 Z" id="Path" fill="#FDE795"></path>
            <path d="M101,126.554499 C101.188653,126.009591 101.574535,125.960054 101.994718,126.019498 C102.68073,126.12848 102.920834,126.713017 102.989435,127.396629 C103.092337,128.486444 102.4149,127.773111 102.200521,127.743388 C101.610677,127.715117 101.114393,127.223642 101,126.554499 Z" id="Path" fill="#FCE9A9"></path>
            <path d="M87.4720401,108.468055 C85.2177849,104.454649 83.994624,104.37653 80.8507973,107.862626 C79.3445909,109.522672 78.4651282,108.009101 77.4138163,107.677092 C75.5538031,107.091193 73.8642692,105.571191 72.1067133,108.009101 C69.5188688,107.276727 67.3555925,108.741474 65.030576,109.093013 C63.0088225,109.405492 59.4629415,108.423876 59.4022889,107.154429 C62.5283594,105.871032 64.2797803,105.14362 64.6565516,104.972193 C65.2217085,104.715053 71.5479602,101.793844 72.9962849,101.173617 C74.4446096,100.553391 80.1105707,98.6976986 81.083299,98.2441244 L83.9036451,98 C84.3994645,102.509242 87.0169304,106.546835 91,108.946538 C89.6252076,110.16716 88.7154185,110.694469 87.4720401,108.468055 Z" id="Path" fill="#FEE48A"></path>
            <path d="M102.048486,164.230097 C101.710736,161.817505 103.161074,159.721822 105.664397,158.311069 C107.065066,157.513687 108.197521,158.392852 109.151168,159.333354 C111.187601,161.449483 112.757145,163.770069 111.614756,166.980042 C111.386278,167.613859 111.108131,168.22723 110.82005,168.8406 C109.906139,170.803387 108.465734,172.408374 106.290228,171.907454 C104.135308,171.425138 102.503715,169.607173 102.207427,167.358288 C102.094153,166.319729 102.041079,165.275149 102.048486,164.230097 L102.048486,164.230097 Z" id="Path" fill="#FCFDFD"></path>
            <path d="M105.72549,105 L104.078431,105 L98,98.2224308 C99.9607843,97.5209622 101.921569,96.3650211 103.882353,96.2464631 C106.921569,96.0488663 110.137255,95.4659558 113,97.2937259 L105.72549,105 Z" id="Path" fill="#FAA755"></path>
        </g>
    </g>
</svg>