<svg xmlns="http://www.w3.org/2000/svg" width="325" height="250" viewBox="-48 -30 325 250" style="height:250px;width:325px" color="rgba(0, 0, 0, 0.87)"><g transform="translate(2)" fill="none" fill-rule="evenodd"><path d="M179.37 147.142C191.724 131.592 199 111.639 199 89.88 199 40.244 161.14.006 111.504.006 61.868.006 21.63 40.244 21.63 89.88c0 21.643 7.65 41.499 20.393 57.012l137.347.25z" fill="#F9FAFB"/><path d="M190.521 68.494h11.166" stroke="#C9CCD5" stroke-width="2.6" stroke-linecap="round" stroke-linejoin="round"/><path d="M51.65 125.895l-6.339-80.963a4 4 0 0 1 3.69-4.3l35.397-2.64c3.756 56.666 3.756 90.04 0 100.123-3.756 10.082-14.672 6.009-32.747-12.22z" fill="#FFF"/><path d="M51.65 125.895l-6.339-80.963a4 4 0 0 1 3.69-4.3l35.397-2.64" stroke="#C9CCD5" stroke-width="2.6" stroke-linecap="round" stroke-linejoin="round"/><path d="M75 128.514l10.533-99.536a4 4 0 0 1 4.399-3.557l79.422 8.39a4 4 0 0 1 3.565 4.32l-3.993 46.475c-12.712 25.435-23.9 40.412-33.565 44.93-9.158 4.28-30.331 6.462-58.265 2.019-1.03-.164-1.729-1.178-2.096-3.04z" fill="#FFF"/><path d="M75.037 130.03L85.54 28.985a4 4 0 0 1 4.398-3.564l79.416 8.39a4 4 0 0 1 3.565 4.32l-3.993 46.475" stroke="#C9CCD5" stroke-width="2.6" stroke-linecap="round" stroke-linejoin="round"/><path d="M195.618 129.063l-46.61-28.887c-5.328-.557-11.02.844-17.076 4.201-6.056 3.357-10.645 7.647-13.767 12.868-8.068-3.868-16.069-4.369-24.002-1.503-7.932 2.866-13.544 8.286-16.836 16.258-2.226-2.012-5.163-3.427-9.323-3.427s-7.49 1.646-9.475 4.118c-10.3-10.154-20.986-13.62-32.057-10.395-10.747 3.13-17.178 10.983-19.293 23.557-.013.078 58.268.36 174.842.85 3.757.894 12.925.696 27.502-.597-.34-3.004-1.688-6.086-4.044-9.246s-5.3-5.546-8.829-7.157z" fill="#FFF"/><path d="M7.179 145.853c2.115-12.574 8.546-20.427 19.293-23.557 11.07-3.224 21.756.24 32.057 10.395 1.985-2.472 5.314-4.118 9.475-4.118 4.16 0 7.097 1.415 9.323 3.427 3.292-7.972 8.904-13.392 16.836-16.258 7.933-2.866 15.934-2.365 24.002 1.503 3.122-5.221 7.71-9.51 13.767-12.868 6.056-3.357 11.748-4.758 17.075-4.2m47.643 29.526c3.53 1.61 6.473 3.996 8.829 7.157 2.356 3.16 3.704 6.242 4.044 9.246" stroke="#C9CCD5" stroke-width="2.6" stroke-linecap="round" stroke-linejoin="round"/><path d="M129.677 71.48l2.035-23.053a5 5 0 0 1 5.496-4.533l17.484 1.812a4 4 0 0 1 3.58 4.224l-1.468 23.935a6 6 0 0 1-6.576 5.604l-15.162-1.49a6 6 0 0 1-5.39-6.5z" fill="#F9FAFB"/><path d="M0 147l216.978.154M94 79l13.835 1.115M59 55.115l14.457-1.261M93 86l41.944 4.143M60 62L81.713 60M62 78.691L80.37 77M63 85.328L79.293 84M63 92.206L77.805 91m-1.699 28.5c-1.006-.06-1.76.003-2.264.185-.503.182-1.224.656-2.165 1.42-.789-1.27-1.435-2.085-1.94-2.445-.504-.36-1.52-.734-3.05-1.121-.09-1.396-.282-2.443-.577-3.141s-.976-1.716-2.041-3.055c.796-1.167 1.268-2.074 1.417-2.72.149-.646.149-1.788 0-3.426 1.43-.406 2.398-.833 2.906-1.281.509-.449 1.087-1.388 1.737-2.818 1.731.508 3.03.695 3.896.56.865-.133 2.068-.708 3.609-1.724M92 100l20.972 2.072M91 107l32.775 2.904m-34.031 3.613l8.565.758" stroke="#C9CCD5" stroke-width="2.6" stroke-linecap="round" stroke-linejoin="round"/><path d="M23.192 157.695h100.5" stroke="#C9CCD5" stroke-width="2.6" opacity=".6" stroke-linecap="round" stroke-linejoin="round"/><path d="M49 168h15.5m5.5 0h38.5m9.5 0h52.5" stroke="#C9CCD5" stroke-width="2.6" opacity=".12" stroke-linecap="round" stroke-linejoin="round"/><path d="M135.192 157.695h65.5" stroke="#C9CCD5" stroke-width="2.6" opacity=".6" stroke-linecap="round" stroke-linejoin="round"/><path d="M174 141c15.464 0 27.26-12.536 27.26-28S189.463 85 174 85c-15.464 0-28 12.536-28 28s12.536 28 28 28zM18.91 97.415c3.59 0 6.91-3.325 6.91-6.915s-3.566-6.856-7.156-6.856S12 86.91 12 90.5s3.32 6.915 6.91 6.915z" stroke="#C9CCD5" stroke-width="2.6" fill="#FFF" stroke-linecap="square" stroke-linejoin="round"/><path d="M20 45.755V35m13.51-2.7V21.14M14 41h11.165m2.763-14.355h11.165" stroke="#C9CCD5" stroke-width="2.6" stroke-linecap="round" stroke-linejoin="round"/><path d="M210 55c1.657 0 2.92-1.343 2.92-3s-1.263-3-2.92-3a3 3 0 0 0 0 6zm-15.413-13.826c3.638 0 6.413-2.949 6.413-6.587S198.225 28 194.587 28a6.587 6.587 0 0 0 0 13.174z" stroke="#C9CCD5" stroke-width="2.6" stroke-linecap="square" stroke-linejoin="round"/><path d="M145.232 59.94c2.258 0 3.98-1.83 3.98-4.086 0-2.258-1.722-4.088-3.98-4.088a4.087 4.087 0 1 0 0 8.175z" stroke="#C9CCD5" stroke-width="2.6" fill="#FFF" stroke-linecap="square" stroke-linejoin="round"/><path d="M151.674 70.267c.917-5.209-2.295-10.314-7.541-10.314-5.247 0-7.998 2.765-8.74 8.058-.742 5.292 15.364 7.465 16.281 2.256z" stroke="#C9CCD5" stroke-width="2.6" fill="#E2E4EA" stroke-linecap="square" stroke-linejoin="round"/><path stroke="#C9CCD5" stroke-width="2.6" stroke-linecap="round" stroke-linejoin="round" d="M165.684311 114.636199L173.736866 106.448584 181.834648 114.636199"/><path d="M196 73.755V63m-22.258 57.167v-13.724" stroke="#C9CCD5" stroke-width="2.6" stroke-linecap="round" stroke-linejoin="round"/></g></svg>