<?xml version="1.0" encoding="UTF-8"?>
<svg width="40px" height="40px" viewBox="0 0 40 40" version="1.1" xmlns="http://www.w3.org/2000/svg" xmlns:xlink="http://www.w3.org/1999/xlink">
    <!-- Generator: Sketch 51.2 (57519) - http://www.bohemiancoding.com/sketch -->
    <title>uEA01-search</title>
    <desc>Created with Sketch.</desc>
    <defs></defs>
    <g id="uEA01-search" stroke="none" stroke-width="1" fill="none" fill-rule="evenodd">
        <path d="M25.1034483,30.3103448 C17.0096997,30.3103448 10.4482759,23.7488799 10.4482759,15.6551724 C10.4482759,7.56146496 17.0096997,1 25.1034483,1 C33.1971969,1 39.7586207,7.56146496 39.7586207,15.6551724 C39.7586207,23.7488799 33.1971969,30.3103448 25.1034483,30.3103448 Z M25.1034483,28.3103448 C32.0926246,28.3103448 37.7586207,22.6443132 37.7586207,15.6551724 C37.7586207,8.66603165 32.0926246,3 25.1034483,3 C18.114272,3 12.4482759,8.66603165 12.4482759,15.6551724 C12.4482759,22.6443132 18.114272,28.3103448 25.1034483,28.3103448 Z" id="Stroke-1" fill="#212121" fill-rule="nonzero"></path>
        <path d="M3.46572747,38.7071068 C3.07520318,39.0976311 2.4420382,39.0976311 2.05151391,38.7071068 C1.66098962,38.3165825 1.66098962,37.6834175 2.05151391,37.2928932 L14.465307,24.8791001 C14.8558313,24.4885758 15.4889963,24.4885758 15.8795206,24.8791001 C16.2700449,25.2696244 16.2700449,25.9027894 15.8795206,26.2933137 L3.46572747,38.7071068 Z" id="Stroke-3" fill="#212121" fill-rule="nonzero"></path>
    </g>
</svg>