<?xml version="1.0" encoding="UTF-8"?>
<svg width="40px" height="40px" viewBox="0 0 40 40" version="1.1" xmlns="http://www.w3.org/2000/svg" xmlns:xlink="http://www.w3.org/1999/xlink">
    <!-- Generator: Sketch 52.6 (67491) - http://www.bohemiancoding.com/sketch -->
    <title>uEA07-wireframe</title>
    <desc>Created with Sketch.</desc>
    <g id="uEA07-wireframe" stroke="none" stroke-width="1" fill="none" fill-rule="evenodd" stroke-linecap="round" stroke-linejoin="round">
        <path d="M23.4396156,9.87204488 L8.1399482,9.87204488 M31.8005705,9.87204488 L30.7279062,9.87204488 M21.4810417,14.6093181 L10.8202036,14.6093181 M4.8095616,17.2680205 L4.8095616,17.1616524 M4.8095616,19.7253674 L4.8095616,19.6189994 M4.8095616,22.1892114 L4.8095616,22.0828434 M35.1745373,17.2486224 L35.1745373,17.1422543 M35.1745373,19.7059693 L35.1745373,19.5996012 M35.1745373,22.1698133 L35.1745373,22.0634452 M28.494947,3.44647591 L25.6835974,3.44647591 M28.494947,19.273193 L25.6835974,19.273193 M23.1362803,17.5429663 L10.7275419,17.5429663 M21.2726977,20.4725303 L10.7833378,20.4725303 M27.1144805,23.4184652 L10.8278696,23.4184652 M25.455093,3.37677462 C25.3445489,1.61255855 25.9132394,0.730450518 27.1611646,0.730450518 C28.4090898,0.730450518 28.9783003,1.61255855 28.868796,3.37677462 L28.838205,19.3761716 L27.1198625,23.3937163 L25.4861698,19.3761716 L25.455093,3.37677462 Z M8.12476378,31.9877938 C7.57294716,30.3068289 6.46488359,29.4663464 4.80057306,29.4663464 C3.13626254,29.4663464 2.04190671,30.3068289 1.51750559,31.9877938 L1.51750559,32.7253391 C1.51750559,35.2025692 3.52569743,37.2107611 6.00292759,37.2107611 L33.9930936,37.2107611 C36.4703238,37.2107611 38.4785156,35.2025692 38.4785156,32.7253391 C38.1479348,30.5526773 37.0755868,29.4663464 35.2614717,29.4663464 C33.4473565,29.4663464 32.3136259,30.3068289 31.8602799,31.9877938 M31.8602799,31.9877938 L31.8602799,9.54190495 C32.2577765,7.68277004 33.3608157,6.75320258 35.1693977,6.75320258 C36.9779798,6.75320258 38.081019,7.68277004 38.4785156,9.54190495 C38.4785156,26.6490145 38.4785156,34.3768258 38.4785156,32.7253391 M1.51750559,31.9877938 L1.51750559,9.54190495 C1.90074678,7.69683351 2.9951026,6.77429779 4.80057306,6.77429779 C6.60604352,6.77429779 7.7141071,7.69683351 8.12476378,9.54190495 L8.12476378,31.9877938 M29.9783767,27.8964321 L10.0283654,27.8964321 L10.0283654,33.1193993 L29.9783767,33.1193993 L29.9783767,27.8964321 Z M12.3223464,29.946683 L12.3223464,27.8911691 M14.5152552,29.459086 L14.5152552,27.8911691 M18.9130119,29.459086 L18.9130119,27.8911691 M23.27592,29.459086 L23.27592,27.8911691 M27.6672252,29.459086 L27.6672252,27.8911691 M16.7078963,29.946683 L16.7078963,27.8911691 M21.0800658,29.946683 L21.0800658,27.8911691 M25.46707,29.946683 L25.46707,27.8911691" id="Combined-Shape" stroke="#000000"></path>
    </g>
</svg>