<?xml version="1.0" encoding="UTF-8"?>
<svg width="40px" height="40px" viewBox="0 0 40 40" version="1.1" xmlns="http://www.w3.org/2000/svg" xmlns:xlink="http://www.w3.org/1999/xlink">
    <!-- Generator: Sketch 52.6 (67491) - http://www.bohemiancoding.com/sketch -->
    <title>uEA05-discover</title>
    <desc>Created with Sketch.</desc>
    <g id="uEA05-discover" stroke="none" stroke-width="1" fill="none" fill-rule="evenodd">
        <g id="discovery" transform="translate(2.000000, 6.000000)" fill="#000000" fill-rule="nonzero">
            <path d="M36.428,18.9 C36.232,17.5 35.644,16.184 34.804,15.12 L31.612,7.028 C31.108,5.264 29.456,3.92 27.86,3.92 L27.776,3.92 C27.776,1.764 26.04,1.77635684e-15 23.856,1.77635684e-15 C22.764,1.77635684e-15 21.812,0.42 21.084,1.148 L15.428,1.148 C14.728,0.42 13.748,1.77635684e-15 12.684,1.77635684e-15 C10.5,1.77635684e-15 8.736,1.764 8.736,3.92 L8.68,3.92 C7.084,3.92 5.404,5.264 4.9,7.028 L1.736,15.12 C0.868,16.184 0.28,17.5 0.084,18.9 C0.028,19.264 -1.0658141e-14,19.628 -1.0658141e-14,20.02 C-1.0658141e-14,20.384 0.028,20.748 0.084,21.112 C0.616,24.864 3.864,27.776 7.784,27.776 C12.068,27.776 15.54,24.304 15.54,20.02 C15.54,19.936 15.54,19.852 15.54,19.768 C16.296,20.412 17.248,20.804 18.284,20.804 C19.32,20.804 20.244,20.412 20.972,19.796 C20.972,19.88 20.972,19.936 20.972,20.02 C20.972,24.304 24.472,27.776 28.756,27.776 C32.648,27.776 35.896,24.864 36.428,21.112 C36.484,20.748 36.512,20.384 36.512,20.02 C36.512,19.628 36.484,19.264 36.428,18.9 Z M5.6,7.224 C5.992,5.796 7.364,4.62 8.68,4.62 L8.736,4.62 C9.128,4.62 9.436,4.312 9.436,3.92 C9.436,2.156 10.892,0.7 12.684,0.7 C13.524,0.7 14.336,1.036 14.952,1.624 C15.064,1.764 15.26,1.82 15.428,1.82 L21.084,1.82 C21.28,1.82 21.448,1.764 21.588,1.624 C22.204,1.036 22.988,0.7 23.856,0.7 C25.648,0.7 27.076,2.156 27.076,3.92 C27.076,4.312 27.412,4.62 27.776,4.62 L27.86,4.62 C29.148,4.62 30.548,5.796 30.968,7.28 L33.572,13.916 C32.256,12.852 30.576,12.236 28.756,12.236 C26.264,12.236 24.08,13.384 22.652,15.204 C22.568,15.288 22.512,15.4 22.428,15.484 C21.98,13.636 20.3,12.236 18.284,12.236 C16.828,12.236 15.54,12.964 14.784,14.084 C14.532,14.42 14.364,14.784 14.224,15.176 C14.196,15.288 14.168,15.4 14.14,15.54 C13.888,15.176 13.608,14.84 13.3,14.532 C11.872,13.104 9.94,12.236 7.784,12.236 C5.964,12.236 4.284,12.852 2.968,13.916 L5.6,7.224 Z M7.784,27.076 C3.864,27.076 0.7,23.912 0.7,20.02 C0.7,18.144 1.428,16.464 2.604,15.204 C3.92,13.804 5.74,12.936 7.784,12.936 C9.744,12.936 11.536,13.748 12.824,15.064 C13.3,15.568 13.692,16.128 14.028,16.744 C14.364,17.416 14.616,18.144 14.756,18.928 C14.812,19.264 14.868,19.628 14.868,20.02 C14.868,23.912 11.676,27.076 7.784,27.076 Z M18.284,20.104 C17.108,20.104 16.072,19.516 15.428,18.648 C14.98,18.06 14.7,17.304 14.7,16.52 C14.7,16.492 14.7,16.492 14.7,16.492 C14.7,16.128 14.784,15.792 14.868,15.456 C15.008,15.12 15.176,14.784 15.372,14.448 C16.016,13.524 17.08,12.936 18.284,12.936 C20.216,12.936 21.812,14.476 21.868,16.408 C21.868,16.436 21.868,16.492 21.868,16.52 C21.868,17.36 21.56,18.116 21.084,18.704 C20.44,19.544 19.432,20.104 18.284,20.104 Z M28.756,27.076 C24.836,27.076 21.672,23.912 21.672,20.02 C21.672,19.656 21.728,19.32 21.784,18.984 C21.896,18.144 22.176,17.36 22.54,16.66 C22.764,16.296 22.988,15.932 23.268,15.596 C24.556,14 26.516,12.936 28.728,12.936 C28.756,12.936 28.784,12.936 28.812,12.936 C28.952,12.936 29.064,12.964 29.176,12.964 C30.128,13.076 31.052,13.356 31.864,13.692 C33.04,14.252 33.992,15.12 34.692,16.212 C35.392,17.304 35.812,18.592 35.812,20.02 C35.812,23.912 32.648,27.076 28.756,27.076 Z M28.756,14.784 C25.872,14.784 23.52,17.136 23.52,20.02 C23.52,22.876 25.872,25.228 28.756,25.228 C31.64,25.228 33.964,22.876 33.964,20.02 C33.964,17.136 31.64,14.784 28.756,14.784 Z M28.756,24.528 C26.264,24.528 24.22,22.512 24.22,20.02 C24.22,17.528 26.264,15.484 28.756,15.484 C31.248,15.484 33.264,17.528 33.264,20.02 C33.264,22.512 31.248,24.528 28.756,24.528 Z M7.784,14.784 C4.9,14.784 2.548,17.136 2.548,20.02 C2.548,22.876 4.9,25.228 7.784,25.228 C10.668,25.228 12.992,22.876 12.992,20.02 C12.992,17.136 10.668,14.784 7.784,14.784 Z M7.784,24.528 C5.292,24.528 3.248,22.512 3.248,20.02 C3.248,17.528 5.292,15.484 7.784,15.484 C10.276,15.484 12.292,17.528 12.292,20.02 C12.292,22.512 10.276,24.528 7.784,24.528 Z M18.284,13.636 C16.688,13.636 15.4,14.924 15.4,16.52 C15.4,18.088 16.688,19.404 18.284,19.404 C19.88,19.404 21.168,18.088 21.168,16.52 C21.168,14.924 19.88,13.636 18.284,13.636 Z M18.284,18.704 C17.08,18.704 16.1,17.724 16.1,16.52 C16.1,15.316 17.08,14.336 18.284,14.336 C19.488,14.336 20.468,15.316 20.468,16.52 C20.468,17.724 19.488,18.704 18.284,18.704 Z" id="Shape"></path>
        </g>
    </g>
</svg>