<?xml version="1.0" encoding="UTF-8"?>
<svg width="40px" height="40px" viewBox="0 0 40 40" version="1.1" xmlns="http://www.w3.org/2000/svg" xmlns:xlink="http://www.w3.org/1999/xlink">
    <!-- Generator: Sketch 51.3 (57544) - http://www.bohemiancoding.com/sketch -->
    <title>uEA01-arrow-right</title>
    <desc>Created with Sketch.</desc>
    <defs></defs>
    <g id="uEA01-arrow-right" stroke="none" stroke-width="1" fill="none" fill-rule="evenodd">
        <g id="fills" transform="translate(4.000000, 7.000000)" fill="#000000" fill-rule="nonzero">
            <path d="M1.86608627,13.5 C1.31380152,13.5 0.866086266,13.0522847 0.866086266,12.5 C0.866086266,11.9477153 1.31380152,11.5 1.86608627,11.5 L28.7147965,11.5 C29.2670812,11.5 29.7147965,11.9477153 29.7147965,12.5 C29.7147965,13.0522847 29.2670812,13.5 28.7147965,13.5 L1.86608627,13.5 Z" id="Path"></path>
            <path d="M18.0369923,1.90303913 C17.6448128,1.51417706 17.6421235,0.881017795 18.0309856,0.488838321 C18.4198477,0.0966588468 19.0530069,0.0939695547 19.4451864,0.482831619 L30.8487124,11.7898962 C31.2409018,12.1787681 31.2435799,12.811947 30.8546939,13.2041225 L19.4511679,24.7041098 C19.0622918,25.0962754 18.4291325,25.098942 18.0369669,24.7100659 C17.6448013,24.3211898 17.6421347,23.6880305 18.0310108,23.2958649 L28.7303892,12.5059815 L18.0369923,1.90303913 Z" id="Path-2"></path>
        </g>
    </g>
</svg>