<?xml version="1.0" encoding="UTF-8"?>
<svg width="40px" height="40px" viewBox="0 0 40 40" version="1.1" xmlns="http://www.w3.org/2000/svg" xmlns:xlink="http://www.w3.org/1999/xlink">
    <!-- Generator: Sketch 51.2 (57519) - http://www.bohemiancoding.com/sketch -->
    <title>uEA02-arrow-right</title>
    <desc>Created with Sketch.</desc>
    <defs></defs>
    <g id="uEA02-arrow-right" stroke="none" stroke-width="1" fill="none" fill-rule="evenodd">
        <path d="M2.71331504,21.5822532 C1.63213938,21.5822532 0.744830477,20.7313554 0.744830477,19.6667267 C0.744830477,18.602098 1.63213938,17.7512002 2.71331504,17.7512002 L37.4744667,17.7512002 C38.5556423,17.7512002 39.4429512,18.602098 39.4429512,19.6667267 C39.4429512,20.7313554 38.5556423,21.5822532 37.4744667,21.5822532 L2.71331504,21.5822532 Z" id="Line" fill="#000000" fill-rule="nonzero"></path>
        <path d="M34.8787458,19.6693837 L20.0971452,3.23810147 C19.3787212,2.4394986 19.4580402,1.21848489 20.2729886,0.516247175 C21.081788,-0.180691923 22.3112554,-0.104189036 23.0242276,0.688353556 L39.0802327,18.5362686 L39.0780293,20.8103548 L23.0217664,38.5904516 C22.3072739,39.3816535 21.0776646,39.4558739 20.2702042,38.7574234 C19.4566014,38.0536598 19.3796484,36.8324966 20.0996065,36.0352423 L34.8787458,19.6693837 Z" id="Path-2" fill="#000000" fill-rule="nonzero"></path>
    </g>
</svg>