<?xml version="1.0" encoding="UTF-8"?>
<svg width="40px" height="40px" viewBox="0 0 40 40" version="1.1" xmlns="http://www.w3.org/2000/svg" xmlns:xlink="http://www.w3.org/1999/xlink">
    <!-- Generator: Sketch 51.2 (57519) - http://www.bohemiancoding.com/sketch -->
    <title>uEA05-hcp</title>
    <desc>Created with Sketch.</desc>
    <defs></defs>
    <g id="uEA05-hcp" stroke="none" stroke-width="1" fill="none" fill-rule="evenodd">
        <g transform="translate(4.000000, 0.000000)" fill="#000000" fill-rule="nonzero">
            <path d="M16.1428571,19.2 C20.8644814,19.2 24.7125221,14.8971789 24.7125221,9.6 C24.7125221,4.30282106 20.864244,0 16.1428571,0 C11.4214703,0 7.57319223,4.31050106 7.57319223,9.6 C7.57319223,14.8894989 11.4214703,19.2 16.1428571,19.2 Z M16.1428571,2.22639158 C18.5692672,2.22639158 20.6864413,3.79743663 21.7606167,6.10268969 C19.7360235,5.14741894 18.1673712,3.91582989 18.1441865,3.90006569 C17.6651003,3.51322409 16.9618813,3.61585717 16.598719,4.11322206 C14.550941,6.9316608 11.4984628,8.33681786 9.77542994,8.94475049 C10.0690735,5.18684563 12.8123198,2.22636733 16.1429363,2.22636733 L16.1428571,2.22639158 Z M17.6806095,6.30002526 C18.6929061,7.00266443 20.4856515,8.1158198 22.4869017,8.81053643 C22.5100826,9.07106223 22.5255404,9.33948631 22.5255404,9.6 C22.5255404,13.6659537 19.6586591,16.9736084 16.1426039,16.9736084 C13.1134687,16.9736084 10.5790477,14.5262349 9.9218818,11.2576674 C11.6064579,10.7365996 15.0684285,9.35504843 17.6800794,6.29962106 L17.6806095,6.30002526 Z" id="Fill-1"></path>
            <path d="M28.0427298,21.85889 C25.6604008,20.9734177 23.1844783,20.3543494 20.6855959,20.0174125 C20.2184655,19.9547233 19.7669208,20.1976445 19.5567341,20.6207935 L16.1467501,27.4774868 L12.7367662,20.6131705 C12.5265635,20.1900134 12.0749948,19.9470803 11.6079043,20.0097895 C9.1088226,20.3467424 6.63325883,20.9657947 4.25077037,21.851267 C1.70497164,22.791625 0,25.2599945 0,27.9869845 L0,38.8951054 C0,39.50631 0.490488483,40 1.09773006,40 L31.1879574,40 C31.7951989,40 32.285688,39.50631 32.285688,38.8951054 L32.285688,27.9869845 C32.2934726,25.2599945 30.5807157,22.7993283 28.0424907,21.8592913 L28.0427298,21.85889 Z M30.0980794,37.7897694 L2.1953808,37.7897694 L2.1953808,27.9865833 C2.1953808,26.1999513 3.27752563,24.5778558 4.9435934,23.9508034 C5.69875894,23.668704 6.46951009,23.4257789 7.24026126,23.1985331 C6.42279306,24.8284521 6.32935903,26.528904 6.50064149,27.7827681 C4.52318006,28.8719754 3.79914591,31.2855394 4.7022354,33.2681229 L6.03351111,36.33205 C6.27485714,36.8884091 6.92105483,37.1469894 7.4815794,36.9040966 C8.03433106,36.6611754 8.29123483,36.01076 8.04991669,35.4465774 L6.70305534,32.3434523 C6.13471806,31.2698923 6.80426626,29.8358843 8.03433106,29.530282 C9.22549557,29.3030323 10.3309989,29.9534391 10.4945085,31.4266451 L10.6969263,34.8118617 C10.7358545,35.4230663 11.2574509,35.8854217 11.8569595,35.8462234 C12.464201,35.8070411 12.9235585,35.2820409 12.8846144,34.6786197 L12.6821965,31.3404251 C12.5342766,28.9817466 10.7280936,27.3518276 8.65703869,27.2733507 C8.53247323,26.1136107 8.66482351,24.005689 10.6968028,22.4070644 C10.8369379,22.3835575 10.9692882,22.3522109 11.1094432,22.3287039 L15.1656926,30.4391811 C15.5705203,31.2541206 16.7227407,31.2541206 17.1276083,30.4391811 L21.1683119,22.3130567 C21.9234774,22.4305995 22.6786828,22.5951561 23.4260755,22.7675483 C23.8153415,23.7783991 24.5938815,26.1762758 24.2435437,28.1666427 C22.4684961,28.4800887 21.113822,30.0473186 21.113822,31.9201709 C21.113822,34.0280923 22.818794,35.736368 24.9052751,35.736368 C26.9995291,35.736368 28.6967283,34.0202689 28.6967283,31.9201709 C28.6967283,30.3529609 27.7546947,29.0129569 26.4156062,28.4173995 C26.6880916,26.6777893 26.3533235,24.8362717 25.9718343,23.4648528 C26.4156062,23.6059025 26.8515653,23.7547918 27.2875643,23.9193444 C28.9692177,24.5462364 30.0980794,26.1761554 30.0980794,27.9783945 L30.0980794,37.7897694 Z M24.8973827,30.3296546 C25.7771137,30.3296546 26.4933749,31.0505903 26.4933749,31.9360626 C26.4933749,32.8215351 25.7771137,33.5424709 24.8973827,33.5424709 C24.0176517,33.5424709 23.3013905,32.8215351 23.3013905,31.9360626 C23.3091753,31.0505903 24.0176517,30.3296546 24.8973827,30.3296546 Z" id="Fill-2"></path>
        </g>
    </g>
</svg>