<?xml version="1.0" encoding="UTF-8"?>
<svg width="40px" height="40px" viewBox="0 0 40 40" version="1.1" xmlns="http://www.w3.org/2000/svg" xmlns:xlink="http://www.w3.org/1999/xlink">
    <!-- Generator: Sketch 52.6 (67491) - http://www.bohemiancoding.com/sketch -->
    <title>uEA05-discover</title>
    <desc>Created with Sketch.</desc>
    <g id="uEA05-discover" stroke="none" stroke-width="1" fill="none" fill-rule="evenodd">
        <path d="M30.756,30.528 C28.264,30.528 26.22,28.512 26.22,26.02 C26.22,23.528 28.264,21.484 30.756,21.484 C33.248,21.484 35.264,23.528 35.264,26.02 C35.264,28.512 33.248,30.528 30.756,30.528 Z M9.784,30.528 C7.292,30.528 5.248,28.512 5.248,26.02 C5.248,23.528 7.292,21.484 9.784,21.484 C12.276,21.484 14.292,23.528 14.292,26.02 C14.292,28.512 12.276,30.528 9.784,30.528 Z M20.284,24.704 C19.08,24.704 18.1,23.724 18.1,22.52 C18.1,21.316 19.08,20.336 20.284,20.336 C21.488,20.336 22.468,21.316 22.468,22.52 C22.468,23.724 21.488,24.704 20.284,24.704 Z M38.428,24.9 C38.232,23.5 37.644,22.184 36.804,21.12 L33.612,13.028 C33.108,11.264 31.456,9.92 29.86,9.92 L29.776,9.92 C29.776,7.764 28.04,6 25.856,6 C24.764,6 23.812,6.42 23.084,7.148 L17.428,7.148 C16.728,6.42 15.748,6 14.684,6 C12.5,6 10.736,7.764 10.736,9.92 L10.68,9.92 C9.084,9.92 7.404,11.264 6.9,13.028 L3.736,21.12 C2.868,22.184 2.28,23.5 2.084,24.9 C2.028,25.264 2,25.628 2,26.02 C2,26.384 2.028,26.748 2.084,27.112 C2.616,30.864 5.864,33.776 9.784,33.776 C14.068,33.776 17.54,30.304 17.54,26.02 C17.54,25.936 17.54,25.852 17.54,25.768 C18.296,26.412 19.248,26.804 20.284,26.804 C21.32,26.804 22.244,26.412 22.972,25.796 C22.972,25.88 22.972,25.936 22.972,26.02 C22.972,30.304 26.472,33.776 30.756,33.776 C34.648,33.776 37.896,30.864 38.428,27.112 C38.484,26.748 38.512,26.384 38.512,26.02 C38.512,25.628 38.484,25.264 38.428,24.9 Z M22.9541202,25.7385663 C22.2290411,26.3411741 21.2979864,26.704 20.284,26.704 C19.18782,26.704 18.1885614,26.2799688 17.4416811,25.5873633 M16.1698342,21.7565761 C16.1960155,21.6152198 16.2293296,21.4763308 16.2693878,21.340298 C16.7800821,19.6060401 18.3868936,18.336 20.284,18.336 C22.1511145,18.336 23.7370403,19.5662007 24.2735724,21.2583971 C24.3194206,21.4030004 24.357606,21.5509772 24.3876491,21.7018484 M9.67671207,33.8223832 C5.43336842,33.8223832 1.95287307,30.3895659 1.95287307,26.1462222 C1.95287307,21.9028786 5.43336842,18.4223832 9.67671207,18.4223832 C13.9200557,18.4223832 17.3528731,21.9028786 17.3528731,26.1462222 C17.3528731,30.3895659 13.9200557,33.8223832 9.67671207,33.8223832 Z M30.6767121,33.8223832 C26.4333684,33.8223832 22.9528731,30.3895659 22.9528731,26.1462222 C22.9528731,21.9028786 26.4333684,18.4223832 30.6767121,18.4223832 C34.9200557,18.4223832 38.3528731,21.9028786 38.3528731,26.1462222 C38.3528731,30.3895659 34.9200557,33.8223832 30.6767121,33.8223832 Z" id="Shape" stroke="#000000" fill-rule="nonzero"></path>
    </g>
</svg>