<?xml version="1.0" encoding="UTF-8"?>
<svg width="40px" height="40px" viewBox="0 0 40 40" version="1.1" xmlns="http://www.w3.org/2000/svg" xmlns:xlink="http://www.w3.org/1999/xlink">
    <!-- Generator: Sketch 52.6 (67491) - http://www.bohemiancoding.com/sketch -->
    <title>uEA08-prototype</title>
    <desc>Created with Sketch.</desc>
    <g id="uEA08-prototype" stroke="none" stroke-width="1" fill="none" fill-rule="evenodd">
        <g id="prototype" transform="translate(3.000000, 4.000000)" fill="#000000" fill-rule="nonzero">
            <path d="M34.872,1.984 L34.872,31.008 C34.872,31.552 34.424,32 33.88,32 L0.992,32 C0.448,32 0,31.552 0,31.008 L0,1.984 C0,0.896 0.896,-1.77635684e-15 1.984,-1.77635684e-15 L32.888,-1.77635684e-15 C33.976,-1.77635684e-15 34.872,0.896 34.872,1.984 Z M0.672,5.952 L34.232,5.952 L34.232,1.984 C34.232,1.248 33.624,0.672 32.888,0.672 L1.984,0.672 C1.248,0.672 0.672,1.248 0.672,1.984 L0.672,5.952 Z M0.672,30.688 C0.672,31.04 0.96,31.328 1.312,31.328 L33.56,31.328 C33.912,31.328 34.232,31.04 34.232,30.688 L34.232,6.272 L0.672,6.272 L0.672,30.688 Z M3.808,4.288 C4.256,4.288 4.608,3.904 4.608,3.456 C4.608,3.008 4.256,2.624 3.808,2.624 C3.328,2.624 2.976,3.008 2.976,3.456 C2.976,3.904 3.328,4.288 3.808,4.288 Z M6.432,4.288 C6.88,4.288 7.264,3.904 7.264,3.456 C7.264,3.008 6.88,2.624 6.432,2.624 C5.984,2.624 5.6,3.008 5.6,3.456 C5.6,3.904 5.984,4.288 6.432,4.288 Z M9.088,4.288 C9.536,4.288 9.888,3.904 9.888,3.456 C9.888,3.008 9.536,2.624 9.088,2.624 C8.608,2.624 8.256,3.008 8.256,3.456 C8.256,3.904 8.608,4.288 9.088,4.288 Z M12.52,4.608 C11.784,4.608 11.176,4.032 11.176,3.296 C11.176,2.56 11.784,1.984 12.52,1.984 L30.608,1.984 C31.344,1.984 31.952,2.56 31.952,3.296 C31.952,4.032 31.344,4.608 30.608,4.608 L12.52,4.608 Z M12.52,4.288 L30.608,4.288 C31.184,4.288 31.6,3.84 31.6,3.296 C31.6,2.752 31.152,2.304 30.608,2.304 L12.52,2.304 C11.944,2.304 11.528,2.752 11.528,3.296 C11.528,3.84 11.976,4.288 12.52,4.288 Z M13.16,8.256 L13.16,18.464 L2.952,18.464 L2.952,8.256 L13.16,8.256 Z M12.52,8.896 L3.592,8.896 L3.592,17.824 L12.52,17.824 L12.52,8.896 Z M9.192,12.544 C9.192,12.992 8.68,13.536 8.232,13.536 C7.432,13.536 6.888,12.992 6.888,12.544 C6.888,11.744 7.432,11.2 8.232,11.2 C8.68,11.2 9.192,11.744 9.192,12.544 Z M8.232,15.168 L6.888,14.176 C5.224,14.624 5.256,16.16 5.256,16.16 L10.856,16.16 C10.856,16.16 10.888,14.624 9.192,14.176 L8.232,15.168 Z M30.664,10.56 L30.664,11.552 L15.816,11.552 L15.816,10.56 L30.664,10.56 Z M30.664,14.176 L30.664,15.168 L15.816,15.168 L15.816,14.176 L30.664,14.176 Z M30.6,18.816 L30.6,29.024 L20.392,29.024 L20.392,18.816 L30.6,18.816 Z M29.96,19.456 L21.032,19.456 L21.032,28.384 L29.96,28.384 L29.96,19.456 Z M25.672,21.76 C26.12,21.76 26.664,22.304 26.664,23.104 C26.664,23.552 26.12,24.096 25.672,24.096 C24.872,24.096 24.328,23.552 24.328,23.104 C24.328,22.304 24.872,21.76 25.672,21.76 Z M25.672,25.728 L24.328,24.736 C22.664,25.184 22.696,26.72 22.696,26.72 L28.296,26.72 C28.296,26.72 28.328,25.184 26.664,24.736 L25.672,25.728 Z M2.56,22.112 L17.408,22.112 L17.408,23.104 L2.56,23.104 L2.56,22.112 Z M2.56,25.728 L17.408,25.728 L17.408,26.72 L2.56,26.72 L2.56,25.728 Z" id="Shape"></path>
        </g>
    </g>
</svg>