<?xml version="1.0" encoding="UTF-8"?>
<svg width="40px" height="40px" viewBox="0 0 40 40" version="1.1" xmlns="http://www.w3.org/2000/svg" xmlns:xlink="http://www.w3.org/1999/xlink">
    <!-- Generator: Sketch 51.3 (57544) - http://www.bohemiancoding.com/sketch -->
    <title>uEA03-baloon</title>
    <desc>Created with Sketch.</desc>
    <defs></defs>
    <g id="uEA03-baloon" stroke="none" stroke-width="1" fill="none" fill-rule="evenodd">
        <g id="fills" transform="translate(8.000000, 0.000000)" fill="#000000" fill-rule="nonzero">
            <path d="M12.1236297,24.676875 C5.39267384,24.676875 0.019454791,19.2643767 0.019454791,12.676875 C0.019454791,6.08937333 5.39267384,0.676875011 12.1236297,0.676875011 C18.8545855,0.676875011 24.0194548,6.02050789 24.0194548,12.676875 C24.0194548,19.3332421 18.8545855,24.676875 12.1236297,24.676875 Z M6.11079292,13.5128248 C5.80380557,11.6668761 6.26919039,9.94523781 7.53946516,8.28718354 C7.95803736,7.74083292 8.43747676,7.28237929 8.96737158,6.90314755 C9.66138942,6.40645729 10.4078377,6.06741512 11.1533456,5.85875029 C11.5918398,5.73601745 11.9206702,5.68492102 12.0813434,5.67495807 C12.6325695,5.64077792 13.051718,5.16621243 13.0175379,4.61498637 C12.9833577,4.06376032 12.5087922,3.6446118 11.9575662,3.67879195 C10.87807,3.74572881 9.34187433,4.17570416 7.803401,5.27674893 C7.11599581,5.76870668 6.49318479,6.36425634 5.95183635,7.07086338 C4.35317724,9.15754857 3.73768884,11.434478 4.13788894,13.8409252 C4.22849138,14.3857276 4.74358876,14.7539294 5.28839115,14.663327 C5.83319354,14.5727246 6.20139536,14.0576272 6.11079292,13.5128248 Z" id="Combined-Shape"></path>
            <path d="M10.4954948,24.4415124 C11.1565934,24.4964283 11.6565934,24.5238863 11.9954948,24.5238863 C12.3343962,24.5238863 12.8343962,24.4964283 13.4954948,24.4415124 L16.9954948,29.4415124 C15.2916885,29.5597229 14.1250218,29.6051661 13.4954948,29.577842 C12.2002306,29.5216222 11.0703729,29.2046227 10.2417846,29.2046227 C8.80912798,29.2046227 7.72703138,29.2835859 6.99549481,29.4415124 L10.4954948,24.4415124 Z" id="Rectangle-10"></path>
            <path d="M12.5234322,26.200877 C12.7863186,25.7151722 13.3931717,25.5345422 13.8788765,25.7974287 C14.3645813,26.0603151 14.5452113,26.6671682 14.2823249,27.152873 C13.2050502,29.1432287 12.8165792,31.3371103 13.1184085,33.7643267 C13.414569,36.1459572 14.2568494,37.8311992 15.6282292,38.8835316 C16.0663807,39.2197485 16.149015,39.847498 15.8127982,40.2856494 C15.4765813,40.7238009 14.8488318,40.8064352 14.4106804,40.4702184 C12.5783405,39.0641668 11.4916854,36.8899776 11.1336948,34.0111298 C10.781373,31.1778678 11.24412,28.5645139 12.5234322,26.200877 Z" id="Line"></path>
        </g>
    </g>
</svg>