<?xml version="1.0" encoding="UTF-8"?>
<svg width="40px" height="40px" viewBox="0 0 40 40" version="1.1" xmlns="http://www.w3.org/2000/svg" xmlns:xlink="http://www.w3.org/1999/xlink">
    <!-- Generator: Sketch 51.2 (57519) - http://www.bohemiancoding.com/sketch -->
    <title>uEA04-patient</title>
    <desc>Created with Sketch.</desc>
    <defs></defs>
    <g id="uEA04-patient" stroke="none" stroke-width="1" fill="none" fill-rule="evenodd">
        <g transform="translate(4.000000, 0.000000)" fill="#000000" fill-rule="nonzero">
            <path d="M16.1428571,19.2 C11.4214703,19.2 7.57319223,14.8894989 7.57319223,9.6 C7.57319223,4.31050106 11.4214703,0 16.1428571,0 C20.864244,0 24.7125221,4.30282106 24.7125221,9.6 C24.7125221,14.8971789 20.8644814,19.2 16.1428571,19.2 Z M16.1428571,2.22639158 L16.1429363,2.22636733 C12.8123198,2.22636733 10.0690735,5.18684563 9.77542994,8.94475049 C11.4984628,8.33681786 14.550941,6.9316608 16.598719,4.11322206 C16.9618813,3.61585717 17.6651003,3.51322409 18.1441865,3.90006569 C18.1673712,3.91582989 19.7360235,5.14741894 21.7606167,6.10268969 C20.6864413,3.79743663 18.5692672,2.22639158 16.1428571,2.22639158 Z M17.6806095,6.30002526 L17.6800794,6.29962106 C15.0684285,9.35504843 11.6064579,10.7365996 9.9218818,11.2576674 C10.5790477,14.5262349 13.1134687,16.9736084 16.1426039,16.9736084 C19.6586591,16.9736084 22.5255404,13.6659537 22.5255404,9.6 C22.5255404,9.33948631 22.5100826,9.07106223 22.4869017,8.81053643 C20.4856515,8.1158198 18.6929061,7.00266443 17.6806095,6.30002526 Z" id="Hair"></path>
            <path d="M20.6855959,20.0174125 C23.1844783,20.3543494 25.6604008,20.9734177 28.0424907,21.8592913 C30.5807157,22.7993283 32.2934726,25.2599945 32.285688,27.9869845 L32.285688,38.8951054 C32.285688,39.50631 31.7951989,40 31.1879574,40 L1.09773006,40 C0.490488483,40 0,39.50631 0,38.8951054 L0,27.9869845 C0,25.2599945 1.70497164,22.791625 4.25077037,21.851267 C6.63325883,20.9657947 9.1088226,20.3467424 11.6079043,20.0097895 C12.0749948,19.9470803 12.5265635,20.1900134 12.7367662,20.6131705 C13.472043,22.6330731 14.6074067,23.6430244 16.1428571,23.6430244 C17.6783076,23.6430244 18.8162666,22.6356141 19.5567341,20.6207935 C19.7669208,20.1976445 20.2184655,19.9547233 20.6855959,20.0174125 Z M30.0980794,37.7897694 L30.0980794,27.9783945 C30.0980794,26.1761554 28.9692177,24.5462364 27.2875643,23.9193444 C26.8515653,23.7547918 26.4156062,23.6059025 25.9718343,23.4648528 C25.0956063,23.2107595 24.24702,22.9783247 23.4260755,22.7675483 C22.6786828,22.5951561 21.9234774,22.4305995 21.1683119,22.3130567 C20.0939134,24.5842487 18.4200528,25.7198448 16.1467302,25.7198448 C13.8734075,25.7198448 12.1943119,24.5894645 11.1094432,22.3287039 C10.9692882,22.3522109 10.8369379,22.3835575 10.6968028,22.4070644 C9.51708483,22.647387 8.36490431,22.9112099 7.24026126,23.1985331 C6.46951009,23.4257789 5.69875894,23.668704 4.9435934,23.9508034 C3.27752563,24.5778558 2.1953808,26.1999513 2.1953808,27.9865833 L2.1953808,37.7897694 L30.0980794,37.7897694 Z" id="Fill-2"></path>
            <path d="M20.1172354,28.4973107 C20.503996,27.8402595 21.3488623,27.6190255 22.0080125,28.0021978 L27.0669991,30.9430506 C27.7343644,31.3309986 27.9608769,32.1864989 27.5729291,32.8538643 C27.5678436,32.8626126 27.5626633,32.8713051 27.557389,32.8799409 C27.1449866,33.5551834 26.2657459,33.7723931 25.5863489,33.3668717 L20.6015691,30.3915349 C19.9467675,30.000694 19.7304011,29.1544871 20.1172354,28.4973107 Z M21.508659,31.8825223 L23.9925063,33.3650917 L23.6554598,33.9467246 C23.2553441,34.6371946 22.3749389,34.878428 21.6787496,34.4883489 C20.9907644,34.1028663 20.7455374,33.2326489 21.1310198,32.5446637 C21.1327999,32.5414869 21.1345922,32.5383166 21.1363965,32.5351531 L21.508659,31.8825223 Z M23.6749767,28.0846488 L23.9725309,27.5629924 C24.3776077,26.8528332 25.2746387,26.594558 25.9953314,26.980583 C26.6869802,27.3510513 26.9473485,28.2120672 26.5768802,28.903716 C26.5694001,28.9176811 26.5616868,28.9315203 26.5537438,28.9452274 L26.201386,29.5532826 L23.6749767,28.0846488 Z" id="Combined-Shape"></path>
        </g>
    </g>
</svg>