<?xml version="1.0" encoding="UTF-8"?>
<svg width="40px" height="40px" viewBox="0 0 40 40" version="1.1" xmlns="http://www.w3.org/2000/svg" xmlns:xlink="http://www.w3.org/1999/xlink">
    <!-- Generator: Sketch 52.6 (67491) - http://www.bohemiancoding.com/sketch -->
    <title>uEA06-ideate</title>
    <desc>Created with Sketch.</desc>
    <g id="uEA06-ideate" stroke="none" stroke-width="1" fill="none" fill-rule="evenodd">
        <g id="ideation" transform="translate(6.000000, 3.000000)" fill="#000000" fill-rule="nonzero">
            <path d="M6.976,1 C6.752,1.032 6.592,1.352 6.72,1.544 L8.064,3.88 C8.16,4.072 8.416,4.168 8.576,4.04 C8.768,3.944 8.832,3.688 8.704,3.528 L7.328,1.192 C7.264,1.064 7.136,1 6.976,1 Z M20.288,1 C20.16,1.032 20.064,1.096 20.032,1.192 L18.688,3.528 C18.56,3.688 18.624,3.944 18.784,4.04 C18.976,4.168 19.232,4.072 19.328,3.88 L20.672,1.544 C20.8,1.32 20.576,0.968 20.32,1 C20.288,1 20.288,1 20.288,1 Z M13.696,3.816 C8.864,3.816 4.928,7.784 4.928,12.68 C4.928,15.56 5.76,17.032 6.528,18.312 C7.328,19.592 8.032,20.68 8.032,23.208 L8.032,23.24 C8.032,23.24 8.032,23.272 8.032,23.304 C8.032,23.304 8.064,23.336 8.064,23.336 L9.408,30.44 C9.536,31.048 10.112,31.4 10.752,31.4 L10.88,31.4 L10.88,31.592 C10.88,32.328 11.392,33 12.096,33 L15.264,33 C16,33 16.512,32.328 16.512,31.592 L16.512,31.4 L16.608,31.4 C17.248,31.4 17.824,31.048 17.984,30.44 L19.328,23.336 L19.328,23.304 C19.36,23.24 19.36,23.208 19.328,23.176 L19.328,23.112 C19.36,20.68 20.064,19.56 20.832,18.312 C21.6,17.032 22.432,15.56 22.432,12.68 C22.432,7.784 18.528,3.816 13.696,3.816 Z M13.696,4.552 C18.112,4.552 21.728,8.2 21.728,12.68 C21.728,15.432 20.992,16.648 20.224,17.928 C19.488,19.144 18.72,20.456 18.656,22.856 L8.736,22.856 C8.672,20.456 7.904,19.144 7.168,17.928 C6.4,16.648 5.664,15.432 5.664,12.68 C5.664,8.2 9.248,4.552 13.696,4.552 Z M2.112,5.864 C1.792,5.896 1.696,6.408 1.984,6.568 L4.32,7.912 C4.48,8.008 4.736,7.944 4.832,7.784 C4.928,7.592 4.864,7.368 4.672,7.272 L2.336,5.928 C2.304,5.896 2.208,5.864 2.144,5.864 L2.112,5.864 Z M25.184,5.864 C25.12,5.864 25.088,5.896 25.024,5.928 L22.688,7.272 C22.528,7.368 22.464,7.592 22.56,7.784 C22.656,7.944 22.88,8.008 23.072,7.912 L25.408,6.568 C25.536,6.472 25.632,6.28 25.568,6.12 C25.504,5.96 25.344,5.864 25.184,5.864 Z M0.352,12.52 C0.16,12.552 0,12.712 0,12.904 C0,13.096 0.192,13.256 0.384,13.256 L3.072,13.256 C3.264,13.256 3.456,13.096 3.456,12.904 C3.456,12.68 3.264,12.52 3.072,12.52 L0.384,12.52 C0.384,12.52 0.352,12.52 0.352,12.52 Z M24.256,12.52 C24.064,12.552 23.904,12.712 23.904,12.904 C23.936,13.096 24.096,13.256 24.288,13.256 L27.008,13.256 C27.2,13.256 27.392,13.096 27.392,12.904 C27.392,12.68 27.2,12.52 27.008,12.52 L24.288,12.52 C24.288,12.52 24.288,12.52 24.256,12.52 Z M8.832,23.592 L18.56,23.592 L17.248,30.28 C17.216,30.408 16.928,30.664 16.608,30.664 L10.752,30.664 C10.432,30.664 10.176,30.408 10.144,30.28 L9.824,28.584 L14.56,28.584 C14.752,28.584 14.912,28.424 14.912,28.232 C14.912,28.04 14.752,27.848 14.56,27.848 L9.664,27.848 L9.28,25.832 L15.552,25.832 C15.744,25.832 15.904,25.672 15.904,25.48 C15.904,25.256 15.744,25.096 15.552,25.096 L9.152,25.096 L8.832,23.592 Z M11.584,31.4 L15.776,31.4 L15.776,31.592 C15.776,32.008 15.52,32.264 15.296,32.264 L12.096,32.264 C11.84,32.264 11.584,32.008 11.584,31.592 L11.584,31.4 Z" id="Shape"></path>
        </g>
    </g>
</svg>