<?xml version="1.0" encoding="UTF-8"?>
<svg width="40px" height="40px" viewBox="0 0 40 40" version="1.1" xmlns="http://www.w3.org/2000/svg" xmlns:xlink="http://www.w3.org/1999/xlink">
    <!-- Generator: Sketch 51.2 (57519) - http://www.bohemiancoding.com/sketch -->
    <title>uEA07-twitter</title>
    <desc>Created with Sketch.</desc>
    <defs></defs>
    <g id="uEA07-twitter" stroke="none" stroke-width="1" fill="none" fill-rule="evenodd">
        <g transform="translate(0.000000, 4.000000)" fill="#1A1A1A" fill-rule="nonzero">
            <path d="M39.6755,4.05011538 C38.2387385,4.68773077 36.6936462,5.11867692 35.0725308,5.31282308 C36.7270846,4.32040769 37.9975077,2.74970769 38.5959923,0.878492308 C37.0474846,1.79736923 35.3326231,2.46387692 33.5060077,2.82313846 C32.0446692,1.26576154 29.9614,0.292292308 27.6560615,0.292292308 C23.2291538,0.292292308 19.6411,3.88063846 19.6411,8.30725385 C19.6411,8.93569231 19.7113308,9.54760769 19.8485385,10.1338615 C13.1868846,9.80003846 7.28091538,6.60811538 3.3276,1.75935385 C2.63762308,2.94260769 2.24240769,4.31926154 2.24240769,5.78841538 C2.24240769,8.56956923 3.65685385,11.0224462 5.80816923,12.4603462 C4.49432308,12.4192692 3.25823077,12.0585615 2.17753077,11.4577923 C2.17599231,11.4915615 2.17599231,11.5248692 2.17599231,11.5583923 C2.17599231,15.4425462 4.93919231,18.6813385 8.60556154,19.4181615 C7.93356923,19.6013692 7.22564615,19.6982538 6.49456923,19.6982538 C5.97756923,19.6982538 5.47628462,19.6493308 4.98603846,19.5553462 C6.00669231,22.7395538 8.96623077,25.0571846 12.4742538,25.1220615 C9.72882308,27.2722077 6.27332308,28.5529231 2.51778462,28.5529231 C1.87126154,28.5529231 1.23276154,28.5148462 0.605207692,28.4411692 C4.15382308,30.7153 8.36636923,32.0418 12.8933077,32.0418 C27.6359385,32.0418 35.6969154,19.8288615 35.6969154,9.23619231 C35.6969154,8.88884615 35.6889154,8.54386923 35.6743769,8.20013077 C37.2397538,7.06915385 38.5984923,5.65785385 39.6737154,4.05017692"></path>
        </g>
    </g>
</svg>