<?xml version="1.0" encoding="UTF-8"?>
<svg width="40px" height="40px" viewBox="0 0 40 40" version="1.1" xmlns="http://www.w3.org/2000/svg" xmlns:xlink="http://www.w3.org/1999/xlink">
    <!-- Generator: Sketch 52.6 (67491) - http://www.bohemiancoding.com/sketch -->
    <title>uEA07-wireframe</title>
    <desc>Created with Sketch.</desc>
    <g id="uEA07-wireframe" stroke="none" stroke-width="1" fill="none" fill-rule="evenodd">
        <g id="wireframes" transform="translate(3.000000, 3.000000)" fill="#000000" fill-rule="nonzero">
            <path d="M1.696,2.22044605e-16 C0.768,2.22044605e-16 0,0.736 0,1.696 L0,14.304 C0,15.232 0.736,16 1.696,16 L14.304,16 C15.264,16 16,15.264 16,14.304 L16,1.696 C16,0.736 15.264,0 14.304,0 L1.696,2.22044605e-16 Z M15.168,13.888 C15.168,14.592 14.592,15.168 13.888,15.168 L2.112,15.168 C1.408,15.168 0.832,14.592 0.832,13.888 L0.832,2.112 C0.832,1.408 1.408,0.832 2.112,0.832 L13.888,0.832 C14.592,0.832 15.168,1.408 15.168,2.112 L15.168,13.888 Z M19.696,19 C18.768,19 18,19.736 18,20.696 L18,33.304 C18,34.232 18.736,35 19.696,35 L32.304,35 C33.264,35 34,34.264 34,33.304 L34,20.696 C34,19.736 33.264,19 32.304,19 L19.696,19 Z M33.168,32.888 C33.168,33.592 32.592,34.168 31.888,34.168 L20.112,34.168 C19.408,34.168 18.832,33.592 18.832,32.888 L18.832,21.112 C18.832,20.408 19.408,19.832 20.112,19.832 L31.888,19.832 C32.592,19.832 33.168,20.408 33.168,21.112 L33.168,32.888 Z M20.36,3.36 L33.112,3.36 L33.112,5.056 L20.36,5.056 L20.36,3.36 Z M20.36,8.832 L28.112,8.832 L28.112,10.528 L20.36,10.528 L20.36,8.832 Z M1.36,23.36 L14.112,23.36 L14.112,25.056 L1.36,25.056 L1.36,23.36 Z M1.36,28.832 L8.112,28.832 L8.112,30.528 L1.36,30.528 L1.36,28.832 Z" id="Shape"></path>
        </g>
    </g>
</svg>