<?xml version="1.0" encoding="UTF-8"?>
<svg width="40px" height="40px" viewBox="0 0 40 40" version="1.1" xmlns="http://www.w3.org/2000/svg" xmlns:xlink="http://www.w3.org/1999/xlink">
    <!-- Generator: Sketch 52.6 (67491) - http://www.bohemiancoding.com/sketch -->
    <title>uEA08-prototype</title>
    <desc>Created with Sketch.</desc>
    <g id="uEA08-prototype" stroke="none" stroke-width="1" fill="none" fill-rule="evenodd" stroke-linecap="round" stroke-linejoin="round">
        <path d="M17,6 L35,6 C35.6666667,6.16 36,6.49333333 36,7 C36,7.50666667 35.6666667,7.84 35,8 L17,8 C16.4506667,7.84 16.176,7.50666667 16.176,7 C16.176,6.49333333 16.4506667,6.16 17,6 Z M6,13 L16,13 L16,22 L6,22 L6,13 Z M3,4 L38,4 L38,36 L3,36 L3,4 Z M24,23 L34,23 L34,32 L24,32 L24,23 Z M6.5,7.59300025 C6.77614237,7.59300025 7,7.36914263 7,7.09300025 C7,6.81685788 6.77614237,6.59300025 6.5,6.59300025 C6.22385763,6.59300025 6,6.81685788 6,7.09300025 C6,7.36914263 6.22385763,7.59300025 6.5,7.59300025 Z M9.5,7.59300025 C9.77614237,7.59300025 10,7.36914263 10,7.09300025 C10,6.81685788 9.77614237,6.59300025 9.5,6.59300025 C9.22385763,6.59300025 9,6.81685788 9,7.09300025 C9,7.36914263 9.22385763,7.59300025 9.5,7.59300025 Z M12.5,7.59300025 C12.7761424,7.59300025 13,7.36914263 13,7.09300025 C13,6.81685788 12.7761424,6.59300025 12.5,6.59300025 C12.2238576,6.59300025 12,6.81685788 12,7.09300025 C12,7.36914263 12.2238576,7.59300025 12.5,7.59300025 Z M3,10 L38,10 M19,14.5 L34,14.5 M19,18.5 L34,18.5 M5.96700303,26.4 L20.967003,26.4 M5.67914479,30.056 L20.6791448,30.056" id="Rectangle-Copy-4" stroke="#000000" fill-rule="nonzero"></path>
    </g>
</svg>