<?xml version="1.0" encoding="UTF-8"?>
<svg width="40px" height="40px" viewBox="0 0 40 40" version="1.1" xmlns="http://www.w3.org/2000/svg" xmlns:xlink="http://www.w3.org/1999/xlink">
    <title>uEA07-wireframe</title>
    <g id="uEA07-wireframe" stroke="none" stroke-width="1" fill="none" fill-rule="evenodd" stroke-linecap="round" stroke-linejoin="round">
        <path d="M5.4212829,4.82853689 L27.2296495,4.82853689 C27.7819343,4.82853689 28.2296495,5.27625214 28.2296495,5.82853689 L28.2296495,34.8285369 C28.2296495,35.3808216 27.7819343,35.8285369 27.2296495,35.8285369 L5.4212829,35.8285369 C4.86899815,35.8285369 4.4212829,35.3808216 4.4212829,34.8285369 L4.4212829,5.82853689 C4.4212829,5.27625214 4.86899815,4.82853689 5.4212829,4.82853689 Z M7.61201421,12.6281662 L16.4203808,12.6281662 L16.4203808,21.3553659 L7.61201421,21.3553659 L7.61201421,12.6281662 Z M7.54349168,2.8320118 L7.54349168,6.68464011 M27.9054411,9.24890165 L4.9489328,9.24890165 M11.9592695,2.8320118 L11.9592695,6.68464011 M16.3750473,2.8320118 L16.3750473,6.68464011 M20.7908251,2.8320118 L20.7908251,6.68464011 M25.2066029,2.8320118 L25.2066029,6.68464011 M33.7665105,36.1492216 L36.5330209,31.8452083 L33.7795833,30.0995326 L31,31.8452083 L33.7665105,36.1492216 Z M31,16.0245237 L33.7665105,16.0245237 L33.7795833,30.0995326 L31,31.8452083 L31,16.0245237 Z M31,16.0245237 L36.5330209,16.0245237 C36.4094171,14.1070592 35.4916045,13.1483269 33.7795833,13.1483269 C32.0675621,13.1483269 31.1410344,14.1070592 31,16.0245237 Z M36.5330209,16.0245237 L36.5330209,31.8452083 L33.7795833,30.0995326 L33.7665105,16.0245237 L36.5330209,16.0245237 Z M20.9505316,23 L26,32 L16,32 L20.9505316,23 Z M18.5434917,12.8320118 L25.2993528,12.8320118 M18.5434917,14.8320118 L25.2993528,14.8320118 M18.5434917,16.8320118 L22.299353,16.8320118 M7.54349168,24.8320118 L14.2993528,24.8320118 M7.54349168,26.8320118 L14.2993528,26.8320118 M7.54349168,28.8320118 L11.299353,28.8320118" id="Combined-Shape" stroke="#979797" fill-rule="nonzero"></path>
    </g>
</svg>