<?xml version="1.0" encoding="UTF-8"?>
<svg width="40px" height="40px" viewBox="0 0 40 40" version="1.1" xmlns="http://www.w3.org/2000/svg" xmlns:xlink="http://www.w3.org/1999/xlink">
    <!-- Generator: Sketch 51.2 (57519) - http://www.bohemiancoding.com/sketch -->
    <title>uEA03-download</title>
    <desc>Created with Sketch.</desc>
    <defs></defs>
    <g id="uEA03-download" stroke="none" stroke-width="1" fill="none" fill-rule="evenodd">
        <g id="Group" transform="translate(0.000000, 2.000000)" fill="#000000" fill-rule="nonzero">
            <path d="M37.1670025,17.1687719 C38.0264457,17.1687719 38.7207492,17.8666359 38.7207492,18.7225186 L38.7207492,28.3077104 C38.7207492,32.3487256 35.4345187,35.6375498 31.3909097,35.6375498 L8.27092757,35.6375498 C4.22991235,35.6375498 0.941088138,32.3513193 0.941088138,28.3077104 L0.941088138,18.566408 C0.941088138,17.7048508 1.63327761,17.0126613 2.49483479,17.0126613 C3.35639198,17.0126613 4.04858145,17.7048508 4.04858145,18.566408 L4.04858145,28.3077104 C4.04858145,30.6336328 5.94284277,32.5300565 8.27092757,32.5300565 L31.3909097,32.5300565 C33.7168321,32.5300565 35.6132558,30.6357952 35.6132558,28.3077104 L35.6132558,18.7225186 C35.6132558,17.8609614 36.3054453,17.1687719 37.1670025,17.1687719 Z" id="Shape"></path>
            <path d="M12.0308889,20.4264288 C11.4219336,19.8174735 11.4219336,18.8374209 12.0308889,18.2284656 C12.6398442,17.6195104 13.6198968,17.6195104 14.2288521,18.2284656 L18.277172,22.2767856 L18.277172,2.10454356 C18.277172,1.24298637 18.9693615,0.550796901 19.8309186,0.550796901 C20.6924758,0.550796901 21.3846653,1.24298637 21.3846653,2.10454356 L21.3846653,22.2754241 L25.4251797,18.2284656 C26.034135,17.6195104 27.0141876,17.6195104 27.6231429,18.2284656 C28.2320981,18.8374209 28.2320981,19.8174735 27.6231429,20.4264288 L20.9326042,27.1168417 C20.6413171,27.4193321 20.2417266,27.582242 19.8309186,27.582242 C19.4277349,27.582242 19.0289329,27.4166073 18.7359527,27.1236871 L12.0308889,20.4264288 Z" id="Shape"></path>
        </g>
    </g>
</svg>