<?xml version="1.0" encoding="UTF-8"?>
<svg width="40px" height="40px" viewBox="0 0 40 40" version="1.1" xmlns="http://www.w3.org/2000/svg" xmlns:xlink="http://www.w3.org/1999/xlink">
    <!-- Generator: Sketch 52.6 (67491) - http://www.bohemiancoding.com/sketch -->
    <title>uEA07-wireframe</title>
    <desc>Created with Sketch.</desc>
    <g id="uEA07-wireframe" stroke="none" stroke-width="1" fill="none" fill-rule="evenodd" stroke-linecap="round" stroke-linejoin="round">
        <path d="M4.32426204,6.5 L19,6.5 L19,15.5 L4.32426204,15.5 L4.32426204,6.5 Z M4.32426204,24.5 L19,24.5 L19,33.5 L4.32426204,33.5 L4.32426204,24.5 Z M23,24.5 L35.5764451,24.5 L23,24.5 Z M23,30.5 L32.1052852,30.5 L23,30.5 Z M23,33.5 L32.1052852,33.5 L23,33.5 Z M23,9.5 L35.5764451,9.5 L23,9.5 Z M23,6.5 L35.5764451,6.5 L23,6.5 Z M23,12.5 L32.1052852,12.5 L23,12.5 Z M23,15.5 L32.1052852,15.5 L23,15.5 Z M4,20 L35.5764451,20 L4,20 Z M23,27.5 L35.5764451,27.5 L23,27.5 Z" id="Rectangle-Copy-2" stroke="#000000" fill-rule="nonzero"></path>
    </g>
</svg>