<?xml version="1.0" encoding="UTF-8"?>
<svg width="40px" height="40px" viewBox="0 0 40 40" version="1.1" xmlns="http://www.w3.org/2000/svg" xmlns:xlink="http://www.w3.org/1999/xlink">
    <!-- Generator: Sketch 52.6 (67491) - http://www.bohemiancoding.com/sketch -->
    <title>uEA03-logo</title>
    <desc>Created with Sketch.</desc>
    <g id="uEA03-logo" stroke="none" stroke-width="1" fill="none" fill-rule="evenodd">
        <path d="M30.627665,34.2052619 C31.2156393,34.4404516 31.7644153,34.7148396 32.3131913,34.8324344 C33.8419244,35.1460207 35.3706575,35.3812104 36.9385889,35.6555984 C37.3305718,35.733995 37.7225546,35.8123916 38.1145375,35.8907881 C38.5457186,36.008383 38.7809083,36.2435727 38.9377015,36.7139521 C39.0944946,37.1843315 38.7809083,37.380323 38.5065203,37.654711 C38.0361409,38.0858921 37.5265632,38.3210818 36.8993907,38.2818835 C34.9002781,38.1250904 32.9011656,38.0466938 30.9804496,37.380323 C30.7844581,37.3019264 30.5492684,37.2627281 30.353277,37.1843315 C29.255725,36.7923487 28.3149662,36.7139521 27.1782159,37.3411247 C25.6886811,38.1642887 23.9639565,38.3210818 22.239232,38.4386767 C21.5336628,38.477875 20.867292,38.5562715 20.1617228,38.5170732 C17.5354377,38.3602801 15.2227389,37.4587195 12.9492384,36.1259778 C10.0877635,34.4404516 8.04945269,32.0493562 6.08953843,29.5406659 C4.8351933,27.9335362 4.09042588,26.0520185 3.54164989,24.1313025 C3.14966703,22.9161557 2.79688247,21.6618106 2.79688247,20.3682672 C2.79688247,19.8194912 2.87527904,19.2707152 2.95367561,18.4867495 C3.26726189,18.8003357 3.46325331,18.9179306 3.58084817,19.113922 C4.09042588,19.9762843 4.75679673,20.8386466 5.07038301,21.7794054 C5.57996072,23.3865351 6.167935,24.9152683 7.06949556,26.3264065 C7.97105612,27.7767431 9.06860811,29.1094848 10.1661601,30.4422265 C10.9109275,31.343787 11.8124881,32.166951 12.6748504,32.990115 C13.6548075,33.9700721 14.8699543,34.636443 16.1242995,35.2636156 C17.1826532,35.7731933 18.2802051,36.2043744 19.4561537,36.5179607 C20.7888954,36.831547 22.1216371,36.8707453 23.4543788,36.6747538 C24.3167411,36.5179607 25.1791034,36.3611675 26.0414656,36.2043744 C26.1982588,36.1651761 26.3158536,36.0475813 26.5902416,35.9299864 C26.3158536,35.733995 26.1590605,35.5772018 25.9630691,35.4988053 C23.0231977,34.2444601 20.8280937,32.1277527 18.7113863,29.8150539 C17.3786446,28.3647174 16.3986875,26.7183894 15.379532,25.0328631 C14.9091526,24.2488974 14.1251869,23.5825266 13.3412212,22.9945523 C11.7340915,21.8186037 10.2445567,20.5250603 8.87261668,19.113922 C8.51983211,18.7219392 8.12784926,18.3299563 7.77506469,17.9379735 C7.14789213,17.2716026 6.55991785,16.6052318 5.893547,15.9780592 C4.40401216,14.5669209 3.34565846,12.8421964 2.71848589,10.9606787 C2.32650304,9.74553185 2.1697099,8.45198844 2.01291676,7.19764331 C1.8953219,6.25688446 2.60089104,5.59051361 3.30646017,5.19853076 C4.36481388,4.57135819 5.54076243,4.10097877 6.71671099,3.63059935 C8.24544412,3.04262507 9.73497896,3.2386165 11.1853155,3.86578906 C11.8908846,4.17937534 12.5964538,4.41456505 13.2628246,4.76734962 C13.8116006,5.04173762 14.3211783,5.00253933 14.830756,4.64975477 C15.7715149,4.06178049 16.751472,3.47380621 17.7706274,2.9642285 C19.3385588,2.14106451 20.9456885,1.70988337 22.7488097,2.21946108 C23.6111719,2.45465079 24.4735342,2.6898405 25.2966982,3.12102164 C26.5902416,3.86578906 28.0013799,4.45376334 29.2949233,5.23772904 C30.1964839,5.78650504 30.9804496,6.53127246 31.8036136,7.19764331 C31.8820101,7.23684159 31.9212084,7.35443645 31.999605,7.39363473 C33.8027261,8.72637643 34.5082952,10.7646873 35.4490541,12.6854032 C35.7626404,13.3125758 35.9978301,14.0181449 36.1938215,14.7237141 C36.7033992,16.3308438 36.5858044,18.01637 36.3898129,19.662698 C36.3114164,20.2898706 36.1546232,20.8778449 36.0762267,21.5050174 C35.8018387,23.4649317 34.9394764,25.1112597 33.2931484,26.2480099 C32.1955964,26.9927774 31.8820101,27.8551396 31.8820101,29.1094848 C31.8820101,30.2854333 31.4900273,31.4221836 31.2156393,32.5981322 C31.0588461,33.1077099 30.8236564,33.6172876 30.627665,34.2052619 Z M15.65392,8.68717815 C15.4971269,9.27515243 15.3403338,9.62793699 15.3011355,10.0199198 C15.3011355,11.0782735 15.379532,12.1366273 15.379532,13.194981 C15.4187303,15.9780592 16.1634977,18.565146 17.0650583,21.1522329 C17.4962394,22.3673797 18.1626103,23.3473368 19.1033691,24.2096991 C21.4552663,26.2872082 24.1207497,27.1495705 27.2174142,26.8751825 C27.4526039,26.8359842 27.6877936,26.7967859 28.0797765,26.7183894 C28.0405782,26.2088117 28.158173,25.6600357 28.0013799,25.2680528 C27.2174142,23.4257334 26.4334485,21.583414 25.4142931,19.8586895 C24.2775428,17.9379735 22.9056028,16.2132489 21.6512577,14.3709295 C20.9064903,13.2341792 20.0833263,12.1758255 19.0249726,11.3134633 C18.1626103,10.6078941 17.3394463,9.94152328 16.477084,9.23595414 C16.2810926,9.03996272 16.0459029,8.92236786 15.65392,8.68717815 Z M16.5162823,5.70810847 C17.849024,6.72726388 19.1033691,7.66802273 20.3969126,8.60878158 C21.5336628,9.43194557 22.51362,10.451101 23.4151805,11.548653 C23.8071634,12.0582307 24.2383445,12.5678084 24.7479222,12.9597912 C25.4142931,13.5085672 25.9238708,14.1357398 26.3942502,14.8413089 C27.335009,16.2524472 28.2757679,17.6243872 29.2165267,19.0355255 C30.2748804,20.6426552 31.176441,22.3673797 31.5684239,24.327294 C31.6076221,24.601682 31.725217,24.8368717 31.8036136,25.1896562 C32.5875793,24.6408803 32.8619673,23.8961128 32.9403638,23.1121471 C33.2931484,20.485862 33.4107433,17.8987752 32.3523896,15.3508866 C31.6076221,13.5477655 30.7452599,11.8622393 29.4517164,10.3335061 C28.158173,8.804773 26.4334485,7.78561759 25.1791034,6.25688446 C25.0615085,6.10009132 24.8655171,6.06089304 24.7087239,5.98249646 C23.9639565,5.55131533 23.2191891,5.0809359 22.4352234,4.64975477 C22.1216371,4.49296162 21.8080508,4.37536677 21.4944645,4.25777191 C20.9848868,4.14017706 20.4361108,4.06178049 19.9265331,3.94418563 C18.5545931,3.63059935 17.1434549,4.33616848 16.5162823,5.70810847 Z M13.2236263,19.0355255 C13.1452298,18.6043443 13.1452298,18.290758 13.0668332,18.01637 C12.5964538,16.3308438 12.4788589,14.6061192 12.4396606,12.920593 C12.4004624,11.2350667 12.6748504,9.54954042 12.7924452,7.90321244 C12.8708418,7.19764331 12.8708418,7.11924674 12.2828675,6.88405703 C11.1461172,6.4136776 10.0485652,5.90409989 8.91181497,5.47291876 C8.40223726,5.27692733 7.85346127,5.0809359 7.30468527,5.00253933 C5.81515043,4.84574619 4.79599501,5.94329818 5.07038301,7.43283302 C5.18797787,8.13840215 5.42316758,8.84397129 5.54076243,9.54954042 C5.893547,11.7054461 7.14789213,13.3909724 8.59822869,14.9197055 C9.46059096,15.8212661 10.3621515,16.6444301 11.3029104,17.5067923 C11.8908846,17.9771718 12.3612641,18.6435426 13.2236263,19.0355255 Z M27.7661902,33.538891 C28.5893542,31.7357699 28.432561,30.0502436 28.2757679,28.2079242 C26.0022673,28.7567002 23.8071634,28.7175019 21.416068,28.5215105 C23.1407925,30.9126059 25.2966982,32.3237442 27.7661902,33.538891 Z" id="Shape" fill="#000000" fill-rule="nonzero"></path>
    </g>
</svg>