<?xml version="1.0" encoding="UTF-8"?>
<svg width="40px" height="40px" viewBox="0 0 40 40" version="1.1" xmlns="http://www.w3.org/2000/svg" xmlns:xlink="http://www.w3.org/1999/xlink">
    <!-- Generator: Sketch 52.6 (67491) - http://www.bohemiancoding.com/sketch -->
    <title>uEA06-ideate</title>
    <desc>Created with Sketch.</desc>
    <g id="uEA06-ideate" stroke="none" stroke-width="1" fill="none" fill-rule="evenodd" stroke-linecap="round" stroke-linejoin="round">
        <path d="M24.9750708,26.36 C24.9750708,22.832 28.2278733,19 28.2278733,15.908 C28.2278733,10.4320075 24.3482838,7 19.6538634,7 C14.9594431,7 11.2278733,10.432 11.2278733,15.908 C11.2278733,19.109818 14.3326561,23.063 14.3326561,26.36 C18.7027417,26.3759431 22.8925652,26.36 24.9750708,26.36 Z M24.9750708,26.36 L23.7826264,33.1724184 C23.6988716,33.6509085 23.2833677,34 22.7976026,34 L16.8136782,34 C16.3439934,34 15.9376051,33.6731268 15.8369234,33.21436 L14.3326561,26.36 L24.9750708,26.36 Z M14.9090227,28.8314621 L21.4854678,28.8314621 M15.4260984,31.163 L20.5313836,31.163 M30.3224522,15.908 L33.4277374,15.908 M22.4066999,34.1009427 L22.1920525,35.0198841 C22.086362,35.4723628 21.682923,35.7924256 21.2182647,35.7924256 L18.2062948,35.7924256 C17.7281249,35.7924256 17.3168652,35.4539099 17.2249454,34.9846582 L17.0518379,34.1009427 L22.4066999,34.1009427 Z M6.07560929,15.908 L9.18089449,15.908 M8.21245727,9.23128172 L10.4040648,10.5883104 M31.2913544,9.02799975 L28.951912,10.432 M26.3575982,4.504 L24.9874307,6.59300025 M12.9909889,4.504 L14.3023469,6.59300025" id="Combined-Shape" stroke="#000000"></path>
    </g>
</svg>