<?xml version="1.0" encoding="UTF-8"?>
<svg width="40px" height="40px" viewBox="0 0 40 40" version="1.1" xmlns="http://www.w3.org/2000/svg" xmlns:xlink="http://www.w3.org/1999/xlink">
    <!-- Generator: Sketch 51.2 (57519) - http://www.bohemiancoding.com/sketch -->
    <title>uEA09-linkedin</title>
    <desc>Created with Sketch.</desc>
    <defs></defs>
    <g id="uEA09-linkedin" stroke="none" stroke-width="1" fill="none" fill-rule="evenodd">
        <g fill="#1A1A1A" fill-rule="nonzero">
            <path d="M30.0789889,12.0033889 C35.6870889,12.0033889 39.8799444,15.6661778 39.8799444,23.5432111 L39.8799444,38.2446222 L31.3594333,38.2446222 L31.3594333,24.5233 C31.3594333,21.0757778 30.1282667,18.7217889 27.0438556,18.7217889 C24.6891,18.7217889 23.2812667,20.3203667 22.6650444,21.8517556 C22.4399667,22.3996667 22.3963222,23.1561444 22.3963222,23.9226 L22.3963222,38.2446222 L13.8600333,38.2446222 C13.8600333,38.2446222 13.9719,15.0104667 13.8600333,12.6041 L22.3963222,12.6041 L22.3963222,16.2241111 C23.5294111,14.4767778 25.5592222,12.0033889 30.0789889,12.0033889 Z M0.628766667,12.6041 L9.14923333,12.6041 L9.14923333,38.2446222 L0.628766667,38.2446222 L0.628766667,12.6041 Z M4.94434444,0.242277778 C7.8604,0.242277778 9.64713333,2.15208889 9.70251111,4.6685 C9.70251111,7.1295 7.85356667,9.09473333 4.8811,9.09473333 L4.83376667,9.09473333 C1.97323333,9.09473333 0.123011111,7.1295 0.123011111,4.6685 C0.123011111,2.15208889 2.02864444,0.242277778 4.94442222,0.242277778 L4.94434444,0.242277778 Z"></path>
        </g>
    </g>
</svg>