<?xml version="1.0" encoding="UTF-8"?>
<svg width="40px" height="40px" viewBox="0 0 40 40" version="1.1" xmlns="http://www.w3.org/2000/svg" xmlns:xlink="http://www.w3.org/1999/xlink">
    <!-- Generator: Sketch 51.2 (57519) - http://www.bohemiancoding.com/sketch -->
    <title>uEA14-close-lg</title>
    <desc>Created with Sketch.</desc>
    <defs></defs>
    <g id="uEA14-close-lg" stroke="none" stroke-width="1" fill="none" fill-rule="evenodd">
        <path d="M20.1421356,18.4350288 L6.5,4.79289322 C6.10947571,4.40236893 5.47631073,4.40236893 5.08578644,4.79289322 C4.69526215,5.18341751 4.69526215,5.81658249 5.08578644,6.20710678 L18.7279221,19.8492424 L4.79289322,33.7842712 C4.40236893,34.1747955 4.40236893,34.8079605 4.79289322,35.1984848 C5.18341751,35.5890091 5.81658249,35.5890091 6.20710678,35.1984848 L20.1421356,21.263456 L33.3700577,34.491378 C33.760582,34.8819023 34.393747,34.8819023 34.7842712,34.491378 C35.1747955,34.1008537 35.1747955,33.4676888 34.7842712,33.0771645 L21.5563492,19.8492424 L34.491378,6.91421356 C34.8819023,6.52368927 34.8819023,5.89052429 34.491378,5.5 C34.1008537,5.10947571 33.4676888,5.10947571 33.0771645,5.5 L20.1421356,18.4350288 Z" fill="#000000" fill-rule="nonzero"></path>
    </g>
</svg>