<?xml version="1.0" encoding="UTF-8"?>
<svg width="40px" height="40px" viewBox="0 0 40 40" version="1.1" xmlns="http://www.w3.org/2000/svg" xmlns:xlink="http://www.w3.org/1999/xlink">
    <!-- Generator: Sketch 51.2 (57519) - http://www.bohemiancoding.com/sketch -->
    <title>uEA19-mail</title>
    <desc>Created with Sketch.</desc>
    <defs></defs>
    <g id="uEA19-mail" stroke="none" stroke-width="1" fill="none" fill-rule="evenodd">
        <path d="M2.09002025,30.6077307 L2.09002025,31.3779958 C2.09002025,31.9275699 2.53634502,32.3732 3.08890972,32.3732 L36.7645867,32.3732 C37.3030792,32.3732 37.7491429,31.9347069 37.7631377,31.4037029 L37.5139162,31.6827758 L26.2851465,21.6551086 L23.0101838,24.5426046 C20.9677793,26.3433686 17.719302,26.3401631 15.6851889,24.538952 L12.4226701,21.6499852 L2.16809341,30.6962323 L2.09002025,30.6077307 Z M2.09002025,28.0981089 L10.913905,20.3139708 L2.09002025,12.5004035 L2.09002025,28.0981089 Z M37.7634762,29.2242172 L37.7634762,11.5348004 L27.7960448,20.3229673 L37.7634762,29.2242172 Z M0.0900202534,10.7293996 L-0.156395892,10.5111976 L0.0900202534,10.2329191 L0.0900202534,9.94152942 C0.0900202534,8.29545412 1.43620107,6.9463252 3.08890972,6.9463252 L36.7645867,6.9463252 C38.4210241,6.9463252 39.7634762,8.28668779 39.7634762,9.94152942 L39.7634762,31.3779958 C39.7634762,33.0240711 38.4172954,34.3732 36.7645867,34.3732 L3.08890972,34.3732 C1.43247232,34.3732 0.0900202534,33.0328374 0.0900202534,31.3779958 L0.0900202534,10.7293996 Z M37.4090988,9.1808869 C37.2352633,9.03454448 37.0104409,8.9463252 36.7645867,8.9463252 L3.08890972,8.9463252 C2.57826229,8.9463252 2.15073191,9.34064245 2.09594866,9.83423874 L17.0110812,23.0416178 C18.2894799,24.1736424 20.4021344,24.1757271 21.6875012,23.0424343 L37.4090988,9.1808869 Z" id="Combined-Shape" fill="#000000" fill-rule="nonzero"></path>
    </g>
</svg>