<?xml version="1.0" encoding="UTF-8"?>
<svg width="40px" height="40px" viewBox="0 0 40 40" version="1.1" xmlns="http://www.w3.org/2000/svg" xmlns:xlink="http://www.w3.org/1999/xlink">
    <!-- Generator: Sketch 52.6 (67491) - http://www.bohemiancoding.com/sketch -->
    <title>uEA10-experience-mapping</title>
    <desc>Created with Sketch.</desc>
    <g id="uEA10-experience-mapping" stroke="none" stroke-width="1" fill="none" fill-rule="evenodd">
        <g id="mapping" transform="translate(3.000000, 4.000000)" fill="#000000" fill-rule="nonzero">
            <path d="M7.584,17.76 C9.28,19.456 9.28,22.144 7.616,23.84 L4.544,27.392 L4.352,27.168 L1.504,23.84 C-0.192,22.144 -0.192,19.456 1.504,17.76 C3.2,16.064 5.888,16.064 7.584,17.76 Z M7.264,23.52 C8.768,22.016 8.768,19.584 7.264,18.08 C5.76,16.576 3.328,16.576 1.824,18.08 C0.32,19.584 0.32,22.016 1.856,23.52 L4.544,26.624 L7.264,23.52 Z M4.544,22.4 C5.44,22.4 6.176,21.696 6.176,20.8 C6.176,19.904 5.44,19.168 4.544,19.168 C3.648,19.168 2.944,19.904 2.944,20.8 C2.944,21.696 3.648,22.4 4.544,22.4 Z M4.544,22.88 C3.392,22.88 2.464,21.952 2.464,20.8 C2.464,19.648 3.392,18.688 4.544,18.688 C5.696,18.688 6.656,19.648 6.656,20.8 C6.656,21.952 5.696,22.88 4.544,22.88 Z M32.024,7.392 L28.952,10.912 L28.76,10.72 L25.912,7.392 C24.216,5.696 24.216,3.008 25.912,1.312 C27.608,-0.384 30.296,-0.384 31.992,1.312 C33.688,3.008 33.688,5.696 32.024,7.392 Z M31.672,7.072 C33.176,5.568 33.176,3.136 31.672,1.632 C30.168,0.128 27.736,0.128 26.232,1.632 C24.728,3.136 24.728,5.568 26.264,7.072 L28.952,10.176 L31.672,7.072 Z M28.952,5.952 C29.848,5.952 30.584,5.248 30.584,4.352 C30.584,3.456 29.848,2.72 28.952,2.72 C28.056,2.72 27.352,3.456 27.352,4.352 C27.352,5.248 28.056,5.952 28.952,5.952 Z M28.952,6.432 C27.8,6.432 26.872,5.504 26.872,4.352 C26.872,3.2 27.8,2.24 28.952,2.24 C30.104,2.24 31.064,3.2 31.064,4.352 C31.064,5.504 30.104,6.432 28.952,6.432 Z M25.216,23.488 C25.216,22.976 24.928,22.528 24.448,22.368 L17.664,19.68 L18.336,19.488 L29.336,15.008 C29.976,14.784 30.296,14.208 30.136,13.568 C29.912,12.96 29.304,12.608 28.696,12.768 L13.728,18.336 C13.248,18.496 12.896,18.944 12.896,19.392 C12.896,19.904 13.184,20.352 13.632,20.512 L20.48,23.2 L19.808,23.392 L4.224,29.152 C3.616,29.312 3.264,29.984 3.424,30.592 C3.584,31.104 4.064,31.456 4.544,31.456 C4.768,31.424 4.864,31.392 4.992,31.424 L24.352,24.544 C24.832,24.384 25.216,23.936 25.216,23.488 Z M24.608,21.92 C25.28,22.144 25.696,22.784 25.696,23.488 C25.696,24.16 25.184,24.768 24.48,24.992 L4.992,31.936 C4.864,31.904 4.8,31.904 4.704,31.904 C4.64,31.904 4.608,31.936 4.544,31.936 C3.84,31.936 3.2,31.456 2.976,30.72 C2.72,29.856 3.232,28.928 4.096,28.704 L19.008,23.136 L13.472,20.96 C12.8,20.736 12.416,20.096 12.416,19.392 C12.416,18.72 12.896,18.112 13.6,17.888 L28.568,12.32 C29.4,12.096 30.296,12.544 30.584,13.44 C30.808,14.336 30.36,15.168 29.464,15.456 L19.168,19.744 L24.608,21.92 Z" id="Shape"></path>
        </g>
    </g>
</svg>