<?xml version="1.0" encoding="UTF-8"?>
<svg width="40px" height="40px" viewBox="0 0 40 40" version="1.1" xmlns="http://www.w3.org/2000/svg" xmlns:xlink="http://www.w3.org/1999/xlink">
    <!-- Generator: Sketch 51.2 (57519) - http://www.bohemiancoding.com/sketch -->
    <title>uEA11-arrow-long-left</title>
    <desc>Created with Sketch.</desc>
    <defs></defs>
    <g id="uEA11-arrow-long-left" stroke="none" stroke-width="1" fill="none" fill-rule="evenodd">
        <g transform="translate(0.000000, 7.000000)" fill="#000000" fill-rule="nonzero" id="Path">
            <path d="M14.1485587,23.6388829 C14.7334649,24.2255482 14.7320389,25.1752946 14.1453736,25.7602008 C13.5587082,26.3451071 12.6089618,26.343681 12.0240556,25.7570157 L0.959830338,14.6595148 C0.278033857,13.9756678 0.279014293,12.8688044 0.962021177,12.1861663 L12.0259335,1.12822836 C12.6118781,0.542600149 13.5616255,0.542856644 14.1472537,1.12880126 C14.7328819,1.71474588 14.7326255,2.66449331 14.1466808,3.25012153 L3.96580264,13.4255022 L14.1485587,23.6388829 Z"></path>
            <path d="M38.4760064,12.2060942 C39.3044306,12.2082842 39.9742258,12.88163 39.9720359,13.7100542 C39.9698459,14.5384785 39.2965001,15.2082737 38.4680758,15.2060837 L1.94855833,15.1095432 C1.1201341,15.1073532 0.450338889,14.4340074 0.452528855,13.6055832 C0.45471882,12.7771589 1.12806467,12.1073637 1.9564889,12.1095537 L38.4760064,12.2060942 Z"></path>
        </g>
    </g>
</svg>