<?xml version="1.0" encoding="UTF-8"?>
<svg width="40px" height="40px" viewBox="0 0 40 40" version="1.1" xmlns="http://www.w3.org/2000/svg" xmlns:xlink="http://www.w3.org/1999/xlink">
    <!-- Generator: Sketch 52.6 (67491) - http://www.bohemiancoding.com/sketch -->
    <title>uEA11-refining</title>
    <desc>Created with Sketch.</desc>
    <g id="uEA11-refining" stroke="none" stroke-width="1" fill="none" fill-rule="evenodd" stroke-linecap="round" stroke-linejoin="round">
        <path d="M20.1187279,11.5229522 C27.2984296,11.5229522 32.9303122,9.568 32.9303122,8.736 C32.9303122,7.904 27.2984296,6 20.1187279,6 C12.9390261,6 7,7.904 7,8.76147611 C7,9.61895221 12.9390261,11.5229522 20.1187279,11.5229522 Z M7.15164131,13.3562624 C9.41304243,14.3466441 12.6875334,15.5 19.8489606,15.6077488 M36.2679711,11.264 L36.2679711,9.76165114 C36.1744369,9.04721738 35.6348114,8.32433376 34.6490949,7.59300025 C33.17052,6.496 28.912195,4.39104732 20,4.39104732 C10.6122154,4.39104732 6.07552251,6.734004 4.81383702,7.69293534 C3.97271335,8.33222291 3.4925333,9.02179484 3.37329687,9.76165114 L3.37329687,11.264 C3.53149625,11.8382393 3.73076366,12.2502393 3.97109909,12.5 C7.30126602,15.9607671 10.7503468,19.4607671 14.3183416,23 C16.1688583,24.7071388 17.0941167,26.2071388 17.0941167,27.5 C17.0941167,30.0206213 17.0941167,32.5412426 17.0941167,35.0618638 L17.0941167,35.0618638 C17.0941167,35.3380062 17.3179743,35.5618638 17.5941167,35.5618638 C17.6749925,35.5618638 17.7546612,35.5422453 17.8262891,35.5046911 L22.3118189,33.1529469 C22.4764833,33.066614 22.5796465,32.8960437 22.5796465,32.7101197 C22.5796465,30.9734131 22.5796465,29.2367066 22.5796465,27.5 C22.5796465,25.8967937 24.3837855,23.9738091 25.4377547,22.9410491 C27.9474165,20.4818896 32.0136823,16.4173822 35.7513063,12.5 C35.9893444,12.2505137 36.161566,11.8385137 36.2679711,11.264 Z" id="Combined-Shape" stroke="#000000"></path>
    </g>
</svg>