<?xml version="1.0" encoding="UTF-8"?>
<svg width="40px" height="40px" viewBox="0 0 40 40" version="1.1" xmlns="http://www.w3.org/2000/svg" xmlns:xlink="http://www.w3.org/1999/xlink">
    <!-- Generator: Sketch 52.6 (67491) - http://www.bohemiancoding.com/sketch -->
    <title>uEA10-experience-mapping</title>
    <desc>Created with Sketch.</desc>
    <g id="uEA10-experience-mapping" stroke="none" stroke-width="1" fill="none" fill-rule="evenodd" stroke-linejoin="round">
        <path d="M8.61463019,35.7565549 L29.0109199,28.2586718 C29.4331414,28.0301634 29.6442521,27.6343324 29.6442521,27.0711788 C29.6442521,26.5080252 29.4331414,26.1047619 29.0109199,25.861389 L22.2517109,23.0591723 L34.8133668,18.1072933 C35.4141011,17.50881 35.5395612,16.899361 35.1897471,16.2789461 C34.839933,15.6585312 34.2869378,15.40564 33.5307615,15.5202727 L17.3629751,21.2344736 C16.5256268,21.6043339 16.1069527,22.1287436 16.1069527,22.8077026 C16.1069527,23.4866616 16.5256268,23.9730055 17.3629751,24.2667341 L23.5576939,26.7411397 L7.35013627,32.92608 C6.51657511,33.4391045 6.23802226,34.0846817 6.51447773,34.8628117 C6.79093321,35.6409417 7.49098403,35.9388561 8.61463019,35.7565549 Z M33.8208511,13.1529469 C35.9661936,10.7223616 37.8534838,9.02748388 37.8534838,6.80032235 C37.8534838,4.57316082 36.0480126,2.76768968 33.8208511,2.76768968 C31.5936896,2.76768968 29.7882184,4.57316082 29.7882184,6.80032235 C29.7882184,9.02748388 31.7342847,10.7223616 33.8208511,13.1529469 Z M33.8066371,8.48628494 C34.7443893,8.48628494 35.5045877,7.72608656 35.5045877,6.78833434 C35.5045877,5.85058212 34.7443893,5.09038374 33.8066371,5.09038374 C32.8688849,5.09038374 32.1086865,5.85058212 32.1086865,6.78833434 C32.1086865,7.72608656 32.8688849,8.48628494 33.8066371,8.48628494 Z M7.21658844,29.5855372 C9.36193094,27.1549519 11.2492211,25.4600742 11.2492211,23.2329126 C11.2492211,21.0057511 9.44374997,19.20028 7.21658844,19.20028 C4.98942691,19.20028 3.18395577,21.0057511 3.18395577,23.2329126 C3.18395577,25.4600742 5.13002209,27.1549519 7.21658844,29.5855372 Z M7.21231778,24.8884145 C8.15007,24.8884145 8.91026838,24.1282161 8.91026838,23.1904639 C8.91026838,22.2527117 8.15007,21.4925133 7.21231778,21.4925133 C6.27456556,21.4925133 5.51436718,22.2527117 5.51436718,23.1904639 C5.51436718,24.1282161 6.27456556,24.8884145 7.21231778,24.8884145 Z" id="Combined-Shape" stroke="#000000"></path>
    </g>
</svg>