<?xml version="1.0" encoding="UTF-8"?>
<svg width="40px" height="40px" viewBox="0 0 40 40" version="1.1" xmlns="http://www.w3.org/2000/svg" xmlns:xlink="http://www.w3.org/1999/xlink">
    <!-- Generator: Sketch 52.6 (67491) - http://www.bohemiancoding.com/sketch -->
    <title>uEA10-experience-mapping</title>
    <desc>Created with Sketch.</desc>
    <g id="uEA10-experience-mapping" stroke="none" stroke-width="1" fill="none" fill-rule="evenodd" stroke-linejoin="round">
        <path d="M7.54261019,26.36 C8.42626579,26.36 9.14261019,25.6436556 9.14261019,24.76 C9.14261019,23.8763444 8.42626579,23.16 7.54261019,23.16 C6.65895459,23.16 5.94261019,23.8763444 5.94261019,24.76 C5.94261019,25.6436556 6.65895459,26.36 7.54261019,26.36 Z M8.22155831,35.6311191 L27.4412361,28.5657704 C27.8391007,28.3504441 28.038033,27.9774477 28.038033,27.446781 C28.038033,26.9161143 27.8391007,26.5361143 27.4412361,26.306781 L21.0719493,23.6662173 L32.9089542,19 C33.4750336,18.4360418 33.5932562,17.8617503 33.263622,17.2771256 C32.9339878,16.6925009 32.4128935,16.4541985 31.7003392,16.5622183 L16.4652327,21.946781 C15.676189,22.295305 15.2816671,22.7894627 15.2816671,23.4292543 C15.2816671,24.0690458 15.676189,24.5273336 16.4652327,24.8041178 L22.3025933,27.135781 L7.03000994,32.9639273 C6.24453487,33.4473566 5.98205106,34.0556921 6.24255849,34.7889337 C6.50306593,35.5221753 7.16273254,35.8029038 8.22155831,35.6311191 Z M7.54663449,30.7861572 C9.56821745,28.4957865 11.3466345,26.898682 11.3466345,24.8 C11.3466345,22.701318 9.64531654,21 7.54663449,21 C5.44795244,21 3.74663449,22.701318 3.74663449,24.8 C3.74663449,26.898682 5.58043702,28.4957865 7.54663449,30.7861572 Z M31.9603002,9.934004 C32.8439558,9.934004 33.5603002,9.2176596 33.5603002,8.334004 C33.5603002,7.4503484 32.8439558,6.734004 31.9603002,6.734004 C31.0766446,6.734004 30.3603002,7.4503484 30.3603002,8.334004 C30.3603002,9.2176596 31.0766446,9.934004 31.9603002,9.934004 Z M31.9736942,14.3314577 C33.9952772,12.0410869 35.7736942,10.4439825 35.7736942,8.34530045 C35.7736942,6.2466184 34.0723763,4.54530045 31.9736942,4.54530045 C29.8750122,4.54530045 28.1736942,6.2466184 28.1736942,8.34530045 C28.1736942,10.4439825 30.0074968,12.0410869 31.9736942,14.3314577 Z" id="Combined-Shape" stroke="#000000"></path>
    </g>
</svg>