<?xml version="1.0" encoding="UTF-8"?>
<svg width="40px" height="40px" viewBox="0 0 40 40" version="1.1" xmlns="http://www.w3.org/2000/svg" xmlns:xlink="http://www.w3.org/1999/xlink">
    <!-- Generator: Sketch 51.2 (57519) - http://www.bohemiancoding.com/sketch -->
    <title>uEA10-arrow-long-right</title>
    <desc>Created with Sketch.</desc>
    <defs></defs>
    <g id="uEA10-arrow-long-right" stroke="none" stroke-width="1" fill="none" fill-rule="evenodd">
        <g transform="translate(0.000000, 7.000000)" fill="#2B2D2F" fill-rule="nonzero" id="path-1">
            <path d="M34.3553495,15.0540855 L1.516399,15.1962454 C0.68797964,15.1998317 0.01350584,14.5311723 0.00991961,13.7027529 C0.00633338,12.8743336 0.67499275,12.1998598 1.50341211,12.1962736 L34.6846916,12.0526317 L25.8694514,3.2302593 C25.2839018,2.644236 25.2842859,1.6944886 25.8703092,1.1089391 C26.4563324,0.5233896 27.4060798,0.5237737 27.9916293,1.1097969 L39.2032704,12.3305089 C39.788817,12.9165293 39.7884363,13.866271 39.20242,14.4518217 L27.8887524,25.7565002 C27.3027332,26.3420538 26.3529858,26.3416763 25.7674322,25.7556571 C25.1818786,25.1696379 25.1822561,24.2198905 25.7682753,23.6343369 L34.3553495,15.0540855 Z"></path>
        </g>
    </g>
</svg>