<?xml version="1.0" encoding="UTF-8"?>
<svg width="40px" height="40px" viewBox="0 0 40 40" version="1.1" xmlns="http://www.w3.org/2000/svg" xmlns:xlink="http://www.w3.org/1999/xlink">
    <!-- Generator: Sketch 51.2 (57519) - http://www.bohemiancoding.com/sketch -->
    <title>uEA15-refresh</title>
    <desc>Created with Sketch.</desc>
    <defs></defs>
    <g id="uEA15-refresh" stroke="none" stroke-width="1" fill="none" fill-rule="evenodd">
        <path d="M8.33069682,10.0245222 L14.8853954,10.0245222 C15.7138225,10.0245222 16.3853954,10.6960951 16.3853954,11.5245222 C16.3853954,12.3529493 15.7138225,13.0245222 14.8853954,13.0245222 L4.5236613,13.0245222 C3.69523418,13.0245222 3.0236613,12.3529493 3.0236613,11.5245222 L3.0236613,1.59085821 C3.0236613,0.762431082 3.69523418,0.0908582067 4.5236613,0.0908582067 C5.35208843,0.0908582067 6.0236613,0.762431082 6.0236613,1.59085821 L6.0236613,8.10592854 C9.6027674,3.95332033 14.8882581,1.5 20.6159719,1.5 C31.184625,1.5 39.5,9.78850037 39.5,20.3523215 C39.5,30.9657434 31.1360322,39.5 20.6159719,39.5 C10.0579077,39.5 1.5,30.9266891 1.5,20.3523215 C1.5,19.5238944 2.17157288,18.8523215 3,18.8523215 C3.82842712,18.8523215 4.5,19.5238944 4.5,20.3523215 C4.5,29.2710413 11.7159708,36.5 20.6159719,36.5 C29.4654933,36.5 36.5,29.3222721 36.5,20.3523215 C36.5,11.4475325 29.5299408,4.5 20.6159719,4.5 C15.7855364,4.5 11.3433275,6.55285573 8.33069682,10.0245222 Z" id="Combined-Shape" fill="#000000" fill-rule="nonzero"></path>
    </g>
</svg>