<?xml version="1.0" encoding="UTF-8"?>
<svg width="40px" height="40px" viewBox="0 0 40 40" version="1.1" xmlns="http://www.w3.org/2000/svg" xmlns:xlink="http://www.w3.org/1999/xlink">
    <!-- Generator: Sketch 52.6 (67491) - http://www.bohemiancoding.com/sketch -->
    <title>uEA12-backlog</title>
    <desc>Created with Sketch.</desc>
    <g id="uEA12-backlog" stroke="none" stroke-width="1" fill="none" fill-rule="evenodd">
        <g id="clipboard" transform="translate(8.000000, 4.000000)" fill="#000000" fill-rule="nonzero">
            <path d="M11.776,4.736 C10.976,4.736 10.304,4.064 10.304,3.264 C10.304,2.432 10.976,1.792 11.776,1.792 C12.608,1.792 13.248,2.432 13.248,3.264 C13.248,4.064 12.608,4.736 11.776,4.736 Z M11.744,3.904 C12.128,3.904 12.448,3.584 12.448,3.2 C12.448,2.816 12.128,2.496 11.744,2.496 C11.328,2.496 11.008,2.816 11.008,3.2 C11.008,3.584 11.328,3.904 11.744,3.904 Z M7.424,4.704 L5.088,4.704 C4.896,4.704 4.736,4.864 4.736,5.056 L4.736,6.528 L3.168,6.528 C1.6,6.528 0.32,7.808 0.32,9.376 L0.32,29.12 C0.32,30.688 1.6,31.968 3.168,31.968 L20.288,31.968 C21.888,31.968 23.136,30.688 23.136,29.12 L23.136,9.376 C23.136,7.808 21.888,6.528 20.288,6.528 L18.752,6.528 L18.752,5.056 C18.752,4.864 18.592,4.704 18.368,4.704 L16.032,4.704 C15.84,4.704 15.648,4.64 15.552,4.48 C15.392,4.32 15.328,4.128 15.328,3.904 L15.328,3.648 C15.36,2.688 14.944,1.76 14.272,1.056 C13.536,0.384 12.608,0.032 11.616,0.032 C9.76,0.096 8.256,1.568 8.128,3.456 C8.128,3.616 8.128,3.808 8.128,3.968 C8.16,4.16 8.096,4.352 7.968,4.48 C7.84,4.608 7.648,4.704 7.424,4.704 Z M20.288,7.264 C21.472,7.264 22.432,8.192 22.432,9.376 L22.432,29.12 C22.432,30.304 21.472,31.264 20.288,31.264 L3.168,31.264 C1.984,31.264 1.024,30.304 1.024,29.12 L1.024,9.376 C1.024,8.192 1.984,7.264 3.168,7.264 L4.736,7.264 L4.736,9.088 C4.736,9.312 4.896,9.472 5.088,9.472 L18.368,9.472 C18.592,9.472 18.752,9.312 18.752,9.088 L18.752,7.264 L20.288,7.264 Z M8.512,4.928 C8.768,4.672 8.896,4.288 8.864,3.904 C8.832,3.776 8.832,3.616 8.864,3.488 C8.96,1.984 10.176,0.8 11.648,0.736 C12.448,0.704 13.216,1.024 13.76,1.568 C14.336,2.112 14.624,2.88 14.624,3.648 L14.624,3.872 C14.592,4.288 14.72,4.672 15.008,4.992 C15.264,5.248 15.648,5.408 16.032,5.408 L18.016,5.408 L18.016,8.736 L5.44,8.736 L5.44,5.408 L7.424,5.408 C7.84,5.408 8.224,5.248 8.512,4.928 Z M13.728,18.688 L10.944,21.344 L9.408,19.808 C9.28,19.712 9.088,19.712 8.96,19.84 C8.832,19.968 8.832,20.16 8.928,20.288 L10.656,22.08 C10.72,22.144 10.816,22.176 10.912,22.176 C11.008,22.176 11.104,22.144 11.168,22.08 L14.208,19.232 C14.304,19.136 14.368,19.008 14.336,18.88 C14.304,18.752 14.208,18.656 14.08,18.624 C13.952,18.592 13.824,18.624 13.728,18.688 Z M11.744,13.952 C8.192,13.952 5.312,16.832 5.312,20.384 C5.312,23.936 8.192,26.816 11.744,26.816 C15.296,26.816 18.176,23.936 18.176,20.384 C18.176,16.832 15.296,13.952 11.744,13.952 Z M11.744,26.112 C8.576,26.112 6.016,23.52 6.016,20.384 C6.016,17.216 8.576,14.656 11.744,14.656 C14.912,14.656 17.472,17.216 17.472,20.384 C17.472,23.52 14.912,26.112 11.744,26.112 Z" id="Shape"></path>
        </g>
    </g>
</svg>