<?xml version="1.0" encoding="UTF-8"?>
<svg width="40px" height="40px" viewBox="0 0 40 40" version="1.1" xmlns="http://www.w3.org/2000/svg" xmlns:xlink="http://www.w3.org/1999/xlink">
    <!-- Generator: Sketch 52.6 (67491) - http://www.bohemiancoding.com/sketch -->
    <title>uEA11-refining</title>
    <desc>Created with Sketch.</desc>
    <g id="uEA11-refining" stroke="none" stroke-width="1" fill="none" fill-rule="evenodd">
        <g id="refining" transform="translate(3.000000, 4.000000)" fill="#000000" fill-rule="nonzero">
            <path d="M16.832,0 C7.392,0 0,2.56 0,5.888 L0,6.912 C0,7.776 0.352,8.576 0.96,9.152 L12.224,20.512 C13.184,21.472 13.696,22.72 13.696,24.064 L13.696,30.976 C13.696,31.488 14.144,31.904 14.656,31.904 C14.784,31.904 14.976,31.904 15.104,31.808 L19.008,29.856 C19.616,29.536 20,28.928 20,28.256 L20,24.096 C20,22.752 20.512,21.504 21.472,20.544 L32.672,9.152 C33.28,8.544 33.632,7.744 33.632,6.88 L33.632,5.888 C33.632,2.56 26.272,8.8817842e-16 16.832,0 Z M16.832,0.832 C26.4,0.832 32.832,3.456 32.832,5.888 L32.832,6.912 C32.832,7.552 32.576,8.16 32.096,8.576 L20.832,19.936 C19.744,21.056 19.136,22.496 19.136,24.064 L19.136,28.256 C19.136,28.608 18.944,28.928 18.624,29.088 L14.72,31.072 C14.688,31.072 14.688,31.104 14.656,31.104 C14.592,31.104 14.528,31.04 14.528,30.976 L14.528,24.096 C14.528,22.528 13.92,21.056 12.832,19.968 L1.536,8.576 C1.088,8.16 0.832,7.552 0.832,6.912 L0.832,5.888 C0.832,3.456 7.264,0.832 16.832,0.832 Z M16.832,1.632 C10.624,1.632 6.112,2.816 4,3.936 C3.68,4.096 3.488,4.416 3.488,4.8 C3.488,5.152 3.68,5.472 4,5.632 C6.112,6.752 10.624,7.936 16.832,7.936 C23.04,7.936 27.52,6.752 29.664,5.632 C29.984,5.472 30.176,5.152 30.176,4.8 C30.176,4.416 29.984,4.096 29.664,3.936 C27.52,2.816 23.04,1.632 16.832,1.632 Z M16.832,2.464 C22.88,2.464 27.232,3.616 29.28,4.672 C29.344,4.704 29.376,4.768 29.376,4.8 C29.344,4.8 29.344,4.864 29.28,4.896 C27.232,5.952 22.88,7.104 16.832,7.104 C10.752,7.104 6.4,5.952 4.352,4.896 C4.288,4.864 4.256,4.8 4.256,4.8 C4.256,4.768 4.256,4.704 4.352,4.672 C6.4,3.616 10.752,2.464 16.832,2.464 Z M4.192,8.96 C4.032,8.928 3.872,9.024 3.808,9.152 C3.68,9.344 3.776,9.6 3.968,9.696 C6.112,10.816 10.592,12 16.8,12 C17.024,12 17.216,11.808 17.216,11.584 C17.216,11.392 17.056,11.2 16.832,11.2 C10.752,11.2 6.4,10.048 4.352,8.992 C4.288,8.96 4.256,8.96 4.192,8.96 Z" id="Shape"></path>
        </g>
    </g>
</svg>