<?xml version="1.0" encoding="UTF-8"?>
<svg width="40px" height="40px" viewBox="0 0 40 40" version="1.1" xmlns="http://www.w3.org/2000/svg" xmlns:xlink="http://www.w3.org/1999/xlink">
    <!-- Generator: Sketch 52.6 (67491) - http://www.bohemiancoding.com/sketch -->
    <title>uEA12-backlog</title>
    <desc>Created with Sketch.</desc>
    <g id="uEA12-backlog" stroke="none" stroke-width="1" fill="none" fill-rule="evenodd" stroke-linecap="round" stroke-linejoin="round">
        <path d="M15.7221804,9.02799975 L13.3310577,9.02799975 C13.1929866,9.02799975 13.0810577,9.13992856 13.0810577,9.27799975 L13.0810577,12.8482704 C13.0810577,12.9863416 13.1929866,13.0982704 13.3310577,13.0982704 L26.1315324,13.0982704 C26.2696036,13.0982704 26.3815324,12.9863416 26.3815324,12.8482704 C26.3815324,12.8477743 26.3815309,12.8472781 26.381528,12.846782 L26.3602712,9.27651132 C26.3594526,9.13902348 26.2477659,9.02799975 26.1102756,9.02799975 L23.7204061,9.02799975 C23.2467327,8.83910583 23.0098961,8.49643925 23.0098961,8 C23.1200434,7 22.4548311,4.39104732 19.7312951,4.39104732 C17.007759,4.39104732 16.3306093,7.15845755 16.5065764,8 C16.5065764,8.49643925 16.245111,8.83910583 15.7221804,9.02799975 Z M19.7617011,8.30060372 C20.3692143,8.30060372 20.8588786,7.84046523 20.8588786,7.232952 C20.8588786,6.62543878 20.3692143,6.13699322 19.7617011,6.13699322 C19.1541878,6.13699322 18.6645235,6.62543878 18.6645235,7.232952 C18.6645235,7.84046523 19.1541878,8.30060372 19.7617011,8.30060372 Z M19.6548101,30.4477131 C23.0830644,30.4477131 25.8175055,27.7031517 25.8175055,24.3688046 C25.8175055,21.0344576 22.9278385,18.2898962 19.6660904,18.2898962 C16.4043424,18.2898962 13.6548101,20.9929186 13.6548101,24.3272657 C13.6548101,27.6616128 16.2265559,30.4477131 19.6548101,30.4477131 Z M12.8585806,10.8708667 L11.117922,10.9045029 C9.75629049,10.9308148 8.66622251,12.0421506 8.66622251,13.4040363 L8.66622251,33.1090152 C8.66622251,34.4897271 9.78551063,35.6090152 11.1662225,35.6090152 L28.3448685,35.6090152 C29.7255803,35.6090152 30.8448685,34.4897271 30.8448685,33.1090152 L30.8448685,13.3708667 C30.8448685,11.9901549 29.7255803,10.8708667 28.3448685,10.8708667 L26.5435003,10.8708667 M17.2093942,24.0924477 L18.9222677,25.82566 L21.9943033,22.9410491" id="Combined-Shape" stroke="#000000"></path>
    </g>
</svg>