<?xml version="1.0" encoding="UTF-8"?>
<svg width="40px" height="40px" viewBox="0 0 40 40" version="1.1" xmlns="http://www.w3.org/2000/svg" xmlns:xlink="http://www.w3.org/1999/xlink">
    <!-- Generator: Sketch 52.6 (67491) - http://www.bohemiancoding.com/sketch -->
    <title>uEA12-backlog</title>
    <desc>Created with Sketch.</desc>
    <g id="uEA12-backlog" stroke="none" stroke-width="1" fill="none" fill-rule="evenodd" stroke-linecap="round" stroke-linejoin="round">
        <path d="M16.0103837,7.26417094 L13.262009,7.26417094 C13.1239378,7.26417094 13.012009,7.37609976 13.012009,7.51417094 L13.012009,11.6350078 C13.012009,11.773079 13.1239378,11.8850078 13.262009,11.8850078 L27.8617776,11.8850078 C27.9998488,11.8850078 28.1117776,11.773079 28.1117776,11.6350078 C28.1117776,11.6345116 28.1117761,11.6340155 28.1117732,11.6335194 L28.0872385,7.51268252 C28.0864199,7.37519468 27.9747332,7.26417094 27.8372429,7.26417094 L25.0904915,7.26417094 C24.5527466,7.04972624 24.2838741,6.66070878 24.2838741,6.09711856 C24.4089206,4.96185331 23.6537282,2 20.5617924,2 C17.4698565,2 16.701112,5.14174465 16.9008813,6.09711856 C16.9008813,6.66070878 16.6040488,7.04972624 16.0103837,7.26417094 Z M20.5963112,6.43838351 C21.2859999,6.43838351 21.8418988,5.91600427 21.8418988,5.22631562 C21.8418988,4.53662697 21.2859999,3.9821117 20.5963112,3.9821117 C19.9066226,3.9821117 19.3507236,4.53662697 19.3507236,5.22631562 C19.3507236,5.91600427 19.9066226,6.43838351 20.5963112,6.43838351 Z M20.4749617,31.5812271 C24.3669396,31.5812271 27.4712556,28.465422 27.4712556,24.6800536 C27.4712556,20.8946853 24.190717,17.7788802 20.4877678,17.7788802 C16.7848186,17.7788802 13.6633702,20.8475275 13.6633702,24.6328959 C13.6633702,28.4182643 16.5829837,31.5812271 20.4749617,31.5812271 Z M12.7594384,9.35631379 L10.4516995,9.40090811 C9.09006798,9.42722003 8,10.5385558 8,11.9004415 L8,34.9406741 C8,36.321386 9.11928813,37.4406741 10.5,37.4406741 L30.678646,37.4406741 C32.0593579,37.4406741 33.178646,36.321386 33.178646,34.9406741 L33.178646,11.8563138 C33.178646,10.4756019 32.0593579,9.35631379 30.678646,9.35631379 L28.2954522,9.35631379 M17.6987659,24.3663152 L19.6433317,26.3339709 L23.130907,23.0591723" id="Combined-Shape" stroke="#000000"></path>
    </g>
</svg>