<?xml version="1.0" encoding="UTF-8"?>
<svg width="40px" height="40px" viewBox="0 0 40 40" version="1.1" xmlns="http://www.w3.org/2000/svg" xmlns:xlink="http://www.w3.org/1999/xlink">
    <!-- Generator: Sketch 51.3 (57544) - http://www.bohemiancoding.com/sketch -->
    <title>uEA27-health-stethoscope</title>
    <desc>Created with Sketch.</desc>
    <defs>
        <path d="M12.3113888,30.029154 C10.2397922,30.029154 8.56488457,31.6895659 8.56488457,33.7321347 C8.56488457,35.7747035 10.2397922,37.4351154 12.3113888,37.4351154 L14.4727295,37.4351154 C16.5443261,37.4351154 18.2192337,35.7747035 18.2192337,33.7321347 L18.2192337,30.029154 L12.3113888,30.029154 Z M28.4699644,30.029154 L20.7841183,30.029154 L20.7841183,33.7321347 C20.7841183,37.1962648 17.955906,40 14.4727295,40 L12.3113888,40 C8.82821227,40 6,37.1962648 6,33.7321347 C6,30.2680046 8.82821227,27.4642694 12.3113888,27.4642694 L18.2192337,27.4642694 L18.2192337,22.806713 C16.1257062,22.4819728 14.112591,21.5223884 12.494923,19.9275311 C10.5269743,17.9873142 9.4198461,15.3477588 9.4198461,12.5938686 L9.4198461,1.28244229 C9.4198461,0.574168969 9.99401507,0 10.7022884,0 L13.7512381,0 C14.4595114,0 15.0336804,0.574168969 15.0336804,1.28244229 C15.0336804,1.99071561 14.4595114,2.56488457 13.7512381,2.56488457 L11.9847307,2.56488457 L11.9847307,12.5938686 C11.9847307,14.6603644 12.816017,16.6422725 14.2956513,18.1010562 C17.3653055,21.1274254 22.3310011,21.1206627 25.3921661,18.0859909 L25.4586488,18.0200836 C26.9289866,16.5624709 27.7543794,14.5870617 27.7543794,12.528061 L27.7543794,2.56488457 L25.947037,2.56488457 C25.2387636,2.56488457 24.6645947,1.99071561 24.6645947,1.28244229 C24.6645947,0.574168969 25.2387636,0 25.947037,0 L29.0368217,0 C29.745095,0 30.319264,0.574168969 30.319264,1.28244229 L30.319264,12.528061 C30.319264,15.27202 29.219976,17.9029414 27.2643967,19.8415959 L27.197914,19.9075032 C25.4061166,21.6837933 23.1242974,22.6777132 20.7841183,22.8886752 L20.7841183,27.4642694 L28.5331894,27.4642694 C29.0437968,26.3903468 30.1431293,25.6488457 31.4142947,25.6488457 C33.1710339,25.6488457 34.5995898,27.065038 34.5995898,28.8176724 C34.5995898,30.5703068 33.1710339,31.986499 31.4142947,31.986499 C30.087864,31.986499 28.9485321,31.1791213 28.4699644,30.029154 Z" id="path-1"></path>
    </defs>
    <g id="uEA27-health-stethoscope" stroke="none" stroke-width="1" fill="none" fill-rule="evenodd">
        <mask id="mask-2" fill="white">
            <use xlink:href="#path-1"></use>
        </mask>
        <use id="Icons" fill="#000000" fill-rule="nonzero" xlink:href="#path-1"></use>
    </g>
</svg>