<?xml version="1.0" encoding="UTF-8"?>
<svg width="40px" height="40px" viewBox="0 0 40 40" version="1.1" xmlns="http://www.w3.org/2000/svg" xmlns:xlink="http://www.w3.org/1999/xlink">
    <!-- Generator: Sketch 51.3 (57544) - http://www.bohemiancoding.com/sketch -->
    <title>uEA26-people-environment</title>
    <desc>Created with Sketch.</desc>
    <defs>
        <path d="M20.8274651,3.56340405 C20.8274651,2.96244136 20.3512106,2.48097643 19.7701102,2.48097643 C19.1890985,2.48097643 18.7128507,2.96244841 18.7128507,3.56340405 C18.7128507,4.16441495 19.1890575,4.64583166 19.7701102,4.64583166 C20.3512516,4.64583166 20.8274651,4.164422 20.8274651,3.56340405 Z M16.8826227,25.8468407 C17.2171722,25.7939449 17.5517069,25.7511985 17.8858586,25.7184202 L17.8858586,18.6073232 C17.8858586,16.9533389 20.366835,16.9533389 20.366835,18.6073232 L20.366835,22.9442365 C20.366835,23.6293392 19.8114495,24.1847247 19.1263468,24.1847247 C18.4412441,24.1847247 17.8858586,23.6293392 17.8858586,22.9442365 L17.8858586,18.6073232 L20.366835,18.6073232 L20.366835,25.6560657 C20.8323378,25.6782059 21.2952552,25.7192871 21.7545533,25.7788003 L21.7545533,14.7134132 C21.7545533,13.4014744 23.5254085,12.9875206 24.1069849,14.1635105 C24.3623404,14.679858 25.1099418,15.5621234 26.1090356,16.5612127 C26.3981637,16.8504385 26.8579916,16.8492434 27.1458053,16.5582893 C27.441572,16.2594427 27.441572,15.7689251 27.1456428,15.4697299 L23.1895477,11.4709504 C22.733221,11.009389 22.1157516,10.7508979 21.4721779,10.7508979 L17.1649981,10.7508979 C16.5214804,10.7508979 15.9039272,11.0094171 15.4473447,11.4712371 L11.4918962,15.4694593 C11.1959318,15.7688007 11.1959318,16.2595671 11.4917352,16.5585613 C11.7792354,16.8492345 12.2390213,16.8504295 12.5282907,16.5610623 C13.5272342,15.5621234 14.2748356,14.679858 14.5301911,14.1635105 C15.1117675,12.9875206 16.8826227,13.4014744 16.8826227,14.7134132 L16.8826227,25.8468407 Z M24.2355297,26.2881902 C29.5451812,27.7917516 34.0613215,31.8140913 35.9985805,37.4760671 C36.2203672,38.1242773 35.8746827,38.8295491 35.2264725,39.0513358 C34.5782624,39.2731225 33.8729906,38.927438 33.6512039,38.2792278 C33.1777058,36.8953474 32.5252469,35.6257993 31.729125,34.4878799 C31.0494607,35.2756901 29.8899142,35.6812888 28.7096825,35.6322719 C28.1589857,35.6093472 27.7027954,35.5278313 26.9015482,35.3412894 C26.8469591,35.3285659 26.8469591,35.3285659 26.7929838,35.3159578 C26.1566709,35.1673252 25.8818958,35.1122427 25.5629271,35.0793908 C25.3352339,35.0559465 25.0269112,35.1213555 23.8221804,35.4442939 C23.2163504,35.6066918 22.8083447,35.7039847 22.3733153,35.7796193 C20.4078309,36.1213399 18.8491083,35.7492171 17.7744306,34.2414315 C17.3572167,33.6556912 17.417777,33.0587882 17.6952067,32.4415087 C17.8190711,32.1659112 17.9388335,31.9687118 18.2364555,31.5132871 C18.3527923,31.3352656 18.4297563,31.2147837 18.4847983,31.1228462 C18.3227842,30.8771474 18.0769528,30.5424298 17.7449791,30.1139548 C17.6850202,30.0366714 17.6850202,30.0366714 17.624562,29.9590948 C17.6405336,29.9795702 17.1090902,29.3015048 16.9724729,29.1241316 C16.7564733,28.8436948 16.5980893,28.628988 16.4755084,28.4457915 C15.8750938,28.5746647 15.2759279,28.7424148 14.6809203,28.9504674 C14.1583867,29.1331761 13.6504744,29.3431605 13.1585998,29.5786886 C14.3146771,30.2102251 15.3605662,31.239012 15.8440209,32.324158 C16.4619432,33.7109988 16.0240584,34.6540501 14.9140069,35.4166191 C14.8733951,35.4445181 14.6948447,35.5650276 14.6504667,35.595704 C14.4015618,35.7677599 14.3171425,35.8545419 14.2866701,35.9337529 C14.2413435,36.0515722 14.2256428,36.2022952 14.2418537,36.4285602 C14.2518934,36.5686902 14.2690139,36.6981896 14.3134786,36.9884339 C14.4457834,37.8520567 14.4704207,38.2490314 14.3371028,38.8218727 C14.2475024,39.2068679 13.9797843,39.5261121 13.6162881,39.6814182 C13.4965796,39.7325644 13.3198953,39.7936301 13.0932662,39.8503012 C11.967622,40.1317813 10.7293034,40.0474385 9.55471914,39.3288964 C8.34275456,38.5874872 7.41809844,37.275579 6.82190682,35.3466716 C6.24865567,36.2976755 5.77630486,37.3177301 5.41731518,38.391598 C5.20010387,39.0413557 4.49728666,39.3920038 3.84752903,39.1747924 C3.19777139,38.9575811 2.84712332,38.2547639 3.06433464,37.6050063 C4.77527021,32.486979 8.70857084,28.4104861 13.8620349,26.6085301 C14.0416025,26.5457417 14.2214926,26.4860962 14.4016462,26.4295646 L14.4016462,18.1958019 C14.3623809,18.2354257 14.3227479,18.2752358 14.2827523,18.3152312 C13.0210858,19.5773246 10.9827727,19.5720268 9.72792658,18.3033316 C8.4759531,17.0378533 8.4759531,14.9911103 9.72791488,13.7248637 L13.683337,9.72666816 C14.6051306,8.79430055 15.8577721,8.26992144 17.1649981,8.26992144 L21.4721779,8.26992144 C22.7794686,8.26992144 24.0320236,8.79427853 24.9535449,9.72637088 L28.9094523,13.7249606 C30.1616583,14.9909859 30.1616583,17.0379777 28.9093986,18.3032772 C27.6543522,19.5720179 25.6160811,19.5773155 24.354574,18.3153815 C24.3145273,18.275335 24.2748442,18.2354745 24.2355297,18.1958007 L24.2355297,26.2881902 Z M29.9927125,32.4290645 C27.17198,29.6391209 23.3293493,28.0605905 19.3356953,28.1202123 C19.471228,28.2934343 19.5855005,28.4392187 19.5807814,28.4331689 C19.6434022,28.5135202 19.6434022,28.5135202 19.7061893,28.5944488 C20.3280043,29.3970188 20.6911937,29.9142952 20.9075784,30.3631158 C21.1778243,30.9238502 21.0905116,31.439861 20.8309488,31.9928662 C20.7094176,32.2517919 20.5925369,32.4431804 20.3154367,32.8672061 C20.2399065,32.9827834 20.1814592,33.0733385 20.134299,33.1482869 C20.5359034,33.4348849 21.0954034,33.4836038 21.9483459,33.3353106 C22.2924736,33.2754803 22.6404123,33.1925109 23.1798119,33.0479202 C24.8226052,32.6075554 25.1351459,32.5412516 25.8170723,32.6114657 C26.2754102,32.6586719 26.6187515,32.7274994 27.3573095,32.9000148 C27.4110197,32.9125609 27.4110197,32.9125609 27.4641103,32.9249351 C28.1213232,33.0779438 28.4621263,33.1388413 28.8127525,33.1534374 C29.4027616,33.1779414 29.845018,32.9420034 29.8559855,32.8568497 C29.8758623,32.7025218 29.9232991,32.5584904 29.9927125,32.4290645 Z M10.4333226,31.2671712 C9.84403434,31.7272074 9.29136987,32.2302114 8.77916639,32.7714912 C9.16840484,35.2704212 9.92263077,36.6455775 10.8493958,37.2125183 C11.1839841,37.4171999 11.5357106,37.5086496 11.8836923,37.5150702 C11.8768413,37.4679317 11.8693222,37.4177154 11.8611131,37.36413 C11.806677,37.0087973 11.7835635,36.833966 11.7672204,36.605857 C11.7269851,36.0442697 11.7793674,35.5414137 11.971132,35.0429512 C12.2217275,34.3915462 12.6166825,33.9855373 13.2397272,33.5548565 C13.2983852,33.5143091 13.4809643,33.3910805 13.5092021,33.371682 C13.533981,33.3546597 13.5556484,33.3395329 13.5744467,33.3263768 C13.1744586,32.44022 11.8103549,31.456324 10.9928627,31.4247976 C10.7894381,31.4169526 10.5993482,31.360547 10.4333226,31.2671712 Z M23.3084415,3.56340405 C23.3084415,5.52863664 21.7275202,7.12680809 19.7701102,7.12680809 C17.8127728,7.12680809 16.2318743,5.52861386 16.2318743,3.56340405 C16.2318743,1.59826523 17.8127977,0 19.7701102,0 C21.7274953,0 23.3084415,1.59824245 23.3084415,3.56340405 Z" id="path-1"></path>
    </defs>
    <g id="uEA26-people-environment" stroke="none" stroke-width="1" fill="none" fill-rule="evenodd">
        <mask id="mask-2" fill="white">
            <use xlink:href="#path-1"></use>
        </mask>
        <use id="Icons" fill="#000000" fill-rule="nonzero" xlink:href="#path-1"></use>
    </g>
</svg>