<?xml version="1.0" encoding="UTF-8"?>
<svg width="40px" height="40px" viewBox="0 0 40 40" version="1.1" xmlns="http://www.w3.org/2000/svg" xmlns:xlink="http://www.w3.org/1999/xlink">
    <!-- Generator: Sketch 51.3 (57544) - http://www.bohemiancoding.com/sketch -->
    <title>uEA29-communication-calendar</title>
    <desc>Created with Sketch.</desc>
    <defs>
        <path d="M18.6464201,5.15454174 L10.0673244,5.15454174 L10.0673244,6.40882879 C10.0673244,7.14516888 9.4704028,7.74209045 8.73406272,7.74209045 C7.99772264,7.74209045 7.40080107,7.14516888 7.40080107,6.40882879 L7.40080107,5.15454174 L2.66652331,5.15454174 L2.66652331,12.8419365 L37.132226,12.8419365 L37.132226,5.15454174 L32.5585625,5.15454174 L32.5585625,6.40882879 C32.5585625,7.14516888 31.961641,7.74209045 31.2253009,7.74209045 C30.4889608,7.74209045 29.8920392,7.14516888 29.8920392,6.40882879 L29.8920392,5.15454174 L21.3129435,5.15454174 L21.3129435,6.40882879 C21.3129435,7.14516888 20.7160219,7.74209045 19.9796818,7.74209045 C19.2433417,7.74209045 18.6464201,7.14516888 18.6464201,6.40882879 L18.6464201,5.15454174 Z M18.6464201,2.48801842 L18.6464201,1.33326166 C18.6464201,0.596921576 19.2433417,0 19.9796818,0 C20.7160219,0 21.3129435,0.596921576 21.3129435,1.33326166 L21.3129435,2.48801842 L29.8920392,2.48801842 L29.8920392,1.33326166 C29.8920392,0.596921576 30.4889608,0 31.2253009,0 C31.961641,0 32.5585625,0.596921576 32.5585625,1.33326166 L32.5585625,2.48801842 L38.4654877,2.48801842 C39.2018277,2.48801842 39.7987493,3.08494 39.7987493,3.82128008 L39.7987493,38.6667383 C39.7987493,39.4030784 39.2018277,40 38.4654877,40 L1.33326166,40 C0.596921576,40 0,39.4030784 0,38.6667383 L0,3.82128008 C0,3.08494 0.596921576,2.48801842 1.33326166,2.48801842 L7.40080107,2.48801842 L7.40080107,1.33326166 C7.40080107,0.596921576 7.99772264,0 8.73406272,0 C9.4704028,0 10.0673244,0.596921576 10.0673244,1.33326166 L10.0673244,2.48801842 L18.6464201,2.48801842 Z M2.66652331,15.5084598 L2.66652331,37.3334767 L37.132226,37.3334767 L37.132226,15.5084598 L2.66652331,15.5084598 Z M22.4705339,19.8976457 C22.7998352,19.2390431 23.6006895,18.9720917 24.2592921,19.3013929 C24.9178947,19.6306942 25.1848461,20.4315486 24.8555448,21.0901512 L19.8780346,31.0451715 C19.4202183,31.9608043 18.1440397,32.0402563 17.5761884,31.1884793 L15.0874333,27.4553467 C14.6789853,26.8426747 14.8445416,26.0148934 15.4572136,25.6064454 C16.0698855,25.1979974 16.8976668,25.3635537 17.3061148,25.9762257 L18.5204743,27.7977649 L22.4705339,19.8976457 Z" id="path-1"></path>
    </defs>
    <g id="uEA29-communication-calendar" stroke="none" stroke-width="1" fill="none" fill-rule="evenodd">
        <mask id="mask-2" fill="white">
            <use xlink:href="#path-1"></use>
        </mask>
        <use id="Icons" fill="#000000" fill-rule="nonzero" xlink:href="#path-1"></use>
    </g>
</svg>