<?xml version="1.0" encoding="UTF-8"?>
<svg width="40px" height="40px" viewBox="0 0 40 40" version="1.1" xmlns="http://www.w3.org/2000/svg" xmlns:xlink="http://www.w3.org/1999/xlink">
    <!-- Generator: Sketch 51.2 (57519) - http://www.bohemiancoding.com/sketch -->
    <title>uEA20-link</title>
    <desc>Created with Sketch.</desc>
    <defs></defs>
    <g id="uEA20-link" stroke="none" stroke-width="1" fill="none" fill-rule="evenodd">
        <path d="M19.8502188,16.0220134 C20.0006113,16.5534271 19.6917325,17.1061403 19.1603188,17.2565328 C18.6289051,17.4069253 18.0761919,17.0980465 17.9257995,16.5666328 C17.1153167,13.7027819 17.7531956,10.6856706 19.7130288,8.42520086 L23.7160422,3.80904187 C26.7704135,0.286312205 32.0198541,0.0427276962 35.3605439,3.2714361 C38.6704209,6.47036464 38.8977535,11.9169354 35.8705083,15.4083794 L31.8676206,20.0234825 C29.7585832,22.4563838 27.3558212,23.3195288 24.5131744,22.574685 C23.9789252,22.4346985 23.6593121,21.8881224 23.7992986,21.3538732 C23.9392851,20.819624 24.4858612,20.5000109 25.0201104,20.6399974 C27.0901094,21.1823884 28.7253417,20.5949633 30.3565765,18.713236 L34.359526,14.0980617 C36.6919135,11.4080251 36.514965,7.16858661 33.9706388,4.70954731 C31.456237,2.27942936 27.5314729,2.46154624 25.2270885,5.11928581 L21.2240915,9.73542577 C19.7112296,11.4803593 19.2210534,13.7988497 19.8502188,16.0220134 Z" id="Stroke-15" fill="#000000" fill-rule="nonzero"></path>
        <path d="M23.4907434,15.5158753 C23.8501655,15.0965495 24.4814655,15.0479879 24.9007914,15.4074101 C25.3201172,15.7668322 25.3686788,16.3981322 25.0092566,16.817458 L16.5092566,26.7341247 C16.1498345,27.1534505 15.5185345,27.2020121 15.0992086,26.8425899 C14.6798828,26.4831678 14.6313212,25.8518678 14.9907434,25.432542 L23.4907434,15.5158753 Z" id="Stroke-17" fill="#000000" fill-rule="nonzero"></path>
        <path d="M16.8709023,18.4385067 C17.3924519,18.6201779 17.6679778,19.190251 17.4863067,19.7118006 C17.3046355,20.2333503 16.7345624,20.5088762 16.2130127,20.327205 C13.9305775,19.5321653 11.9647083,20.1862203 9.97494843,22.3277016 L5.73073666,26.894499 C3.26966428,29.5435393 3.45583179,33.6952128 6.14538116,36.1211463 C8.84381004,38.5550889 13.0827987,38.3715173 15.5512871,35.7144946 L19.7941891,31.1462367 C21.7192146,29.0760539 22.1363811,27.8221539 21.6429547,25.7506712 C21.5149812,25.2134178 21.8467681,24.6741448 22.3840215,24.5461712 C22.9212749,24.4181977 23.4605479,24.7499846 23.5885214,25.287238 C24.2491788,28.0607836 23.6111925,29.9784137 21.2592216,32.5077357 L17.016626,37.0756639 C13.8035293,40.5341654 8.31537719,40.7718327 4.80582371,37.6062677 C1.28797094,34.433217 1.04435428,29.0003849 4.2656111,25.5331 L8.50986237,20.9662602 C11.0040441,18.2818941 13.7748095,17.360046 16.8709023,18.4385067 Z" id="Stroke-19" fill="#000000" fill-rule="nonzero"></path>
    </g>
</svg>