<?xml version="1.0" encoding="UTF-8"?>
<svg width="40px" height="40px" viewBox="0 0 40 40" version="1.1" xmlns="http://www.w3.org/2000/svg" xmlns:xlink="http://www.w3.org/1999/xlink">
    <!-- Generator: Sketch 51.2 (57519) - http://www.bohemiancoding.com/sketch -->
    <title>uEA21-share</title>
    <desc>Created with Sketch.</desc>
    <defs></defs>
    <g id="uEA21-share" stroke="none" stroke-width="1" fill="none" fill-rule="evenodd">
        <path d="M35.9384107,27.4480534 C37.2789507,28.7471413 38.0195554,30.4809278 38.0195554,32.322997 C38.0195554,34.1648163 37.2791382,35.8979829 35.9385172,37.1978374 C34.5947105,38.5007808 32.799512,39.2053732 30.935652,39.2053732 C29.071792,39.2053732 27.2765935,38.5007808 25.9328933,37.1979406 C24.5923533,35.8988528 23.8517486,34.1650663 23.8517486,32.322997 C23.8517486,31.6400416 23.9575293,30.9651425 24.162966,30.313799 L13.7095664,24.1618442 C12.3817028,25.8354672 10.3288969,26.8470875 8.1041112,26.8470875 C4.20135875,26.8470875 1.02020777,23.7626711 1.02020777,19.9615489 C1.02020777,16.1604267 4.20135875,13.0760103 8.1041112,13.0760103 C10.3296084,13.0760103 12.383447,14.0882751 13.7112932,15.7626224 L24.1646516,9.65860869 C23.959163,9.00953193 23.8524009,8.33777202 23.8524009,7.65576022 C23.8524009,3.85463802 27.0335519,0.770221637 30.9363043,0.770221637 C34.8390568,0.770221637 38.0202078,3.85463802 38.0202078,7.65576022 C38.0202078,11.4568824 34.8390568,14.5412988 30.9363043,14.5412988 C28.6796851,14.5412988 26.6015845,13.4992329 25.2774843,11.7841702 L14.8505408,17.8726728 C15.073065,18.546221 15.188667,19.2478202 15.188667,19.9615489 C15.188667,20.6761335 15.0727845,21.3783445 14.8496263,22.0521452 L25.2751696,28.188038 C25.478343,27.9238181 25.6974489,27.6769732 25.9334133,27.4481817 C28.6943083,24.7705823 33.1776845,24.7705907 35.9384107,27.4480534 Z M8.10476353,24.4608889 C10.6763837,24.4608889 12.7627954,22.4379223 12.7627954,19.9615489 C12.7627954,17.4851756 10.6763837,15.462209 8.10476353,15.462209 C5.53314334,15.462209 3.44673169,17.4851756 3.44673169,19.9615489 C3.44673169,22.4379223 5.53314334,24.4608889 8.10476353,24.4608889 Z M34.2356397,35.4985308 C35.1132236,34.6481958 35.5943362,33.5220868 35.5943362,32.322997 C35.5943362,31.1240535 35.1133246,29.9978265 34.236292,29.1474633 C33.3521587,28.2902153 32.1695196,27.8261871 30.9363043,27.8261871 C29.7030891,27.8261871 28.5204499,28.2902153 27.6363167,29.1474633 C26.759284,29.9978265 26.2782725,31.1240535 26.2782725,32.322997 C26.2782725,33.5219406 26.759284,34.6481676 27.6363167,35.4985308 C29.4534869,37.2604433 32.4184695,37.2604433 34.2356397,35.4985308 Z M30.9363043,3.15642026 C28.3642674,3.15642026 26.2782725,5.17915738 26.2782725,7.65576022 C26.2782725,10.1321335 28.3646841,12.1551002 30.9363043,12.1551002 C33.5079245,12.1551002 35.5943362,10.1321335 35.5943362,7.65576022 C35.5943362,5.17938689 33.5079245,3.15642026 30.9363043,3.15642026 Z" id="uEA20-link" fill="#000000" fill-rule="nonzero"></path>
    </g>
</svg>