<?xml version="1.0" encoding="UTF-8"?>
<svg width="40px" height="40px" viewBox="0 0 40 40" version="1.1" xmlns="http://www.w3.org/2000/svg" xmlns:xlink="http://www.w3.org/1999/xlink">
    <!-- Generator: Sketch 51.3 (57544) - http://www.bohemiancoding.com/sketch -->
    <title>uEA23-facilities-hospital</title>
    <desc>Created with Sketch.</desc>
    <defs>
        <path d="M27.5872169,37.3732083 L37.4352438,37.3732083 L37.4352438,21.3967081 L27.5872169,21.3967081 L27.5872169,37.3732083 Z M15.0299834,12.0353357 L18.1732828,12.0353357 C18.8815207,12.0353357 19.455661,12.6094759 19.455661,13.3177138 C19.455661,14.0259517 18.8815207,14.6000919 18.1732828,14.6000919 L15.0299834,14.6000919 L15.0299834,17.7434113 C15.0299834,18.4516492 14.4558431,19.0257894 13.7476053,19.0257894 C13.0393674,19.0257894 12.4652271,18.4516492 12.4652271,17.7434113 L12.4652271,14.6000919 L9.32190774,14.6000919 C8.61366986,14.6000919 8.03952962,14.0259517 8.03952962,13.3177138 C8.03952962,12.6094759 8.61366986,12.0353357 9.32190774,12.0353357 L12.4652271,12.0353357 L12.4652271,8.89203622 C12.4652271,8.18379834 13.0393674,7.6096581 13.7476053,7.6096581 C14.4558431,7.6096581 15.0299834,8.18379834 15.0299834,8.89203622 L15.0299834,12.0353357 Z M10.162069,39.9237963 C10.1373246,39.9252191 10.1123922,39.9259403 10.0872914,39.9259403 L1.28237812,39.9259403 C0.574140243,39.9259403 0,39.3518 0,38.6435621 L0,1.28237812 C0,0.574140243 0.574140243,0 1.28237812,0 L26.2017653,0 C26.9100032,0 27.4841434,0.574140243 27.4841434,1.28237812 L27.4841434,18.8319518 L38.7176219,18.8319518 C39.4258598,18.8319518 40,19.4060921 40,20.11433 L40,38.6555864 C40,39.3638243 39.4258598,39.9379645 38.7176219,39.9379645 L26.3048388,39.9379645 C26.2450147,39.9379645 26.1861475,39.933868 26.1285022,39.9259403 L17.7458142,39.9259403 C17.7291205,39.9259403 17.7125013,39.9256213 17.6959624,39.9249891 C17.6794235,39.9256213 17.6628044,39.9259403 17.6461107,39.9259403 C16.9378728,39.9259403 16.3637326,39.3518 16.3637326,38.6435621 L16.3637326,28.8430021 L11.5192247,28.8430021 L11.5192247,38.6435621 C11.5192247,39.3518 10.9450845,39.9259403 10.2368466,39.9259403 C10.2117458,39.9259403 10.1868134,39.9252191 10.162069,39.9237963 Z M8.95446849,37.361184 L8.95446849,27.5606239 C8.95446849,26.852386 9.52860874,26.2782458 10.2368466,26.2782458 L17.6461107,26.2782458 C18.3543486,26.2782458 18.9284888,26.852386 18.9284888,27.5606239 L18.9284888,37.361184 L24.9193872,37.361184 L24.9193872,2.56475625 L2.56475625,2.56475625 L2.56475625,37.361184 L8.95446849,37.361184 Z" id="path-1"></path>
    </defs>
    <g id="uEA23-facilities-hospital" stroke="none" stroke-width="1" fill="none" fill-rule="evenodd">
        <mask id="mask-2" fill="white">
            <use xlink:href="#path-1"></use>
        </mask>
        <use id="Icons" fill="#000000" fill-rule="nonzero" xlink:href="#path-1"></use>
    </g>
</svg>