<?xml version="1.0" encoding="UTF-8"?>
<svg width="40px" height="40px" viewBox="0 0 40 40" version="1.1" xmlns="http://www.w3.org/2000/svg" xmlns:xlink="http://www.w3.org/1999/xlink">
    <!-- Generator: Sketch 51.3 (57544) - http://www.bohemiancoding.com/sketch -->
    <title>uEA24-core-Heart</title>
    <desc>Created with Sketch.</desc>
    <defs>
        <path d="M20.8076918,37.3232226 C21.4569389,37.769298 21.6216421,38.6572324 21.1755666,39.3064795 C20.7294912,39.9557267 19.8415568,40.1204299 19.1923097,39.6743544 C19.1527153,39.6471505 19.0815075,39.5974413 18.980781,39.5259416 C18.816394,39.4092533 18.6267043,39.2722206 18.4138049,39.115555 C17.8092769,38.670703 17.1372314,38.1559845 16.4143853,37.5770318 C14.3505752,35.9240544 12.2869087,34.0832017 10.3565654,32.0975095 C9.61982468,31.3396441 8.91523584,30.5729722 8.24717772,29.798773 C1.58864293,22.0824083 -1.77726956,13.3024983 0.949163277,6.82727411 C4.55543607,-1.73770267 16.4791827,-2.41878331 21.2300107,5.77630224 C21.6250803,6.45778966 21.3928928,7.33051161 20.7114054,7.72558125 C20.029918,8.12065089 19.157196,7.88846341 18.7621264,7.20697598 C15.1871432,1.04019979 6.26639533,1.54975009 3.578213,7.93424192 C1.38684344,13.1387014 4.38313035,20.9544511 10.4068644,27.9351653 C11.0370074,28.6654254 11.703527,29.3906737 12.4019575,30.1091304 C14.2431876,32.0031543 16.2204927,33.76697 18.1976541,35.3505475 C18.8891481,35.9043891 19.5304183,36.3955368 20.104507,36.8179896 C20.4453238,37.0687854 20.6853599,37.2391725 20.8076918,37.3232226 Z M20.8076918,39.6743544 C20.1584447,40.1204299 19.2705103,39.9557267 18.8244348,39.3064795 C18.3783594,38.6572324 18.5430626,37.769298 19.1923097,37.3232226 C19.3146415,37.2391725 19.5546777,37.0687854 19.8954945,36.8179896 C20.4695832,36.3955368 21.1108534,35.9043891 21.8023473,35.3505475 C23.7795088,33.76697 25.7568138,32.0031543 27.598044,30.1091304 C28.2964745,29.3906737 28.9629941,28.6654254 29.5931417,27.9351599 C35.6168711,20.9544511 38.613158,13.1387014 36.421785,7.93423368 C33.7336062,1.54975009 24.8128582,1.04019979 21.2378751,7.20697598 C20.8428054,7.88846341 19.9700835,8.12065089 19.2885961,7.72558125 C18.6071086,7.33051161 18.3749212,6.45778966 18.7699908,5.77630224 C23.5208188,-2.41878331 35.4445654,-1.73770267 39.0508347,6.82726587 C41.777271,13.3024983 38.4113586,22.0824083 31.7528284,29.7987676 C31.0847656,30.5729722 30.3801768,31.3396441 29.6434361,32.0975095 C27.7130928,34.0832017 25.6494263,35.9240544 23.5856162,37.5770318 C22.8627701,38.1559845 22.1907245,38.670703 21.5861966,39.115555 C21.3732972,39.2722206 21.1836075,39.4092533 21.0192205,39.5259416 C20.918494,39.5974413 20.8472861,39.6471505 20.8076918,39.6743544 Z M8.48570045,19.3584971 C8.1448338,18.6483457 8.44419826,17.7963272 9.15434969,17.4554605 C9.86450112,17.1145939 10.7165196,17.4139583 11.0573863,18.1241098 C11.1226676,18.2601148 11.2712774,18.542952 11.5072009,18.951584 C11.9099308,19.6491335 12.4080769,20.4308308 13.0055414,21.2757091 C14.7220578,23.7030462 16.8837213,26.1348997 19.5213224,28.4057614 C19.963411,28.7863807 20.4161315,29.1597891 20.8795801,29.5255004 C21.4979589,30.0134684 21.6036776,30.9103398 21.1157096,31.5287185 C20.6277415,32.1470973 19.7308702,32.2528161 19.1124914,31.764848 C18.6169417,31.3738054 18.132857,30.9745276 17.6601314,30.567531 C14.837429,28.1373052 12.5218336,25.5322794 10.6764687,22.922737 C10.0272747,22.0047075 9.48223162,21.149419 9.03678315,20.3778786 C8.76379965,19.9050568 8.58159646,19.558284 8.48570045,19.3584971 Z" id="path-1"></path>
    </defs>
    <g id="uEA24-core-Heart" stroke="none" stroke-width="1" fill="none" fill-rule="evenodd">
        <mask id="mask-2" fill="white">
            <use xlink:href="#path-1"></use>
        </mask>
        <use id="Icons" fill="#000000" fill-rule="nonzero" xlink:href="#path-1"></use>
    </g>
</svg>