<?xml version="1.0" encoding="UTF-8"?>
<svg width="40px" height="40px" viewBox="0 0 40 40" version="1.1" xmlns="http://www.w3.org/2000/svg" xmlns:xlink="http://www.w3.org/1999/xlink">
    <!-- Generator: Sketch 51.3 (57544) - http://www.bohemiancoding.com/sketch -->
    <title>uEA22-science-water</title>
    <desc>Created with Sketch.</desc>
    <defs>
        <path d="M20.3781884,0.00181193378 C20.960173,-0.0292111905 21.508791,0.340571345 21.6806433,0.924025322 C22.7192296,4.45011808 24.0602121,7.27280657 26.0308051,10.450695 C26.5559357,11.2975498 28.4757222,14.2397355 28.8805286,14.8891521 C31.5787953,19.2178864 32.7563767,22.6187494 32.7563767,27.4851423 C32.7563767,34.3916561 27.2500367,40 20.4456538,40 C20.4230242,40 20.400531,39.9994162 20.3781884,39.9982627 C20.3558457,39.9994162 20.3333525,40 20.3107229,40 C13.50634,40 8,34.3916561 8,27.4851423 C8,22.6187494 9.17758145,19.2178864 11.8758482,14.8891521 C12.2806545,14.2397355 14.2004411,11.2975498 14.7255716,10.450695 C16.6961647,7.27280657 18.0371471,4.45011808 19.0757334,0.924025322 C19.2475857,0.340571345 19.7962038,-0.0292111905 20.3781884,0.00181193378 Z M20.3781884,5.05358791 C19.456787,7.37737206 18.3357867,9.51462408 16.9138871,11.8076587 C16.3683889,12.6873596 14.4464047,15.6329134 14.0609835,16.2512311 C11.5977337,20.2029359 10.5748933,23.1569059 10.5748933,27.4851423 C10.5748933,32.9800533 14.9391006,37.4251067 20.3107229,37.4251067 C20.3333525,37.4251067 20.3558457,37.4256906 20.3781884,37.426844 C20.400531,37.4256906 20.4230242,37.4251067 20.4456538,37.4251067 C25.8172761,37.4251067 30.1814835,32.9800533 30.1814835,27.4851423 C30.1814835,23.1569059 29.158643,20.2029359 26.6953932,16.2512311 C26.309972,15.6329134 24.3879878,12.6873596 23.8424896,11.8076587 C22.4205901,9.51462408 21.2995898,7.37737206 20.3781884,5.05358791 Z M19.3365218,31.5972466 C20.0475589,31.5972466 20.6239684,32.1736561 20.6239684,32.8846933 C20.6239684,33.5957304 20.0475589,34.1721399 19.3365218,34.1721399 C15.9143602,34.1721399 13.1497865,31.3563704 13.1497865,27.894677 C13.1497865,27.1836399 13.726196,26.6072304 14.4372332,26.6072304 C15.1482703,26.6072304 15.7246798,27.1836399 15.7246798,27.894677 C15.7246798,29.9447641 17.3471171,31.5972466 19.3365218,31.5972466 Z" id="path-1"></path>
    </defs>
    <g id="uEA22-science-water" stroke="none" stroke-width="1" fill="none" fill-rule="evenodd">
        <mask id="mask-2" fill="white">
            <use xlink:href="#path-1"></use>
        </mask>
        <use id="Icons" fill="#000000" fill-rule="nonzero" xlink:href="#path-1"></use>
    </g>
</svg>