<?xml version="1.0" encoding="UTF-8"?>
<svg width="40px" height="40px" viewBox="0 0 40 40" version="1.1" xmlns="http://www.w3.org/2000/svg" xmlns:xlink="http://www.w3.org/1999/xlink">
    <!-- Generator: Sketch 51.3 (57544) - http://www.bohemiancoding.com/sketch -->
    <title>uEA28-science-brain</title>
    <desc>Created with Sketch.</desc>
    <defs>
        <path d="M24.1146224,26.6455377 C24.1224229,29.5988516 26.469663,31.9817067 29.3530864,31.9817067 L32.214692,31.9817067 C33.3322709,30.4042254 34.2285677,28.6091933 34.8567795,26.6665678 C33.6450255,27.4538938 32.2040078,27.9106178 30.6567015,27.9106178 L29.3530766,27.9106178 C28.6462425,27.9106178 28.0732403,27.3376156 28.0732403,26.6307815 C28.0732403,25.9239474 28.6462425,25.3509451 29.3530766,25.3509451 L30.6567015,25.3509451 C33.5448922,25.3509451 35.895185,22.9600811 35.895185,20.00001 C35.895185,17.0398765 33.544929,14.6490748 30.6567015,14.6490748 L29.3530766,14.6490748 C28.6462425,14.6490748 28.0732403,14.0760725 28.0732403,13.3692384 C28.0732403,12.6624043 28.6462425,12.0894021 29.3530766,12.0894021 L30.6567015,12.0894021 C32.2040119,12.0894021 33.6450267,12.5461132 34.8567767,13.3334246 C34.2285688,11.3908146 33.3322799,9.59579549 32.2147113,8.01832316 L29.3530962,8.01832316 C26.4682711,8.01832316 24.1201508,10.4034954 24.1146225,13.3587993 L24.1146225,13.3797171 C24.1201509,16.3349592 26.4683079,18.7201935 29.3530962,18.7201935 L30.656721,18.7201935 C31.3635552,18.7201935 31.9365574,19.2931957 31.9365574,20.0000299 C31.9365574,20.706864 31.3635552,21.2798662 30.656721,21.2798662 L29.3530962,21.2798662 C27.3352659,21.2798662 25.498196,20.5031353 24.1146225,19.2293889 L24.1146225,26.6455624 Z M29.3530864,34.5413794 C27.3352524,34.5413794 25.4981904,33.7646717 24.1146225,32.4909461 L24.1146225,36.0603442 C24.1146225,37.0654045 25.1180921,37.7209297 25.9845692,37.3132874 C27.4537424,36.6221216 28.8047296,35.6822168 30.0055473,34.5413794 L29.3530864,34.5413794 Z M16.3402645,32.4909461 C14.9566967,33.7646717 13.1196346,34.5413794 11.1018006,34.5413794 C10.3949665,34.5413794 9.82196425,33.9683772 9.82196425,33.2615431 C9.82196425,32.554709 10.3949665,31.9817067 11.1018006,31.9817067 C13.985216,31.9817067 16.3324511,29.5988649 16.3402645,26.6455624 L16.3402645,19.2294159 C14.9566944,20.5031463 13.1196362,21.2798662 11.1018202,21.2798662 L9.79819534,21.2798662 C9.09136124,21.2798662 8.51835898,20.706864 8.51835898,20.0000299 C8.51835898,19.2931957 9.09136124,18.7201935 9.79819534,18.7201935 L11.1018202,18.7201935 C13.9832051,18.7201935 16.3292242,16.3405839 16.3402645,13.3901742 L16.3402645,13.3483418 C16.3292243,10.3978707 13.9832418,8.01832316 11.1018202,8.01832316 C10.3949861,8.01832316 9.82198382,7.4453209 9.82198382,6.73848679 C9.82198382,6.03165268 10.3949861,5.45865042 11.1018202,5.45865042 C13.1196447,5.45865042 14.9566989,6.23535086 16.3402645,7.50906574 L16.3402645,3.93965581 C16.3402645,2.93459549 15.3367949,2.27907029 14.4703178,2.6867126 C10.3451712,4.62736882 7.15177364,8.52902147 5.59810993,13.3334249 C6.80986004,12.5461133 8.250875,12.0894021 9.79818556,12.0894021 L11.1018104,12.0894021 C11.8086445,12.0894021 12.3816468,12.6624043 12.3816468,13.3692384 C12.3816468,14.0760725 11.8086445,14.6490748 11.1018104,14.6490748 L9.79818556,14.6490748 C6.90995808,14.6490748 4.55970208,17.0398765 4.55970208,20.00001 C4.55970208,22.9600811 6.90999489,25.3509451 9.79818556,25.3509451 L11.1018104,25.3509451 C11.8086445,25.3509451 12.3816468,25.9239474 12.3816468,26.6307815 C12.3816468,27.3376156 11.8086445,27.9106178 11.1018104,27.9106178 L9.79818556,27.9106178 C8.2508794,27.9106178 6.80986184,27.4538939 5.59810795,26.666568 C7.15177164,31.4709752 10.3451731,35.3726321 14.4703311,37.3132937 C15.3367949,37.7209297 16.3402645,37.0654045 16.3402645,36.0603442 L16.3402645,32.4909461 Z M18.8999519,26.6271943 C18.8999552,26.6283863 18.8999568,26.6295787 18.8999568,26.6307715 C18.8999568,26.6367412 18.8999503,26.6427093 18.8999373,26.6486758 L18.8999373,36.0603442 C18.8999373,38.9237866 15.9612544,40.8435065 13.3806876,39.6294546 C6.53818622,36.4104314 2,28.6813914 2,20 C2,11.3186086 6.53818622,3.58956862 13.3806743,0.370551638 C15.9612544,-0.843506544 18.8999373,1.0762134 18.8999373,3.93965581 L18.8999373,13.3439387 C18.8999634,13.3523755 18.8999764,13.3608154 18.8999764,13.3692583 C18.8999764,13.3777011 18.8999634,13.3861408 18.8999373,13.3945774 L18.8999373,26.6236194 C18.8999438,26.6248107 18.8999487,26.6260023 18.8999519,26.6271943 C18.8999552,26.6283863 18.8999568,26.6295787 18.8999568,26.6307715 C18.8999568,28.9525537 17.9131597,31.042924 16.3402645,32.4909461 Z M21.5549498,26.6236194 L21.5549498,13.3819186 C21.5549432,13.3776993 21.55494,13.3734792 21.55494,13.3692583 C21.55494,13.3650374 21.5549432,13.3608172 21.5549498,13.3565978 L21.5549498,3.93965581 C21.5549498,1.0762134 24.4936326,-0.843506544 27.0741994,0.370545385 C33.9167008,3.58956862 38.454887,11.3186086 38.454887,20 C38.454887,28.6813914 33.9167008,36.4104314 27.0742127,39.6294484 C24.4936326,40.8435065 21.5549498,38.9237866 21.5549498,36.0603442 L21.5549498,26.6486758 C21.5549367,26.6427093 21.5549302,26.6367412 21.5549302,26.6307715 C21.5549302,26.628386 21.5549367,26.6260019 21.5549498,26.6236194 Z M24.1146225,7.50909275 C25.4981915,6.23536184 27.3352574,5.45865042 29.3530962,5.45865042 L30.0055759,5.45865042 C28.8047478,4.31779752 27.4537464,3.37788023 25.984556,2.68670635 C25.1180921,2.27907029 24.1146225,2.93459549 24.1146225,3.93965581 L24.1146225,7.50909275 Z" id="path-1"></path>
    </defs>
    <g id="uEA28-science-brain" stroke="none" stroke-width="1" fill="none" fill-rule="evenodd">
        <mask id="mask-2" fill="white">
            <use xlink:href="#path-1"></use>
        </mask>
        <use id="Icons" fill="#000000" fill-rule="nonzero" xlink:href="#path-1"></use>
    </g>
</svg>