<?xml version="1.0" encoding="UTF-8"?>
<svg width="40px" height="40px" viewBox="0 0 40 40" version="1.1" xmlns="http://www.w3.org/2000/svg" xmlns:xlink="http://www.w3.org/1999/xlink">
    <!-- Generator: Sketch 51.3 (57544) - http://www.bohemiancoding.com/sketch -->
    <title>uEA25-products-bandage</title>
    <desc>Created with Sketch.</desc>
    <defs>
        <path d="M29.8987527,19.9918896 L20.0333315,10.1264684 L10.1279134,20.0318866 L19.9933623,29.89728 L29.8987527,19.9918896 Z M31.9816498,22.0747867 L22.0762652,31.9801712 L25.097519,35.001408 C27.8327772,37.7366662 32.2676368,37.7366662 35.0028951,35.001408 C37.7381533,32.2661498 37.7381533,27.8312902 35.0028951,25.0960319 L31.9816498,22.0747867 Z M17.9504345,8.04357135 L14.902594,4.99573092 C12.1672257,2.26036263 7.73249287,2.26036263 4.99723575,4.99571314 C2.26184768,7.74162681 2.26512412,12.1690329 4.99710201,14.9011041 L8.04501045,17.9489954 L17.9504345,8.04357135 Z M16.9854911,2.91283386 L37.0857921,23.0131349 C40.9714026,26.8987454 40.9714026,33.1986946 37.0857921,37.0843051 C33.2001816,40.9699156 26.9002324,40.9699156 23.0146249,37.084308 L2.9141901,16.9839863 C-0.971399664,13.0982638 -0.971399664,6.79844141 2.91420788,2.91283386 C6.81253435,-0.972888735 13.1036572,-0.96900002 16.9854911,2.91283386 Z M19.9080981,12.7918842 C20.3389553,12.7918842 20.7696994,12.9562248 21.0983806,13.2849059 C21.755856,13.9422683 21.755856,15.0081086 21.0983806,15.665584 C20.7696994,15.9942652 20.3389553,16.1586058 19.9080981,16.1586058 C19.4772409,16.1586058 19.0464968,15.9942652 18.7178156,15.665584 C18.0603402,15.0081086 18.0603402,13.9422683 18.7178156,13.2849059 C19.0464968,12.9562248 19.4772409,12.7918842 19.9080981,12.7918842 Z M20.0679403,18.5062913 C20.4987974,18.5062913 20.9295416,18.6706319 21.2582228,18.9993131 C21.9156982,19.6567885 21.9156982,20.7225158 21.2582228,21.3799912 C20.9295416,21.7086723 20.4987974,21.8730129 20.0679403,21.8730129 C19.6370831,21.8730129 19.2063389,21.7086723 18.8776577,21.3799912 C18.2201824,20.7225158 18.2201824,19.6567885 18.8776577,18.9993131 C19.2063389,18.6706319 19.6370831,18.5062913 20.0679403,18.5062913 Z M25.6624715,18.3864154 C26.0933287,18.3864154 26.5240728,18.550756 26.852754,18.8794372 C27.5102294,19.5367995 27.5102294,20.6026398 26.852754,21.2601152 C26.5240728,21.5887964 26.0933287,21.753137 25.6624715,21.753137 C25.2316143,21.753137 24.8008702,21.5887964 24.472189,21.2601152 C23.8147136,20.6026398 23.8147136,19.5367995 24.472189,18.8794372 C24.8008702,18.550756 25.2316143,18.3864154 25.6624715,18.3864154 Z M14.3535331,18.2664942 C14.7843903,18.2664942 15.2151344,18.4308348 15.5438156,18.759516 C16.201291,19.4169914 16.201291,20.4828317 15.5438156,21.140194 C15.2151344,21.4688752 14.7843903,21.6333288 14.3535331,21.6333288 C13.9226759,21.6333288 13.4919318,21.4688752 13.1632506,21.140194 C12.5057752,20.4828317 12.5057752,19.4169914 13.1632506,18.759516 C13.4919318,18.4308348 13.9226759,18.2664942 14.3535331,18.2664942 Z M19.9880192,23.9009916 C20.4188764,23.9009916 20.8496205,24.0653322 21.1783017,24.3940134 C21.8357771,25.0514888 21.8357771,26.1173291 21.1783017,26.7746915 C20.8496205,27.1033726 20.4188764,27.2678263 19.9880192,27.2678263 C19.557162,27.2678263 19.1264179,27.1033726 18.7977367,26.7746915 C18.1402613,26.1173291 18.1402613,25.0514888 18.7977367,24.3940134 C19.1264179,24.0653322 19.557162,23.9009916 19.9880192,23.9009916 Z" id="path-1"></path>
    </defs>
    <g id="uEA25-products-bandage" stroke="none" stroke-width="1" fill="none" fill-rule="evenodd">
        <mask id="mask-2" fill="white">
            <use xlink:href="#path-1"></use>
        </mask>
        <use id="Icons" fill="#000000" fill-rule="nonzero" xlink:href="#path-1"></use>
    </g>
</svg>