<?xml version="1.0" encoding="UTF-8"?>
<svg width="40px" height="40px" viewBox="0 0 40 40" version="1.1" xmlns="http://www.w3.org/2000/svg" xmlns:xlink="http://www.w3.org/1999/xlink">
    <!-- Generator: Sketch 51.3 (57544) - http://www.bohemiancoding.com/sketch -->
    <title>uEA39-checkmark</title>
    <desc>Created with Sketch.</desc>
    <defs></defs>
    <g id="uEA39-checkmark" stroke="none" stroke-width="1" fill="none" fill-rule="evenodd">
        <path d="M30.7045814,10.5189018 C31.033445,10.186801 31.4800942,10 31.9460733,10 C32.4120524,10 32.8587016,10.186801 33.1874197,10.518755 C33.5157436,10.8499683 33.7,11.2987853 33.7,11.7665507 C33.7,12.234316 33.5157436,12.6831331 33.1874876,13.0142778 L17.838135,28.5061819 C17.5093713,28.8384105 17.0628097,29.0254393 16.5968114,29.0257484 C16.1304413,29.025805 15.6836428,28.8388013 15.3551177,28.5066101 L7.51258027,20.5904323 C7.18425644,20.259219 7,19.810402 7,19.3426366 C7,18.8748713 7.18425644,18.4260542 7.5124349,18.0949877 C7.84129844,17.762887 8.28794763,17.576086 8.75392673,17.576086 C9.21990584,17.576086 9.66655503,17.762887 9.9953405,18.0949089 L16.5965513,24.7573998 L30.7045814,10.5189018 Z" id="Path" fill="#000000" fill-rule="nonzero"></path>
    </g>
</svg>