<?xml version="1.0" encoding="UTF-8"?>
<svg width="40px" height="40px" viewBox="0 0 40 40" version="1.1" xmlns="http://www.w3.org/2000/svg" xmlns:xlink="http://www.w3.org/1999/xlink">
    <!-- Generator: Sketch 51.3 (57544) - http://www.bohemiancoding.com/sketch -->
    <title>uEA31-innovation-partnership</title>
    <desc>Created with Sketch.</desc>
    <defs>
        <path d="M37.0900959,24.7601913 C37.0562749,24.7940123 37.0210531,24.825832 36.9847305,24.8554504 C36.9663191,24.8703596 36.9469071,24.8832676 36.9278953,24.8971762 C36.9093838,24.9107847 36.8914727,24.9253937 36.8723609,24.9380016 C36.8501471,24.9527107 36.8268326,24.9652184 36.8039184,24.9785267 C36.7873081,24.9882327 36.7710981,24.9989393 36.7540875,25.0079449 C36.7307731,25.0201525 36.7066581,25.0302588 36.6827433,25.0411655 C36.6654326,25.0490704 36.648422,25.058076 36.6308111,25.0651804 C36.6075967,25.0746863 36.5837819,25.0818908 36.5601673,25.0900959 C36.5412556,25.0965999 36.522544,25.1042046 36.5034321,25.1099081 C36.4801177,25.1168124 36.4563029,25.1216154 36.4327883,25.1273189 C36.412876,25.1321219 36.3931638,25.1379255 36.3730513,25.1418279 C36.3502371,25.1463307 36.3271228,25.1487322 36.3042086,25.1520343 C36.2829955,25.1550361 36.2618824,25.1590386 36.2405692,25.1611399 C36.2185555,25.1633413 36.1963417,25.1634413 36.174228,25.164542 C36.1519142,25.1656427 36.1296004,25.167744 36.1071865,25.167744 C36.0855731,25.167744 36.0639597,25.1658428 36.0423463,25.1649423 C36.0195321,25.1639416 35.9966179,25.1637415 35.9738038,25.1616402 C35.9527907,25.159739 35.9320779,25.1558366 35.911265,25.1529348 C35.8878505,25.1497328 35.864436,25.1473313 35.8413216,25.1429286 C35.8208089,25.1390262 35.8007965,25.1332226 35.7804839,25.1284196 C35.7572695,25.1229162 35.733855,25.1182133 35.7108407,25.1114091 C35.6909284,25.1056055 35.6715163,25.0980008 35.6518041,25.0912966 C35.62899,25.0833917 35.6058756,25.0763874 35.5832616,25.0672817 C35.5640497,25.0595769 35.5453381,25.049971 35.5264264,25.0413656 C35.5041125,25.0312594 35.4815986,25.0218535 35.4597851,25.0105465 C35.4408733,25.0007405 35.4227621,24.9890332 35.4042506,24.9783266 C35.3831375,24.9660189 35.3618243,24.9545118 35.3413116,24.9411035 C35.3230003,24.929096 35.3054894,24.9152875 35.2876784,24.9023795 C35.2679661,24.8880706 35.2478537,24.8745622 35.2286418,24.8590526 C35.2109308,24.8447437 35.1942204,24.8285337 35.1771098,24.8132242 C35.1577978,24.7960135 35.1379856,24.7796034 35.119374,24.7610919 L30.1719066,19.8136244 C29.8085813,19.4502992 29.277452,19.3578419 28.8280734,19.5349517 C28.6733775,19.5959895 28.5281875,19.6885469 28.4030099,19.8136244 C27.9146071,20.3021273 27.9146071,21.0940183 28.4030099,21.5825212 L33.3495767,26.529088 L34.0683224,27.2477336 C34.6118594,27.7913706 34.6118594,28.6759191 34.0683224,29.2194561 C33.5246853,29.762893 32.6402369,29.7630931 32.0965999,29.2194561 L27.0804899,24.2034461 C26.9889331,24.1118894 26.8866697,24.0374432 26.7777022,23.9802077 C26.5961896,23.8847485 26.3961656,23.837119 26.1960415,23.837119 C25.8759431,23.837119 25.5558446,23.9591947 25.3115932,24.2034461 C24.8231904,24.6918489 24.8231904,25.4837399 25.3115932,25.9722428 L29.3001661,29.9608157 C29.5634293,30.2240789 29.7085193,30.574196 29.7085193,30.9465268 C29.7085193,31.3190578 29.5634293,31.6690748 29.3001661,31.9324381 C29.0368028,32.1958014 28.6866857,32.3407913 28.3142548,32.3407913 C27.941924,32.3407913 27.5918069,32.1958014 27.3284436,31.9324381 L24.2346255,28.8386199 C23.7461226,28.3502171 22.9541316,28.3502171 22.4657288,28.8386199 C22.3436531,28.9606956 22.2519962,29.1017831 22.1909584,29.2523765 C22.0077448,29.7040565 22.0994016,30.2410895 22.4657288,30.6075167 L24.3933239,32.5350117 C24.9368609,33.0786488 24.9368609,33.9631972 24.3933239,34.5067342 C23.8496868,35.0503712 22.9652384,35.0503712 22.4216014,34.5067342 L20.7904901,32.8756229 C20.6617103,32.1026436 20.3008865,31.361284 19.7058176,30.766115 C19.1530749,30.2134724 18.4635474,29.8473454 17.7135824,29.6993536 C17.8958955,28.5135184 17.5320699,27.2592407 16.6207048,26.3477756 C16.051652,25.7788229 15.3490164,25.4230023 14.6127599,25.2803138 C14.6361744,25.1069063 14.6488823,24.9309972 14.6488823,24.7529869 C14.6488823,23.7122416 14.2436311,22.7340351 13.5078749,21.9981789 C12.7720187,21.2624227 11.7937121,20.8571714 10.753167,20.8571714 C10.4505794,20.8571714 10.1535952,20.8924933 9.86591687,20.9591347 C9.701615,20.2937221 9.36020333,19.6633313 8.84118153,19.1443095 C8.0404851,18.343613 6.97502452,17.9654786 5.9238728,18.0090056 L3.0196722,15.104805 L11.7933119,6.33106526 L13.9525506,8.49030399 L9.08543297,13.3574216 C8.5969301,13.8459245 8.5969301,14.6378154 9.08533291,15.1263183 L9.77235886,15.8132442 C11.9286958,17.9695811 15.4279653,17.9842903 17.6030139,15.8581721 L18.4715524,15.1423282 C19.9962977,13.8856491 21.9240929,13.19362 23.8999179,13.19362 C25.9056615,13.19362 27.8559707,13.9044608 29.3915227,15.1950609 L30.0504313,15.7488043 L37.0900959,22.7884689 C37.6336329,23.3321059 37.6336329,24.2165543 37.0900959,24.7601913 Z M17.9369209,34.5067342 C17.3933839,35.0501711 16.5087354,35.0503712 15.9651984,34.5067342 C15.4216614,33.9631972 15.4216614,33.0786488 15.9652985,32.5350117 C16.2285617,32.2716484 16.5786788,32.1266585 16.9511097,32.1266585 C17.3234405,32.1266585 17.6735576,32.2716484 17.9369209,32.5350117 C18.4804579,33.0786488 18.4804579,33.9631972 17.9369209,34.5067342 Z M12.0146491,32.3480958 C11.6422182,32.3480958 11.2921011,32.2031059 11.0287378,31.9397426 C10.7654746,31.6763794 10.6203846,31.3262623 10.6203846,30.9538314 C10.6203846,30.6428386 10.7228482,30.3482559 10.9095639,30.1059057 L13.0175709,27.9977986 C13.2670256,27.8061798 13.566111,27.7090196 13.8659969,27.7090196 C14.2230183,27.7090196 14.5800396,27.8449038 14.8518081,28.1166723 C15.3954452,28.6603094 15.3954452,29.5447577 14.8518081,30.0883948 L13.0004603,31.9397426 C12.737097,32.2031059 12.3869799,32.3480958 12.0146491,32.3480958 Z M6.28839881,29.2176549 C6.02503552,28.9542917 5.88004563,28.6041746 5.88004563,28.2317437 C5.88004563,27.8594128 6.02503552,27.5093958 6.28839881,27.2460325 L9.76735576,23.7670756 C10.030619,23.5037123 10.3807361,23.3587224 10.753167,23.3587224 C11.1254978,23.3587224 11.4756149,23.5037123 11.7389782,23.7670756 C12.0023415,24.0304389 12.1473313,24.3804559 12.1473313,24.7529869 C12.1473313,25.1253177 12.0023415,25.4753347 11.7389782,25.738698 L11.3373291,26.140347 C11.2600813,26.206388 11.1842342,26.2748304 11.111289,26.3477756 L9.25994116,28.1992235 C9.18659569,28.272569 9.11755288,28.3489163 9.05091157,28.4267646 L8.26002121,29.2176549 C7.99675799,29.4810182 7.64664092,29.6260081 7.27421001,29.6260081 C6.90187917,29.6260081 6.55176209,29.4810182 6.28839881,29.2176549 Z M2.84086133,23.7503652 C2.84086133,23.3780344 2.98595129,23.0279173 3.24931458,22.7646541 L5.10056235,20.9132062 C5.37243091,20.6414377 5.72945226,20.5054534 6.08647361,20.5054534 C6.44349497,20.5054534 6.80051632,20.6414377 7.07228482,20.9132062 C7.61592187,21.4567432 7.61592187,22.3412916 7.07228482,22.8849287 L5.22093698,24.7362765 C4.9575737,24.9996398 4.60745662,25.1446297 4.23512578,25.1446297 C3.86269487,25.1446297 3.5125778,24.9996398 3.24931458,24.7362765 C2.98595129,24.4729132 2.84086133,24.1227961 2.84086133,23.7503652 Z M18.7945526,7.18599532 C19.1089475,6.87170045 19.5269067,6.69849307 19.9714823,6.69849307 C20.416158,6.69849307 20.8341172,6.87170045 21.1485121,7.18599532 C21.9352999,7.97278313 22.9815486,8.40625188 24.0943385,8.40625188 C25.2071284,8.40625188 26.253277,7.97278313 27.0401649,7.18599532 L28.2065881,6.01957213 L36.9803278,14.7933119 L34.80648,16.9670596 L31.7811043,13.9417839 C31.7555885,13.9162681 31.729072,13.891953 31.7014549,13.8686386 L31.0011207,13.2800736 C29.0154896,11.611239 26.493626,10.6920691 23.8999179,10.6920691 C21.3450339,10.6920691 18.8521884,11.587024 16.880566,13.2119314 L15.9685005,13.9636975 C15.9375813,13.9890132 15.9079629,14.0160299 15.8796454,14.0443475 C14.7501451,15.1738478 12.9515299,15.2364866 11.7475835,14.2329644 L16.5888851,9.39166283 C16.5889852,9.39156277 16.5890852,9.39146271 16.5891853,9.39146271 L18.7945526,7.18599532 Z M36.5752767,18.7359563 L39.6336729,15.6776601 C39.8682183,15.4432148 40,15.1250175 40,14.7933119 C40,14.4615061 39.8682183,14.1433089 39.6336729,13.9088635 L29.0910364,3.36622706 C28.6025336,2.87792431 27.8106426,2.87792431 27.3222398,3.36622706 L25.2712682,5.4170986 C24.9569733,5.73149353 24.5389141,5.90470091 24.0943385,5.90470091 C23.6497629,5.90470091 23.2317037,5.73149353 22.9174088,5.4170986 C22.1305209,4.63021073 21.0843723,4.1969421 19.9714823,4.1969421 C18.8587925,4.1969421 17.8125438,4.63021073 17.0256559,5.4170986 L15.7214473,6.72140727 L12.6777602,3.67782025 C12.1892573,3.18941744 11.3973664,3.18941744 10.9089636,3.67782025 L0.366327123,14.2203566 C0.131781705,14.4550021 0,14.7729993 0,15.104805 C0,15.4365106 0.131781705,15.7547079 0.366327123,15.9892533 L3.429026,19.0518521 C3.39640577,19.0823711 3.36358542,19.1124897 3.33176569,19.1443095 L1.48041786,20.9957574 C0.74466169,21.7315135 0.339310372,22.7098201 0.339310372,23.7503652 C0.339310372,24.7910104 0.744561628,25.769317 1.48041786,26.5050731 C2.02415498,27.0489103 2.70047429,27.4114351 3.43633052,27.5640297 C3.39880726,27.7825652 3.37849467,28.0055034 3.37849467,28.2317437 C3.37849467,29.2723889 3.78374592,30.2506954 4.51950209,30.9865517 C5.25535832,31.7223078 6.23366487,32.1275591 7.27421001,32.1275591 C7.61211951,32.1275591 7.94312474,32.0841322 8.26172227,32.0012808 C8.4390322,32.6404771 8.77804239,33.2267406 9.2598411,33.7086394 C9.99569733,34.4443955 10.9740039,34.8496468 12.0146491,34.8496468 C12.4325082,34.8496468 12.8398607,34.7832056 13.2260001,34.6574276 C13.4057115,35.249995 13.7288119,35.808041 14.1964018,36.2756309 C14.9558726,37.0351018 15.9533911,37.4148372 16.9510096,37.4148372 C17.9486281,37.4148372 18.9463467,37.0351018 19.7058176,36.2756309 C19.8673177,36.1141308 20.0106066,35.9413236 20.1376854,35.7606116 L20.6528047,36.2756309 C21.4122756,37.0351018 22.4098941,37.4148372 23.4075127,37.4148372 C24.4051312,37.4148372 25.4026496,37.0351018 26.1622206,36.2756309 C26.6292101,35.8086414 26.9520102,35.2513959 27.1318217,34.659629 C27.5093558,34.7793032 27.9069023,34.8423423 28.3142548,34.8423423 C29.3549,34.8423423 30.3332066,34.437091 31.0689628,33.7012348 C31.5511617,33.2191359 31.8901719,32.6325722 32.0674818,31.9928756 C32.3994877,32.0819308 32.7408994,32.1275591 33.0824111,32.1275591 C34.0800296,32.1275591 35.0776481,31.7478237 35.8372191,30.9883528 C36.7627929,30.0626789 37.1232164,28.7833857 36.9206908,27.5813404 C37.6314315,27.4300466 38.3079509,27.0800296 38.8588925,26.529088 C40.3778343,25.0100462 40.3778343,22.5386139 38.8588925,21.0195721 L36.5752767,18.7359563 Z" id="path-1"></path>
    </defs>
    <g id="uEA31-innovation-partnership" stroke="none" stroke-width="1" fill="none" fill-rule="evenodd">
        <mask id="mask-2" fill="white">
            <use xlink:href="#path-1"></use>
        </mask>
        <use id="Partnerships" fill="#000000" xlink:href="#path-1"></use>
    </g>
</svg>