<?xml version="1.0" encoding="UTF-8"?>
<svg width="40px" height="40px" viewBox="0 0 40 40" version="1.1" xmlns="http://www.w3.org/2000/svg" xmlns:xlink="http://www.w3.org/1999/xlink">
    <!-- Generator: Sketch 51.3 (57544) - http://www.bohemiancoding.com/sketch -->
    <title>uEA37-click</title>
    <desc>Created with Sketch.</desc>
    <defs></defs>
    <g id="uEA37-click" stroke="none" stroke-width="1" fill="none" fill-rule="evenodd">
        <g id="Group" transform="translate(7.000000, 2.000000)" fill="#000000" fill-rule="nonzero">
            <path d="M21.5743846,21.1614615 C21.4851154,19.7285 21.1216923,18.8057692 20.4286923,18.2578846 C19.8575385,17.8064615 19.0735769,17.6486538 18.1005,17.7802308 C17.9993846,16.4488077 17.534,15.1368462 15.7443846,14.9625385 C14.9020385,14.8800385 14.2983077,15.0446154 13.9192308,15.2096154 C13.4356538,13.717 12.3754231,13.3463846 11.4455,13.3463846 C10.7008846,13.3463846 10.1352308,13.4386154 9.7295,13.5405769 L9.7295,7.106 C9.7295,5.00669231 8.712,3.85042308 6.864,3.85042308 C5.01642308,3.85042308 3.99892308,5.00669231 3.99892308,7.106 L3.99892308,18.7 C3.71715385,18.6716538 3.41084615,18.6551538 3.14896154,18.656 C2.09507692,18.6708077 0.783538462,19.1992308 0.519538462,21.6217692 C0.510230769,21.6915769 0.293615385,23.3525769 0.257653846,25.5551154 C0.209423077,28.5754615 0.772115385,31.0919231 1.88480769,32.8316154 C3.89653846,35.9771923 6.59746154,37.1165385 6.89276923,37.2337308 C7.11657692,37.3403462 8.77419231,38.0769231 11.6443462,38.0769231 C14.6795,38.0769231 16.6891154,37.0281154 16.9137692,36.9045769 C17.2962308,36.7213846 21.7448846,34.4249231 21.7448846,26.8256154 C21.7448846,24.3391923 21.7021538,23.2303077 21.5743846,21.1614615 Z M16.4653077,35.9788846 L16.4280769,35.9979231 C16.4090385,36.0080769 14.5145,37.0475769 11.6443462,37.0475769 C8.88123077,37.0475769 7.34165385,36.3076154 7.32811538,36.3008462 L7.28157692,36.2805385 C7.25534615,36.2703846 4.65596154,35.2541538 2.75169231,32.2761154 C1.76253846,30.7297692 1.24257692,28.3482692 1.287,25.5707692 C1.32126923,23.4312692 1.53746154,21.7723846 1.54126923,21.7444615 C1.73842308,19.9362308 2.51180769,19.6933846 3.16292308,19.6845 C3.42692308,19.6819615 3.74380769,19.7048077 3.99892308,19.734 L3.99892308,25.7416923 L5.02826923,25.7416923 L5.02826923,7.106 C5.02826923,5.13234615 6.00938462,4.87934615 6.864,4.87934615 C7.71903846,4.87934615 8.70015385,5.13234615 8.70015385,7.106 L8.70015385,19.1361923 L9.7295,19.1361923 L9.7295,14.6101154 C10.0353846,14.5106923 10.604,14.3753077 11.4455,14.3753077 C11.913,14.3753077 13.1551538,14.3753077 13.1551538,17.1807308 L13.1551538,21.2934615 L14.1845,21.2934615 L14.1845,17.1807308 C14.1845,16.8414231 14.1641923,16.5363846 14.1320385,16.2525 C14.2598077,16.17 14.7505769,15.9005 15.6453846,15.9868077 C16.5414615,16.0743846 17.0973846,16.5236923 17.0973846,18.4931154 L17.0973846,22.8173846 L18.1267308,22.8173846 L18.1267308,18.8155 C18.8764231,18.6945 19.4234615,18.7744615 19.7906923,19.0646923 C20.2315385,19.4137308 20.4794615,20.1202692 20.5475769,21.2249231 C20.6745,23.2700769 20.7163846,24.3666923 20.7163846,26.8256154 C20.7159615,33.9028462 16.6366538,35.8980769 16.4653077,35.9788846 Z" id="Shape"></path>
            <path d="M6.864,1.02934615 C9.57169231,1.02934615 11.7742308,3.23230769 11.7742308,5.93957692 L12.8035769,5.93957692 C12.8035769,2.66453846 10.1390385,0 6.864,0 C3.58896154,0 0.924423077,2.66453846 0.924423077,5.93957692 L1.95334615,5.93957692 C1.95334615,3.23188462 4.15630769,1.02934615 6.864,1.02934615 Z" id="Shape"></path>
        </g>
    </g>
</svg>