<?xml version="1.0" encoding="UTF-8"?>
<svg width="40px" height="40px" viewBox="0 0 40 40" version="1.1" xmlns="http://www.w3.org/2000/svg" xmlns:xlink="http://www.w3.org/1999/xlink">
    <!-- Generator: Sketch 51.3 (57544) - http://www.bohemiancoding.com/sketch -->
    <title>uEA36-pan</title>
    <desc>Created with Sketch.</desc>
    <defs></defs>
    <g id="uEA36-pan" stroke="none" stroke-width="1" fill="none" fill-rule="evenodd">
        <g id="Group" transform="translate(7.000000, 0.000000)" fill="#000000" fill-rule="nonzero">
            <path d="M20.9217778,19.8751111 C20.3431111,19.4164444 19.5488889,19.2546667 18.5644444,19.3844444 C18.4595556,18.0333333 17.9808889,16.7062222 16.1626667,16.5297778 C15.3142222,16.4471111 14.7066667,16.6084444 14.3195556,16.7742222 C13.8248889,15.2666667 12.7466667,14.8915556 11.8022222,14.8915556 C11.0577778,14.8915556 10.4897778,14.9826667 10.0777778,15.0848889 L10.0777778,8.57955556 C10.0777778,6.44044444 9.04044444,5.26222222 7.15644444,5.26222222 C5.27288889,5.26222222 4.23555556,6.44 4.23555556,8.57955556 L4.23555556,20.3182222 C3.952,20.2902222 3.64622222,20.2733333 3.38933333,20.2755556 C2.31466667,20.2906667 0.976888889,20.8293333 0.707555556,23.296 C0.698222222,23.3666667 0.478222222,25.0528889 0.442222222,27.2857778 C0.393333333,30.3524444 0.964888889,32.9071111 2.09466667,34.6733333 C4.136,37.8653333 6.87644444,39.0226667 7.17955556,39.1435556 C7.41111111,39.2524444 9.09377778,40 12.0048889,40 C15.0835556,40 17.1244444,38.9355556 17.3555556,38.8097778 C17.748,38.6213333 22.2626667,36.2862222 22.2626667,28.5755556 C22.2626667,26.0551111 22.2191111,24.9306667 22.0893333,22.8302222 C21.9991111,21.3733333 21.6284444,20.4337778 20.9217778,19.8751111 Z M16.8862222,37.8426667 L16.8462222,37.8631111 C16.8275556,37.8733333 14.9288889,38.9253333 12.0048889,38.9253333 C9.20711111,38.9253333 7.64933333,38.1764444 7.63511111,38.1697778 L7.58755556,38.1488889 C7.56088889,38.1391111 4.91777778,37.092 3.00044444,34.0942222 C1.99911111,32.5293333 1.47244444,30.1173333 1.51733333,27.304 C1.552,25.136 1.77111111,23.4546667 1.77466667,23.4253333 C1.97333333,21.6044444 2.74977778,21.3604444 3.40444444,21.3511111 C3.668,21.3466667 3.98088889,21.3688889 4.23555556,21.3977778 L4.23555556,27.4768889 L5.31066667,27.4768889 L5.31066667,8.57955556 C5.31066667,6.592 6.29733333,6.33733333 7.15644444,6.33733333 C8.016,6.33733333 9.00311111,6.592 9.00311111,8.57955556 L9.00311111,20.7782222 L10.0777778,20.7782222 L10.0777778,16.2 C10.3897778,16.1 10.9626667,15.9666667 11.8022222,15.9666667 C12.272,15.9666667 13.52,15.9666667 13.52,18.7955556 L13.52,22.9662222 L14.5951111,22.9662222 L14.5951111,18.7955556 C14.5951111,18.4537778 14.5751111,18.1471111 14.5431111,17.8604444 C14.6697778,17.7804444 15.1711111,17.5124444 16.0591111,17.6 C16.9591111,17.6866667 17.5168889,18.14 17.5168889,20.1257778 L17.5168889,24.5097778 L18.592,24.5097778 L18.592,20.4657778 C19.34,20.3471111 19.888,20.4266667 20.2546667,20.7173333 C20.6982222,21.068 20.9471111,21.7808889 21.016,22.896 C21.1444444,24.9715556 21.1875556,26.0831111 21.1875556,28.5746667 C21.1875556,35.7395556 17.06,37.7613333 16.8862222,37.8426667 Z" id="Shape"></path>
            <polygon id="Shape" points="23.0928889 3.52355556 22.3324444 4.28355556 23.2804444 5.23111111 20.1075556 5.23111111 20.1075556 2.05822222 21.0551111 3.00577778 21.8151111 2.24577778 19.5702222 0 17.3244444 2.24577778 18.0848889 3.00577778 19.0324444 2.05822222 19.0324444 5.23111111 15.86 5.23111111 16.8075556 4.28355556 16.0475556 3.52355556 13.8022222 5.76844444 16.0475556 8.01333333 16.8075556 7.25333333 15.86 6.30577778 19.0324444 6.30577778 19.0324444 9.47911111 18.0848889 8.53066667 17.3244444 9.29111111 19.5697778 11.5368889 21.8151111 9.29111111 21.0551111 8.53066667 20.1075556 9.47822222 20.1075556 6.30577778 23.2804444 6.30577778 22.3324444 7.25333333 23.0928889 8.01333333 25.3382222 5.76844444"></polygon>
        </g>
    </g>
</svg>