<?xml version="1.0" encoding="UTF-8"?>
<svg width="40px" height="40px" viewBox="0 0 40 40" version="1.1" xmlns="http://www.w3.org/2000/svg" xmlns:xlink="http://www.w3.org/1999/xlink">
    <!-- Generator: Sketch 51.3 (57544) - http://www.bohemiancoding.com/sketch -->
    <title>uEA35-scroll</title>
    <desc>Created with Sketch.</desc>
    <defs></defs>
    <g id="uEA35-scroll" stroke="none" stroke-width="1" fill="none" fill-rule="evenodd">
        <g id="Group" transform="translate(9.000000, 0.000000)" fill="#000000" fill-rule="nonzero">
            <path d="M21.8493333,22.8302222 C21.7591111,21.3733333 21.3884444,20.4333333 20.6822222,19.8751111 C20.1031111,19.4164444 19.3093333,19.2546667 18.3244444,19.3844444 C18.2195556,18.0333333 17.7408889,16.7062222 15.9226667,16.5297778 C15.0742222,16.4471111 14.4666667,16.6084444 14.08,16.7742222 C13.5848889,15.2666667 12.5066667,14.8915556 11.5622222,14.8915556 C10.8177778,14.8915556 10.2497778,14.9826667 9.83822222,15.0848889 L9.83822222,8.57955556 C9.83822222,6.44044444 8.80088889,5.26222222 6.91644444,5.26222222 C5.03244444,5.26222222 3.99511111,6.44 3.99511111,8.57955556 L3.99511111,20.3182222 C3.71155556,20.2902222 3.40622222,20.2733333 3.14933333,20.2755556 C2.07511111,20.2906667 0.737777778,20.8293333 0.468,23.296 C0.458666667,23.3666667 0.238666667,25.0528889 0.202666667,27.2857778 C0.153333333,30.3524444 0.724888889,32.9071111 1.85511111,34.6733333 C3.89644444,37.8653333 6.63688889,39.0226667 6.94,39.1435556 C7.17111111,39.2524444 8.85377778,40 11.7648889,40 C14.8444444,40 16.8848889,38.9355556 17.1155556,38.8097778 C17.508,38.6213333 22.0226667,36.2862222 22.0226667,28.5755556 C22.0226667,26.0635556 21.9791111,24.9373333 21.8493333,22.8302222 Z M16.6462222,37.8426667 L16.6062222,37.8631111 C16.5875556,37.8733333 14.6893333,38.9253333 11.7644444,38.9253333 C8.96666667,38.9253333 7.40888889,38.1764444 7.39466667,38.1697778 L7.34755556,38.1488889 C7.32088889,38.1391111 4.67777778,37.092 2.76044444,34.0942222 C1.75911111,32.5293333 1.23244444,30.1173333 1.27733333,27.304 C1.312,25.136 1.53111111,23.4546667 1.53511111,23.4253333 C1.73422222,21.6044444 2.51066667,21.3604444 3.16444444,21.3511111 C3.428,21.3466667 3.74,21.3688889 3.99511111,21.3977778 L3.99511111,27.4768889 L5.06977778,27.4768889 L5.06977778,8.57955556 C5.06977778,6.592 6.05644444,6.33733333 6.916,6.33733333 C7.77555556,6.33733333 8.76266667,6.592 8.76266667,8.57955556 L8.76266667,20.7782222 L9.83777778,20.7782222 L9.83777778,16.2 C10.1497778,16.1 10.7226667,15.9666667 11.5617778,15.9666667 C12.032,15.9666667 13.2795556,15.9666667 13.2795556,18.7955556 L13.2795556,22.9662222 L14.3546667,22.9662222 L14.3546667,18.7955556 C14.3546667,18.4537778 14.3346667,18.1471111 14.3026667,17.8604444 C14.4297778,17.7804444 14.9306667,17.5124444 15.8186667,17.6 C16.7186667,17.6866667 17.2768889,18.14 17.2768889,20.1257778 L17.2768889,24.5097778 L18.352,24.5097778 L18.352,20.4657778 C19.0995556,20.3471111 19.6475556,20.4266667 20.0142222,20.7173333 C20.4577778,21.068 20.7071111,21.7808889 20.7755556,22.896 C20.904,24.9782222 20.9471111,26.0906667 20.9471111,28.5746667 C20.9475556,35.7395556 16.82,37.7613333 16.6462222,37.8426667 Z" id="Shape"></path>
            <polygon id="Shape" points="17.8448889 8.53066667 17.0844444 9.29111111 19.3297778 11.5368889 21.5755556 9.29111111 20.8151111 8.53066667 19.868 9.47777778 19.868 2.05822222 20.8151111 3.00577778 21.5755556 2.24577778 19.3306667 0 17.0844444 2.24577778 17.8448889 3.00577778 18.7928889 2.05777778 18.7928889 9.47955556"></polygon>
        </g>
    </g>
</svg>