<?xml version="1.0" encoding="UTF-8"?>
<svg width="40px" height="40px" viewBox="0 0 40 40" version="1.1" xmlns="http://www.w3.org/2000/svg" xmlns:xlink="http://www.w3.org/1999/xlink">
    <!-- Generator: Sketch 51.3 (57544) - http://www.bohemiancoding.com/sketch -->
    <title>uEA33-health-cross</title>
    <desc>Created with Sketch.</desc>
    <defs></defs>
    <g id="uEA33-health-cross" stroke="none" stroke-width="1" fill="none" fill-rule="evenodd">
        <path d="M38.5611326,27.2005517 L27.6422246,27.2005517 L27.6422246,38.2566348 C27.6422246,38.9608121 27.0713761,39.5316606 26.3671988,39.5316606 L20.338848,39.531499 C20.180506,39.6020232 20.005136,39.6412216 19.8206108,39.6412216 L13.6665061,39.6412216 C12.9623287,39.6412216 12.3914802,39.070373 12.3914802,38.3661957 L12.3914802,27.3101127 L1.27502586,27.3101127 C0.570848523,27.3101127 0,26.7392641 0,26.0350868 L0,13.6436066 C0,12.9394293 0.570848523,12.3685807 1.27502586,12.3685807 L12.3914802,12.3685807 L12.3914802,1.27502586 C12.3914802,0.570848523 12.9623287,0 13.6665061,0 C13.7273936,0 13.7872842,0.00426788914 13.8458953,0.0125208306 C13.9045063,0.00426788914 13.964397,0 14.0252845,0 L26.3671988,0 C27.0713761,0 27.6422246,0.570848523 27.6422246,1.27502586 L27.6422246,12.3685807 L38.7249741,12.3685807 C39.4291515,12.3685807 40,12.9394293 40,13.6436066 L40,25.935955 C40,26.6401323 39.4291515,27.2109808 38.7249741,27.2109808 C38.6694602,27.2109808 38.6147749,27.207433 38.5611326,27.2005517 Z M37.4499483,24.6505 L37.4499483,14.9186325 L26.3671988,14.9186325 C25.6630214,14.9186325 25.0921729,14.3477839 25.0921729,13.6436066 L25.0921729,2.55005173 L14.9415319,2.55005173 L14.9415319,13.6436066 C14.9415319,14.3477839 14.3706834,14.9186325 13.6665061,14.9186325 L2.55005173,14.9186325 L2.55005173,24.7600609 L13.5074104,24.7600609 C13.6656574,24.6896385 13.8409003,24.6505 14.0252845,24.6505 C14.7294618,24.6505 15.3003104,25.2213485 15.3003104,25.9255259 L15.3003104,37.0600716 L20.1793892,36.9816089 L25.0921729,36.9816089 L25.0921729,25.9255259 C25.0921729,25.2213485 25.6630214,24.6505 26.3671988,24.6505 L37.4499483,24.6505 Z" id="Icons" fill="#000000" fill-rule="nonzero"></path>
    </g>
</svg>