<?xml version="1.0" encoding="UTF-8"?>
<svg width="40px" height="40px" viewBox="0 0 40 40" version="1.1" xmlns="http://www.w3.org/2000/svg" xmlns:xlink="http://www.w3.org/1999/xlink">
    <!-- Generator: Sketch 51.3 (57544) - http://www.bohemiancoding.com/sketch -->
    <title>uEA34-hearing-impaired</title>
    <desc>Created with Sketch.</desc>
    <defs></defs>
    <g id="uEA34-hearing-impaired" stroke="none" stroke-width="1" fill="none" fill-rule="evenodd">
        <path d="M38.4119816,0.61810489 C38.8469335,1.05960838 39.0645161,1.58941257 39.0645161,2.20751746 C39.0645161,2.82562235 38.8469335,3.35542654 38.4119816,3.79693004 L33.0176248,9.31572369 C32.5826728,9.75722718 32.0750748,9.97797893 31.4950441,9.97797893 C30.8860119,9.97797893 30.3639842,9.75722718 29.9290323,9.31572369 C29.4939381,8.8742202 29.2764977,8.34441601 29.2764977,7.72631112 C29.2764977,7.07877266 29.4939381,6.54896847 29.9290323,6.13689855 L35.3232469,0.61810489 C35.7293395,0.206034963 36.2441167,0 36.8677919,0 C37.4910406,0 38.0058179,0.206034963 38.4119816,0.61810489 Z M11.4840553,24.9890977 C11.8900768,24.5770278 12.4048541,24.3712092 13.0283871,24.3712092 C13.6519201,24.3712092 14.1666974,24.5770999 14.5727189,24.9890977 C15.0077419,25.4306012 15.2252535,25.9606218 15.2252535,26.5785103 C15.2252535,27.2554823 15.0077419,27.7853586 14.5727189,28.1679228 L4.74119816,38.2342025 C4.30617512,38.6757059 3.79864823,38.8964577 3.21861751,38.8964577 C2.60958525,38.8964577 2.0875576,38.6757059 1.65253456,38.2342025 C1.21751152,37.792699 1,37.2628948 1,36.6447899 C1,35.9972514 1.21751152,35.4674472 1.65253456,35.0553773 L11.4840553,24.9890977 Z M20.9675576,17.6601397 C20.9675576,16.894867 20.6995066,16.2326117 20.162765,15.673374 C19.6262366,15.1141362 18.9664516,14.8345173 18.1834101,14.8345173 C17.4293702,14.8345173 16.7768356,15.1141362 16.2258065,15.673374 C15.6747773,16.2326117 15.3992627,16.894867 15.3992627,17.6601397 C15.3992627,18.1605103 15.2397542,18.5725803 14.9207373,18.8963495 C14.6017204,19.2201187 14.2101997,19.3820033 13.7461751,19.3820033 C13.2821505,19.3820033 12.8906298,19.2201187 12.5716129,18.8963495 C12.252596,18.5725803 12.0930876,18.1605103 12.0930876,17.6601397 C12.0930876,16.8065663 12.252596,15.9971432 12.5716129,15.2318705 C12.8906298,14.4665978 13.3256528,13.8043425 13.876682,13.2451048 C14.4277112,12.685867 15.0729954,12.2443635 15.8125346,11.9205943 C16.5520737,11.5968251 17.3423656,11.4349405 18.1834101,11.4349405 C19.0244547,11.4349405 19.8147465,11.5968251 20.5542857,11.9205943 C21.2936827,12.2443635 21.9389669,12.685867 22.4899961,13.2451048 C23.0410253,13.8043425 23.4759772,14.4665978 23.7949941,15.2318705 C24.114011,15.9971432 24.2733773,16.8065663 24.2733773,17.6601397 C24.2733773,18.1605103 24.114011,18.5725803 23.7949941,18.8963495 C23.4759772,19.2201187 23.0844565,19.3820033 22.620503,19.3820033 C22.1566917,19.3820033 21.7648866,19.2201187 21.446154,18.8963495 C21.1270661,18.5725803 20.9675576,18.1605103 20.9675576,17.6601397 Z M18.1834101,4.90068877 C19.8654992,4.90068877 21.446154,5.22445799 22.9251613,5.87199645 C24.4044529,6.51953491 25.6948791,7.40990028 26.7969374,8.54309258 C27.8989958,9.67628488 28.7690419,11.0007954 29.4072889,12.516624 C30.0452516,14.0324527 30.3642685,15.6439404 30.3642685,17.3510873 C30.3642685,18.8227656 30.1178266,20.2650103 29.6247294,21.6778215 C29.5669396,21.8249893 29.5087943,21.9280068 29.4507912,21.9868739 C29.1319165,22.6047624 28.8126864,23.1787169 28.4936695,23.7085211 C28.2036541,24.1794582 27.8919587,24.6724704 27.5585121,25.1877021 C27.2250655,25.7028617 26.9133701,26.1367903 26.6233547,26.4902096 C26.5653516,26.5785103 26.4928478,26.6668109 26.40563,26.7551116 C26.3185543,26.8434123 26.2316918,26.9464298 26.1446161,27.0641641 C25.7385235,27.5348847 25.4412578,27.9398127 25.2527478,28.2782987 C25.0642378,28.6165683 24.9845547,29.1686641 25.0135562,29.9337925 C25.0715593,31.5231329 25.0861311,32.6931172 25.0569874,33.4436731 C25.0279859,34.1942291 24.9700539,34.7902588 24.8830493,35.2317623 C24.6220355,36.7623077 23.9621795,37.9396504 22.9036945,38.7637902 C21.8449252,39.5879301 20.3731683,40 18.4881395,40 L18.4011349,40 C17.8791073,40 17.4295834,39.8088982 17.0525635,39.4260455 C16.6755435,39.0434091 16.4725328,38.572472 16.4435312,38.0132343 C16.4145297,37.7483322 16.4507816,37.4910049 16.552287,37.2406032 C16.6537924,36.9904179 16.7915497,36.7770245 16.9655589,36.6004231 C17.3425788,36.1589196 17.8066034,35.9381679 18.3576326,35.9381679 C18.9666649,35.9087343 19.4379398,35.8498672 19.7714575,35.7615665 C20.1049752,35.6732658 20.3588808,35.5704647 20.5326767,35.4525862 C20.706757,35.3347798 20.8155839,35.2099035 20.8590862,35.0774525 C20.9025885,34.9450014 20.9387693,34.805192 20.9677709,34.6580242 L21.0112021,34.4372724 C21.069063,34.1135032 21.0982778,33.5395486 21.0982778,32.7154088 C21.0982778,31.8912689 21.0837059,30.9935452 21.0549887,30.0222375 C21.0259872,29.2569648 21.0766688,28.5873511 21.2071757,28.0133966 C21.3376826,27.4394421 21.5045836,26.931713 21.7075233,26.4902096 C21.9103919,26.0487061 22.1424752,25.6587113 22.4034891,25.3202253 C22.6645029,24.9817393 22.9255167,24.6653284 23.1865305,24.3709928 C23.2737484,24.2824757 23.4042553,24.1208075 23.5781934,23.8853389 C23.7521316,23.6794483 23.9478919,23.4070435 24.1656167,23.0687018 C24.3830571,22.7302879 24.607819,22.3768687 24.8397602,22.0090934 C25.0719147,21.6411738 25.2821048,21.287971 25.4704726,20.949485 C25.6589826,20.6110711 25.8257414,20.3238774 25.970678,20.0884089 C26.1157568,19.676339 26.2244414,19.2421939 26.2970874,18.7859736 C26.3695913,18.3297533 26.4057721,17.8514579 26.4057721,17.3510873 C26.4057721,16.2031782 26.1881895,15.1141362 25.7532376,14.0839614 C25.3181434,13.0537866 24.7308623,12.1634212 23.9913232,11.4128653 C23.251784,10.6623093 22.381809,10.0662796 21.381256,9.62477614 C20.380703,9.18327264 19.3148255,8.9625209 18.1838366,8.9625209 C17.0527767,8.9625209 15.9869703,9.18327264 14.9864173,9.62477614 C13.9858643,10.0662796 13.1158182,10.6623093 12.376279,11.4128653 C11.6367399,12.1634212 11.0494588,13.0537866 10.6144357,14.0839614 C10.1794127,15.1141362 9.96190115,16.2031782 9.96190115,17.3510873 C9.96190115,17.910325 9.77339116,18.3886205 9.39637119,18.7859736 C9.01935122,19.1833268 8.55532665,19.3820033 8.00429746,19.3820033 C7.45326828,19.3820033 6.98199331,19.1833268 6.59047258,18.7859736 C6.19895184,18.3886205 6.00319147,17.910325 6.00319147,17.3510873 C6.00319147,15.6439404 6.32220837,14.0324527 6.96024216,12.516624 C7.59827596,11.0007954 8.46832204,9.67628488 9.57038041,8.54309258 C10.6724388,7.40990028 11.9630071,6.51953491 13.4420855,5.87199645 C14.9207373,5.22445799 16.501321,4.90068877 18.1834101,4.90068877 Z" id="Shape" fill="#000000" fill-rule="nonzero"></path>
    </g>
</svg>