<?xml version="1.0" encoding="UTF-8"?>
<svg width="100px" height="40px" viewBox="0 0 100 40" version="1.1" xmlns="http://www.w3.org/2000/svg" xmlns:xlink="http://www.w3.org/1999/xlink">
    <!-- Generator: Sketch 51.3 (57544) - http://www.bohemiancoding.com/sketch -->
    <title>uEA38-home-logo</title>
    <desc>Created with Sketch.</desc>
    <defs></defs>
    <g id="uEA38-home-logo" stroke="none" stroke-width="1" fill="none" fill-rule="evenodd">
        <path d="M18.9163749,5 L22.9466341,5 L22.9466341,34.0522062 L18.9163749,34.0522062 L18.9163749,21.1445973 L4.02994291,21.1445973 L4.02994291,34.0522062 L0,34.0522062 L0,5 L4.02994291,5 L4.02994291,17.4155994 L18.9163749,17.4155994 L18.9163749,5 Z M35.9405746,34.6666667 C30.0187095,34.6666667 25.8239628,30.2001271 25.8239628,24.1768705 C25.8239628,18.1942731 30.0187095,13.7280488 35.9405746,13.7280488 C41.8621233,13.7280488 46.0565537,18.1942731 46.0565537,24.1768705 C46.0565537,30.2001271 41.8621233,34.6666667 35.9405746,34.6666667 Z M35.9405746,17.1699097 C32.6505089,17.1699097 29.7719783,19.6283819 29.7719783,24.1768705 C29.7719783,28.7663336 32.6505089,31.2248057 35.9405746,31.2248057 C39.2303239,31.2248057 42.1088545,28.7663336 42.1088545,24.1768705 C42.1088545,19.6283819 39.2303239,17.1699097 35.9405746,17.1699097 Z M48.9341987,34.0520802 L48.9341987,14.3426983 L52.635483,14.3426983 L52.635483,16.9650686 C53.869139,14.793103 56.336451,13.7687397 58.6392755,13.7687397 C61.1065875,13.7687397 63.491972,14.9573164 64.5611406,17.4977375 C66.1237715,14.6704946 68.6733272,13.7687397 71.1820774,13.7687397 C74.6363142,13.7687397 78.0086236,16.1046033 78.0086236,21.2673948 L78.0086236,34.0520802 L74.1839736,34.0520802 L74.1839736,21.6771401 C74.1839736,19.0957444 72.9091958,17.1699413 69.9895433,17.1699413 C67.2751838,17.1699413 65.4246998,19.3006171 65.4246998,22.12786 L65.4246998,34.0520802 L61.5592443,34.0520802 L61.5592443,21.6771401 C61.5592443,19.136719 60.325272,17.1699413 57.3644976,17.1699413 C54.6093326,17.1699413 52.7585322,19.218668 52.7585322,22.1691498 L52.7585322,34.0520802 L48.9341987,34.0520802 Z M99.6791513,28.4385058 C98.5685446,31.9213413 95.4021608,34.6666351 90.7965118,34.6666351 C85.4914747,34.6666351 80.8443875,30.8150288 80.8443875,24.1358644 C80.8443875,17.9483944 85.0986238,13.7280488 90.7965118,13.7280488 C96.4761598,13.7280488 99.6791513,17.1289037 99.9960891,24.0596125 C100.018546,24.5506905 99.9387551,25.0373042 99.8976333,25.2831514 L84.8335248,25.2831514 C84.9157686,28.8072766 87.4653243,31.2657487 90.7965118,31.2657487 C94.0040174,31.2657487 95.6077702,29.5038437 96.3479638,27.2909036 L99.6791513,28.4385058 Z M96.3479638,22.12786 C96.1820643,19.3678988 94.662213,17.1289037 90.8431249,17.1289037 C87.2932738,17.1289037 85.1366122,19.6283503 84.9568904,22.1690867 L96.3479638,22.12786 Z" id="Home-Logo" fill="#000000"></path>
    </g>
</svg>