<?xml version="1.0" encoding="UTF-8"?>
<svg width="40px" height="40px" viewBox="0 0 40 40" version="1.1" xmlns="http://www.w3.org/2000/svg" xmlns:xlink="http://www.w3.org/1999/xlink">
    <!-- Generator: Sketch 51.3 (57544) - http://www.bohemiancoding.com/sketch -->
    <title>uEA32-people-community</title>
    <desc>Created with Sketch.</desc>
    <defs></defs>
    <g id="uEA32-people-community" stroke="none" stroke-width="1" fill="none" fill-rule="evenodd">
        <path d="M24.0070551,24.8322574 C24.8241628,25.0902229 25.7073754,25.081534 26.5197508,24.8064997 L26.5669842,24.8064997 L26.5669842,36.1903134 C26.5669842,36.8792047 27.1303771,37.440041 27.8282432,37.440041 C28.5262015,37.440041 29.0896021,36.8792123 29.0896021,36.1903134 L29.0896021,22.1142616 C28.908062,22.7491277 28.5663406,23.3480705 28.0644406,23.847693 C27.626906,24.2832831 27.1136664,24.5974863 26.5669061,24.7902075 C26.5669581,24.7956208 26.5669842,24.8010516 26.5669842,24.8064997 L26.5669842,36.1903134 C26.5669842,37.322054 26.0722311,38.3379131 25.2870117,39.0354395 C24.5018052,38.3379094 24.0070551,37.3220459 24.0070551,36.1903134 L24.0070551,24.8322574 Z M29.0896021,19.9095807 L29.0896021,19.2410774 C29.0896021,17.891639 30.907806,17.4607427 31.5134003,18.6666612 C31.8929396,19.4224371 32.9464641,20.6468481 34.3595722,22.0385892 C34.9314586,22.6018276 35.8548593,22.5994942 36.4234722,22.0334084 C36.9908912,21.468617 36.9908912,20.5552592 36.4234215,19.9903645 L30.9552482,14.5469047 C30.242024,13.8369914 29.2739282,13.4378044 28.2643099,13.4378044 L23.3045425,13.4378044 L28.0643557,18.1761056 C28.566305,18.6757305 28.9080528,19.2746907 29.0896021,19.9095807 Z M17.654414,10.8779052 C17.6573567,10.8778853 17.6603017,10.8778753 17.6632491,10.8778753 L28.2643099,10.8778753 C29.9504001,10.8778753 31.5679341,11.5448531 32.7612312,12.7326108 L38.2294521,18.1761179 C39.8021368,19.7416662 39.8021368,22.2823035 38.2294946,23.8476631 C36.6658599,25.4043485 34.135317,25.4107433 32.5632711,23.8624695 C32.2408514,23.544925 31.9357385,23.2360536 31.6495312,22.9363665 L31.6495312,36.1903134 C31.6495312,38.2956506 29.9373961,39.9999701 27.8282432,39.9999701 C26.8529218,39.9999701 25.9624917,39.6354951 25.2870117,39.0354395 C24.6115151,39.6354968 23.7210573,39.9999701 22.7456962,39.9999701 C21.7703925,39.9999701 20.879977,39.6355083 20.2045015,39.0354722 C19.5290053,39.6355278 18.6385488,40 17.6631891,40 C16.6878678,40 15.7974376,39.6355249 15.1219577,39.0354693 C14.4464611,39.6355266 13.5560033,40 12.5806421,40 C10.4715659,40 8.75945406,38.2956572 8.75945406,36.1903433 L8.75945406,22.9362968 C8.47324522,23.2359853 8.16813224,23.544857 7.84571408,23.8624 C6.27359875,25.4107436 3.74318795,25.4043942 2.17939085,23.8476932 C0.606862654,22.2821544 0.606862654,19.7415824 2.17943323,18.1761478 L7.64776235,12.7326324 C8.84098266,11.5448266 10.4584266,10.8779052 12.1446754,10.8779052 L17.654414,10.8779052 Z M21.4844674,36.1990506 C21.4892071,36.8839404 22.0507827,37.440041 22.7456962,37.440041 C23.4436545,37.440041 24.0070551,36.8792123 24.0070551,36.1903134 L24.0070551,24.8322574 C23.4196558,24.6468122 22.8664184,24.3235646 22.3982171,23.8623999 C22.0757866,23.5448448 21.7706754,23.23598 21.4844772,22.9363108 L21.4844772,36.1903433 C21.4844772,36.1932465 21.4844739,36.1961489 21.4844674,36.1990506 Z M11.3193832,19.2411073 L11.3193832,36.1903433 C11.3193832,36.8792345 11.882776,37.4400709 12.5806421,37.4400709 C13.2786005,37.4400709 13.8420011,36.8792421 13.8420011,36.1903433 L13.8420011,24.8065295 C13.8420011,23.0999101 16.4019302,23.0999101 16.4019302,24.8065295 L16.4019302,36.1903433 C16.4019302,36.8792345 16.965323,37.4400709 17.6631891,37.4400709 C18.3611475,37.4400709 18.9245481,36.8792421 18.9245481,36.1903433 L18.9245481,19.2411073 C18.9245481,17.8916689 20.7427519,17.4607726 21.3483463,18.6666911 C21.7278605,19.422417 22.7812308,20.6466019 24.1945611,22.0385618 C24.7664361,22.6018421 25.6898042,22.5995252 26.2583758,22.0334805 C26.8258372,21.4685941 26.8258372,20.5552363 26.2583675,19.9903944 L20.7901466,14.5468872 C20.0770034,13.83698 19.1089597,13.4378343 18.0992559,13.4378343 L12.1446754,13.4378343 C11.1349117,13.4378343 10.1669562,13.8369518 9.45378463,14.5468872 L3.98545551,19.9904026 C3.41807995,20.5552036 3.41807995,21.4686267 3.98545551,22.0334805 C4.55409459,22.5995392 5.47742761,22.6018561 6.04941253,22.0385201 C7.46246564,20.6468332 8.51598316,19.4224497 8.89562819,18.6666051 C9.50128973,17.4607787 11.3193832,17.891721 11.3193832,19.2411073 Z M19.5784896,4.44217928 C19.5784896,6.89679374 17.5819646,8.88425904 15.1219956,8.88425904 C12.6619483,8.88425904 10.6654017,6.89681539 10.6654017,4.44217928 C10.6654017,1.98753671 12.661955,0 15.1219956,0 C17.5819579,0 19.5784896,1.98755835 19.5784896,4.44217928 Z M17.0185604,4.44217928 C17.0185604,3.40395598 16.1707231,2.55992914 15.1219956,2.55992914 C14.0731775,2.55992914 13.2253308,3.40394685 13.2253308,4.44217928 C13.2253308,5.48038021 14.073146,6.32432991 15.1219956,6.32432991 C16.1707545,6.32432991 17.0185604,5.48037108 17.0185604,4.44217928 Z M29.7435436,4.44217928 C29.7435436,6.89679374 27.7470186,8.88425904 25.2870496,8.88425904 C22.8270023,8.88425904 20.8304557,6.89681539 20.8304557,4.44217928 C20.8304557,1.98753671 22.827009,0 25.2870496,0 C27.747012,0 29.7435436,1.98755835 29.7435436,4.44217928 Z M27.1836145,4.44217928 C27.1836145,3.40395598 26.3357771,2.55992914 25.2870496,2.55992914 C24.2382315,2.55992914 23.3903848,3.40394685 23.3903848,4.44217928 C23.3903848,5.48038021 24.2382,6.32432991 25.2870496,6.32432991 C26.3358085,6.32432991 27.1836145,5.48037108 27.1836145,4.44217928 Z" id="Icons" fill="#000000" fill-rule="nonzero"></path>
    </g>
</svg>