<?xml version="1.0" encoding="UTF-8"?>
<svg width="40px" height="40px" viewBox="0 0 40 40" version="1.1" xmlns="http://www.w3.org/2000/svg" xmlns:xlink="http://www.w3.org/1999/xlink">
    <!-- Generator: Sketch 51.3 (57544) - http://www.bohemiancoding.com/sketch -->
    <title>uEA30-innovation-idea</title>
    <desc>Created with Sketch.</desc>
    <defs>
        <path d="M16.0449509,36.305544 C15.3542853,36.305544 14.7943903,35.7456489 14.7943903,35.0549834 C14.7943903,34.3643179 15.3542853,33.8044228 16.0449509,33.8044228 L23.6465694,33.8044228 C24.3372349,33.8044228 24.8971299,34.3643179 24.8971299,35.0549834 C24.8971299,35.7456489 24.3372349,36.305544 23.6465694,36.305544 L16.0449509,36.305544 Z M16.8051127,40 C16.1144472,40 15.5545522,39.440105 15.5545522,38.7494394 C15.5545522,38.0587739 16.1144472,37.4988789 16.8051127,37.4988789 L22.8864075,37.4988789 C23.5770731,37.4988789 24.1369681,38.0587739 24.1369681,38.7494394 C24.1369681,39.440105 23.5770731,40 22.8864075,40 L16.8051127,40 Z M30.9783442,17.6511321 C30.9783442,20.9093713 29.5520192,23.9396732 27.1204929,26.0277703 C25.708327,27.24057 24.8970494,28.9853016 24.8970494,30.8159332 L24.8970494,31.2426245 C24.8970494,31.93329 24.3371543,32.4931851 23.6464888,32.4931851 L16.044971,32.4931851 C15.3543055,32.4931851 14.7944104,31.93329 14.7944104,31.2426245 L14.7944104,30.8160333 C14.7944104,28.9803692 13.9991382,27.2415814 12.6154677,26.0657736 C10.1951137,24.0092215 8.75574772,21.0205159 8.71402567,17.7959403 C8.63505045,11.6812752 13.5960126,6.64070779 19.7421453,6.58492297 C25.9318191,6.52885374 30.9783442,11.4988575 30.9783442,17.6511321 Z M25.4909828,24.1303238 C27.3755537,22.5119299 28.4772231,20.1713758 28.4772231,17.6511321 C28.4772231,12.8925507 24.5678268,9.04243322 19.7648232,9.08594129 C15.0003446,9.12918565 11.1538949,13.0373567 11.2149378,17.7636104 C11.247201,20.2571377 12.3590832,22.5658546 14.2350189,24.1598195 C15.9712946,25.6352622 17.0457131,27.7343406 17.2570725,29.9920639 L22.4350253,29.9920639 C22.6497457,27.7353073 23.7402007,25.6339345 25.4909828,24.1303238 Z M16.1685079,19.0017375 C16.1685079,19.6924031 15.6086129,20.2522981 14.9179473,20.2522981 C14.2272818,20.2522981 13.6673868,19.6924031 13.6673868,19.0017375 C13.6673868,15.4795185 15.9633819,12.400116 19.2820232,11.3398011 C19.9399247,11.1295998 20.643661,11.4925325 20.8538623,12.150434 C21.0640635,12.8083354 20.7011308,13.5120717 20.0432294,13.722273 C17.751643,14.454441 16.1685079,16.5777514 16.1685079,19.0017375 Z M21.0545735,4.17287049 C21.0545735,4.86353602 20.4946784,5.42343105 19.8040129,5.42343105 C19.1133474,5.42343105 18.5534523,4.86353602 18.5534523,4.17287049 L18.5534523,1.25056056 C18.5534523,0.559895036 19.1133474,0 19.8040129,0 C20.4946784,0 21.0545735,0.559895036 21.0545735,1.25056056 L21.0545735,4.17287049 Z M30.6981062,8.93205176 C30.1969273,9.40727649 29.4053957,9.38623645 28.930171,8.88505752 C28.4549462,8.38387858 28.4759863,7.59234702 28.9771652,7.11712228 L31.1948537,5.01427968 C31.6960326,4.53905495 32.4875642,4.56009499 32.9627889,5.06127393 C33.4380136,5.56245286 33.4169736,6.35398443 32.9157947,6.82920916 L30.6981062,8.93205176 Z M10.3495632,7.13735138 C10.83957,7.62408775 10.8422211,8.41589446 10.3554847,8.90590118 C9.86874836,9.39590789 9.07694164,9.39855903 8.58693493,8.91182266 L6.36924645,6.70893522 C5.87923974,6.22219885 5.8765886,5.43039213 6.36332497,4.94038542 C6.85006134,4.45037871 7.64186805,4.44772757 8.13187476,4.93446394 L10.3495632,7.13735138 Z" id="path-1"></path>
    </defs>
    <g id="uEA30-innovation-idea" stroke="none" stroke-width="1" fill="none" fill-rule="evenodd">
        <mask id="mask-2" fill="white">
            <use xlink:href="#path-1"></use>
        </mask>
        <use id="innovation" fill="#000000" fill-rule="nonzero" xlink:href="#path-1"></use>
    </g>
</svg>