<?xml version="1.0" encoding="UTF-8"?>
<svg width="40px" height="40px" viewBox="0 0 40 40" version="1.1" xmlns="http://www.w3.org/2000/svg" xmlns:xlink="http://www.w3.org/1999/xlink">
    <!-- Generator: Sketch 51.3 (57544) - http://www.bohemiancoding.com/sketch -->
    <title>uEA40-camera</title>
    <desc>Created with Sketch.</desc>
    <defs>
        <path d="M32.060241,12.3372772 C32.5792555,12.3372772 33,12.7265903 33,13.2068324 L33,29.1304449 C33,29.6106869 32.5792555,30 32.060241,30 L7.93975904,30 C7.42074445,30 7,29.6106869 7,29.1304449 L7,13.2068324 C7,12.7265903 7.42074445,12.3372772 7.93975904,12.3372772 L14.3614458,12.3372772 L14.3614458,11.907804 C14.3614458,10.8580785 15.2700603,10 16.4005976,10 L23.5994024,10 C24.7299397,10 25.6385542,10.8580785 25.6385542,11.907804 L25.6385542,12.3372772 L32.060241,12.3372772 Z M24.6987952,14.0763875 C24.1797806,14.0763875 23.7590361,13.6870744 23.7590361,13.2068324 L23.7590361,11.907804 C23.7590361,11.8107051 23.6832248,11.7391103 23.5994024,11.7391103 L16.4005976,11.7391103 C16.3167752,11.7391103 16.2409639,11.8107051 16.2409639,11.907804 L16.2409639,13.2068324 C16.2409639,13.6870744 15.8202194,14.0763875 15.3012048,14.0763875 L8.87951807,14.0763875 L8.87951807,28.2608897 L31.1204819,28.2608897 L31.1204819,14.0763875 L24.6987952,14.0763875 Z M19.9298083,26.6618227 C16.6507792,26.6299699 14.0205555,24.1445534 14.0550171,21.1104875 C14.0894416,18.0764443 16.7755508,15.6426804 20.0545523,15.6745677 C23.3335591,15.7064551 25.9637942,18.1918821 25.9293327,21.2259416 C25.894871,24.2599839 23.2087917,26.6937098 19.9298083,26.6618227 Z M20.0348,17.413582 C17.793777,17.3917887 15.9579588,19.0551417 15.9344315,21.1287543 C15.9108786,23.2023928 17.7084921,24.9010385 19.9495499,24.9228083 C22.190571,24.9446016 24.0263656,23.2812773 24.0499184,21.2076649 C24.0734711,19.1340394 22.2758381,17.4353754 20.0348,17.413582 Z M29.7622357,16.0972539 C29.7561899,16.6306391 29.283961,17.0584892 28.7075441,17.0528661 C28.1310959,17.0472719 27.6687031,16.6103494 27.6747489,16.0769643 C27.680826,15.5435792 28.1530236,15.1157291 28.7294718,15.1213232 C29.30592,15.1269174 29.7682814,15.5638688 29.7622357,16.0972539 Z M23.2215513,20.6528108 C23.2671825,21.1311931 22.8850587,21.5532267 22.3680539,21.595449 C21.8510491,21.6376714 21.3949426,21.2840938 21.3493114,20.8057115 C21.3084845,20.3776959 20.9003234,20.0612841 20.4377575,20.0990606 C19.9207528,20.1412829 19.4646462,19.7877054 19.419015,19.309323 C19.3733838,18.8309406 19.7555076,18.4089071 20.2725123,18.3666848 C21.7690904,18.2444633 23.0894622,19.2680329 23.2215513,20.6528108 Z M18.4337349,14.0581443 C17.9147204,14.0581443 17.4939759,13.6688312 17.4939759,13.1885891 C17.4939759,12.7083471 17.9147204,12.319034 18.4337349,12.319034 L21.5662651,12.319034 C22.0852796,12.319034 22.5060241,12.7083471 22.5060241,13.1885891 C22.5060241,13.6688312 22.0852796,14.0581443 21.5662651,14.0581443 L18.4337349,14.0581443 Z" id="path-1"></path>
    </defs>
    <g id="uEA40-camera" stroke="none" stroke-width="1" fill="none" fill-rule="evenodd">
        <mask id="mask-2" fill="white">
            <use xlink:href="#path-1"></use>
        </mask>
        <use id="Mask" fill="#000000" fill-rule="nonzero" xlink:href="#path-1"></use>
    </g>
</svg>