<?xml version="1.0" encoding="UTF-8"?>
<svg width="40px" height="40px" viewBox="0 0 40 40" version="1.1" xmlns="http://www.w3.org/2000/svg" xmlns:xlink="http://www.w3.org/1999/xlink">
    <!-- Generator: Sketch 51.3 (57544) - http://www.bohemiancoding.com/sketch -->
    <title>uEA43-bell</title>
    <desc>Created with Sketch.</desc>
    <defs>
        <path d="M18.8719464,2.62547167 L18.8719464,1.22631842 C18.8719464,0.549041458 19.4209879,0 20.0982648,0 C20.7755418,0 21.3245832,0.549041458 21.3245832,1.22631842 L21.3245832,2.62739832 C27.4861844,3.06708677 31.2306066,6.035385 32.9098341,10.6696236 C33.8028591,13.1341441 33.9976171,15.6966611 33.8041178,17.9577274 C33.7802484,18.2366448 33.7555505,18.4414109 33.7330429,18.5878841 C33.2778313,21.2041862 33.6286039,22.8599217 34.8668237,25.4120868 C34.9866452,25.6590577 35.4576197,26.6088774 35.4096163,26.511565 C36.1356157,27.98331 36.553358,28.9717088 36.8997841,30.1758606 C37.659756,32.817583 36.9162047,34.6675431 35.1706312,35.5205434 C34.4746972,35.8606218 33.8025854,35.9687593 33.2873333,35.9664493 L25.4689875,35.9479345 C25.0344428,38.2775528 22.7662492,40 20.0982648,40 C17.4301699,40 15.1618989,38.27741 14.7274882,35.947645 L6.91561305,35.9664068 C6.39419583,35.9687982 5.72196756,35.8606829 5.02590851,35.5205434 C3.28033501,34.6675431 2.53678375,32.817583 3.29675955,30.1758468 C3.64318173,28.9717088 4.060924,27.98331 4.78692339,26.511565 C4.73892004,26.6088774 5.2098945,25.6590577 5.32971602,25.4120868 C6.56793582,22.8599217 6.91870839,21.2041862 6.45921032,18.5615554 C6.44098919,18.4414109 6.41629131,18.2366448 6.3924219,17.9577274 C6.19892258,15.6966611 6.39368062,13.1341441 7.28670556,10.6696236 C8.96840677,6.02855829 12.7213917,3.05834517 18.8719464,2.62547167 Z M17.280731,35.9415128 C17.6904197,36.8589398 18.7759456,37.5473632 20.0982648,37.5473632 C21.4204039,37.5473632 22.505814,36.8591275 22.9156311,35.9418879 L19.9997046,35.9349826 L17.280731,35.9415128 Z M19.9967362,33.4823459 L33.3030986,33.5138702 C33.4701413,33.5146207 33.7967725,33.4620882 34.0938069,33.316938 C34.7350608,33.0035798 34.9834028,32.3857033 34.5427471,30.853949 C34.2453608,29.8202563 33.8768811,28.948415 33.2100407,27.5965971 C33.1444452,27.463622 33.0733823,27.3204106 32.9356133,27.0429427 C32.8223679,26.8145593 32.7404342,26.6480878 32.6601803,26.4826718 C31.2162942,23.5065963 30.7613698,21.3592378 31.3124214,18.1937935 C31.3228953,18.1247318 31.34124,17.972639 31.3604132,17.7485981 C31.5262317,15.8109859 31.3569209,13.5832896 30.6039128,11.5051798 C29.1563738,7.51034248 25.9136757,5.12070745 20.1146841,5.02641158 C14.282864,5.12070745 11.0401659,7.51034248 9.59262693,11.5051798 C8.83961882,13.5832896 8.67030803,15.8109859 8.83612654,17.7485981 C8.85529969,17.972639 8.87364437,18.1247318 8.87983183,18.1674648 C9.4351699,21.3592378 8.98024554,23.5065963 7.53635945,26.4826718 C7.45610546,26.6480878 7.37417184,26.8145593 7.2609264,27.0429427 C7.12315736,27.3204106 7.0520945,27.463622 6.986499,27.5965971 C6.31965864,28.948415 5.95117887,29.8202563 5.6537966,30.8539352 C5.21313691,32.3857033 5.46147896,33.0035798 6.10273281,33.316938 C6.39976725,33.4620882 6.72639845,33.5146207 6.89829806,33.5138367 L19.9967362,33.4823459 Z M28.5397668,14.0368745 C28.5974916,14.711687 28.0972431,15.3055258 27.4224306,15.3632506 C26.7476181,15.4209754 26.1537793,14.9207269 26.0960545,14.2459144 C25.8898603,11.8354683 23.8461756,10.0690869 21.5467208,10.2784317 C20.8722333,10.3398378 20.2756737,9.84283713 20.2142676,9.16834964 C20.1528616,8.49386215 20.6498622,7.89730254 21.3243497,7.83589647 C24.9951547,7.50170239 28.2190975,10.2881952 28.5397668,14.0368745 Z" id="path-1"></path>
    </defs>
    <g id="uEA43-bell" stroke="none" stroke-width="1" fill="none" fill-rule="evenodd">
        <mask id="mask-2" fill="white">
            <use xlink:href="#path-1"></use>
        </mask>
        <use id="Mask" fill="#231F20" fill-rule="nonzero" xlink:href="#path-1"></use>
    </g>
</svg>