<?xml version="1.0" encoding="UTF-8"?>
<svg width="40px" height="40px" viewBox="0 0 40 40" version="1.1" xmlns="http://www.w3.org/2000/svg" xmlns:xlink="http://www.w3.org/1999/xlink">
    <!-- Generator: Sketch 51.3 (57544) - http://www.bohemiancoding.com/sketch -->
    <title>uEA41-search-2</title>
    <desc>Created with Sketch.</desc>
    <defs>
        <path d="M24.9953133,25.9536544 C24.5553032,25.5131351 24.5557159,24.799325 24.9962352,24.3593149 C25.4367545,23.9193047 26.1505646,23.9197175 26.5905747,24.3602367 L34.9245082,32.7038133 C35.3645184,33.1443325 35.3641056,33.8581427 34.9235864,34.2981528 C34.4830671,34.7381629 33.769257,34.7377502 33.3292468,34.2972309 L24.9953133,25.9536544 Z M30.1329158,16.6988331 C30.0599981,23.6389062 24.3748849,29.2057536 17.4347908,29.1328356 C10.4947718,29.0599175 4.92779031,23.3747783 5.00070822,16.4347768 C5.07371442,9.49468605 10.7588483,3.92779058 17.6989134,4.00070823 C24.6389329,4.07362632 30.2058335,9.75876598 30.1329158,16.6988331 Z M27.8783033,16.6751444 C27.9381381,10.9802639 23.3700545,6.31515577 17.6752246,6.25532076 C11.9803415,6.19548595 7.31522808,10.7635752 7.2553206,16.45848 C7.19548598,22.1532731 11.7636429,26.818388 17.4584797,26.8782231 C23.1533894,26.9380582 27.8184685,22.3700254 27.8783033,16.6751444 Z M24.6699442,13.1889041 C24.7246706,13.8091228 24.2662487,14.3562739 23.64603,14.4110004 C23.0258114,14.4657269 22.4786603,14.0073049 22.4239338,13.3870863 C22.2808206,11.7651762 20.8497376,10.5662307 19.2277411,10.7093515 C18.6075224,10.7640779 18.0603713,10.305656 18.0056448,9.68543732 C17.9509183,9.06521867 18.4093403,8.51806754 19.0295589,8.46334106 C21.891966,8.2107697 24.4173757,10.32653 24.6699442,13.1889041 Z" id="path-1"></path>
    </defs>
    <g id="uEA41-search-2" stroke="none" stroke-width="1" fill="none" fill-rule="evenodd">
        <mask id="mask-2" fill="white">
            <use xlink:href="#path-1"></use>
        </mask>
        <use id="Icons" fill="#231F20" fill-rule="nonzero" xlink:href="#path-1"></use>
    </g>
</svg>