<?xml version="1.0" encoding="UTF-8"?>
<svg width="40px" height="40px" viewBox="0 0 40 40" version="1.1" xmlns="http://www.w3.org/2000/svg" xmlns:xlink="http://www.w3.org/1999/xlink">
    <!-- Generator: Sketch 51.3 (57544) - http://www.bohemiancoding.com/sketch -->
    <title>uEA44-chat</title>
    <desc>Created with Sketch.</desc>
    <defs></defs>
    <g id="uEA44-chat" stroke="none" stroke-width="1" fill="none" fill-rule="evenodd">
        <path d="M20.0208555,38.0524061 C9.46687897,38.0494858 0.977671751,29.5393184 1.00004412,18.985089 C1.02226917,8.49444886 9.53364784,0 20.0261718,0 C30.5340435,0 39.0523508,8.51832344 39.0523508,19.0262271 C39.0523508,23.9292176 37.4973395,28.3708262 34.5004481,31.3677176 C34.0432229,31.8249428 33.8512583,32.6069482 33.946516,33.7007972 C34.0161677,34.5006111 34.2346719,35.3904547 34.5568421,36.299125 C34.7001571,36.7033402 34.8539581,37.0829624 35.0070229,37.4248283 C35.0965124,37.6247008 35.1633879,37.7628494 35.1963281,37.8267525 C35.7076337,38.8186725 34.9875352,40 33.8715878,40 C30.6916426,40 28.3767611,39.3042491 26.8236798,38.086614 C26.4293412,37.7774476 26.109043,37.4583072 25.8536886,37.1429581 C23.9863525,37.7432213 22.0242688,38.0529509 20.0208555,38.0524061 Z M30.9769892,33.9593981 C30.8124847,32.0703851 31.2127012,30.4400254 32.3927285,29.259998 C34.783088,26.8696385 36.0715852,23.1892795 36.0715852,19.0262271 C36.0715852,10.1645536 28.8878108,2.98076565 20.0261718,2.98076565 C11.1774987,2.98076565 3.9995459,10.1444409 3.98080307,18.9914056 C3.96192475,27.8973097 11.1161274,35.0691764 20.0216732,35.0716406 C22.0879636,35.0722025 24.0977943,34.6827821 25.9735444,33.9337373 C26.8121546,33.5988544 27.7535414,34.0807346 27.9722629,34.9568479 C27.9960729,35.0522215 28.1791278,35.3616467 28.6627918,35.7408453 C29.3221685,36.2578049 30.2806639,36.6526343 31.5990173,36.859094 C31.2792787,35.8777979 31.0591472,34.9028226 30.9769892,33.9593981 Z M14.7056326,19.5241913 C14.7056326,20.5199162 13.8984751,21.3270737 12.9027502,21.3270737 C11.9070253,21.3270737 11.0998677,20.5199162 11.0998677,19.5241913 C11.0998677,18.5284664 11.9070253,17.7213088 12.9027502,17.7213088 C13.8984751,17.7213088 14.7056326,18.5284664 14.7056326,19.5241913 Z M22.3632749,19.5241913 C22.3632749,20.5199162 21.5561173,21.3270737 20.5603924,21.3270737 C19.5646676,21.3270737 18.75751,20.5199162 18.75751,19.5241913 C18.75751,18.5284664 19.5646676,17.7213088 20.5603924,17.7213088 C21.5561173,17.7213088 22.3632749,18.5284664 22.3632749,19.5241913 Z M30.0209171,19.5241913 C30.0209171,20.5199162 29.2137595,21.3270737 28.2180347,21.3270737 C27.2223098,21.3270737 26.4151522,20.5199162 26.4151522,19.5241913 C26.4151522,18.5284664 27.2223098,17.7213088 28.2180347,17.7213088 C29.2137595,17.7213088 30.0209171,18.5284664 30.0209171,19.5241913 Z" id="chat" fill="#212121" fill-rule="nonzero"></path>
    </g>
</svg>