<?xml version="1.0" encoding="UTF-8"?>
<svg width="40px" height="40px" viewBox="0 0 40 40" version="1.1" xmlns="http://www.w3.org/2000/svg" xmlns:xlink="http://www.w3.org/1999/xlink">
    <!-- Generator: Sketch 51.3 (57544) - http://www.bohemiancoding.com/sketch -->
    <title>uEA46-star-fill</title>
    <desc>Created with Sketch.</desc>
    <defs></defs>
    <g id="uEA46-star-fill" stroke="none" stroke-width="1" fill="none" fill-rule="evenodd">
        <path d="M4.20281972,15.8270096 L11.5994564,23.0369933 C11.9139096,23.3435113 12.0574005,23.7851345 11.9831672,24.2179434 L9.78004945,37.0629714 C9.65548505,37.78923 8.96575675,38.2769995 8.23949816,38.1524351 C7.51323958,38.0278707 7.02547006,37.3381424 7.15003446,36.6118838 L9.23457698,24.458195 L0.404370632,15.8508175 C-0.387501341,15.0789283 0.0494662077,13.7340864 1.1438096,13.5750684 L13.3467978,11.8018638 L18.8042206,0.744026931 C19.1303337,0.0832561265 19.9303612,-0.188037532 20.591132,0.138075584 C21.2519028,0.464188701 21.5231965,1.26421619 21.1970834,1.924987 L15.4292285,13.6118216 C15.2348843,14.0056022 14.8592184,14.2785385 14.4246549,14.3416845 L4.20281972,15.8270096 Z M29.7642321,34.3984303 L28.0181169,24.2179035 C27.8935525,23.491645 28.381322,22.8019167 29.1075806,22.6773523 C29.8338392,22.5527879 30.5235675,23.0405574 30.6481319,23.766816 L32.8512496,36.611844 C33.0381882,37.7017684 31.8941933,38.532931 30.9153798,38.0183386 L20.0006321,32.2801193 L9.08588426,38.0183386 C8.43366314,38.3612313 7.62696397,38.1104711 7.28407123,37.45825 C6.94117848,36.8060289 7.19193868,35.9993297 7.8441598,35.656437 L19.3797698,29.5918113 C19.7684569,29.3874665 20.2328072,29.3874665 20.6214943,29.5918113 L29.7642321,34.3984303 Z M38.857473,13.5750881 C39.5866783,13.6810474 40.0919191,14.3580822 39.9859597,15.0872875 C39.8800004,15.8164929 39.2029657,16.3217336 38.4737603,16.2157743 L25.5765309,14.3417046 C25.1419637,14.2785586 24.766295,14.0056186 24.5719518,13.6118334 L18.8041966,1.92499872 C18.478088,1.26422568 18.7493872,0.464200048 19.4101602,0.138091461 C20.0709333,-0.188017126 20.8709589,0.0832820164 21.1970675,0.744055057 L26.6543919,11.8018837 L38.857473,13.5750881 Z M29.6320063,25.2928196 L30.4,35.2767379 L20.8666667,30.0767379 L9.6,36.1434045 L11.3333333,24.0100712 L2.66666667,15.3434045 L14.8,13.6100712 L20,2.34340454 L26.0666667,13.6100712 L36.4361904,15.2053825 L37.7343252,13.9400198 C38.2619843,13.4256817 39.1066899,13.4364806 39.621028,13.9641397 C40.1353661,14.4917988 40.1245673,15.3365045 39.5969082,15.8508425 L30.2644159,24.9477313 C30.0824633,25.1250903 29.8628115,25.2400067 29.6320063,25.2928196 Z" id="Combined-Shape" fill="#000000" fill-rule="nonzero"></path>
    </g>
</svg>