<?xml version="1.0" encoding="UTF-8"?>
<svg width="40px" height="40px" viewBox="0 0 40 40" version="1.1" xmlns="http://www.w3.org/2000/svg" xmlns:xlink="http://www.w3.org/1999/xlink">
    <!-- Generator: Sketch 51.3 (57544) - http://www.bohemiancoding.com/sketch -->
    <title>uEA42-close-sm</title>
    <desc>Created with Sketch.</desc>
    <defs></defs>
    <g id="uEA42-close-sm" stroke="none" stroke-width="1" fill="none" fill-rule="evenodd">
        <path d="M32.3700577,4.79289322 C33.1511063,4.01184464 34.4174362,4.01184464 35.1984848,4.79289322 C35.9795334,5.5739418 35.9795334,6.84027176 35.1984848,7.62132034 L22.9705627,19.8492424 L35.491378,32.3700577 C36.2724266,33.1511063 36.2724266,34.4174362 35.491378,35.1984848 C34.7103294,35.9795334 33.4439995,35.9795334 32.6629509,35.1984848 L20.1421356,22.6776695 L6.91421356,35.9055916 C6.13316498,36.6866402 4.86683502,36.6866402 4.08578644,35.9055916 C3.30473785,35.124543 3.30473785,33.858213 4.08578644,33.0771645 L17.3137085,19.8492424 L4.37867966,6.91421356 C3.59763107,6.13316498 3.59763107,4.86683502 4.37867966,4.08578644 C5.15972824,3.30473785 6.4260582,3.30473785 7.20710678,4.08578644 L20.1421356,17.0208153 L32.3700577,4.79289322 Z" fill="#000000" fill-rule="nonzero"></path>
    </g>
</svg>