<?xml version="1.0" encoding="UTF-8"?>
<svg width="40px" height="40px" viewBox="0 0 40 40" version="1.1" xmlns="http://www.w3.org/2000/svg" xmlns:xlink="http://www.w3.org/1999/xlink">
    <!-- Generator: Sketch 51.3 (57544) - http://www.bohemiancoding.com/sketch -->
    <title>uEA51-plane</title>
    <desc>Created with Sketch.</desc>
    <defs></defs>
    <g id="uEA51-plane" stroke="none" stroke-width="1" fill="none" fill-rule="evenodd">
        <path d="M25.9743316,22.6634953 C26.2501394,22.1826825 26.8649692,22.0156543 27.3475924,22.2904274 C27.8302156,22.5652006 27.9978727,23.1777241 27.722065,23.6585369 L19.7852527,37.4947024 C19.5569205,37.8927517 19.0866808,38.0858238 18.6431364,37.9636352 L16.3273361,37.3256731 C15.842015,37.1919757 15.5305442,36.7215453 15.5982202,36.2244516 L17.3950668,23.0262483 C17.4697772,22.4774847 17.9768778,22.0929616 18.5277076,22.1673918 C19.0785374,22.241822 19.4645083,22.7470204 19.3897979,23.295784 L17.7110985,35.6261719 L18.4256591,35.8230207 L25.9743316,22.6634953 Z M8.94920466,21.238363 C9.25255682,20.7743072 9.87608038,20.6431086 10.3418835,20.9453229 C10.8076867,21.2475371 10.9393792,21.8687218 10.6360271,22.3327776 L7.67637577,26.8603325 C7.37781318,27.3170615 6.76772385,27.4525552 6.30270864,27.1654079 L4.31551421,25.9383136 C3.929633,25.7000316 3.75163875,25.2338821 3.88099,24.8003372 L5.20712518,20.3555477 C5.36550354,19.8247131 5.92584136,19.522296 6.45867472,19.6800803 C6.99150808,19.8378645 7.29506383,20.3961005 7.13668546,20.9269351 L6.02965237,24.6373631 L6.52666383,24.9442681 L8.94920466,21.238363 Z M18.2543857,24.1494786 C15.2768542,24.1494786 12.3860393,23.7632176 9.63980214,23.0866938 C9.10018142,22.9537605 8.77090186,22.4101887 8.90433566,21.8725922 C9.03776945,21.3349956 9.58338794,21.0069512 10.1230087,21.1398845 C12.7182245,21.7792049 15.4486441,22.1440343 18.2543857,22.1440343 L30.5586446,22.1440345 C30.7398867,22.1441036 31.0797846,22.1271093 31.5227932,22.075209 C32.2605387,21.9887792 32.9960503,21.8334786 33.6712565,21.5957903 C34.6141384,21.2638739 35.3444098,20.8046349 35.8155428,20.2141491 C35.3444098,19.6236634 34.6141384,19.1644244 33.6712565,18.832508 C32.9960503,18.5948197 32.2605387,18.4395191 31.5227932,18.3530893 C31.0796932,18.3011783 30.7397464,18.2841877 30.5586737,18.2842637 L18.2543857,18.2842639 C15.497052,18.2842639 12.811041,18.6367902 10.2530193,19.2566574 C9.71289427,19.387542 9.16853393,19.0574296 9.03715646,18.5193306 C8.90577899,17.9812317 9.23713437,17.4389133 9.77725941,17.3080286 C12.4841876,16.652078 15.3281627,16.2788197 18.2543857,16.2788197 L30.5575133,16.2788199 C30.8131336,16.2787125 31.2303432,16.2995647 31.7578917,16.3613691 C32.6338157,16.4639871 33.5114647,16.6492995 34.3419096,16.9416355 C35.9405723,17.504402 37.1837539,18.3982348 37.8829484,19.7134111 C37.9598142,19.8579947 38,20.0191204 38,20.1827313 L38,20.245567 C38,20.4091779 37.9598142,20.5703036 37.8829484,20.7148872 C37.1837539,22.0300635 35.9405723,22.9238963 34.3419096,23.4866628 C33.5114647,23.7789988 32.6338157,23.9643111 31.7578917,24.0669292 C31.2306003,24.1287035 30.8135403,24.1495655 30.5579162,24.1494786 L18.2543857,24.1494786 Z M7.13668546,18.4681074 C7.29506383,18.998942 6.99150808,19.557178 6.45867472,19.7149622 C5.92584136,19.8727465 5.36550354,19.5703294 5.20712518,19.0394948 L3.88099,14.5947053 C3.75163875,14.1611604 3.929633,13.6950109 4.31551421,13.4567289 L6.30270864,12.2296346 C6.76772385,11.9424873 7.37781318,12.077981 7.67637577,12.53471 L10.6360271,17.0622649 C10.9393792,17.5263207 10.8076867,18.1475054 10.3418835,18.4497196 C9.87608038,18.7519339 9.25255682,18.6207353 8.94920466,18.1566795 L6.52666383,14.4507744 L6.02965237,14.7576794 L7.13668546,18.4681074 Z M5.49152994,20.1065045 L5.96377599,19.7334467 L5.83798863,19.4003904 C5.51361562,19.2763701 5.22228068,19.1582288 4.96569046,19.0486013 L4.67332989,19.0846901 L4.83439585,20.3797391 C5.030197,20.2944067 5.24955965,20.2028462 5.49152994,20.1065045 Z M6.67104879,18.8380931 L6.85995911,20.3570243 C6.9526587,21.1023744 6.22025437,21.680948 5.51292124,21.4211369 C4.71125368,21.1266757 4.06066584,20.8528662 3.57715059,20.6256768 C3.22480682,20.4601209 3,20.1068674 3,19.7187627 L3,19.6528381 C3,19.264737 3.2248027,18.9114861 3.57714156,18.7459283 C4.01536027,18.540017 4.59999631,18.2919492 5.31774467,18.0229027 C5.92734273,17.7943962 6.59095993,18.1941396 6.67104879,18.8380931 Z M25.1137503,15.8362618 L18.4256591,4.17697928 L17.7110985,4.3738281 L19.2716317,15.8362618 L25.1137503,15.8362618 Z M17.3950668,16.9737517 L15.5982202,3.77554835 C15.5305442,3.27845467 15.842015,2.8080243 16.3273361,2.67432689 L18.6431364,2.03636479 C19.0866808,1.91417615 19.5569205,2.10724829 19.7852527,2.50529762 L27.722065,16.3414631 C28.1055191,17.0099347 27.6210261,17.841706 26.8481983,17.841706 L18.3924323,17.841706 C17.8888377,17.841706 17.4627509,17.4709053 17.3950668,16.9737517 Z" id="plane" fill="#000000" fill-rule="nonzero"></path>
    </g>
</svg>