<?xml version="1.0" encoding="UTF-8"?>
<svg width="40px" height="40px" viewBox="0 0 40 40" version="1.1" xmlns="http://www.w3.org/2000/svg" xmlns:xlink="http://www.w3.org/1999/xlink">
    <!-- Generator: Sketch 51.3 (57544) - http://www.bohemiancoding.com/sketch -->
    <title>uEA52-calendar</title>
    <desc>Created with Sketch.</desc>
    <defs>
        <path d="M19.1184968,9.73704276 L13.0827623,9.73704276 L13.0827623,10.6464009 C13.0827623,11.1802474 12.6628043,11.6130156 12.1447598,11.6130156 C11.6267154,11.6130156 11.2067573,11.1802474 11.2067573,10.6464009 L11.2067573,9.73704276 L7.876005,9.73704276 L7.876005,15.3104039 L32.123995,15.3104039 L32.123995,9.73704276 L28.9062412,9.73704276 L28.9062412,10.6464009 C28.9062412,11.1802474 28.4862832,11.6130156 27.9682387,11.6130156 C27.4501942,11.6130156 27.0302362,11.1802474 27.0302362,10.6464009 L27.0302362,9.73704276 L20.9945018,9.73704276 L20.9945018,10.6464009 C20.9945018,11.1802474 20.5745437,11.6130156 20.0564993,11.6130156 C19.5384548,11.6130156 19.1184968,11.1802474 19.1184968,10.6464009 L19.1184968,9.73704276 Z M19.1184968,7.80381336 L19.1184968,6.9666147 C19.1184968,6.43276814 19.5384548,6 20.0564993,6 C20.5745437,6 20.9945018,6.43276814 20.9945018,6.9666147 L20.9945018,7.80381336 L27.0302362,7.80381336 L27.0302362,6.9666147 C27.0302362,6.43276814 27.4501942,6 27.9682387,6 C28.4862832,6 28.9062412,6.43276814 28.9062412,6.9666147 L28.9062412,7.80381336 L33.0619975,7.80381336 C33.580042,7.80381336 34,8.2365815 34,8.77042806 L34,34.0333853 C34,34.5672319 33.580042,35 33.0619975,35 L6.9380025,35 C6.41995802,35 6,34.5672319 6,34.0333853 L6,8.77042806 C6,8.2365815 6.41995802,7.80381336 6.9380025,7.80381336 L11.2067573,7.80381336 L11.2067573,6.9666147 C11.2067573,6.43276814 11.6267154,6 12.1447598,6 C12.6628043,6 13.0827623,6.43276814 13.0827623,6.9666147 L13.0827623,7.80381336 L19.1184968,7.80381336 Z M7.876005,17.2436333 L7.876005,33.0667706 L32.123995,33.0667706 L32.123995,17.2436333 L7.876005,17.2436333 Z M21.8089126,20.4257931 C22.0405891,19.9483062 22.6040219,19.7547664 23.067375,19.9935099 C23.530728,20.2322533 23.718539,20.8128727 23.4868625,21.2903596 L19.9849864,28.5077494 C19.6628945,29.1715831 18.7650522,29.2291858 18.3655462,28.6116475 L16.6146082,25.9051263 C16.3272489,25.4609391 16.4437243,24.8607977 16.8747633,24.5646729 C17.3058024,24.2685481 17.8881794,24.3885764 18.1755388,24.8327636 L19.0298888,26.1533795 L21.8089126,20.4257931 Z" id="path-1"></path>
    </defs>
    <g id="uEA52-calendar" stroke="none" stroke-width="1" fill="none" fill-rule="evenodd">
        <mask id="mask-2" fill="white">
            <use xlink:href="#path-1"></use>
        </mask>
        <use id="Icons" fill="#231F20" fill-rule="nonzero" xlink:href="#path-1"></use>
    </g>
</svg>