<?xml version="1.0" encoding="UTF-8" standalone="no"?>
<svg width="33px" height="32px" viewBox="0 0 33 32" version="1.1" xmlns="http://www.w3.org/2000/svg" xmlns:xlink="http://www.w3.org/1999/xlink">
    <!-- Generator: Sketch 40.1 (33804) - http://www.bohemiancoding.com/sketch -->
    <title>cart</title>
    <desc>Created with Sketch.</desc>
    <defs></defs>
    <g id="Page-Layouts" stroke="none" stroke-width="1" fill="none" fill-rule="evenodd">
        <g id="Group-30" transform="translate(-2024.000000, -1244.000000)" fill="#FFFFFF">
            <g id="Group-28" transform="translate(1123.000000, 3.000000)">
                <g id="Group-8" transform="translate(0.000000, 206.000000)">
                    <g id="Group-4" transform="translate(837.000000, 4.000000)">
                        <g id="Group-7" transform="translate(44.000000, 1009.000000)">
                            <g id="Group-5">
                                <g id="cart" transform="translate(20.250000, 22.500000)">
                                    <path d="M13.2802232,31.1919643 C14.761808,31.1919643 15.9631473,29.9926339 15.9631473,28.513058 C15.9631473,27.0344866 14.761808,25.8351563 13.2802232,25.8351563 C11.7986384,25.8351563 10.5972991,27.0344866 10.5972991,28.513058 C10.5972991,29.9926339 11.7986384,31.1919643 13.2802232,31.1919643" id="Fill-211"></path>
                                    <path d="M23.3412388,31.1919643 C24.8228237,31.1919643 26.0241629,29.9926339 26.0241629,28.513058 C26.0241629,27.0344866 24.8228237,25.8351563 23.3412388,25.8351563 C21.859654,25.8351563 20.6583147,27.0344866 20.6583147,28.513058 C20.6583147,29.9926339 21.859654,31.1919643 23.3412388,31.1919643" id="Fill-213"></path>
                                    <path d="M27.8713728,19.1383929 C28.1837612,19.1383929 28.4569754,18.9364955 28.5393415,18.6452009 L32.3191406,5.25167411 C32.4396763,4.82578125 32.1071987,4.40591518 31.6501674,4.40591518 L7.53197545,4.40591518 C7.51891741,4.35167411 7.5078683,4.29743304 7.48777902,4.24319196 L6.21914062,0.8953125 C6.05139509,0.456361607 5.68878348,0.1640625 5.27795759,0.0806919643 L5.27795759,0.0535714286 L1.47003348,0.0535714286 C0.768917411,0.0535714286 0.201395089,0.653236607 0.201395089,1.39252232 C0.201395089,2.1328125 0.768917411,2.73247768 1.47003348,2.73247768 L4.18007812,2.73247768 L4.81791295,4.41495536 L8.86188616,18.6452009 C8.89202009,18.753683 8.95530134,18.8440848 9.03164062,18.9214286 L7.39235491,22.7414063 C7.12617187,23.3621652 7.41344866,24.0813616 8.03521205,24.3475446 C8.05128348,24.3535714 8.06735491,24.3555804 8.08342634,24.3616071 C8.21601562,24.4449777 8.37873884,24.4952009 8.58465402,24.4952009 L27.3651228,24.4952009 C28.1064174,24.4952009 28.7070871,23.8955357 28.7070871,23.15625 C28.7070871,22.4169643 28.1064174,21.8172991 27.3651228,21.8172991 L10.4549665,21.8172991 L11.6040737,19.1383929 L27.8713728,19.1383929 Z" id="Fill-215"></path>
                                </g>
                            </g>
                        </g>
                    </g>
                </g>
            </g>
        </g>
    </g>
</svg>