<?xml version="1.0" encoding="UTF-8"?>
<svg width="930px" height="225px" viewBox="0 0 930 225" version="1.1" xmlns="http://www.w3.org/2000/svg" xmlns:xlink="http://www.w3.org/1999/xlink">
    <!-- Generator: Sketch 51.3 (57544) - http://www.bohemiancoding.com/sketch -->
    <title>atomic-design</title>
    <desc>Created with Sketch.</desc>
    <defs>
        <path d="M0,0 L239,0 L239,219 L0,219 L0,0 Z" id="path-1"></path>
        <mask id="mask-2" maskContentUnits="userSpaceOnUse" maskUnits="objectBoundingBox" x="0" y="0" width="239" height="219" fill="white">
            <use xlink:href="#path-1"></use>
        </mask>
        <path d="M0,0 L111.1327,0 L144,37.5868644 L144,203 L0,203 L0,0 Z" id="path-3"></path>
        <mask id="mask-4" maskContentUnits="userSpaceOnUse" maskUnits="objectBoundingBox" x="0" y="0" width="144" height="203" fill="white">
            <use xlink:href="#path-3"></use>
        </mask>
        <path d="M111.1327,0 L111.1327,37.5868644 L144,37.5868644 L111.1327,0 Z" id="path-5"></path>
        <mask id="mask-6" maskContentUnits="userSpaceOnUse" maskUnits="objectBoundingBox" x="0" y="0" width="32.8672995" height="37.5868644" fill="white">
            <use xlink:href="#path-5"></use>
        </mask>
    </defs>
    <g id="Page-1" stroke="none" stroke-width="1" fill="none" fill-rule="evenodd">
        <g id="atomic-design" transform="translate(2.000000, 0.000000)" fill-rule="nonzero">
            <g id="atom" transform="translate(0.000000, 50.000000)">
                <path d="M57.9821584,94.9643168 C78.4068405,94.9643168 94.9643168,78.4068405 94.9643168,57.9821584 C94.9643168,37.5574763 78.4068405,21 57.9821584,21 C37.5574763,21 21,37.5574763 21,57.9821584 C21,78.4068405 37.5574763,94.9643168 57.9821584,94.9643168 Z" id="Oval" fill="#A1D2DC"></path>
                <path d="M81,113 C83.7614237,113 86,110.761424 86,108 C86,105.238576 83.7614237,103 81,103 C78.2385763,103 76,105.238576 76,108 C76,110.761424 78.2385763,113 81,113 Z" id="Oval" fill="#547CFF"></path>
                <path d="M67.139809,0.804522214 C64.0054336,0.275453426 60.7848846,0 57.5,0 C46.2151221,0 35.6895292,3.25088547 26.8086311,8.86724652 M1.79501333,43.1892149 C0.92030006,46.6041415 0.351333397,50.1415399 0.119009034,53.7705142 M8.117749,86.9729426 C15.0741819,98.6034711 26.0228825,107.571189 39.0709412,111.983186 M57.5,115 C61.2542875,115 64.9245389,114.640198 68.4781527,113.953197 M98.3753051,97.9408213 C107.438069,88.7813007 113.444164,76.5914317 114.737795,63.0270103 M103.34994,22.7955608 C101.362766,20.1742793 99.1559677,17.7286663 96.756946,15.4861234" id="Oval" stroke="#232021" stroke-width="3" opacity="0.06" stroke-linecap="round"></path>
            </g>
            <g id="molecules" transform="translate(209.000000, 65.000000)">
                <polygon id="Path-2" stroke="#232021" stroke-width="3" opacity="0.12" points="35.0533755 38.5629744 104.346627 27.0564207 83.1330228 72.6325308"></polygon>
                <path d="M81.5,84 C89.5081289,84 96,77.5081289 96,69.5 C96,61.4918711 89.5081289,55 81.5,55 C73.4918711,55 67,61.4918711 67,69.5 C67,77.5081289 73.4918711,84 81.5,84 Z" id="Oval" fill="#547CFF"></path>
                <path d="M36.4821584,72.9643168 C56.6306981,72.9643168 72.9643168,56.6306981 72.9643168,36.4821584 C72.9643168,16.3336187 56.6306981,0 36.4821584,0 C16.3336187,0 0,16.3336187 0,36.4821584 C0,56.6306981 16.3336187,72.9643168 36.4821584,72.9643168 Z" id="Oval" fill="#A1D2DC"></path>
                <path d="M103.5,55 C118.687831,55 131,42.6878306 131,27.5 C131,12.3121694 118.687831,0 103.5,0 C88.3121694,0 76,12.3121694 76,27.5 C76,42.6878306 88.3121694,55 103.5,55 Z" id="Oval" fill="#D52895"></path>
            </g>
            <g id="organisms" transform="translate(432.000000, 6.000000)">
                <use id="Rectangle" stroke="#979797" mask="url(#mask-2)" stroke-width="6" opacity="0.12" stroke-linecap="round" stroke-dasharray="1,7,1,7" xlink:href="#path-1"></use>
                <polygon id="Path-2" stroke="#232021" stroke-width="3" opacity="0.12" points="53.0533755 58.5629744 122.346627 47.0564207 101.133023 92.6325308"></polygon>
                <path d="M99.5,104 C107.508129,104 114,97.5081289 114,89.5 C114,81.4918711 107.508129,75 99.5,75 C91.4918711,75 85,81.4918711 85,89.5 C85,97.5081289 91.4918711,104 99.5,104 Z" id="Oval" fill="#547CFF"></path>
                <path d="M54.4821584,92.9643168 C74.6306981,92.9643168 90.9643168,76.6306981 90.9643168,56.4821584 C90.9643168,36.3336187 74.6306981,20 54.4821584,20 C34.3336187,20 18,36.3336187 18,56.4821584 C18,76.6306981 34.3336187,92.9643168 54.4821584,92.9643168 Z" id="Oval" fill="#A1D2DC"></path>
                <path d="M121.5,75 C136.687831,75 149,62.6878306 149,47.5 C149,32.3121694 136.687831,20 121.5,20 C106.312169,20 94,32.3121694 94,47.5 C94,62.6878306 106.312169,75 121.5,75 Z" id="Oval" fill="#D52895"></path>
                <polygon id="Path-2" stroke="#232021" stroke-width="3" opacity="0.12" points="91.5016375 128.531382 71.3466271 170.056421 111.999692 166.49563"></polygon>
                <path d="M112.5,180 C120.508129,180 127,173.508129 127,165.5 C127,157.491871 120.508129,151 112.5,151 C104.491871,151 98,157.491871 98,165.5 C98,173.508129 104.491871,180 112.5,180 Z" id="Oval" fill="#547CFF"></path>
                <path d="M95.5,146 C103.508129,146 110,139.508129 110,131.5 C110,123.491871 103.508129,117 95.5,117 C87.4918711,117 81,123.491871 81,131.5 C81,139.508129 87.4918711,146 95.5,146 Z" id="Oval" fill="#547CFF"></path>
                <path d="M70.5,198 C85.6878306,198 98,185.687831 98,170.5 C98,155.312169 85.6878306,143 70.5,143 C55.3121694,143 43,155.312169 43,170.5 C43,185.687831 55.3121694,198 70.5,198 Z" id="Oval" fill="#D52895"></path>
                <polygon id="Path-2" stroke="#232021" stroke-width="3" opacity="0.12" points="186.150076 77.5089325 200.46971 91.3910286 144.133023 120.632531"></polygon>
                <path d="M142.5,132 C150.508129,132 157,125.508129 157,117.5 C157,109.491871 150.508129,103 142.5,103 C134.491871,103 128,109.491871 128,117.5 C128,125.508129 134.491871,132 142.5,132 Z" id="Oval" fill="#547CFF"></path>
                <path d="M189.482158,124.964317 C209.630698,124.964317 225.964317,108.630698 225.964317,88.4821584 C225.964317,68.3336187 209.630698,52 189.482158,52 C169.333619,52 153,68.3336187 153,88.4821584 C153,108.630698 169.333619,124.964317 189.482158,124.964317 Z" id="Oval" fill="#A1D2DC"></path>
            </g>
            <g id="pages" opacity="0.12" transform="translate(784.000000, 0.000000)" stroke="#979797" stroke-dasharray="1,7,1,7" stroke-linecap="round" stroke-width="6">
                <use id="Rectangle" mask="url(#mask-4)" xlink:href="#path-3"></use>
                <use id="Rectangle" mask="url(#mask-6)" xlink:href="#path-5"></use>
            </g>
            <g id="arrow" opacity="0.12" transform="translate(373.000000, 100.000000)" stroke="#232021" stroke-linecap="round" stroke-width="3">
                <path d="M0.00585909141,7.76179431 L22.6280057,7.76179431" id="Path-3"></path>
                <polyline id="Path-3" points="15.5 0.5 22.6280057 7.76179431 15.5 15.8412186"></polyline>
            </g>
        </g>
    </g>
</svg>