<?xml version="1.0" encoding="UTF-8"?>
<svg width="345px" height="460px" viewBox="0 0 345 460" version="1.1" xmlns="http://www.w3.org/2000/svg" xmlns:xlink="http://www.w3.org/1999/xlink">
    <!-- Generator: Sketch 55.1 (78136) - https://sketchapp.com -->
    <title>biking-3x4</title>
    <desc>Created with Sketch.</desc>
    <g id="biking-3x4" stroke="none" stroke-width="1" fill="none" fill-rule="evenodd">
        <rect fill="#C8EAFF" x="0" y="0" width="345" height="460"></rect>
        <g id="Group-206" transform="translate(-61.000000, 50.000000)">
            <path d="M390.333847,323.985102 C391.365191,326.757438 393.600632,328.691387 395.286109,331.009168 C396.476619,332.646724 398.024929,334.156979 398,336.337172 C397.975756,338.472359 397.197395,340.341372 395.099122,341.331492 C392.932264,342.354402 390.6043,342.032291 388.465911,341.496726 C387.683022,341.301274 388.513143,339.59621 388.360448,338.577801 C388.240103,337.774132 389.516019,336.509478 387.867421,336.270949 C386.864546,336.126289 385.51487,336.751865 385.352469,337.88536 C384.937732,340.783068 383.388128,341.001666 380.849236,340.621692 C378.449453,340.262934 375.939677,340.603689 373.479721,340.673769 C369.113655,340.797856 365.778287,338.683242 363.161753,335.550219 C359.655572,331.35121 355.145222,331.010454 350.340479,331.841769 C344.740554,332.811316 339.376142,334.790913 333.694692,335.556649 C328.424098,336.267092 323.62712,335.314262 319.153002,332.718733 C317.638984,331.840483 316.502824,331.700324 315.071624,332.630651 C309.335178,336.362889 303.58385,336.015704 297.693415,332.837676 C293.327996,330.481319 288.500608,329.242383 283.814269,327.66462 C280.571424,326.572273 277.439218,327.117482 274.302483,327.865858 C272.913986,328.197613 271.542312,328.281195 270.142816,328.288267 C264.299612,328.317199 264.238146,328.187326 267.03455,323.138999 C267.463522,322.364263 269.433039,321.671178 267.975312,320.763354 C266.97373,320.139707 265.07215,320.944662 264.414781,322.203529 C263.74706,323.483613 263.017226,324.530954 261.852597,325.373842 C261.226285,325.827111 261.088471,327.004968 259.879197,326.483548 C258.665395,325.959556 258.682217,324.805487 259.040017,324.028822 C260.332109,321.22241 258.941671,318.560015 258.847206,315.839757 C258.828443,315.295191 258.684158,314.631682 258.096021,314.559673 C257.285309,314.460661 257.227725,315.233469 256.9728,315.817254 C255.948574,318.158824 256.977329,320.92023 255.282794,323.179504 C254.679128,323.983816 254.256626,324.377935 253.281573,324.297568 C243.004367,323.453395 233.029317,321.576667 224.233778,315.783178 C221.311853,313.858874 218.103947,314.640683 215.139965,315.029658 C209.512218,315.769034 204.498489,314.398296 199.638103,311.893421 C198.687636,311.40479 197.77599,310.809432 196.930987,310.154281 C190.720278,305.341269 183.768736,303.18615 175.85508,303.892093 C169.125464,304.492595 163.821872,301.06575 158.939487,297.096269 C155.230143,294.08026 151.227054,292.469708 146.459191,293.019417 C135.924473,294.231993 127.645253,288.709823 119.076817,284.045328 C115.606222,282.156385 112.16086,280.221793 108.622328,278.26277 C109.704139,276.084506 111.75971,274.277858 111.868409,271.092757 C109.575383,273.150793 108.040661,275.357346 106.576463,277.625621 C106.232897,278.158614 105.930094,278.84977 105.120029,278.598382 C104.143682,278.296202 104.724055,277.608905 104.806227,277.02962 C105.560647,271.715118 104.88128,266.506058 103.213273,261.251349 C103.110397,262.192606 103.030814,263.136435 102.897529,264.073191 C102.763596,265.01702 102.201339,266.08365 102.478262,266.870602 C103.624775,270.12964 102.043467,273.119932 101.867479,276.231738 C101.762662,278.080176 100.821253,278.346351 99.3382923,278.167615 C99.0173722,278.129682 98.689335,278.147684 98.371003,278.099464 C90.963961,276.974971 90.008318,275.437713 92.4805671,268.460581 C92.7587841,267.6762 93.6180217,266.920108 92.4410991,266.326679 C91.401991,265.802687 90.5718692,266.590282 89.8996193,267.237718 C88.9478584,268.154544 87.697823,271.797414 87.6790596,273.254948 C83.7891979,271.697116 83.4126345,271.010462 85.0217639,267.134206 C86.622482,263.275952 86.1941573,258.964429 87.9165145,255.153109 C88.0989731,254.748703 88.0633872,254.203494 87.6124169,254.076836 C87.2804976,253.982967 86.6852426,254.150131 86.4749623,254.412448 C85.5452,255.574875 84.1204702,256.740516 83.9600102,258.038602 C83.5452728,261.384437 81.3285952,264.105981 81.0562013,267.426741 C80.9597959,268.603312 80.7074596,269.456487 79.3558426,268.576952 C76.6707252,266.83074 73.6090444,265.665099 71.2597284,263.401967 C70.5143657,253.540628 70.1416843,243.578991 64.3877689,236.496418 C69.0197582,243.661287 69.1879824,253.291169 70.1513896,262.737815 C63.7976901,259.788029 57.6322723,256.590069 53.5366595,250.585055 C50.8935982,246.708799 51.7761283,242.630662 53.1529789,238.721616 C54.0173926,236.26689 53.5638342,233.859741 53.8323459,231.444876 C53.8912244,230.919598 53.9067528,230.289522 53.2157394,230.174436 C52.6127203,230.074782 52.2445681,230.552482 52.0187594,231.046256 C51.4584433,232.272977 50.3125776,233.249595 50.6037349,234.844717 C50.7506076,235.6471 50.769371,236.612146 49.8777827,237.137424 C49.7114995,237.235793 49.1958275,237.071202 49.0851878,236.88475 C48.5507523,235.989142 47.7698037,235.112178 48.3022981,233.949752 C48.5216366,233.470765 48.8723194,233.050285 49.1634767,232.603445 C50.567502,230.446398 50.8994213,228.073967 50.5590908,225.57745 C50.449098,224.77121 50.9958267,223.632571 50.0828868,223.232666 C48.9512554,222.73632 48.8872008,224.07684 48.3715288,224.658696 C47.3175394,225.847483 46.8199839,224.659339 46.5120042,224.027334 C45.5932411,222.142891 44.8355851,220.180653 44.0145215,218.248633 C43.3351544,217.466181 43.1099928,216.517208 43,215.525159 C45.3020838,213.069147 44.7301214,209.565794 46.2182588,206.814031 C49.4190481,205.946712 46.9681506,205.08775 46.2150237,204.226217 C46.9357998,201.930296 47.0296172,199.58294 46.4498906,197.275446 C46.0092725,195.520876 46.3107821,194.068485 47.6843976,192.953636 C49.0864818,191.816926 50.929184,191.619545 52.1643381,192.781329 C55.5611733,195.976074 59.8929471,196.57336 64.0998467,197.689496 C67.2469337,198.524669 69.0689314,201.308578 71.5398864,203.146086 C71.9940918,203.483627 72.8196846,205.78855 73.9441988,203.535705 C75.4148667,203.571066 75.4504526,204.862723 75.8593669,205.769262 C86.7939414,229.989271 105.673875,243.700506 132.032023,246.891393 C142.251645,248.1284 152.455738,246.814884 162.18945,243.049855 C163.387077,242.586942 164.58988,242.044948 165.935674,242.475714 C166.734092,242.834472 167.383049,243.410542 167.847607,244.11327 C169.11123,246.022145 170.931286,246.421407 173.09038,246.452911 C175.928193,246.494702 178.813885,246.537136 181.412303,247.973453 C181.875566,249.3024 180.965214,249.499138 180.052274,249.400769 C177.664784,249.143595 175.354289,249.972338 172.981681,249.798746 C172.112738,249.735738 171.201739,249.73188 170.484198,250.247514 C169.389447,251.034467 167.436105,251.751983 167.905838,253.13365 C168.394983,254.572539 170.198217,253.579204 171.313026,253.255165 C175.314174,252.093381 179.633008,252.104311 183.267945,253.182513 C188.398784,254.703698 193.415748,257.046553 198.247018,259.454988 C200.342704,260.499758 202.198346,262.296762 204.539251,263.136435 C206.661464,263.898313 208.192305,265.438143 209.502513,267.113632 C212.17469,270.530189 215.948736,272.842184 218.576915,276.283173 C219.392803,277.351088 220.495319,277.569043 221.751824,277.253362 C222.062392,277.223144 222.358725,277.27715 222.644707,277.396093 C223.471593,279.413624 225.677919,279.439984 227.078709,280.482182 C230.672237,283.155506 234.923134,283.139433 238.875756,284.302503 C239.529889,284.613683 240.295957,284.838067 240.810982,285.271406 C242.544985,286.73344 243.934776,286.172801 245.292863,284.785347 C245.606666,284.712052 245.943114,284.638115 246.244624,284.730697 C249.635636,285.781253 253.076469,285.909197 256.614353,285.695743 C258.499112,285.582586 260.357989,286.476266 262.141166,287.213713 C263.781352,288.382569 265.687462,287.649623 267.450581,287.931228 C267.880847,287.908083 268.303349,287.945373 268.716145,288.070745 C269.367043,288.351065 269.961651,288.72461 270.515497,289.163092 C271.534548,289.945544 272.812405,290.115922 273.961506,290.59298 C274.905502,291.03339 275.884438,291.364502 276.530807,291.384433 C275.063374,291.41015 274.081851,289.671654 272.426136,289.170807 C272.133038,289.08594 271.848351,288.984999 271.561076,288.884058 C270.179049,288.599238 268.946483,287.835431 267.525635,287.67534 C259.961368,285.317054 252.12859,284.270356 244.364395,282.864257 C239.844339,282.0458 235.390927,280.846083 230.960159,279.609719 C228.651605,278.966141 226.586977,277.785712 224.907969,276.117295 C224.049379,275.264763 222.554771,274.371726 223.69999,272.70331 C230.153977,272.770175 236.592436,273.270379 243.021189,273.691501 C247.413135,273.980179 251.841962,273.782155 256.223556,274.648831 C262.058995,275.802257 267.751444,277.358803 273.291197,279.494634 C274.292778,279.881038 275.256185,280.3986 276.384582,280.293159 C277.73361,280.474467 278.740368,281.315426 279.745831,282.106879 C293.258765,292.759028 308.763215,297.180493 325.831504,296.509269 C330.893112,296.309959 335.848609,295.193181 340.751051,293.901524 C341.946737,293.586486 343.174774,292.85354 344.462984,293.680354 C346.705542,298.065172 350.731277,300.244079 355.075991,301.871348 C358.986557,303.335311 363.013586,304.490666 366.989501,305.78168 C368.334648,308.452432 371.254632,308.81119 373.544423,309.996119 C375.608404,311.063392 377.344349,312.131307 378.373752,314.337217 C379.340394,316.408754 380.983815,317.944083 383.367423,318.479005 C384.193016,318.664171 385.426229,318.845479 385.353763,319.775806 C385.056783,323.596126 388.001354,323.383315 390.333847,323.985102" id="Fill-4" fill="#7AC0EA"></path>
            <path d="M324.846737,122.004165 C325.231351,121.591819 325.615797,121.179327 326,120.766621 C324.688421,120.291844 323.376192,119.818346 322.065263,119.341009 C314.396071,116.54993 306.345825,114.902925 298.787827,111.765681 C292.030303,108.960525 287.529188,104.324724 286.482266,97.0251771 C285.921089,93.1162593 286.094059,89.140796 286.743671,85.2337978 C287.058398,83.3430052 287.246974,82.5131041 284.663482,83.2898967 C279.206482,84.9305032 273.558955,85.845506 267.940039,86.8872016 C260.878842,88.1969993 253.473656,86.8916806 246.632897,89.8625604 C245.087874,90.5331359 244.628139,90.820434 245.30116,92.4923938 C245.360345,92.6394182 245.419786,92.7863172 245.479481,92.9330926 C245.512624,93.0420056 245.549854,93.1516847 245.589991,93.2615634 C246.368744,95.3893489 247.233809,97.4789302 248.249601,99.5076436 C248.889444,100.785302 249.528786,102.063212 250.167611,103.341377 C250.792404,104.620401 251.429352,105.893498 252.075324,107.162197 C254.892056,112.809383 257.698437,118.461574 260.49321,124.118987 C261.619147,126.622988 262.627854,129.178144 263.760877,131.680849 C268.873331,143.230205 264.030123,152.234766 256.553715,160.664319 C247.356838,171.033227 237.231126,180.478756 227.598173,190.411875 C225.573031,192.203593 223.468661,193.910483 221.578142,195.85696 C217.286309,199.433272 214.986123,204.570132 211.547761,208.815343 C210.600247,209.985431 211.014422,211.19696 211.547761,212.454465 C212.52104,214.747371 214.230559,216.607079 215.181294,218.90646 C214.341994,222.576016 211.914271,225.337734 209.623103,228.069018 C208.080413,229.908005 206.108734,228.613591 204.417895,227.672082 C201.37374,224.989362 198.006876,222.689334 195.108939,219.828543 C192.966565,218.233676 190.734657,216.774789 188.456372,215.383893 C187.319484,214.770682 186.244432,214.079767 185.386452,213.087102 C183.667271,211.100478 183.481762,209.052339 185.197078,206.986716 C186.774551,205.086214 188.379721,203.110598 190.437714,201.800644 C194.701849,199.085548 197.159846,195.000277 199.498036,190.758952 C202.354105,187.637854 204.710329,184.134714 207.074284,180.638048 C209.355789,177.092171 211.436971,173.423262 213.607042,169.808747 C215.207059,167.264599 216.65635,164.629149 218.251858,162.081764 C221.961399,156.832233 225.531807,151.482335 229.515102,146.430949 C230.517367,145.159846 231.605301,144.008537 232.871015,142.999037 C236.348669,140.225016 236.626289,138.716917 234.233349,134.803889 C231.372771,130.124833 228.027808,125.816165 224.10184,121.980193 C222.061883,119.707361 220.26605,117.219548 218.029634,115.116369 C217.26312,114.395667 216.607396,113.540279 216.643468,112.372134 C209.961915,104.78178 203.280362,97.1914266 196.599454,89.6017204 C192.646433,86.0746212 190.330788,81.7601247 190.302447,76.3487114 C190.163959,63.0872846 196.627796,53.1133707 210.036634,49.2851697 C223.442252,45.4569688 236.493598,40.3181659 250.200668,37.6328564 C264.350255,34.8614254 278.578426,33.3164174 292.706113,37.9766952 C294.221749,38.4765888 295.729011,39.0179244 297.199558,39.6363161 C311.233202,45.5411477 316.004911,55.2061896 312.370734,70.1091065 C311.051557,75.5192247 309.362651,80.8373936 308.492432,86.3627723 C307.697577,91.4115684 308.447987,93.3360294 312.819048,96.0077407 C314.457713,97.0094705 316.15757,97.928964 317.895431,98.7422624 C324.158299,101.674281 330.515211,104.40686 336.53331,107.843953 C339.306931,108.119801 340.214509,110.471632 341.531109,112.368249 C343.693451,115.516543 346.684787,114.865775 349.685141,114.163204 C351.836533,113.918437 353.313521,112.045131 355.443012,111.752447 C360.807965,110.257299 362.947762,114.757637 365.720094,117.652746 C367.932034,119.96184 366.894986,122.85436 365.472748,125.377786 C364.56517,126.9869 363.388346,128.145332 361.36578,126.972007 C360.371245,127.098923 359.855942,126.400885 359.243375,125.795444 C356.610174,123.192371 356.45043,123.235755 355.280047,126.626225 C352.013668,124.758747 348.378847,125.972867 345.016492,125.359656 C342.001967,124.81055 339.277945,123.459801 335.981291,124.413613 C334.462435,124.851992 332.518453,123.804935 330.767065,123.431309 C328.631416,123.615471 326.781843,122.638346 324.846737,122.004165 Z" id="Combined-Shape" fill="#020303"></path>
            <path d="M228.082306,190.151233 C228.766069,192.422974 229.450722,194.695917 230.143673,197 C233.955217,194.926759 300.472561,144.18418 302,142.186093 C299.822341,141.581614 297.683798,140.968712 295.534995,140.394683 C285.034653,137.590625 274.531746,134.796932 264.030121,132 C264.089115,132.139485 264.147034,132.27896 264.20385,132.418427 C264.131991,132.367341 264.061054,132.314105 263.991105,132.258553 C262.957834,129.726556 261.923916,127.195203 260.890645,124.663206 C262.224775,123.586172 263.562139,124.338806 264.872329,124.693518 C278.376019,128.34318 291.921766,131.839993 305.372402,135.67862 C308.411395,136.546052 310.459174,136.210688 312.652529,133.626451 C315.558886,130.20316 318.747338,126.987536 321.790861,123.660339 C322.811191,122.545899 323.90981,121.518524 325.381105,121 C327.573813,121.804873 329.956094,122.095092 331.96117,123.409461 C327.311128,128.477325 322.699906,133.581306 317.987104,138.590482 C316.626448,140.037061 316.06614,141.48751 316.317825,143.493244 C316.891721,148.071607 317.449441,152.668672 317.618957,157.273476 C317.715361,159.898344 319.037197,159.805474 320.926459,159.793865 C337.5649,159.690676 352.470009,164.657932 365.49815,175.066467 C406.152857,207.550331 396.588795,272.398102 348.261226,291.896289 C347.165843,292.338066 346.056225,292.744373 344.953725,293.168092 C322.958062,300.24814 302.284236,297.554265 283.006651,284.7769 C280.877997,283.365792 278.934387,281.678009 276.904725,280.118566 C275.308558,280.174675 274.338693,279.087322 273.386946,278.088325 C267.311811,271.711378 262.438773,264.858408 258.949858,257.397958 C247.871922,232.311683 252.323546,201.695694 272.867173,180.918797 C282.780509,170.892697 294.655934,164.562814 308.396378,161.63594 C309.48614,161.403711 311.209439,161.834439 310.979061,159.661987 C310.51766,155.316436 310.131972,150.962452 309.656334,146 C281.772691,166.996156 254.423258,187.589897 226.983792,208.251629 C226.371681,208.390624 225.924513,208.202726 225.532015,207.652956 C224.176471,203.709225 223.582387,199.852374 222.035525,196.320554 C221.996173,195.858238 221.987787,195.389008 222.01909,194.910981 C223.833298,193.167089 225.486402,191.244551 227.637055,189.872783 C227.803223,189.955561 227.950781,190.048911 228.082306,190.151233 Z M291.67407,283.699302 C294.786519,285.15473 298.330441,284.25332 301.488308,285.486625 C305.380653,287.004688 309.432611,287.462496 313.587084,287.264263 C317.071314,287.098961 320.421235,287.651043 323.804895,288.609275 C327.937308,289.779301 332.221548,290.489581 336.570022,289.599793 C365.251006,283.164654 385.413471,256.007412 383.922454,225.821146 C382.297778,192.933233 354.039833,166.565693 320.9961,167.005421 C318.589581,167.037706 317.908956,167.526508 318.178222,170.080935 C320.196739,189.213302 321.988814,208.36956 324.000843,227.502573 C324.296061,230.306243 322.762222,230.463796 320.835839,230.69044 C318.921135,230.916439 317.063528,231.203134 317.052497,228.340704 C317.044711,226.298325 316.978531,224.247553 316.781934,222.215505 C315.12287,205.097751 313.391137,187.986454 311.786574,170.862243 C311.578299,168.641003 311.030685,167.877129 308.635845,168.381428 C264.996032,177.563414 244.710289,228.234162 270.161386,264.706408 C275.767946,272.740323 282.726024,279.362072 291.67407,283.699302 Z" id="Combined-Shape" fill="#0071B9"></path>
            <path d="M208.538196,175.049992 C208.515351,176.797835 208.402724,178.545243 208.246548,180.295049 C206.099817,183.613663 203.955918,186.933973 201.162534,189.760712 C201.167355,189.530326 201.181306,189.301451 201.214707,189.075506 C204.065002,169.847422 199.152308,152.856569 186.54077,137.994082 C184.703855,135.830287 183.690474,135.76458 181.660472,137.888437 C180.711013,138.881629 179.759331,139.872724 178.805741,140.862019 C171.217144,148.517448 163.2428,155.796813 156.162349,163.949166 C156.14524,163.968874 156.12806,163.988511 156.110814,164.008079 C155.805708,164.317973 155.500658,164.627921 155.195674,164.937931 C154.823595,165.281377 154.434962,165.607359 154.04047,165.926078 C150.115479,170.077014 146.058964,174.099343 141.975886,178.093883 C139.612339,180.406206 138.977395,180.356444 136.655962,178.071911 C134.206892,175.661356 134.13951,174.828972 136.398097,172.468826 C139.69809,169.020475 143.301507,165.85573 146.300699,162.123822 C146.887108,162.278039 147.483955,162.391348 148.102921,162.418755 C148.983474,161.641876 149.915862,160.915887 150.737452,160.08232 C159.494385,151.197165 168.166437,142.228268 177.029633,133.449403 C179.048619,131.449228 178.834798,130.604066 176.652531,129.004571 C165.321634,120.701629 152.210422,116.884758 139.298409,117.002647 C122.626309,116.709601 107.651549,122.708826 94.9019132,135.498811 C87.0697152,143.356066 81.8920366,152.466752 79.3699314,162.711438 C74.9457562,178.398028 76.6566405,193.869461 85.0011693,208.779639 C85.3796212,209.070792 85.7591656,209.360646 86.1393966,209.649688 C95.7642311,225.772703 110.092795,235.339512 128.690006,238.764234 C138.173545,240.510421 147.565209,239.786237 156.792306,237.222024 C157.579998,237.934217 158.508101,238.299485 159.691359,237.69488 C160.404095,237.466841 161.134326,237.280029 161.827623,237.002388 C173.546298,232.30375 183.444256,225.296376 190.451746,214.637154 C190.13317,214.461881 189.830855,214.289612 189.544742,214.119834 C189.642343,214.090925 189.747367,214.070387 189.861031,214.059609 C191.839724,215.42322 193.819065,216.786831 195.797758,218.149796 C193.571567,222.530154 190.134446,225.93078 186.597549,229.204739 C181.840004,233.606424 176.470192,237.189296 170.771893,240.270023 C169.372424,241.026148 167.974252,241.952241 166.228804,241.631695 C156.593204,245.392289 146.664753,247.44029 136.259446,246.92005 C114.470499,245.830454 97.0380463,236.519123 83.709405,219.380924 C79.6515944,214.162365 76.7859235,208.298191 74.2467953,202.250479 C66.1564423,177.639562 69.4017837,154.831713 85.9096804,134.580474 C108.92381,106.347263 150.581321,101.283806 179.808831,123.027263 C182.782054,125.239415 184.180226,124.928563 186.437517,122.411376 C190.462285,117.923092 194.893935,113.801239 199.043747,109.420234 C200.41406,107.973256 201.641835,107.733493 203.58878,108.246624 C208.154546,109.450609 212.614056,111.110854 217.333375,111.715108 C219.847235,114.73961 222.833415,117.362784 225,120.682627 C224.652648,120.980652 224.302407,121.144664 223.951707,121.21798 C219.301956,119.998982 214.649697,118.785594 210.002632,117.549445 C209.10574,117.310508 208.072916,116.604618 207.337998,117.295093 C206.540831,118.04466 207.371663,119.077483 207.615577,119.951015 C211.526143,133.960318 215.45764,147.96449 219.384715,161.969299 C218.164724,163.935879 216.94509,165.902838 215.725175,167.869857 C210.829502,151.296484 205.934322,134.718702 200.997459,118 C197.148827,121.631703 193.743424,124.977975 190.174306,128.152347 C188.599049,129.553201 188.639645,130.372932 190.109752,131.920671 C198.959008,141.233403 204.684372,152.090026 207.406964,164.496312 C208.174756,167.997779 208.29431,171.530411 208.538196,175.049992 Z" id="Combined-Shape" fill="#0071B9"></path>
            <path d="M390.554691,324.619828 C386.31147,325.488649 385.782036,325.126803 385.116369,320.769032 C385.041474,320.278978 384.958185,319.950323 384.43779,319.91518 C380.505773,319.645097 378.883897,316.786123 377.102545,313.760545 C375.449677,310.954286 371.892139,310.870983 369.261755,309.424901 C367.860692,308.655002 366.39248,308.254108 367.25959,306.193669 C368.482454,305.167354 368.0079,303.788304 367.802583,302.613607 C367.192442,299.112292 368.732967,296.151142 370.037182,293.176977 C370.714471,291.631973 371.845652,290.057032 373.969845,290.509339 C375.860312,290.911535 376.385872,292.407729 376.520167,294.166847 C376.557615,294.655599 376.911432,295.119621 377.212306,295.806868 C378.634676,293.411265 379.991835,291.225221 381.248272,288.982557 C382.753931,286.296697 385.162856,285.407702 387.796468,286.385206 C390.533384,287.401759 390.960805,290.13708 390.427497,292.678462 C389.490657,297.141012 388.226472,301.533926 387.052678,306.139001 C389.633992,306.177399 391.860198,304.72611 394.289784,304.155357 C396.065971,303.737542 397.849905,303.496745 399.627383,303.156376 C402.042765,302.693005 403.868667,303.540349 405.119939,305.523994 C406.386062,307.531067 406.25564,309.63511 404.924307,311.614199 C401.202773,317.146017 396.639309,321.738076 390.554691,324.619828" id="Fill-12" fill="#050606"></path>
            <path d="M113.254908,16 C123.19515,15.9907765 131.694429,19.899238 139.425584,25.905808 C140.710329,26.903713 141.978869,27.9240578 143.265558,28.9199829 C148.409722,32.8990633 153.976517,35.2327883 160.673135,34.519999 C164.273272,34.1358847 168.008884,33.8342693 171.570129,35.185269 C174.468907,36.2848126 175.672626,38.2469632 174.629662,40.7357859 C173.570494,43.262888 171.484566,43.3843262 169.202232,42.5038994 C167.352252,41.7911101 165.397262,41.4221756 163.479868,41.8425893 C154.065321,43.9083584 146.106646,40.7179662 138.741727,35.054591 C134.450602,31.7546404 130.210037,28.3959507 125.159214,26.239103 C118.843742,23.5417234 112.434927,23.2401079 105.845911,24.7145258 C105.009077,24.901963 104.174836,25.1223997 103.328278,25.2438379 C100.956492,25.5850528 99.5984998,24.3079719 99.1071595,22.1286846 C98.6009105,19.8807582 99.9504758,18.5904776 101.847775,17.9351074 C105.541254,16.6586865 109.370208,16.1003348 113.254908,16" id="Fill-14" fill="#7BC0E9"></path>
            <path d="M202.211679,25.8862995 C193.019813,26.6901485 184.621141,23.1899753 177.3001,16.7087004 C169.000335,9.36079615 159.5389,6.12727817 148.447119,8.29611699 C146.068184,8.76146916 144.504423,7.45990698 144.092635,5.07101288 C143.638181,2.44199966 144.869021,1.12360972 147.494899,0.661493657 C160.980482,-1.71316157 172.555807,2.4219358 182.610683,11.1969632 C188.438425,16.2828288 194.885467,18.894367 202.64674,18.2600901 C205.535722,18.0245015 208.454442,18.1675374 211.35894,18.1034625 C213.646078,18.052332 214.833606,19.4406218 214.985522,21.4185304 C215.137437,23.3964389 214.092128,24.8928147 211.931694,25.3251586 C208.958673,25.9193078 205.955268,25.9652605 202.211679,25.8862995" id="Fill-16" fill="#7BC0E9"></path>
            <path d="M333.822819,68.408998 C332.478189,69.5452868 331.858637,68.9388332 331.595149,67.476592 C330.733473,65.4858141 331.437186,63.4898418 331.627519,61.5094529 C331.760234,60.1283751 332.028901,58.7628807 331.911076,57.3655702 C331.611334,53.8203493 330.910858,50.5491364 326.806404,49.455702 C326.301439,49.3212953 325.957675,48.827172 325.594489,48.4349901 C320.047003,44.7631542 319.867028,43.9820369 323.219215,38.1291759 C330.184486,25.9669907 344.848522,24.4742319 353.857604,35.1897593 C358.175049,40.3251351 361.232026,46.1338431 359.513205,53.2301285 C358.190586,58.6895089 356.196624,59.670613 350.969596,57.803853 C348.64417,58.4784838 346.864495,56.9233915 344.897723,56.2364238 C339.653862,54.4034278 336.527615,56.3662854 335.505386,61.8782597 C335.100767,64.061882 335.893173,66.6389848 333.822819,68.408998" id="Fill-18" fill="#040506"></path>
            <path d="M341.901057,111.631101 C340.436372,110.131073 338.972333,108.630411 337.508294,107.130383 C338.125309,105.956421 337.113533,106.15473 336.498456,105.854089 C333.51223,104.39474 333.047045,101.07434 335.953156,99.646772 C341.222663,97.057318 346.807462,95.0672393 352.648758,94.0655261 C354.578628,93.734376 356.290119,94.6629946 356.840587,96.7465072 C357.369735,98.752476 356.559538,100.38598 354.737566,101.264386 C352.734688,102.231141 350.583209,102.898526 348.232735,103.984775 C353.925431,103.184548 355.035413,107.250512 356.474254,110.966894 C354.970804,112.519041 353.168214,113.55317 351.027719,114 C348.629434,110.809899 345.371204,110.825154 341.901057,111.631101" id="Fill-20" fill="#0072B9"></path>
            <path d="M334,69.2707635 C334.335148,66.5070158 334.661359,63.7425979 335.008636,60.9808612 C335.516146,56.9388049 339.924141,53.9846851 343.545016,55.3286856 C346.025112,56.2497113 348.455414,57.3188788 350.908059,58.3223545 C350.194354,59.9063311 352.240991,62.2853125 349.60577,63.3169419 C348.058343,64.2131656 346.386433,63.1433278 344.851136,63.8062787 C345.631233,64.1380893 346.64753,64.3257801 347.107161,65.3446733 C343.557146,69.6675955 339.191284,70.988805 334,69.2707635" id="Fill-22" fill="#0071B8"></path>
            <path d="M190.388239,76.4177883 C191.545433,81.3419493 194.083683,85.6312178 197,89.7459723 C194.106002,90.0468137 191.216062,90.2506305 188.385639,89.3344318 C185.567389,88.4234425 183.561407,86.6047197 182.539479,83.9629157 C181.732622,81.8759102 181.710303,79.6482515 183.309138,77.8529709 C185.221787,75.7054064 187.769506,75.722988 190.388239,76.4177883" id="Fill-24" fill="#0071B8"></path>
            <path d="M325.564773,49 C331.877977,50.7383461 333.214983,52.3730264 332.973689,59.0672464 C332.865568,62.0554135 332.127182,65.0221995 331.67492,68 C326.66576,65.3377323 325.38611,60.7161807 325.081526,55.6553453 C324.947693,53.4349531 324.902203,51.1828133 325.564773,49" id="Fill-26" fill="#0071B7"></path>
            <path d="M69.6986605,262.331323 C67.8030754,258.172461 68.1489581,253.589975 67.5372011,249.202859 C66.8362039,244.178051 65.0784795,239.592341 63.1404283,235.029199 C62.7791593,234.178728 62.4855898,233.296662 62,232 C65.9124139,236.457397 69.6260375,243.816327 70.1737877,249.974022 C70.5036688,253.674442 70.3651926,257.576035 71.7425691,261.158459 C72.1684603,262.265555 72.2053872,263.044455 70.7535414,262.99803 C70.4015041,262.77558 70.0500823,262.553774 69.6986605,262.331323" id="Fill-28" fill="#1C2B35"></path>
            <path d="M356.551226,127.288076 C356.975507,126.006526 354.98554,124.488476 356.727049,123.374318 C358.355571,122.333106 359.40013,123.636156 360.354184,125.174171 C360.887417,126.034936 361.451779,126.861916 362,127.701182 C360.102845,129.438839 358.276018,129.559392 356.551226,127.288076" id="Fill-32" fill="#006DAB"></path>
            <path d="M346.252171,64.9491421 C345.160929,64.4311777 343.841217,64.4571119 343,63.0581037 C344.883192,61.7318554 346.744831,61.6713421 348.662509,62.7699454 C350.020403,66.7674206 346.884007,63.9636409 346.252171,64.9491421" id="Fill-34" fill="#193243"></path>
            <path d="M61.9333063,191.448532 C62.282045,193.373926 61.1744358,193.455401 60.6624038,194 C60.1225234,193.424771 59.3630199,192.93163 59.0921303,192.25471 C58.6718717,191.204106 59.7908736,191.265978 60.4041726,191.087713 C61.4535533,190.782027 61.9162175,191.367057 61.9333063,191.448532" id="Fill-46" fill="#484747"></path>
            <path d="M182.384399,249 C187.161844,250.462505 191.96525,251.849153 196.708297,253.41323 C200.106572,254.533734 202.444996,257.395101 205.660247,258.95275 C211.534538,261.799974 216.117926,266.33149 220.261926,271.274437 C221.3737,272.600656 223.355161,272.209797 224.429292,273.525088 C227.365464,277.45103 231.368626,279.173251 236.179172,280.10154 C239.029673,280.651184 242.004137,281.177043 244.794279,282.210119 C249.963733,284.12584 255.629689,283.303623 260.842627,285.0342 C263.607458,285.951561 266.402792,286.782135 269.183848,287.651924 C269.731622,287.934139 270.283939,288.214426 269.835465,288.976857 C269.43437,288.983929 269.034573,288.991643 268.634127,289 C266.923956,287.950211 264.930163,289.035357 263.180402,288.287069 C260.606383,287.605638 258.139454,286.188133 255.318808,287.437209 C253.631352,288.184854 252.891468,285.971489 251.407806,285.957346 C250.624437,286.97435 252.322926,287.203208 251.973752,288.209283 C249.974767,287.590852 248.69295,285.581916 246.501854,285.518273 C244.249102,285.569059 241.941182,286.561634 239.777345,285.125486 C237.866627,286.198419 236.371282,284.138054 234.687721,284.385555 C230.685207,284.973128 228.519423,280.732185 224.626594,280.909614 C223.057261,280.980329 224.674622,278.444891 223.113077,277.93446 C222.564654,277.398316 221.781934,277.299315 221.066064,276.833885 C221.722224,277.43753 222.558163,277.41503 223.160455,277.870175 C220.69028,279.779467 219.390291,277.985889 218.155203,276.250812 C217.742426,275.670952 217.647669,274.32159 217.340033,274.299733 C211.991449,273.933946 211.783762,268.180997 208.264769,265.903346 C206.544863,264.789914 204.33235,264.501913 202.912291,263.227122 C198.005042,258.820321 190.898908,258.754749 185.962453,254.50802 C185.60614,254.202019 184.965556,254.047089 184.480738,254.088875 C179.707186,254.506091 174.836282,253.231944 170.138667,254.879592 C168.924997,255.305165 167.893053,255.100093 167,254.18659 C167.962498,253.433802 167.930047,252.16994 168.865936,251.217865 C171.868308,248.164926 175.615108,249.837646 178.943288,249.108 C180.068042,248.861785 181.253155,249.638359 182.384399,249" id="Fill-62" fill="#1D2124"></path>
            <path d="M137.158512,251.729967 C133.222429,251.976904 129.43377,250.68016 125.526389,250.620059 C123.721427,251.081922 121.936687,250.68408 120.146076,250.495284 C118.442876,249.593117 116.806212,248.39567 114.854478,250.115734 C114.250432,250.648803 113.430469,250.076537 112.693351,249.947843 C108.545917,249.226631 104.675066,247.552297 100.615696,246.541686 C100.170163,246.43063 99.7187594,246.386207 99.8139977,245.821781 C100.187776,243.610457 98.2138633,243.262917 97.111447,242.247733 C96.0377327,243.001608 98.239956,244.099104 96.8805267,244.59755 C95.9320573,244.943784 95.3932432,243.937746 94.9216178,243.205429 C94.3841083,242.370548 94.3788898,242.686078 93.2366822,242.635776 C92.3593154,242.597887 90.7624426,241.577477 90.7891876,241.062046 C90.9874921,237.284177 87.4056177,236.201707 85.5015034,234.855314 C82.6652277,232.849118 80.3292794,230.132815 77.343623,228.543406 C74.2816455,226.912841 72.5380014,223.604674 69.782613,222.396122 C66.8687115,221.117017 63.5275422,219.649116 59.9658897,220.048265 C58.8628211,220.171733 57.1811471,220.502289 57.006326,218.940317 C56.9052168,218.032269 58.0363351,217.125529 58.9528409,216.297834 C61.7369312,213.782086 64.5732069,215.56225 66.8628407,216.33899 C72.9515705,218.405287 78.6045524,221.488075 82.9144129,226.565954 C84.0076968,227.854205 85.2986327,229.292055 86.8002672,229.852562 C90.5713136,231.260362 92.3912789,234.884711 95.6013324,236.932064 C101.041007,240.400282 106.147347,243.993928 112.800331,245.448763 C119.147378,246.836311 125.777532,246.699778 131.974546,249.274973 C133.917147,250.08307 136.602085,250.36267 138.997394,250.554079 C139.04697,251.985396 138.387478,252.304193 137.158512,251.729967" id="Fill-64" fill="#1C2124"></path>
            <path d="M376.684313,331.977706 C376.468999,331.970675 376.176509,332.051218 376.050693,331.943188 C373.968894,330.153336 371.221698,329.127368 369.736552,326.621576 C369.500485,327.065204 369.269606,327.499882 369.034836,327.942231 C368.807849,327.82653 368.482932,327.741512 368.480338,327.647545 C368.428455,325.826371 368.1872,324.870718 365.735736,324.310111 C363.535255,323.807674 360.904146,321.952621 359.889837,319.650745 C359.260109,318.22206 356.692557,319.41359 357.341741,317.23892 C356.900736,316.057618 356.402661,316.834925 355.916908,317.199288 C355.183414,317.171801 354.868226,316.586264 354.377933,316.211673 C354.149649,316.037163 354.333833,312.57444 353.035465,315.801925 C352.425193,315.377475 351.318143,314.988182 351.28377,314.521542 C351.010088,310.820386 347.760277,311.080553 345.516344,309.73369 C342.443583,307.888865 338.532265,308.082552 335.894022,305.293581 C334.417956,303.733214 332.209692,305.719949 330.379525,304.922187 C330.03645,304.771967 329.51827,305.071128 329.110989,304.998894 C327.747768,304.756625 326.0726,306.407763 325.04532,304.539286 C324.545948,303.629658 328.308751,299.901014 329.679755,300.002013 C335.229922,300.408565 340.3767,301.64548 345.587683,304.113557 C350.137808,306.26905 353.789712,309.688944 358.423498,311.515232 C358.605736,311.588104 358.775653,311.784348 358.870339,311.963973 C361.565004,317.066327 367.238393,319.288939 370.626342,323.796168 C371.933141,325.534881 374.215986,326.643949 375.69789,328.417181 C376.001405,328.780265 375.98584,329.402877 376.117493,329.905953 C376.643455,330.506832 377.452179,331.03292 376.684313,331.977706" id="Fill-66" fill="#1D2226"></path>
            <path d="M172.25705,279 C169.814929,278.239489 169.716953,276.541141 170.288921,274.578049 C171.618881,270.014361 175.199644,266.946094 178.528184,263.745456 C179.68801,262.63029 180.777663,261.253504 183,261 C179.838284,267.204593 172.776059,271.187595 172.25705,279" id="Fill-68" fill="#1C2C36"></path>
            <path d="M76.2383344,258 C73.1432698,257.824012 72.7713929,255.762058 73.0956641,253.702126 C73.7490359,249.553943 74.71426,245.452285 75.6173896,241 C78.9739409,246.742186 75.0033443,252.352888 76.2383344,258" id="Fill-70" fill="#1D2D38"></path>
            <path d="M176.568404,282 C174.94517,280.892745 174.442474,279.486041 175.726849,277.921526 C178.632483,274.384392 182.621809,272.356796 187,270 C184.608247,275.437965 178.556158,276.915167 176.568404,282" id="Fill-72" fill="#1F303C"></path>
            <path d="M253.586069,291 C254.905953,291.614027 256.029792,292.257908 255.999398,293.923584 C255.959125,296.151045 254.30946,296.789498 252.386244,296.984223 C250.628678,297.161985 249.821702,295.803662 250.032945,294.621065 C250.330051,292.956746 251.595225,291.645238 253.586069,291" id="Fill-74" fill="#202D37"></path>
            <path d="M346.927348,321.264107 C347.109778,322.555725 346.667502,323.310208 345.632161,323.819763 C344.876186,324.191423 344.063665,323.953718 343.899411,323.422494 C343.483389,322.077688 341.73583,321.405942 342.034046,319.75908 C343.32452,320.013858 344.380057,319.126733 345.473292,319.00788 C346.582682,318.887715 347.22489,320.164886 346.927348,321.264107" id="Fill-76" fill="#223844"></path>
            <path d="M263,298.583698 C262.461397,299.467095 262.769379,301.23389 260.901786,300.974221 C259.300574,300.750436 258.335031,299.455351 258.029239,298.023908 C257.781832,296.86192 259.168478,295.870871 259.779332,296.013754 C261.123649,296.328228 262.92264,296.670757 263,298.583698" id="Fill-78" fill="#1F2F3B"></path>
            <path d="M376.531723,332.177608 C376.354076,331.451963 376.177038,330.725645 376,330 C378.867287,331.046811 380.752651,333.422627 383,335.969105 C379.707457,336.319162 378.444464,333.608742 376.531723,332.177608" id="Fill-80" fill="#29475A"></path>
            <path d="M240,284.290557 C241.967375,285.186668 244.076062,282.88183 246,284.762194 C245.155019,286.792554 244.628571,290.142725 242.444595,286.092057 C241.899614,285.079969 240.236293,286.3387 240,284.290557" id="Fill-84" fill="#314757"></path>
            <path d="M161.636525,272 C159.257627,270.645647 160.7415,268.26475 160.061108,266.56326 C159.737613,265.754513 160.789127,266.022856 161.096541,266.12841 C161.906207,266.406416 163.115449,266.350666 162.991123,267.946603 C162.877312,269.4132 162.432583,270.776473 161.636525,272" id="Fill-86" fill="#182734"></path>
            <path d="M137,252.176236 C137.786936,252.112745 138.324706,251.664614 138.764814,251.066696 C140.654211,250.608086 141.725996,252.667515 143.518982,252.591696 C143.67737,252.584916 144.01919,253.228449 143.999156,253.553298 C143.969106,254.027317 143.536511,254.050741 143.086386,253.954581 C141.011055,253.511998 138.73539,253.746234 137,252.176236" id="Fill-88" fill="#33556C"></path>
            <path d="M273.16626,289 L279,293.114391 C278.85228,293.409594 278.704561,293.704797 278.556251,294 C277.118053,293.281862 275.680446,292.563014 274.24284,291.845586 C273.614736,291.043713 272.599017,290.454016 273.16626,289" id="Fill-90" fill="#234052"></path>
            <path d="M257.072811,279.999688 C255.469247,279.788388 254.815892,279.391496 255.044189,278.156633 C255.219011,277.208593 255.097664,275.739934 256.383121,276.039611 C257.193473,276.228416 258.16425,277.028626 257.976402,278.291609 C257.850941,279.140828 257.355955,280.01897 257.072811,279.999688" id="Fill-92" fill="#28485C"></path>
            <path d="M119,250.97515 C121.052134,248.481133 122.989331,251.616304 125,251.131128 C122.973327,252.369106 120.92483,254.709606 119,250.97515" id="Fill-94" fill="#496A82"></path>
            <path d="M143.6112,268.970867 C141.912536,269.228338 141.206826,267.714529 141.036399,266.977012 C140.737953,265.680347 142.342203,265.200302 143.384765,265.030463 C145.030621,264.76291 144.617757,266.322475 144.900201,267.175544 C145.275459,268.307799 144.536944,268.754497 143.6112,268.970867" id="Fill-96" fill="#213C4B"></path>
            <path d="M245.207257,298.971585 C244.114557,299.144672 243.950064,298.50489 244.011015,297.654197 C244.064622,296.916331 244.013218,295.928451 245.112527,296.004096 C245.981987,296.064357 247.057797,296.615031 246.997581,297.631119 C246.95352,298.377318 246.42406,299.011972 245.207257,298.971585" id="Fill-98" fill="#1C3645"></path>
            <path d="M337.528148,308 C339.530478,310.997706 334.447827,311.588987 335.476488,314 C334.400114,311.668305 335.174036,309.820387 337.528148,308" id="Fill-100" fill="#32607C"></path>
            <path d="M64.1836035,205 C65.8677352,206.309307 65.6439025,208.186734 66,209.762418 C65.6385161,209.832398 65.1411766,210.128121 64.9382908,209.936239 C63.6126505,208.673585 64.0333842,206.914298 64.1836035,205" id="Fill-102" fill="#2C5066"></path>
            <path d="M336.630811,318 C337.677229,317.997516 337.724033,318.848843 337.918607,319.443776 C338.174026,320.224159 337.829009,320.804157 336.873526,320.974671 C335.974209,321.135851 335.032768,320.489888 335.004016,320.108409 C334.934478,319.192983 335.779636,318.528351 336.630811,318" id="Fill-104" fill="#1A3444"></path>
            <path d="M312.56804,302 C313.49216,302.120988 313.745561,302.74128 313.920565,303.246726 C314.245235,304.184534 313.541256,304.82018 312.417583,304.97986 C311.624915,305.092249 310.786317,304.731128 311.04922,303.975109 C311.300245,303.252253 311.457037,302.386915 312.56804,302" id="Fill-106" fill="#26455A"></path>
            <path d="M128,258.550887 C127.898065,259.377145 127.429165,260.019364 126.289126,259.999554 C125.418194,259.984217 124.70465,259.660871 125.122991,258.773906 C125.476909,258.023692 125.463861,256.910512 126.874639,257.005727 C127.654237,257.058127 127.94944,257.876077 128,258.550887" id="Fill-108" fill="#274B60"></path>
            <path d="M258.941352,304 C258.965146,305.532904 259.445643,306.884075 257.188997,306.994871 C255.399799,307.082022 254.292967,306.039593 255.517236,305.309961 C255.948609,305.053238 256.766835,305.354549 257.313343,305.176195 C257.826845,305.009325 258.216001,304.545198 258.941352,304" id="Fill-110" fill="#345C76"></path>
            <path d="M363.309908,329 C362.425198,328.848363 361.776737,328.463922 362.072455,327.738456 C362.336402,327.092268 362.419496,326.143436 363.467135,326.015709 C364.729027,325.862184 364.893586,326.869532 364.988086,327.487405 C365.110283,328.280825 364.274453,328.74832 363.309908,329" id="Fill-114" fill="#234357"></path>
            <path d="M351.017053,319 C352.008307,320.011826 352.324507,321.086189 351.618743,322.433953 C351.289463,323.063338 350.660475,323.192421 350.375553,322.696932 C349.48496,321.152735 350.374984,320.148125 351.017053,319" id="Fill-116" fill="#1D3D4F"></path>
            <path d="M268.654913,288.468972 C268.436827,287.979077 268.21874,287.489895 268,287 C269.4254,287.072022 270.755468,287.503444 272,288.260749 C271.991512,289.758958 271.503102,290.472051 270.081619,289.660551 C269.606268,289.263358 269.130917,288.866165 268.654913,288.468972" id="Fill-118" fill="#234052"></path>
            <path d="M136.884607,262 C138.026528,262.009008 138.734685,262.493058 138.979284,263.343447 C139.108166,263.792063 138.613426,264.095945 138.112449,263.97223 C137.244229,263.75663 136.272072,263.513404 136.020544,262.639594 C135.872261,262.125516 136.564481,262.132123 136.884607,262" id="Fill-120" fill="#274D63"></path>
            <path d="M270,289.40314 C271.064723,289.529659 271.692174,288.979982 272.039216,288 C272.271039,288.042888 272.502863,288.084346 272.735381,288.127233 C273.157383,289.082913 273.578692,290.037877 274,290.993557 C272.440396,291.066466 271.113309,290.519648 270,289.40314" id="Fill-122" fill="#4F758E"></path>
            <path d="M343,315 C342.684026,316.486308 341.980328,317.146059 340.601219,316.97303 C340.363893,316.943154 339.952713,316.498133 340.004456,316.376764 C340.470138,315.276971 341.525684,315.062863 343,315" id="Fill-124" fill="#244A60"></path>
            <path d="M274,298.578867 C273.97326,299.373987 273.714772,299.95736 272.962227,299.997862 C272.123096,300.042628 271.987485,299.37754 272.000855,298.635712 C272.012315,297.945044 272.023775,297.061813 272.759766,297.003547 C273.587438,296.937464 273.849746,297.807194 274,298.578867" id="Fill-126" fill="#1B3749"></path>
            <path d="M140.491711,257 C141.209405,258.309315 141.235937,259.149172 140.124241,259.812443 C139.735545,260.044404 139.183677,260.125005 139.060965,259.675851 C138.745233,258.524663 139.720952,257.973988 140.491711,257" id="Fill-128" fill="#224155"></path>
            <path d="M262,294 C262.754867,292.252318 263.441961,291.378852 265,291 C264.628695,292.625908 264.083634,293.654974 262,294" id="Fill-130" fill="#305978"></path>
            <path d="M262,288.212465 C264.009996,288.371387 266.210639,287.283666 268,288.897624 C266.108533,287.953984 263.754373,290.056458 262,288.212465" id="Fill-132" fill="#234052"></path>
            <path d="M356,316.634262 L356,314 C357.133967,314.69587 358.820181,314.722413 357.542363,316.67874 C357.028008,316.655066 356.4919,317.442762 356,316.634262" id="Fill-134" fill="#69879E"></path>
            <path d="M266.972833,280 C267.031198,281.563876 267.103857,282.644748 265.926424,282.958664 C265.50655,283.071389 265.05928,282.972933 265.011635,282.420725 C264.881801,280.906791 265.857934,280.56291 266.972833,280" id="Fill-136" fill="#0D2D41"></path>
            <path d="M247.786131,74.624344 C241.421257,65.8118071 235.512638,56.6618268 228,48.4962188 C237.965003,44.2238873 247.76604,40.964536 258.219054,40.0510334 C260.384316,39.684332 261.009721,41.3650468 261.634478,42.8116968 C262.965651,45.8948494 264.480233,48.8843761 265.941024,51.9038111 C267.04083,54.1774898 268.628645,54.9973665 271.169151,54.5532937 C275.836034,53.7373181 280.480881,52.7418928 285.287751,52.8992363 C287.921581,52.9857103 289.721322,53.9193684 291.138691,56.1845948 C293.970836,60.7104964 295.62022,65.4620103 295.373299,70.8988138 C295.188594,74.9656884 295.882048,75.4013089 300.001944,75.7062432 C302.509397,75.8915445 305.194426,74.8889672 307.495787,76.6841136 C306.998704,79.4044659 306.645496,82.1612282 305.97278,84.8373683 C304.649384,90.1031744 305.797797,94.5172451 310,98.0412195 C309.298769,103.102869 306.184057,106.410334 302.082955,109 C292.946857,106.065739 289.298121,100.678999 289.679196,90.7988668 C289.907971,84.8666263 290.957226,78.9811988 290.570966,73.0105978 C290.386261,70.1621601 289.643552,67.4977233 288.434219,64.9555203 C287.926118,63.8866247 287.273493,62.7858703 285.740765,63.3970393 C284.007777,64.0888306 284.397926,65.4054447 284.918989,66.6297333 C285.674012,68.4027736 286.572262,70.1172977 286.543098,72.1179009 C285.106935,73.5951094 283.164614,74.0807937 281.299417,74.4461948 C271.525599,76.3603241 261.666235,76.8681145 251.745949,75.8655373 C250.3558,75.7244482 248.959819,75.506638 247.786131,74.624344" id="Fill-142" fill="#FEFEFE"></path>
            <path d="M225.679448,116.224842 C232.476531,113.151006 239.200042,110.159166 244.901279,105.384746 C245.805449,104.62807 246.063599,105.086466 246.470185,105.904477 C251.70159,116.425632 257.560944,126.651735 261.420283,137.814644 C262.250234,140.214443 262.141811,142.627155 261.395113,145.070212 C259.889455,149.999582 257.164684,154.169048 253.65901,157.868497 C241.312352,170.898562 228.707545,183.670376 215.69357,196.038027 C214.554484,197.120746 213.801332,197.350589 212.491222,196.413137 C210.321473,194.858465 206.8087,193.917139 206.105242,191.924731 C205.374033,189.851619 208.644145,187.707489 210.018793,185.496858 C215.277303,177.043004 220.558402,168.601418 225.925336,160.216 C229.575573,154.513813 233.473635,148.988528 238.738599,144.596321 C241.304608,142.456064 241.658918,139.803178 240.578562,136.763561 C238.592099,131.173714 234.779227,126.802166 231.07026,122.363473 C229.350983,120.305856 227.534254,118.330235 225.679448,116.224842" id="Fill-144" fill="#FEFEFE"></path>
            <path d="M307.797914,77 C304.494791,76.9037059 301.191026,76.8171058 297.888545,76.7059475 C295.560251,76.6277489 294.501994,75.6047045 294.802978,73.06939 C295.51597,67.0661943 293.918637,61.6323618 290.602679,56.6043865 C289.54763,55.0055162 288.462419,54.2655378 286.499285,54.2209453 C281.445449,54.1059093 276.521248,54.9363654 271.641328,56.0124038 C268.852252,56.6282985 267.13812,55.7939648 266.004777,53.2379696 C264.484455,49.8101572 262.880062,46.4198283 261.296848,43.0204517 C260.802695,41.96057 260.388762,40.799224 259,40.587894 C272.545564,38.0745526 285.878064,38.0958795 298.718337,43.9620661 C308.018678,48.2112869 311.64268,54.1336989 310.907868,63.9440672 C310.812246,65.2198028 310.561319,66.4923071 310.289856,67.7460696 C309.614086,70.871428 308.986448,74.0129432 307.797914,77" id="Fill-148" fill="#7AC0EA"></path>
            <path d="M301,109.12524 C301.315559,108.569473 301.490869,107.760245 301.967846,107.498863 C305.800859,105.395925 307.014801,101.386746 309.081479,98 C314.756243,101.828984 321.140188,104.249408 327.29656,107.119991 C330.187528,108.467824 333.036156,109.881004 335.675074,111.688897 C337.188036,112.725184 338.40727,114.030114 338.665274,115.852528 C338.887554,117.422141 339.52661,119.271617 338.090388,120.528363 C336.758691,121.694022 335.418393,120.382491 334.131681,119.973257 C324.303714,116.850533 314.483685,113.704047 304.668287,110.54172 C303.423253,110.140406 302.22188,109.60114 301,109.12524" id="Fill-154" fill="#7AC0E9"></path>
            <path d="M248,74.5741727 C252.775454,74.8624907 257.530931,75.3637102 262.332804,75.3603732 C270.562101,75.3543666 278.605818,74.1877465 286.534836,72 C286.608939,72.5479377 286.636003,73.1072213 286.765522,73.6398087 C287.581299,77.0081908 286.252601,78.4944969 283.026866,79.3587835 C273.596457,81.8875728 264.090011,83.6548555 254.337415,83.9945635 C252.573765,84.0559646 251.725769,83.6148113 251.138744,81.7714447 C250.347453,79.2853692 249.069016,76.965477 248,74.5741727" id="Fill-156" fill="#7BC0E9"></path>
            <path d="M215.442005,217.977438 C216.746262,217.245243 218.092634,216.359691 219.490334,217.676598 C220.953182,219.054848 219.64037,220.399816 219.277126,221.744131 C218.875057,223.690779 217.697145,225.248488 216.551479,226.779441 C215.145882,228.656915 214.624705,230.151324 217.551058,230.959871 C218.072892,231.104091 218.459168,231.516522 218.490755,232.129295 C218.710544,232.349867 218.895456,232.632434 219.156702,232.781223 C220.168785,233.354188 222.126486,233.501019 221.99356,234.56864 C221.777061,236.301893 220.778798,238.011654 219.823308,239.556964 C219.191579,240.578252 218.213057,239.553701 217.520788,239.26265 C212.415628,237.121534 207.329552,234.931475 202.287566,232.648096 C201.332734,232.216088 199.053903,232.113633 200.431204,230.220497 C201.487376,228.768506 200.447655,224.933944 204.395961,226.321982 C204.656549,226.413996 205.010581,226.244978 205.321181,226.196034 C207.889554,228.198803 210.009794,228.344981 211.516731,224.928071 C212.59067,222.493294 214.873449,220.709139 215.442005,217.977438" id="Fill-158" fill="#0071B8"></path>
            <path d="M203.14774,195 C205.812469,196.909416 208.623193,198.479072 210.817492,200.726924 C211.628578,201.557451 209.510396,203.084719 208.880869,204.392102 C208.369261,205.455097 207.802125,204.893465 207.152632,204.438464 C205.257187,203.109224 203.300599,201.878667 201.395171,200.563335 C200.771259,200.132839 199.542776,199.848049 200.176671,198.724786 C200.943459,197.36508 201.730212,195.915963 203.14774,195" id="Fill-160" fill="#F9F8F8"></path>
            <path d="M342.016035,112.482017 C345.669149,109.799291 348.92032,110.78774 351,115.211603 C348.770226,116.465104 346.49021,115.989916 344.234997,115.38806 C342.954117,115.046861 341.853222,114.361536 342.016035,112.482017" id="Fill-162" fill="#E2EAEE"></path>
            <path d="M354,117 C352.790428,119.522144 348.613033,120.842601 346.589433,119.410076 C346.303005,119.207257 346.020296,118.80101 346.001697,118.473941 C345.963258,117.803359 346.585714,117.771078 347.077354,117.718089 C349.361964,117.470808 351.649053,117.241799 354,117" id="Fill-164" fill="#0066A0"></path>
            <path d="M365,123.164107 C364.970526,124.134464 364.545169,125.012436 363.557804,124.999867 C361.999054,124.980384 361.163077,123.730358 361.00834,122.523068 C360.878389,121.510604 362.297809,121.041766 363.11905,121.002172 C364.478184,120.936811 364.467466,122.36218 365,123.164107" id="Fill-166" fill="#0067A1"></path>
            <path d="M292,283.100953 C296.225883,282.812149 300.357468,283.086026 304.36809,284.672178 C306.780186,285.626205 309.350314,286.099325 311.962064,285.678125 C318.023195,284.700085 323.581617,287.189642 329.352049,288.165087 C331.897464,288.594724 334.399306,289.175577 337,289.0315 C325.519618,292.072057 314.144591,291.498342 302.885974,287.945076 C299.08476,286.745079 295.280945,285.493161 292,283.100953" id="Fill-170" fill="#7AC0E9"></path>
            <path d="M153.915302,165.610299 C154.455928,168.815844 156.473433,171.492388 156.871029,174.816875 C158.235715,186.222252 148.581217,196.292972 136.870505,194.864342 C123.790515,193.268142 117.059595,178.866849 123.431629,167.966815 C128.494745,159.30501 140.17134,156.279523 148.005162,161.735783 C145.023848,165.927699 141.136461,169.279787 137.518731,172.863846 C135.612763,174.751161 135.28209,175.763819 137.333711,178.002705 C139.729785,180.616821 140.774951,179.081734 142.319408,177.480934 C146.159556,173.49996 150.046942,169.56433 153.915302,165.610299" id="Fill-172" fill="#7AC0EA"></path>
            <path d="M84,209 C89.3571088,210.78596 93.0958507,214.880912 97.1440146,218.424767 C99.7683239,220.722915 102.579442,221.462813 105.861112,221.680955 C113.404717,222.181662 120.966297,222.673439 128.291638,224.743877 C133.060717,226.091639 137.39776,228.382133 141.487009,231.129323 C143.400033,232.414576 145.440806,233.284594 147.760829,233.107274 C151.008476,232.858515 153.679005,233.77956 155.514353,236.542696 C156.14411,237.489893 157.010748,237.63277 158,237.631494 C139.527765,243.605531 121.924735,241.654369 105.357178,231.610257 C96.1913544,226.054007 88.8929758,218.612293 84,209" id="Fill-174" fill="#7AC0EA"></path>
            <path d="M356,50.4059245 C355.979426,50.7062616 355.990999,51.3730892 355.879128,52.0174247 C355.437432,54.549782 354.663982,55.7670071 351.664693,54.48429 C344.326883,51.3453048 336.774976,48.74084 329.377373,45.7440849 C323.579391,43.3956343 324.242256,44.3991835 327.323198,39.001055 C331.437978,31.7909811 340.639655,29.8599594 347.354461,34.5687681 C351.924439,37.7739069 355.945351,44.9753808 356,50.4059245" id="Fill-176" fill="#FDFDFD"></path>
            <path d="M338,53.7026734 C337.282082,54.8918701 336.472531,56.072611 335.21852,55.9965085 C334.057586,55.9257871 334.128295,54.5275008 334.02656,53.5489311 C333.921939,52.5411503 334.079232,51.6579008 335.364268,52.1314271 C336.316681,52.4827282 337.518021,52.4342994 338,53.7026734" id="Fill-178" fill="#005F91"></path>
            <path d="M218.783237,232.79741 C214.098869,230.878437 214.077268,230.864277 217.008855,226.382366 C217.774771,225.210789 218.296285,223.840358 219.519528,223 C220.684139,224.121709 221.818509,225.276048 223.018917,226.357124 C224.464343,227.657987 225.545636,229.125074 224.705659,231.123465 C223.884815,233.075682 222.087598,233.103386 220.295318,232.936546 C219.791085,232.889141 219.28747,232.843583 218.783237,232.79741" id="Fill-180" fill="#050709"></path>
            <path d="M253,265 C256.886581,266.731498 256.542521,271.649029 260,273.586456 C256.242604,275.272337 253.326533,271.68422 253,265" id="Fill-182" fill="#2D2E2D"></path>
            <path d="M248,270.019175 C245.261302,272.201062 244.379869,270.972169 242,264 C243.481376,265.055507 244.943418,265.568074 245.538811,266.663447 C246.195053,267.870193 246.783054,269.014924 248,270.019175" id="Fill-184" fill="#303030"></path>
            <path d="M204,248.51807 C206.176097,244.587692 207.823903,245.236494 210,250.618654 C207.4941,252.162787 206.209985,248.518852 204,248.51807" id="Fill-186" fill="#343434"></path>
            <path d="M219.234954,255 C218.588988,254.769234 217.844485,254.387829 218.028421,253.724376 C218.250312,252.923746 218.910876,251.992989 219.864132,252.00004 C220.669217,252.00645 220.989646,252.969258 220.999864,253.717325 C221.013003,254.703209 220.068506,254.796157 219.234954,255" id="Fill-188" fill="#3D3D3D"></path>
            <path d="M246.321923,257 C245.466641,256.819643 244.765146,256.448911 245.074363,255.736878 C245.351507,255.100621 245.829314,254.175667 246.461729,254.0404 C247.72327,253.771744 247.820312,254.909618 247.970808,255.485757 C248.176405,256.275443 247.261089,256.72195 246.321923,257" id="Fill-190" fill="#474847"></path>
            <path d="M242.093015,236 C243.583037,236.947779 244.439182,237.599521 243.768577,239.151615 C243.531744,239.700852 243.146732,240.312051 242.590745,239.818655 C241.510432,238.861697 242.279822,237.579632 242.093015,236" id="Fill-192" fill="#424242"></path>
            <path d="M227.572418,239 C228.344457,240.470211 228.154366,241.539137 226.311811,241.985863 C225.947468,242.073949 225.057873,241.729992 225.025357,241.518863 C224.78274,239.953575 226.330153,239.639678 227.572418,239" id="Fill-194" fill="#3E3E3E"></path>
            <path d="M227.65317,246 C228.336573,247.447953 227.993923,248.395153 226.767464,248.983049 C226.587288,249.068297 226.006933,248.810027 226.002507,248.696994 C225.960783,247.595716 226.436826,246.743236 227.65317,246" id="Fill-196" fill="#5D5D5C"></path>
            <path d="M239.631959,223 C240.176013,224.352037 240.226997,225.311965 239.021556,225.954999 C238.821813,226.061658 238.221887,225.962397 238.156936,225.827379 C237.590532,224.649201 238.667467,224.077684 239.631959,223" id="Fill-198" fill="#434343"></path>
            <path d="M251.677931,255 C252.207394,256.401485 252.172523,257.390614 250.897968,257.978481 C250.69088,258.074393 250.022646,257.825805 250.011259,257.70249 C249.909494,256.581564 250.500159,255.760116 251.677931,255" id="Fill-200" fill="#4C4C4B"></path>
            <path d="M223,276.789235 C220.721128,277.486086 220.048344,276.429215 220,274 C220.97829,275.415059 222.446732,275.63046 222.951656,276.850865 C222.950985,276.850255 223,276.789235 223,276.789235" id="Fill-202" fill="#7396AE"></path>
            <path d="M246.995226,151.723025 C245.50439,156.707602 243.187301,160.650488 239.55958,163.712349 C239.066895,164.12784 238.56782,164.100184 238.204856,163.583948 C237.848922,163.077589 237.976726,162.55806 238.434265,162.142569 C241.522013,159.340144 243.611611,155.864109 244.928633,151.876447 C245.18488,151.100118 245.634751,150.830805 246.352371,151.10341 C246.782432,151.266709 247.038679,151.609111 246.995226,151.723025" id="Fill-204" fill="#151615"></path>
        </g>
    </g>
</svg>