<svg width="356" height="200" xmlns="http://www.w3.org/2000/svg"><g fill="none" fill-rule="evenodd"><path fill="#F54E02" d="M0 0H356V200H0z"/><g transform="translate(93 34)" fill-rule="nonzero"><path d="M155.247 79.433l-1.995-.24c.346-2.88.52-5.797.52-8.74 0-38.173-29.164-68.444-66.605-68.444-36.27 0-66.187 28.295-68.323 64.33l-2.005-.118C19.037 29.125 49.833 0 87.167 0c38.568 0 68.615 31.187 68.615 70.453 0 3.023-.18 6.02-.535 8.98zM16.925 75.948l2.003-.155a68.062 68.062 0 0 0 4.549 19.774l-1.869.738a70.071 70.071 0 0 1-4.683-20.357zm142.119-17.925h8.627a1.005 1.005 0 0 0 0-2.01h-8.627a1.005 1.005 0 0 0 0 2.01z" fill="#FFF"/><path d="M41.918 98.204l-4.899-62.562a2.086 2.086 0 0 1 1.917-2.243h.008l27.352-2.04a1.005 1.005 0 0 0-.15-2.004l-27.351 2.04-.016.001a4.095 4.095 0 0 0-3.763 4.403l4.899 62.562a1.005 1.005 0 1 0 2.003-.157z" fill="#FFF"/><path d="M59.987 101.582l8.115-78.08a2.086 2.086 0 0 1 2.291-1.86h.004l61.366 6.483a2.086 2.086 0 0 1 1.86 2.253l-3.086 35.913a1.005 1.005 0 0 0 2.002.172l3.085-35.913a4.095 4.095 0 0 0-3.65-4.423l-61.366-6.483H70.6a4.095 4.095 0 0 0-4.497 3.65l-8.116 78.08a1.005 1.005 0 1 0 1.999.208z" fill="#FFF"/><path d="M102.465 80.776c4.85-2.688 9.449-3.82 13.786-3.366a1.005 1.005 0 1 1-.209 1.998c-3.896-.407-8.093.625-12.603 3.126-4.53 2.51-7.945 5.703-10.263 9.58a1.005 1.005 0 0 1-1.296.39c-5.996-2.874-11.9-3.244-17.772-1.122-5.862 2.118-9.986 6.1-12.422 12.001a1.005 1.005 0 0 1-1.602.362c-1.732-1.565-3.818-2.389-6.531-2.389-2.793 0-5.13 1.052-6.538 2.807a1.005 1.005 0 0 1-1.489.087c-7.716-7.607-15.607-10.166-23.785-7.784-7.918 2.306-12.626 8.054-14.198 17.405a1.005 1.005 0 0 1-1.982-.333c1.696-10.082 6.927-16.47 15.618-19.001 8.66-2.522 17.03.03 25.008 7.559 1.812-1.748 4.411-2.749 7.366-2.749 2.692 0 4.927.71 6.813 2.051 2.709-5.76 7.075-9.743 13.06-11.906 6.118-2.21 12.304-1.932 18.504.822 2.487-3.845 6.003-7.026 10.535-9.538zm50.08 21.363a1.005 1.005 0 0 1 .834-1.828c2.881 1.315 5.289 3.267 7.21 5.844 1.92 2.576 3.034 5.12 3.318 7.632a1.005 1.005 0 0 1-1.996.226c-.241-2.13-1.212-4.35-2.933-6.657-1.72-2.308-3.86-4.043-6.433-5.217zM101.78 38.333a4.868 4.868 0 0 1 5.277-4.421l.074.007 13.51 1.4a4.095 4.095 0 0 1 3.666 4.324l-1.134 18.496a5.64 5.64 0 0 1-6.182 5.269l-11.716-1.153a5.64 5.64 0 0 1-5.067-6.11l1.572-17.812zm3.691 21.923l11.716 1.152a3.632 3.632 0 0 0 3.98-3.392l1.135-18.496a2.086 2.086 0 0 0-1.867-2.203l-13.51-1.4-.044-.004a2.86 2.86 0 0 0-3.1 2.596l-1.572 17.813a3.632 3.632 0 0 0 3.262 3.934z" fill="#FFF"/><path d="M1.004 115.595l167.665.12a1.005 1.005 0 0 0 .001-2.01l-167.665-.119a1.005 1.005 0 0 0-.001 2.01zM73.56 63.047l10.69.862a1.005 1.005 0 0 0 .162-2.003l-10.69-.862a1.005 1.005 0 1 0-.162 2.003zM46.683 44.59l11.171-.975a1.005 1.005 0 0 0-.174-2.002l-11.172.975a1.005 1.005 0 0 0 .175 2.002zm26.086 23.864l32.412 3.202a1.005 1.005 0 1 0 .198-2l-32.412-3.201a1.005 1.005 0 0 0-.198 2zM47.46 49.91l16.779-1.545a1.005 1.005 0 1 0-.185-2l-16.778 1.544a1.005 1.005 0 0 0 .184 2zm1.546 12.898L63.2 61.5a1.005 1.005 0 0 0-.185-2l-14.194 1.307a1.005 1.005 0 1 0 .184 2zm.762 5.13l12.59-1.027a1.005 1.005 0 0 0-.163-2.002l-12.59 1.026a1.005 1.005 0 0 0 .163 2.002zm0 5.315l11.44-.933a1.005 1.005 0 1 0-.163-2.002l-11.44.932a1.005 1.005 0 0 0 .163 2.003zm5.709 18.622c-.422-.301-1.078-.57-2-.836-.092-.837-.242-1.51-.462-2.03-.223-.528-.644-1.194-1.27-2.021.443-.716.724-1.316.841-1.825.115-.499.14-1.206.084-2.152.826-.285 1.436-.595 1.848-.958.407-.36.804-.935 1.22-1.744 1.075.26 1.94.345 2.621.24.845-.132 1.887-.63 3.188-1.488a1.005 1.005 0 1 0-1.106-1.677c-1.08.712-1.896 1.102-2.39 1.179-.49.076-1.365-.05-2.573-.404-.48-.141-.99.093-1.197.548-.448.985-.834 1.611-1.092 1.84-.253.222-.884.5-1.856.776-.465.132-.77.576-.726 1.057.106 1.166.106 1.965.021 2.331-.08.35-.396.955-.946 1.762-.248.364-.23.847.044 1.192.771.968 1.255 1.692 1.438 2.126.176.416.306 1.124.37 2.1.027.435.332.802.755.91 1.067.27 1.762.525 2.02.709.252.18.685.726 1.23 1.602.319.514 1.017.631 1.486.25.646-.525 1.125-.84 1.382-.933.235-.085.695-.123 1.349-.085a1.005 1.005 0 1 0 .116-2.006c-.901-.052-1.608.006-2.15.203-.315.114-.672.312-1.084.595-.42-.586-.8-1.003-1.161-1.26zm16.52-12.602l16.206 1.601a1.005 1.005 0 0 0 .197-2l-16.206-1.6a1.005 1.005 0 0 0-.197 2zm-.763 5.41l25.326 2.244a1.005 1.005 0 0 0 .177-2.001L71.411 82.68a1.005 1.005 0 0 0-.177 2.001zm-.97 5.036l6.618.586a1.005 1.005 0 0 0 .177-2l-6.618-.587a1.005 1.005 0 0 0-.178 2.001zM18.925 123.86h77.66a1.005 1.005 0 0 0 0-2.01h-77.66a1.005 1.005 0 1 0 0 2.01zm16.942 7.963h11.977a1.005 1.005 0 0 0 0-2.01H35.868a1.005 1.005 0 1 0 0 2.01zm19.227 0h29.75a1.005 1.005 0 0 0 0-2.01h-29.75a1.005 1.005 0 1 0 0 2.01zm37.091 0h40.569a1.005 1.005 0 1 0 0-2.01H92.186a1.005 1.005 0 1 0 0 2.01zm13.285-7.963h50.614a1.005 1.005 0 0 0 0-2.01h-50.614a1.005 1.005 0 1 0 0 2.01zm29.988-12.9c12.404 0 22.069-10.032 22.069-22.642s-9.665-22.64-22.069-22.64c-12.504 0-22.64 10.136-22.64 22.64 0 12.504 10.136 22.641 22.64 22.641zm0-2.01c-11.395 0-20.632-9.237-20.632-20.632 0-11.394 9.237-20.632 20.632-20.632 11.277 0 20.06 9.116 20.06 20.632 0 11.516-8.783 20.632-20.06 20.632zM15.617 77.28c3.328 0 6.344-3.019 6.344-6.348 0-3.303-3.177-6.302-6.534-6.302-3.312 0-6.154 2.954-6.154 6.302 0 3.329 3.016 6.348 6.344 6.348zm0-2.01c-2.218 0-4.335-2.118-4.335-4.338 0-2.255 1.96-4.293 4.145-4.293 2.273 0 4.525 2.126 4.525 4.293 0 2.22-2.117 4.339-4.335 4.339zm1.847-38.914v-8.31a1.005 1.005 0 0 0-2.01 0v8.31a1.005 1.005 0 1 0 2.01 0zm10.44-10.398v-8.622a1.005 1.005 0 0 0-2.01 0v8.622a1.005 1.005 0 0 0 2.01 0z" fill="#FFF"/><path d="M11.823 33.686h8.627a1.005 1.005 0 0 0 0-2.009h-8.627a1.005 1.005 0 1 0 0 2.01zm10.762-11.092h8.628a1.005 1.005 0 0 0 0-2.01h-8.628a1.005 1.005 0 1 0 0 2.01zm140.692 21.91c1.832 0 3.262-1.483 3.262-3.322 0-1.84-1.43-3.323-3.262-3.323a3.323 3.323 0 1 0 0 6.646zm0-2.009a1.314 1.314 0 0 1 0-2.627c.706 0 1.253.568 1.253 1.314 0 .746-.547 1.313-1.253 1.313zm-11.91-8.674c3.35 0 5.96-2.71 5.96-6.095 0-3.384-2.61-6.094-5.96-6.094a6.095 6.095 0 0 0 0 12.189zm0-2.01a4.086 4.086 0 0 1 0-8.17c2.222 0 3.951 1.794 3.951 4.085 0 2.292-1.729 4.086-3.95 4.086zM113.23 48.323c2.291 0 4.079-1.855 4.079-4.162 0-2.308-1.788-4.163-4.08-4.163a4.163 4.163 0 0 0 0 8.325zm0-2.009a2.154 2.154 0 0 1 0-4.307c1.165 0 2.07.94 2.07 2.154s-.905 2.153-2.07 2.153z" fill="#FFF"/><path d="M112.38 46.323c-4.502 0-7.096 2.444-7.748 7.091-.372 2.652 2.658 4.501 6.668 5.05 3.991.545 7.44-.4 7.897-2.993.837-4.756-2.227-9.148-6.817-9.148zm-.808 10.15c-3.026-.414-5.105-1.682-4.95-2.78.516-3.687 2.294-5.36 5.758-5.36 3.249 0 5.472 3.187 4.838 6.79-.194 1.101-2.613 1.765-5.646 1.35zM140.8 90.29a1.005 1.005 0 1 0 1.428-1.413l-6.257-6.327a1.005 1.005 0 0 0-1.43.002l-6.223 6.327a1.005 1.005 0 1 0 1.433 1.409l5.508-5.6 5.54 5.602zm23.483-29.206v-8.31a1.005 1.005 0 1 0-2.01 0v8.31a1.005 1.005 0 0 0 2.01 0z" fill="#FFF"/><path d="M136.264 93.856V83.251a1.005 1.005 0 0 0-2.009 0v10.605a1.005 1.005 0 1 0 2.01 0z" fill="#FFF"/><path d="M40.916 98.282L36.018 35.72a3.09 3.09 0 0 1 2.851-3.323l27.352-2.04c2.903 43.788 2.903 69.577 0 77.368-2.902 7.791-11.337 4.644-25.305-9.443z"/><path d="M58.96 100.307l8.138-76.915a3.09 3.09 0 0 1 3.4-2.749l61.37 6.483a3.09 3.09 0 0 1 2.756 3.338l-3.086 35.913c-9.823 19.655-18.468 31.228-25.936 34.719-7.077 3.308-23.438 4.993-45.023 1.56-.796-.127-1.336-.91-1.62-2.35z"/><path d="M152.164 100.73L116.146 78.41c-4.116-.43-8.514.652-13.194 3.246-4.68 2.594-8.226 5.909-10.638 9.943-6.235-2.988-12.417-3.375-18.547-1.16-6.13 2.214-10.466 6.402-13.01 12.562-1.72-1.554-3.99-2.648-7.204-2.648-3.215 0-5.788 1.272-7.322 3.182-7.96-7.847-16.216-10.524-24.77-8.033-8.306 2.42-13.275 8.487-14.91 18.204-.01.06 45.026.278 135.106.656 2.904.692 9.987.538 21.252-.46-.263-2.322-1.305-4.704-3.125-7.146-1.821-2.442-4.095-4.285-6.822-5.53l-.798-.494z"/></g></g></svg>