<?xml version="1.0" encoding="UTF-8"?>
<svg width="185px" height="34px" viewBox="0 0 185 34" version="1.1" xmlns="http://www.w3.org/2000/svg" xmlns:xlink="http://www.w3.org/1999/xlink">
    <g id="SYMBOLS" stroke="none" stroke-width="1" fill="none" fill-rule="evenodd">
        <g id="Atom/Logo/JnJ_MDC-Horizontal" transform="translate(1.000000, 0.000000)" fill="#CA001B">
            <g id="Group" transform="translate(-1.000000, 0.000000)">
                <path d="M66.907565,12.0574242 C66.907565,11.75577 67.1131868,11.5918275 67.3722263,11.5918275 C67.8112763,11.5918275 68.4757053,12.0574242 68.8474344,12.9849744 C68.7142558,12.9849744 68.5130246,13.0265065 68.3783826,13.0265065 C67.5793115,13.0265065 66.907565,12.6461599 66.907565,12.0574242 Z M18.5623033,12.0574242 C18.5623033,11.75577 18.7591441,11.5918275 19.0306233,11.5918275 C19.4572336,11.5918275 20.0938561,12.0574242 20.4641216,12.9849744 C19.2296593,12.9849744 18.5623033,12.7182946 18.5623033,12.0574242 Z M27.8869941,7.2622883 C27.8869941,2.29810949 28.8572946,1.53595904 29.1595074,1.53595904 C29.6958802,1.53595904 29.7588107,1.86821583 29.7588107,3.77140607 C29.7588107,5.72778653 28.9231521,8.28747538 27.8869941,9.69300906 L27.8869941,7.2622883 Z M61.831415,12.155061 C61.2540642,12.9543718 60.7894029,14.0873966 60.7894029,15.5483064 C60.7894029,18.3455297 62.390472,21.0145136 65.5026049,21.0145136 C68.5130246,21.0145136 70.6190012,18.6457267 70.6190012,15.3472036 C70.6190012,14.3875935 70.5860725,14.2542536 70.5224102,13.8586058 C71.219768,13.5547657 71.8263888,13.089169 72.293977,12.7182946 C72.6949761,12.4188263 72.9920666,12.250512 73.2320806,12.250512 C73.5306346,12.250512 73.6630814,12.4851319 73.6630814,12.9179401 L73.6630814,19.4494092 C73.6630814,20.5139425 74.0011499,21.0145136 74.8331497,21.0145136 C75.6000237,21.0145136 76.1400553,20.4796967 76.4386093,19.8479716 C77.5457471,17.5505908 79.1453527,14.4866877 79.8456375,13.3223316 C80.0132082,13.0563805 80.1507772,12.8523631 80.2481,12.8523631 C80.3820103,12.8523631 80.4515265,12.9543718 80.4515265,13.3828082 L80.4515265,18.5859787 C80.4515265,20.0468885 81.1196143,21.0145136 82.5875049,21.0145136 C84.1278387,21.0145136 84.8917858,19.5448602 86.2389376,17.2831824 C86.3033316,17.1461993 86.3333333,17.0500197 86.3333333,16.9523828 C86.3333333,16.6521859 86.0720986,16.483143 85.8028146,16.483143 C85.4984065,16.483143 85.330104,16.7847972 84.3305335,17.879933 C84.1278387,18.0883222 83.9309979,18.376861 83.5607324,18.376861 C83.4275539,18.376861 83.3258407,18.2172903 83.3258407,18.0161875 L83.3258407,12.1834777 C83.3258407,10.6176447 82.6233606,9.98664829 81.7189176,9.98664829 C80.9864358,9.98664829 80.3820103,10.2853879 79.7461195,11.2202245 C78.6097117,12.8880662 77.4411068,15.2539386 76.8044843,16.4459827 C76.734968,16.5866089 76.6369135,16.7847972 76.5747148,16.7847972 C76.503735,16.7847972 76.4737333,16.6835171 76.4737333,16.4459827 L76.4737333,12.1834777 C76.4737333,10.955002 76.1400553,9.98664829 74.8331497,9.98664829 C73.4611184,9.98664829 72.7601018,10.9192989 71.7568725,11.6180583 C71.1239087,12.0887554 70.5538754,12.4188263 70.1236064,12.6177432 C69.4503964,10.9192989 68.2137388,10.0609689 67.1790443,10.0871997 C66.1370322,10.1229027 65.4038187,10.7575423 65.4038187,11.8235329 C65.4038187,12.9179401 66.0733699,13.6800906 66.974886,14.0189051 C67.472476,14.217822 67.9422596,14.2542536 68.6154696,14.2542536 C68.8159691,14.2542536 69.0157369,14.2542536 69.1445249,14.217822 C69.2155046,14.5478929 69.1840394,15.0215045 69.1840394,15.3865498 C69.1840394,17.0201457 68.2137388,18.6457267 66.4092432,18.6457267 C64.5323044,18.6457267 63.4332158,16.8496455 63.4332158,14.786156 C63.4332158,13.2181371 63.8993406,11.9211698 64.6654829,11.026408 C64.9713544,10.6905081 65.2025874,10.4886766 65.2025874,10.1833793 C65.2025874,10.0267231 64.9713544,9.98664829 64.7693914,9.98664829 C63.4961463,9.98664829 62.0955767,10.5557109 61.1282032,11.0511816 C59.8498359,11.7178811 58.3497483,12.8224892 57.1101637,13.9198109 C56.5101287,12.5849547 55.7739881,11.4191414 55.4037226,10.5192792 C55.2742028,10.1513194 55.1746848,9.72434029 54.9054008,9.72434029 C54.6675821,9.72434029 54.5651371,9.95896022 54.401225,10.4172706 C53.8019218,12.1834777 50.5902708,17.349488 49.8885225,18.048976 C49.822665,18.1451556 49.7253423,18.2493501 49.6924135,18.2493501 C49.620702,18.2493501 49.5819193,18.2172903 49.5819193,18.0161875 L49.5819193,12.1834777 C49.5819193,10.6176447 48.9482237,9.98664829 48.0862222,9.98664829 C47.3464229,9.98664829 46.7127274,10.2853879 46.1126923,11.2202245 C45.0084815,12.8880662 43.6664519,15.3180583 43.0327564,16.5144742 C42.9310432,16.7206774 42.8315251,16.7847972 42.7956694,16.7847972 C42.7627406,16.7847972 42.7349341,16.6521859 42.7349341,16.4459827 L42.7349341,12.1834777 C42.7349341,10.6176447 42.0983116,9.98664829 41.2253338,9.98664829 C40.4891933,9.98664829 39.7911037,10.2591571 39.2210704,11.2202245 C37.8205009,13.5860969 35.4796325,17.2161481 35.0442412,17.8128988 C34.9761885,17.9156361 34.9095992,17.983399 34.8437417,18.0161875 C34.7771524,18.0161875 34.7383697,17.9476959 34.7383697,17.7808389 L34.7383697,12.1834777 C34.7383697,10.6176447 34.1046742,9.98664829 33.2382821,9.98664829 C32.0345533,9.98664829 31.3686608,11.0912564 30.928879,11.7878299 C30.3259169,12.753269 29.5261142,14.0538795 28.8924186,15.2539386 C28.4533686,16.0554352 28.0874936,16.7847972 27.9521198,16.7847972 C27.8869941,16.7847972 27.8869941,16.483143 27.8869941,15.9162662 L27.8869941,11.4563017 C29.9922389,9.1210319 31.2962175,6.26260339 31.2962175,3.13093738 C31.2962175,1.32975581 30.4942195,0.335171327 29.2612206,0.335171327 C26.9488905,0.335171327 25.1824459,3.93097676 25.1824459,8.18983852 L25.1824459,11.6537613 C24.1104321,12.3204608 23.106471,12.6461599 21.8661547,12.8880662 C21.2317274,11.026408 19.8933566,10.0609689 18.8286603,10.0871997 C17.793234,10.1229027 17.0541665,10.7575423 17.0541665,11.8235329 C17.0541665,13.5860969 18.7949998,14.319102 20.3294796,14.319102 L20.7634074,14.319102 C20.8292649,14.6564592 20.8292649,15.0215045 20.8292649,15.3865498 C20.8292649,17.0201457 19.8596961,18.6457267 18.0588593,18.6457267 C16.1885062,18.6457267 15.0806366,16.8496455 15.0806366,14.786156 C15.0806366,13.2181371 15.5460296,11.9211698 16.3150989,11.026408 C16.6180434,10.6905081 16.8558622,10.3917684 16.8558622,10.1833793 C16.8558622,10.0267231 16.6180434,9.98664829 16.4168122,9.98664829 C15.1457623,9.98664829 12.3409644,11.6923789 8.99393975,15.0215045 C8.69904449,12.3576211 8.36243947,9.75567152 8.36243947,7.225128 C8.36243947,4.39584482 8.92515525,1.99281213 9.05687026,1.30133911 C9.12419126,0.870716818 9.16516926,0.601122489 9.16516926,0.405120126 C9.16516926,0.136254431 9.02467326,0 8.66318874,0 C5.95351833,0 0,4.30039386 0,10.7254825 C0,15.280898 1.67643934,17.4820993 4.57856001,20.3106538 C2.81650591,23.1428515 1.40349658,26.5018511 1.40349658,29.5030918 C1.40349658,31.6634896 1.91059936,33.3 3.5094732,33.3 C6.85430263,33.3 9.36127827,26.3765262 9.36127827,21.2447617 C9.36127827,19.7168176 9.29834777,18.1823159 9.16516926,16.6521859 C10.3981681,15.3472036 12.3051087,13.5860969 12.7712335,13.4206971 C12.5714657,14.1216424 12.4397507,14.8561048 12.4397507,15.5483064 C12.4397507,18.3455297 14.0466738,21.0145136 17.1529527,21.0145136 C20.0645861,21.0145136 22.2686172,18.6457267 22.2686172,15.3472036 C22.2686172,14.9216818 22.2356885,14.5478929 22.2027597,14.1500591 C23.2696513,13.9533281 24.2487329,13.6800906 25.1824459,13.1226861 L25.1824459,19.8137259 C25.1824459,20.6756991 25.7802857,21.0145136 26.3481237,21.0145136 C27.1223153,21.0145136 27.5233143,20.4796967 28.0874936,19.2534069 C28.5587406,18.2493501 29.8261317,15.9541552 30.5937375,14.5843245 C31.1988947,13.5176054 31.534768,12.8224892 31.8033203,12.8224892 C31.8662508,12.8224892 31.9379623,12.9849744 31.9379623,13.3828082 L31.9379623,19.0799921 C31.9379623,20.6137653 32.7406921,21.0145136 33.4343911,21.0145136 C34.1046742,21.0145136 34.5407972,20.648011 34.9761885,20.0468885 C36.7170218,17.5811934 38.5588367,14.6564592 39.2876597,13.3828082 C39.4259605,13.1583891 39.5898725,12.9849744 39.7252462,12.9849744 C39.8554977,12.9849744 39.9228187,13.0563805 39.9228187,13.4833596 L39.9228187,19.4494092 C39.9228187,20.5139425 40.2572285,21.0145136 41.0980093,21.0145136 C41.8626881,21.0145136 42.3610099,20.4796967 42.6610274,19.8479716 C43.771824,17.5505908 45.4065535,14.5172903 46.1126923,13.3223316 C46.2773361,13.0563805 46.4456386,12.8224892 46.5444249,12.8224892 C46.6819939,12.8224892 46.7127274,12.9849744 46.7127274,13.4206971 L46.7127274,19.0799921 C46.7127274,20.6137653 47.5147254,21.0145136 48.2223277,21.0145136 C49.1516503,21.0145136 49.7590028,20.3463568 50.3605013,19.5834777 C51.4566629,18.1451556 53.063586,15.5912958 54.0338865,13.9533281 C54.371955,14.4866877 54.7363666,15.1205987 55.0422381,15.8171721 C54.237313,16.7847972 53.4331197,17.879933 53.4331197,19.0457464 C53.4331197,20.2793226 54.3039023,21.0145136 55.2061501,21.0145136 C56.7413617,21.0145136 58.1470535,19.5448602 58.1470535,17.516345 C58.1470535,16.7206774 57.914357,15.884935 57.6150712,15.0892674 C58.9783216,13.7536826 60.6203686,12.455258 61.831415,12.155061 Z M6.75112588,19.4144348 C7.02114164,21.1777275 7.25749691,22.9126034 7.25749691,24.2758763 C7.25749691,27.4680189 6.18767835,31.1993501 4.34879049,31.1694762 C3.6382612,31.1694762 3.04261667,30.460516 3.01041967,29.2371406 C2.94383041,25.2449586 4.84857577,21.8466128 6.75112588,19.4144348 Z M55.5712934,17.1461993 C55.7739881,17.7189051 55.8771649,18.1823159 55.8771649,18.6457267 C55.8771649,19.1805435 55.6737384,19.7168176 55.3056681,19.7168176 C55.0422381,19.7168176 54.7722223,19.4144348 54.7722223,18.9481095 C54.7722223,18.4468098 55.2061501,17.6467704 55.5712934,17.1461993 Z M7.9592452,1.26490744 C7.9592452,1.46819614 7.48872992,2.39866089 6.88942664,4.06504529 C6.25353585,5.79409216 5.64764682,8.25468688 5.64764682,11.2202245 C5.64764682,12.9849744 6.08669684,15.3180583 6.45842586,17.6824734 L5.38494855,19.1193383 C3.67997096,17.0500197 2.60942065,14.7220362 2.60942065,10.7254825 C2.60942065,5.06545884 6.05523159,1.13958251 7.82313969,1.13958251 C7.92851169,1.13958251 7.9592452,1.16945648 7.9592452,1.26490744 Z" id="Fill-1"></path>
                <path d="M165.475673,12.0574242 C165.475673,11.75577 165.671329,11.5918275 165.944216,11.5918275 C166.375246,11.5918275 167.051212,12.0574242 167.418985,12.9849744 C167.288058,12.9849744 167.087254,13.0265065 166.946029,13.0265065 C166.146491,13.0265065 165.475673,12.6461599 165.475673,12.0574242 Z M116.868603,12.0574242 C116.868603,11.75577 117.075291,11.5918275 117.339352,11.5918275 C117.777738,11.5918275 118.422811,12.0574242 118.787642,12.9849744 C117.542363,12.9849744 116.868603,12.7182946 116.868603,12.0574242 Z M126.249754,7.2622883 C126.249754,2.29810949 127.217732,1.53595904 127.52519,1.53595904 C128.060667,1.53595904 128.129809,1.86821583 128.129809,3.77140607 C128.129809,5.72778653 127.285402,8.28747538 126.249754,9.69300906 L126.249754,7.2622883 Z M105.009399,19.4144348 C105.269782,21.1777275 105.514719,22.9126034 105.514719,24.2758763 C105.514719,27.4680189 104.441557,31.1993501 102.587982,31.1694762 C101.881858,31.1694762 101.277975,30.460516 101.243404,29.2371406 C101.174999,25.2449586 103.092567,21.8466128 105.009399,19.4144348 Z M154.082805,17.1461993 C154.286551,17.7189051 154.381437,18.1823159 154.381437,18.6457267 C154.381437,19.1805435 154.180633,19.7168176 153.809918,19.7168176 C153.545121,19.7168176 153.267085,19.4144348 153.267085,18.9481095 C153.267085,18.4468098 153.711355,17.6467704 154.082805,17.1461993 Z M106.212752,1.26490744 C106.212752,1.46819614 105.746416,2.39866089 105.13959,4.06504529 C104.503343,5.79409216 103.895783,8.25468688 103.895783,11.2202245 C103.895783,12.9849744 104.342259,15.3180583 104.708561,17.6824734 L103.630986,19.1193383 C101.920107,17.0500197 100.838854,14.7220362 100.838854,10.7254825 C100.838854,5.06545884 104.306953,1.13958251 106.086973,1.13958251 C106.184801,1.13958251 106.212752,1.16945648 106.212752,1.26490744 Z M100.609364,17.9156361 C101.208834,18.7149468 101.948793,19.4792832 102.826299,20.3106538 C101.041865,23.1428515 99.6310882,26.5018511 99.6310882,29.5030918 C99.6310882,31.6634896 100.140086,33.3 101.753873,33.3 C105.108697,33.3 107.629413,26.3765262 107.629413,21.2447617 C107.629413,19.7168176 107.56542,18.1823159 107.428609,16.6521859 C108.672417,15.3472036 110.584836,13.5860969 111.058527,13.4206971 C110.857723,14.1216424 110.720176,14.8561048 110.720176,15.5483064 C110.720176,18.3455297 112.334699,21.0145136 115.46224,21.0145136 C118.383827,21.0145136 120.603704,18.6457267 120.603704,15.3472036 C120.603704,14.9216818 120.570605,14.5478929 120.533828,14.1500591 C121.613609,13.9533281 122.591885,13.6800906 123.526763,13.1226861 L123.526763,19.8137259 C123.526763,20.6756991 124.130646,21.0145136 124.697752,21.0145136 C125.478166,21.0145136 125.883452,20.4796967 126.452029,19.2534069 C126.919836,18.2493501 128.200421,15.9541552 128.976422,14.5843245 C129.578098,13.5176054 129.912772,12.8224892 130.191543,12.8224892 C130.253329,12.8224892 130.318057,12.9849744 130.318057,13.3828082 L130.318057,19.0799921 C130.318057,20.6137653 131.119802,21.0145136 131.827397,21.0145136 C132.503364,21.0145136 132.935129,20.648011 133.379399,20.0468885 C135.124849,17.5811934 136.975482,14.6564592 137.710292,13.3828082 C137.844161,13.1583891 138.018486,12.9849744 138.145735,12.9849744 C138.276662,12.9849744 138.351688,13.0563805 138.351688,13.4833596 L138.351688,19.4494092 C138.351688,20.5139425 138.68489,21.0145136 139.521941,21.0145136 C140.297942,21.0145136 140.799584,20.4796967 141.1041,19.8479716 C142.21551,17.5505908 143.860926,14.5172903 144.566314,13.3223316 C144.73549,13.0563805 144.905401,12.8224892 145.007642,12.8224892 C145.14004,12.8224892 145.176817,12.9849744 145.176817,13.4206971 L145.176817,19.0799921 C145.176817,20.6137653 145.974149,21.0145136 146.681744,21.0145136 C147.629127,21.0145136 148.235216,20.3463568 148.833951,19.5834777 C149.944625,18.1451556 151.561354,15.5912958 152.534481,13.9533281 C152.868419,14.4866877 153.242076,15.1205987 153.545121,15.8171721 C152.730872,16.7847972 151.932069,17.879933 151.932069,19.0457464 C151.932069,20.2793226 152.7956,21.0145136 153.711355,21.0145136 C155.25453,21.0145136 156.666042,19.5448602 156.666042,17.516345 C156.666042,16.7206774 156.428461,15.884935 156.129829,15.0892674 C157.504564,13.7536826 159.152187,12.455258 160.362895,12.155061 C159.789905,12.9543718 159.320626,14.0873966 159.320626,15.5483064 C159.320626,18.3455297 160.936621,21.0145136 164.061219,21.0145136 C167.087254,21.0145136 169.19827,18.6457267 169.19827,15.3472036 C169.19827,14.3875935 169.168113,14.2542536 169.104121,13.8586058 C169.802154,13.5547657 170.413392,13.089169 170.888555,12.7182946 C171.281336,12.4188263 171.58953,12.250512 171.822698,12.250512 C172.125007,12.250512 172.26991,12.4851319 172.26991,12.9179401 L172.26991,19.4494092 C172.26991,20.5139425 172.601641,21.0145136 173.437956,21.0145136 C174.211015,21.0145136 174.750905,20.4796967 175.05395,19.8479716 C176.158004,17.5505908 177.772527,14.4866877 178.476445,13.3223316 C178.644149,13.0563805 178.782432,12.8523631 178.882466,12.8523631 C179.018542,12.8523631 179.086948,12.9543718 179.086948,13.3828082 L179.086948,18.5859787 C179.086948,20.0468885 179.753352,21.0145136 181.232535,21.0145136 C182.786007,21.0145136 183.555388,19.5448602 184.902172,17.2831824 C184.9669,17.1461993 185,17.0500197 185,16.9523828 C185,16.6521859 184.729319,16.483143 184.461581,16.483143 C184.160007,16.483143 183.98936,16.7847972 182.983134,17.879933 C182.786007,18.0883222 182.581526,18.376861 182.212282,18.376861 C182.073263,18.376861 181.977642,18.2172903 181.977642,18.0161875 L181.977642,12.1834777 C181.977642,10.6176447 181.264899,9.98664829 180.3565,9.98664829 C179.624632,9.98664829 179.018542,10.2853879 178.377882,11.2202245 C177.233372,12.8880662 176.062383,15.2539386 175.42393,16.4459827 C175.354053,16.5866089 175.25549,16.7847972 175.183406,16.7847972 C175.110587,16.7847972 175.08705,16.6835171 175.08705,16.4459827 L175.08705,12.1834777 C175.08705,10.955002 174.750905,9.98664829 173.437956,9.98664829 C172.058808,9.98664829 171.355626,10.9192989 170.3494,11.6180583 C169.702119,12.0887554 169.135749,12.4188263 168.696628,12.6177432 C168.029488,10.9192989 166.781267,10.0609689 165.744148,10.0871997 C164.695995,10.1229027 163.964862,10.7575423 163.964862,11.8235329 C163.964862,12.9179401 164.634209,13.6800906 165.537459,14.0189051 C166.040573,14.217822 166.513528,14.2542536 167.192437,14.2542536 C167.388828,14.2542536 167.584483,14.2542536 167.726443,14.217822 C167.794849,14.5478929 167.760279,15.0215045 167.760279,15.3865498 C167.760279,17.0201457 166.781267,18.6457267 164.964469,18.6457267 C163.083679,18.6457267 161.979624,16.8496455 161.979624,14.786156 C161.979624,13.2181371 162.446696,11.9211698 163.216077,11.026408 C163.522064,10.6905081 163.759645,10.4886766 163.759645,10.1833793 C163.759645,10.0267231 163.522064,9.98664829 163.32126,9.98664829 C162.049501,9.98664829 160.635047,10.5557109 159.658978,11.0511816 C158.380599,11.7178811 156.869052,12.8224892 155.626716,13.9198109 C155.023568,12.5849547 154.286551,11.4191414 153.909216,10.5192792 C153.77314,10.1513194 153.682668,9.72434029 153.403161,9.72434029 C153.169993,9.72434029 153.067752,9.95896022 152.901519,10.4172706 C152.295429,12.1834777 149.072267,17.349488 148.366144,18.048976 C148.299209,18.1451556 148.196232,18.2493501 148.162397,18.2493501 C148.099876,18.2493501 148.061628,18.2172903 148.061628,18.0161875 L148.061628,12.1834777 C148.061628,10.6176447 147.428323,9.98664829 146.545668,9.98664829 C145.806444,9.98664829 145.176817,10.2853879 144.566314,11.2202245 C143.45564,12.8880662 142.111062,15.3180583 141.471873,16.5144742 C141.374046,16.7206774 141.277689,16.7847972 141.244589,16.7847972 C141.206341,16.7847972 141.173242,16.6521859 141.173242,16.4459827 L141.173242,12.1834777 C141.173242,10.6176447 140.53773,9.98664829 139.663166,9.98664829 C138.920265,9.98664829 138.210463,10.2591571 137.6463,11.2202245 C136.229638,13.5860969 133.881041,17.2161481 133.439713,17.8128988 C133.379399,17.9156361 133.307315,17.983399 133.235967,18.0161875 C133.177859,18.0161875 133.13814,17.9476959 133.13814,17.7808389 L133.13814,12.1834777 C133.13814,10.6176447 132.503364,9.98664829 131.625122,9.98664829 C130.411472,9.98664829 129.743596,11.0912564 129.303004,11.7878299 C128.699857,12.753269 127.898847,14.0538795 127.255245,15.2539386 C126.821273,16.0554352 126.452029,16.7847972 126.316688,16.7847972 C126.249754,16.7847972 126.249754,16.483143 126.249754,15.9162662 L126.249754,11.4563017 C128.369597,9.1210319 129.67519,6.26260339 129.67519,3.13093738 C129.67519,1.32975581 128.870503,0.335171327 127.624489,0.335171327 C125.305313,0.335171327 123.526763,3.93097676 123.526763,8.18983852 L123.526763,11.6537613 C122.448453,12.3204608 121.439284,12.6461599 120.196948,12.8880662 C119.562172,11.026408 118.214652,10.0609689 117.145904,10.0871997 C116.098487,10.1229027 115.358528,10.7575423 115.358528,11.8235329 C115.358528,13.5860969 117.103978,14.319102 118.652302,14.319102 L119.092158,14.319102 C119.153944,14.6564592 119.153944,15.0215045 119.153944,15.3865498 C119.153944,17.0201457 118.184494,18.6457267 116.366961,18.6457267 C114.483228,18.6457267 113.37991,16.8496455 113.37991,14.786156 C113.37991,13.2181371 113.849923,11.9211698 114.617097,11.026408 C114.918671,10.6905081 115.156253,10.3917684 115.156253,10.1833793 C115.156253,10.0267231 114.918671,9.98664829 114.720809,9.98664829 C113.44096,9.98664829 110.619406,11.6923789 107.255756,15.0215045 C106.960066,12.3576211 106.617302,9.75567152 106.617302,7.225128 C106.617302,4.39584482 107.190292,1.99281213 107.326368,1.30133911 C107.391831,0.870716818 107.428609,0.601122489 107.428609,0.405120126 C107.428609,0.136254431 107.290326,0 106.929909,0 C104.206918,0 98.2195759,4.30039386 98.2195759,10.7254825 C98.2195759,13.3500197 98.7933016,15.2218787 99.8017348,16.8496455 C99.4243998,16.7847972 99.1301815,16.7847972 98.8536163,16.7847972 C97.7811906,16.7847972 96.7712863,17.0500197 96.1423947,17.1840882 L96.1423947,16.5144742 C96.1423947,15.0892674 95.801837,13.1226861 95.1957473,12.455258 C95.1236638,12.3867664 95.0236296,12.3576211 94.9280086,12.3576211 C94.65365,12.3576211 94.3211834,12.4851319 93.9519394,12.687692 C93.5473892,12.8880662 93.1428391,13.089169 93.1428391,13.2181371 C93.1428391,13.2844427 93.1428391,13.3500197 93.2436088,13.5176054 C93.4819257,13.8586058 94.1203794,14.5172903 94.3513407,16.0853092 C93.2075671,14.9537416 91.9034445,14.4509846 90.1947717,14.4509846 C88.174963,14.4509846 87.5666667,15.3472036 87.5666667,16.2514376 C87.5666667,17.983399 89.8858424,18.8475581 92.8140501,18.8475581 C93.3487919,18.8475581 93.9519394,18.7477353 94.5558225,18.6114809 C94.5558225,19.1441119 94.6249638,19.6177235 94.6249638,20.0148287 C94.6249638,20.5809768 94.7213203,21.0145136 95.095713,21.0145136 C95.6642899,21.0145136 96.002641,19.8800315 96.0681045,18.2493501 C97.1096373,17.983399 98.1864763,17.7524222 99.0978175,17.7524222 C99.531054,17.7524222 100.074622,17.8128988 100.609364,17.9156361 Z M93.9872456,17.5811934 C93.423082,17.6467704 93.0766399,17.6467704 92.4779057,17.6467704 C91.164221,17.6467704 90.1947717,17.1461993 90.1947717,16.4197519 C90.1947717,15.9541552 90.4272041,15.6831036 91.0987574,15.6831036 C92.1763319,15.6831036 93.0464826,16.4197519 93.9872456,17.5811934 Z" id="Fill-2"></path>
            </g>
        </g>
    </g>
</svg>