<?xml version="1.0" encoding="UTF-8"?>
<svg width="19px" height="12px" viewBox="0 0 19 12" version="1.1" xmlns="http://www.w3.org/2000/svg" xmlns:xlink="http://www.w3.org/1999/xlink">
    <!-- Generator: Sketch 51.2 (57519) - http://www.bohemiancoding.com/sketch -->
    <title>united-states</title>
    <desc>Created with Sketch.</desc>
    <defs></defs>
    <g id="SYMBOLS" stroke="none" stroke-width="1" fill="none" fill-rule="evenodd">
        <g id="Footer-Extended" transform="translate(-1274.000000, -563.000000)" fill-rule="nonzero">
            <g id="united-states" transform="translate(1274.000000, 563.000000)">
                <path d="M18.5319683,12 L0.325137758,12 C0.145590117,12 0,11.8585895 0,11.6841964 L0,0.315803595 C0,0.141410468 0.145590117,0 0.325137758,0 L18.5320051,0 C18.7115527,0 18.8571429,0.141410468 18.8571429,0.315803595 L18.8571429,11.6841964 C18.857106,11.8586253 18.7115159,12 18.5319683,12 Z" id="Shape" fill="#F5F5F5"></path>
                <g id="Group" fill="#FF4B55">
                    <path d="M18.5930735,0.931464286 L0,0.931464286 L0,0.325142857 C0,0.151035714 0.143551321,0.00985714286 0.320584634,0.00985714286 L18.2724889,0.00985714286 C18.4495222,0.00985714286 18.5930735,0.151035714 18.5930735,0.325142857 L18.5930735,0.931464286 Z" id="Shape"></path>
                    <rect id="Rectangle-path" x="0" y="3.69610714" width="18.5930372" height="1"></rect>
                    <rect id="Rectangle-path" x="0" y="1.85289286" width="18.5930372" height="1"></rect>
                    <path d="M18.5930372,6.46082143 L0.320584634,6.46082143 C0.143551321,6.46082143 0,6.31964286 0,6.14553571 L0,5.53921429 L18.5930372,5.53921429 L18.5930372,6.46082143 Z" id="Shape"></path>
                    <rect id="Rectangle-path" x="0" y="9.22575" width="18.5930372" height="1"></rect>
                    <path d="M18.2724526,11.9901786 L0.320584634,11.9901786 C0.143551321,11.9901786 0,11.849 0,11.6748929 L0,11.0686071 L18.5930372,11.0686071 L18.5930372,11.6749286 C18.5930372,11.8490357 18.4494859,11.9901786 18.2724526,11.9901786 Z" id="Shape"></path>
                    <rect id="Rectangle-path" x="0" y="7.38253571" width="18.5930372" height="1"></rect>
                </g>
                <path d="M8.25391897,0 L0.317473637,0 C0.142158279,0 0,0.137528819 0,0.307177855 L0,5.97850163 C0,6.14815067 0.142158279,6.28571429 0.317473637,6.28571429 L8.25395493,6.28571429 C8.42927029,6.28571429 8.57142857,6.14815067 8.57142857,5.97850163 L8.57142857,0.307177855 C8.57139261,0.137528819 8.42923433,0 8.25391897,0 Z" id="Shape" fill="#41479B"></path>
                <g id="Group" transform="translate(0.571429, 0.571429)" fill="#F5F5F5">
                    <path d="M0.30884143,0.0174612629 L0.366117019,0.197251273 L0.547177056,0.198693275 C0.570626632,0.198908041 0.580328894,0.230202548 0.561481297,0.24477597 L0.41583012,0.357374833 L0.470467631,0.538054589 C0.477561128,0.561433427 0.452089026,0.580823749 0.433006934,0.566526455 L0.285714286,0.456351382 L0.138421638,0.566557135 C0.119339545,0.580823749 0.0939260674,0.561464108 0.10096094,0.53808527 L0.155598452,0.357405514 L0.00994727401,0.244806651 C-0.00890032256,0.230202548 0.000801939442,0.198938722 0.0242515153,0.198723956 L0.205311553,0.197281954 L0.262587142,0.0174919438 C0.269973758,-0.00582553193 0.30139619,-0.00582553193 0.30884143,0.0174612629 Z" id="Shape"></path>
                    <path d="M0.30884143,1.1602961 L0.366117019,1.34009335 L0.547177056,1.34153541 C0.570626632,1.34175018 0.580328894,1.37304595 0.561481297,1.38761996 L0.41583012,1.50022336 L0.470467631,1.68091039 C0.477561128,1.70429017 0.452089026,1.72368127 0.433006934,1.7093834 L0.285714286,1.59920389 L0.138421638,1.70941408 C0.119339545,1.72368127 0.0939260674,1.70432085 0.10096094,1.68094107 L0.155598452,1.50025404 L0.00994727401,1.38765064 C-0.00890032256,1.37304595 0.000801939442,1.34178086 0.0242515153,1.34156609 L0.205311553,1.34012403 L0.262587142,1.16032678 C0.269973758,1.13703905 0.30139619,1.13703905 0.30884143,1.1602961 Z" id="Shape"></path>
                    <path d="M0.30884143,2.30315324 L0.366117019,2.48295049 L0.547177056,2.48439255 C0.570626632,2.48460733 0.580328894,2.51590309 0.561481297,2.5304771 L0.41583012,2.6430805 L0.470467631,2.82376753 C0.477561128,2.84714731 0.452089026,2.86653841 0.433006934,2.85224054 L0.285714286,2.74206103 L0.138421638,2.85227122 C0.119339545,2.86653841 0.0939260674,2.84717799 0.10096094,2.82379821 L0.155598452,2.64311118 L0.00994727401,2.53050778 C-0.00890032256,2.51590309 0.000801939442,2.48463801 0.0242515153,2.48442323 L0.205311553,2.48298117 L0.262587142,2.30318392 C0.269973758,2.27989619 0.30139619,2.27989619 0.30884143,2.30315324 Z" id="Shape"></path>
                    <path d="M0.30884143,3.44603269 L0.366117019,3.6258227 L0.547177056,3.6272647 C0.570626632,3.62747947 0.580328894,3.65877398 0.561481297,3.6733474 L0.41583012,3.78594626 L0.470467631,3.96662602 C0.477561128,3.99000486 0.452089026,4.00939518 0.433006934,3.99509788 L0.285714286,3.88492281 L0.138421638,3.99512856 C0.119339545,4.00939518 0.0939260674,3.99003554 0.10096094,3.9666567 L0.155598452,3.78597694 L0.00994727401,3.67337808 C-0.00890032256,3.65877398 0.000801939442,3.62751015 0.0242515153,3.62729538 L0.205311553,3.62585338 L0.262587142,3.44606337 C0.269973758,3.4227459 0.30139619,3.4227459 0.30884143,3.44603269 Z" id="Shape"></path>
                    <path d="M0.30884143,4.58891214 L0.366117019,4.76869491 L0.547177056,4.77013686 C0.570626632,4.77035161 0.580328894,4.80164486 0.561481297,4.8162177 L0.41583012,4.92881202 L0.470467631,5.1094845 C0.477561128,5.1328624 0.452089026,5.15225194 0.433006934,5.13795522 L0.285714286,5.02778459 L0.138421638,5.1379859 C0.119339545,5.15225194 0.0939260674,5.13289308 0.10096094,5.10951518 L0.155598452,4.9288427 L0.00994727401,4.81624837 C-0.00890032256,4.80164486 0.000801939442,4.77038229 0.0242515153,4.77016753 L0.205311553,4.76872559 L0.262587142,4.58894282 C0.269973758,4.5655956 0.30139619,4.5655956 0.30884143,4.58891214 Z" id="Shape"></path>
                    <path d="M1.45169857,0.588871791 L1.50897416,0.768673494 L1.6900342,0.77011559 C1.71348377,0.77033037 1.72318604,0.801626912 1.70433844,0.816201282 L1.55868726,0.928807468 L1.61332477,1.10949898 C1.62041827,1.13287933 1.59494617,1.15227092 1.57586408,1.13797269 L1.42857143,1.02775977 L1.28127878,1.13797269 C1.26219669,1.15224023 1.23678321,1.13287933 1.24381808,1.10949898 L1.29845559,0.928807468 L1.15280442,0.816201282 C1.13395682,0.801596229 1.14365908,0.77033037 1.16710866,0.77011559 L1.3481687,0.768673494 L1.40544428,0.588871791 C1.41280159,0.565614165 1.44428264,0.565614165 1.45169857,0.588871791 Z" id="Shape"></path>
                    <path d="M1.45169857,1.73175124 L1.50897416,1.91154571 L1.6900342,1.91298774 C1.71348377,1.91320251 1.72318604,1.9444978 1.70433844,1.95907158 L1.55868726,2.07167323 L1.61332477,2.25235746 C1.62041827,2.27573688 1.59494617,2.29512768 1.57586408,2.28083003 L1.42857143,2.17062155 L1.28127878,2.28083003 C1.26219669,2.295097 1.23678321,2.27576756 1.24381808,2.25235746 L1.29845559,2.07167323 L1.15280442,1.95907158 C1.13395682,1.94446711 1.14365908,1.91320251 1.16710866,1.91298774 L1.3481687,1.91154571 L1.40544428,1.73175124 C1.41280159,1.70846387 1.44428264,1.70846387 1.45169857,1.73175124 Z" id="Shape"></path>
                    <path d="M1.45169857,2.87460839 L1.50897416,3.05440285 L1.6900342,3.05584489 C1.71348377,3.05605966 1.72318604,3.08735494 1.70433844,3.10192872 L1.55868726,3.21453037 L1.61332477,3.3952146 C1.62041827,3.41859402 1.59494617,3.43798482 1.57586408,3.42368717 L1.42857143,3.31347869 L1.28127878,3.42368717 C1.26219669,3.43795414 1.23678321,3.41859402 1.24381808,3.3952146 L1.29845559,3.21453037 L1.15280442,3.10192872 C1.13395682,3.08732426 1.14365908,3.05605966 1.16710866,3.05584489 L1.3481687,3.05440285 L1.40544428,2.87460839 C1.41280159,2.85132101 1.44428264,2.85132101 1.45169857,2.87460839 Z" id="Shape"></path>
                    <path d="M1.45169857,4.01744322 L1.50897416,4.19724492 L1.6900342,4.19868702 C1.71348377,4.1989018 1.72318604,4.23019834 1.70433844,4.24477271 L1.55868726,4.3573789 L1.61332477,4.5380704 C1.62041827,4.56145076 1.59494617,4.58084234 1.57586408,4.56654412 L1.42857143,4.4563312 L1.28127878,4.56654412 C1.26219669,4.58081166 1.23678321,4.56145076 1.24381808,4.5380704 L1.29845559,4.3573789 L1.15280442,4.24477271 C1.13395682,4.23016766 1.14365908,4.1989018 1.16710866,4.19868702 L1.3481687,4.19724492 L1.40544428,4.01744322 C1.41280159,3.99418559 1.44428264,3.99418559 1.45169857,4.01744322 Z" id="Shape"></path>
                    <path d="M2.02312714,0.0174655286 L2.08040273,0.197259991 L2.26146277,0.198702029 C2.28491235,0.1989168 2.29461461,0.230212082 2.27576701,0.244785865 L2.13011583,0.357387517 L2.18475335,0.538071747 C2.19184684,0.561451163 2.16637474,0.580841966 2.14729265,0.566544317 L2,0.456335834 L1.85270735,0.566544317 C1.83362526,0.580811284 1.80821178,0.561451163 1.81524665,0.538071747 L1.86988417,0.357387517 L1.72423299,0.244785865 C1.70538539,0.2301814 1.71508765,0.1989168 1.73853723,0.198702029 L1.91959727,0.197259991 L1.97687286,0.0174655286 C1.98425947,-0.00582184288 2.01571122,-0.00582184288 2.02312714,0.0174655286 Z" id="Shape"></path>
                    <path d="M2.02312714,1.16030036 L2.08040273,1.34010207 L2.26146277,1.34154416 C2.28491235,1.34175894 2.29461461,1.37305548 2.27576701,1.38762985 L2.13011583,1.50023604 L2.18475335,1.68092755 C2.19184684,1.7043079 2.16637474,1.72369949 2.14729265,1.70940126 L2,1.59918834 L1.85270735,1.70940126 C1.83362526,1.7236688 1.80821178,1.7043079 1.81524665,1.68092755 L1.86988417,1.50023604 L1.72423299,1.38762985 C1.70538539,1.3730248 1.71508765,1.34175894 1.73853723,1.34154416 L1.91959727,1.34010207 L1.97687286,1.16030036 C1.98425947,1.13704274 2.01571122,1.13704274 2.02312714,1.16030036 Z" id="Shape"></path>
                    <path d="M2.02312714,2.30315751 L2.08040273,2.48295921 L2.26146277,2.4844013 C2.28491235,2.48461608 2.29461461,2.51591263 2.27576701,2.530487 L2.13011583,2.64309318 L2.18475335,2.82378469 C2.19184684,2.84716505 2.16637474,2.86655663 2.14729265,2.85225841 L2,2.74204549 L1.85270735,2.85225841 C1.83362526,2.86652595 1.80821178,2.84716505 1.81524665,2.82378469 L1.86988417,2.64309318 L1.72423299,2.530487 C1.70538539,2.51588194 1.71508765,2.48461608 1.73853723,2.4844013 L1.91959727,2.48295921 L1.97687286,2.30315751 C1.98425947,2.27989988 2.01571122,2.27989988 2.02312714,2.30315751 Z" id="Shape"></path>
                    <path d="M2.02312714,3.44603696 L2.08040273,3.62583142 L2.26146277,3.62727346 C2.28491235,3.62748823 2.29461461,3.65878351 2.27576701,3.67335729 L2.13011583,3.78595895 L2.18475335,3.96664318 C2.19184684,3.99002259 2.16637474,4.00941339 2.14729265,3.99511575 L2,3.88490726 L1.85270735,3.99511575 C1.83362526,4.00938271 1.80821178,3.99002259 1.81524665,3.96664318 L1.86988417,3.78595895 L1.72423299,3.67335729 C1.70538539,3.65875283 1.71508765,3.62748823 1.73853723,3.62727346 L1.91959727,3.62583142 L1.97687286,3.44603696 C1.98425947,3.42274959 2.01571122,3.42274959 2.02312714,3.44603696 Z" id="Shape"></path>
                    <path d="M2.02312714,4.58891641 L2.08040273,4.76870363 L2.26146277,4.77014561 C2.28491235,4.77036037 2.29461461,4.80165439 2.27576701,4.81622759 L2.13011583,4.92882471 L2.18475335,5.10950166 C2.19184684,5.13288014 2.16637474,5.15227016 2.14729265,5.13797309 L2,5.02776904 L1.85270735,5.13797309 C1.83362526,5.15223948 1.80821178,5.13288014 1.81524665,5.10950166 L1.86988417,4.92882471 L1.72423299,4.81622759 C1.70538539,4.80162371 1.71508765,4.77036037 1.73853723,4.77014561 L1.91959727,4.76870363 L1.97687286,4.58891641 C1.98425947,4.56559929 2.01571122,4.56559929 2.02312714,4.58891641 Z" id="Shape"></path>
                    <path d="M3.16598429,0.588871791 L3.22325988,0.768673494 L3.40431991,0.77011559 C3.42776949,0.77033037 3.43747175,0.801626912 3.41862415,0.816201282 L3.27297298,0.928807468 L3.32761049,1.10949898 C3.33470399,1.13287933 3.30923188,1.15227092 3.29014979,1.13797269 L3.14285714,1.02775977 L2.99556449,1.13797269 C2.9764824,1.15224023 2.95106892,1.13287933 2.9581038,1.10949898 L3.01274131,0.928807468 L2.86709013,0.816201282 C2.84824253,0.801596229 2.8579448,0.77033037 2.88139437,0.77011559 L3.06245441,0.768673494 L3.11973,0.588871791 C3.1270873,0.565614165 3.15856836,0.565614165 3.16598429,0.588871791 Z" id="Shape"></path>
                    <path d="M3.16598429,1.73175124 L3.22325988,1.91154571 L3.40431991,1.91298774 C3.42776949,1.91320251 3.43747175,1.9444978 3.41862415,1.95907158 L3.27297298,2.07167323 L3.32761049,2.25235746 C3.33470399,2.27573688 3.30923188,2.29512768 3.29014979,2.28083003 L3.14285714,2.17062155 L2.99556449,2.28083003 C2.9764824,2.295097 2.95106892,2.27576756 2.9581038,2.25235746 L3.01274131,2.07167323 L2.86709013,1.95907158 C2.84824253,1.94446711 2.8579448,1.91320251 2.88139437,1.91298774 L3.06245441,1.91154571 L3.11973,1.73175124 C3.1270873,1.70846387 3.15856836,1.70846387 3.16598429,1.73175124 Z" id="Shape"></path>
                    <path d="M3.16598429,2.87460839 L3.22325988,3.05440285 L3.40431991,3.05584489 C3.42776949,3.05605966 3.43747175,3.08735494 3.41862415,3.10192872 L3.27297298,3.21453037 L3.32761049,3.3952146 C3.33470399,3.41859402 3.30923188,3.43798482 3.29014979,3.42368717 L3.14285714,3.31347869 L2.99556449,3.42368717 C2.9764824,3.43795414 2.95106892,3.41859402 2.9581038,3.3952146 L3.01274131,3.21453037 L2.86709013,3.10192872 C2.84824253,3.08732426 2.8579448,3.05605966 2.88139437,3.05584489 L3.06245441,3.05440285 L3.11973,2.87460839 C3.1270873,2.85132101 3.15856836,2.85132101 3.16598429,2.87460839 Z" id="Shape"></path>
                    <path d="M3.16598429,4.01744322 L3.22325988,4.19724492 L3.40431991,4.19868702 C3.42776949,4.1989018 3.43747175,4.23019834 3.41862415,4.24477271 L3.27297298,4.3573789 L3.32761049,4.5380704 C3.33470399,4.56145076 3.30923188,4.58084234 3.29014979,4.56654412 L3.14285714,4.4563312 L2.99556449,4.56654412 C2.9764824,4.58081166 2.95106892,4.56145076 2.9581038,4.5380704 L3.01274131,4.3573789 L2.86709013,4.24477271 C2.84824253,4.23016766 2.8579448,4.1989018 2.88139437,4.19868702 L3.06245441,4.19724492 L3.11973,4.01744322 C3.1270873,3.99418559 3.15856836,3.99418559 3.16598429,4.01744322 Z" id="Shape"></path>
                    <path d="M3.73742633,0.0174655286 L3.79469898,0.197259991 L3.97574973,0.198702029 C3.9991981,0.1989168 4.00889987,0.230212082 3.99005324,0.244785865 L3.84440953,0.357387517 L3.89904424,0.538071747 C3.90613737,0.561451163 3.88066658,0.580841966 3.86158546,0.566544317 L3.71427106,0.456335834 L3.56698597,0.566544317 C3.54790485,0.580811284 3.52249268,0.561451163 3.52952719,0.538071747 L3.5841619,0.357387517 L3.43851819,0.244785865 C3.41967156,0.2301814 3.42937333,0.1989168 3.4528217,0.198702029 L3.63387245,0.197259991 L3.6911451,0.0174655286 C3.69856065,-0.00582184288 3.73001078,-0.00582184288 3.73742633,0.0174655286 Z" id="Shape"></path>
                    <path d="M3.73742633,1.16030036 L3.79469898,1.34010207 L3.97574973,1.34154416 C3.9991981,1.34175894 4.00889987,1.37305548 3.99005324,1.38762985 L3.84440953,1.50023604 L3.89904424,1.68092755 C3.90613737,1.7043079 3.88066658,1.72369949 3.86158546,1.70940126 L3.71427106,1.59918834 L3.56698597,1.70940126 C3.54790485,1.7236688 3.52249268,1.7043079 3.52952719,1.68092755 L3.5841619,1.50023604 L3.43851819,1.38762985 C3.41967156,1.3730248 3.42937333,1.34175894 3.4528217,1.34154416 L3.63387245,1.34010207 L3.6911451,1.16030036 C3.69856065,1.13704274 3.73001078,1.13704274 3.73742633,1.16030036 Z" id="Shape"></path>
                    <path d="M3.73742633,2.30315751 L3.79469898,2.48295921 L3.97574973,2.4844013 C3.9991981,2.48461608 4.00889987,2.51591263 3.99005324,2.530487 L3.84440953,2.64309318 L3.89904424,2.82378469 C3.90613737,2.84716505 3.88066658,2.86655663 3.86158546,2.85225841 L3.71427106,2.74204549 L3.56698597,2.85225841 C3.54790485,2.86652595 3.52249268,2.84716505 3.52952719,2.82378469 L3.5841619,2.64309318 L3.43851819,2.530487 C3.41967156,2.51588194 3.42937333,2.48461608 3.4528217,2.4844013 L3.63387245,2.48295921 L3.6911451,2.30315751 C3.69856065,2.27989988 3.73001078,2.27989988 3.73742633,2.30315751 Z" id="Shape"></path>
                    <path d="M3.73742633,3.44603696 L3.79469898,3.62583142 L3.97574973,3.62727346 C3.9991981,3.62748823 4.00889987,3.65878351 3.99005324,3.67335729 L3.84440953,3.78595895 L3.89904424,3.96664318 C3.90613737,3.99002259 3.88066658,4.00941339 3.86158546,3.99511575 L3.71427106,3.88490726 L3.56698597,3.99511575 C3.54790485,4.00938271 3.52249268,3.99002259 3.52952719,3.96664318 L3.5841619,3.78595895 L3.43851819,3.67335729 C3.41967156,3.65875283 3.42937333,3.62748823 3.4528217,3.62727346 L3.63387245,3.62583142 L3.6911451,3.44603696 C3.69856065,3.42274959 3.73001078,3.42274959 3.73742633,3.44603696 Z" id="Shape"></path>
                    <path d="M3.73742633,4.58891641 L3.79469898,4.76870363 L3.97574973,4.77014561 C3.9991981,4.77036037 4.00889987,4.80165439 3.99005324,4.81622759 L3.84440953,4.92882471 L3.89904424,5.10950166 C3.90613737,5.13288014 3.88066658,5.15227016 3.86158546,5.13797309 L3.71427106,5.02776904 L3.56698597,5.13797309 C3.54790485,5.15223948 3.52249268,5.13288014 3.52952719,5.10950166 L3.5841619,4.92882471 L3.43851819,4.81622759 C3.41967156,4.80162371 3.42937333,4.77036037 3.4528217,4.77014561 L3.63387245,4.76870363 L3.6911451,4.58891641 C3.69856065,4.56559929 3.73001078,4.56559929 3.73742633,4.58891641 Z" id="Shape"></path>
                    <path d="M4.88027,0.588871791 L4.93754559,0.768673494 L5.11860563,0.77011559 C5.1420552,0.77033037 5.15175747,0.801626912 5.13290987,0.816201282 L4.98725869,0.928807468 L5.0418962,1.10949898 C5.0489897,1.13287933 5.0235176,1.15227092 5.00443551,1.13797269 L4.85714286,1.02775977 L4.70985021,1.13797269 C4.69076812,1.15224023 4.66535464,1.13287933 4.67238951,1.10949898 L4.72702702,0.928807468 L4.58137585,0.816201282 C4.56252825,0.801596229 4.57223051,0.77033037 4.59568009,0.77011559 L4.77674012,0.768673494 L4.83401571,0.588871791 C4.84143164,0.565614165 4.87285407,0.565614165 4.88027,0.588871791 Z" id="Shape"></path>
                    <path d="M4.88027,1.73175124 L4.93754559,1.91154571 L5.11860563,1.91298774 C5.1420552,1.91320251 5.15175747,1.9444978 5.13290987,1.95907158 L4.98725869,2.07167323 L5.0418962,2.25235746 C5.0489897,2.27573688 5.0235176,2.29512768 5.00443551,2.28083003 L4.85714286,2.17062155 L4.70985021,2.28083003 C4.69076812,2.295097 4.66535464,2.27576756 4.67238951,2.25235746 L4.72702702,2.07167323 L4.58137585,1.95907158 C4.56252825,1.94446711 4.57223051,1.91320251 4.59568009,1.91298774 L4.77674012,1.91154571 L4.83401571,1.73175124 C4.84143164,1.70846387 4.87285407,1.70846387 4.88027,1.73175124 Z" id="Shape"></path>
                    <path d="M4.88027,2.87460839 L4.93754559,3.05440285 L5.11860563,3.05584489 C5.1420552,3.05605966 5.15175747,3.08735494 5.13290987,3.10192872 L4.98725869,3.21453037 L5.0418962,3.3952146 C5.0489897,3.41859402 5.0235176,3.43798482 5.00443551,3.42368717 L4.85714286,3.31347869 L4.70985021,3.42368717 C4.69076812,3.43795414 4.66535464,3.41859402 4.67238951,3.3952146 L4.72702702,3.21453037 L4.58137585,3.10192872 C4.56252825,3.08732426 4.57223051,3.05605966 4.59568009,3.05584489 L4.77674012,3.05440285 L4.83401571,2.87460839 C4.84143164,2.85132101 4.87285407,2.85132101 4.88027,2.87460839 Z" id="Shape"></path>
                    <path d="M4.88027,4.01744322 L4.93754559,4.19724492 L5.11860563,4.19868702 C5.1420552,4.1989018 5.15175747,4.23019834 5.13290987,4.24477271 L4.98725869,4.3573789 L5.0418962,4.5380704 C5.0489897,4.56145076 5.0235176,4.58084234 5.00443551,4.56654412 L4.85714286,4.4563312 L4.70985021,4.56654412 C4.69076812,4.58081166 4.66535464,4.56145076 4.67238951,4.5380704 L4.72702702,4.3573789 L4.58137585,4.24477271 C4.56252825,4.23016766 4.57223051,4.1989018 4.59568009,4.19868702 L4.77674012,4.19724492 L4.83401571,4.01744322 C4.84143164,3.99418559 4.87285407,3.99418559 4.88027,4.01744322 Z" id="Shape"></path>
                    <path d="M5.45169857,0.0174655286 L5.50897416,0.197259991 L5.6900342,0.198702029 C5.71348377,0.1989168 5.72318604,0.230212082 5.70433844,0.244785865 L5.55868726,0.357387517 L5.61332477,0.538071747 C5.62041827,0.561451163 5.59494617,0.580841966 5.57586408,0.566544317 L5.42857143,0.456335834 L5.28127878,0.566544317 C5.26219669,0.580811284 5.23678321,0.561451163 5.24381808,0.538071747 L5.29845559,0.357387517 L5.15280442,0.244785865 C5.13395682,0.2301814 5.14365908,0.1989168 5.16710866,0.198702029 L5.3481687,0.197259991 L5.40544428,0.0174655286 C5.41280159,-0.00582184288 5.44428264,-0.00582184288 5.45169857,0.0174655286 Z" id="Shape"></path>
                    <path d="M5.45169857,1.16030036 L5.50897416,1.34010207 L5.6900342,1.34154416 C5.71348377,1.34175894 5.72318604,1.37305548 5.70433844,1.38762985 L5.55868726,1.50023604 L5.61332477,1.68092755 C5.62041827,1.7043079 5.59494617,1.72369949 5.57586408,1.70940126 L5.42857143,1.59918834 L5.28127878,1.70940126 C5.26219669,1.7236688 5.23678321,1.7043079 5.24381808,1.68092755 L5.29845559,1.50023604 L5.15280442,1.38762985 C5.13395682,1.3730248 5.14365908,1.34175894 5.16710866,1.34154416 L5.3481687,1.34010207 L5.40544428,1.16030036 C5.41280159,1.13704274 5.44428264,1.13704274 5.45169857,1.16030036 Z" id="Shape"></path>
                    <path d="M5.45169857,2.30315751 L5.50897416,2.48295921 L5.6900342,2.4844013 C5.71348377,2.48461608 5.72318604,2.51591263 5.70433844,2.530487 L5.55868726,2.64309318 L5.61332477,2.82378469 C5.62041827,2.84716505 5.59494617,2.86655663 5.57586408,2.85225841 L5.42857143,2.74204549 L5.28127878,2.85225841 C5.26219669,2.86652595 5.23678321,2.84716505 5.24381808,2.82378469 L5.29845559,2.64309318 L5.15280442,2.530487 C5.13395682,2.51588194 5.14365908,2.48461608 5.16710866,2.4844013 L5.3481687,2.48295921 L5.40544428,2.30315751 C5.41280159,2.27989988 5.44428264,2.27989988 5.45169857,2.30315751 Z" id="Shape"></path>
                    <path d="M5.45169857,3.44603696 L5.50897416,3.62583142 L5.6900342,3.62727346 C5.71348377,3.62748823 5.72318604,3.65878351 5.70433844,3.67335729 L5.55868726,3.78595895 L5.61332477,3.96664318 C5.62041827,3.99002259 5.59494617,4.00941339 5.57586408,3.99511575 L5.42857143,3.88490726 L5.28127878,3.99511575 C5.26219669,4.00938271 5.23678321,3.99002259 5.24381808,3.96664318 L5.29845559,3.78595895 L5.15280442,3.67335729 C5.13395682,3.65875283 5.14365908,3.62748823 5.16710866,3.62727346 L5.3481687,3.62583142 L5.40544428,3.44603696 C5.41280159,3.42274959 5.44428264,3.42274959 5.45169857,3.44603696 Z" id="Shape"></path>
                    <path d="M5.45169857,4.58891641 L5.50897416,4.76870363 L5.6900342,4.77014561 C5.71348377,4.77036037 5.72318604,4.80165439 5.70433844,4.81622759 L5.55868726,4.92882471 L5.61332477,5.10950166 C5.62041827,5.13288014 5.59494617,5.15227016 5.57586408,5.13797309 L5.42857143,5.02776904 L5.28127878,5.13797309 C5.26219669,5.15223948 5.23678321,5.13288014 5.24381808,5.10950166 L5.29845559,4.92882471 L5.15280442,4.81622759 C5.13395682,4.80162371 5.14365908,4.77036037 5.16710866,4.77014561 L5.3481687,4.76870363 L5.40544428,4.58891641 C5.41280159,4.56559929 5.44428264,4.56559929 5.45169857,4.58891641 Z" id="Shape"></path>
                    <path d="M6.59455572,0.588871791 L6.6518313,0.768673494 L6.83289134,0.77011559 C6.85634092,0.77033037 6.86604318,0.801626912 6.84719558,0.816201282 L6.70154441,0.928807468 L6.75618192,1.10949898 C6.76327541,1.13287933 6.73780331,1.15227092 6.71872122,1.13797269 L6.57142857,1.02775977 L6.42413592,1.13797269 C6.40505383,1.15224023 6.37964035,1.13287933 6.38667523,1.10949898 L6.44131274,0.928807468 L6.29566156,0.816201282 C6.27681396,0.801596229 6.28651623,0.77033037 6.3099658,0.77011559 L6.49102584,0.768673494 L6.54830143,0.588871791 C6.55568804,0.565614165 6.5871691,0.565614165 6.59455572,0.588871791 Z" id="Shape"></path>
                    <path d="M6.59455572,1.73175124 L6.6518313,1.91154571 L6.83289134,1.91298774 C6.85634092,1.91320251 6.86604318,1.9444978 6.84719558,1.95907158 L6.70154441,2.07167323 L6.75618192,2.25235746 C6.76327541,2.27573688 6.73780331,2.29512768 6.71872122,2.28083003 L6.57142857,2.17062155 L6.42413592,2.28083003 C6.40505383,2.295097 6.37964035,2.27576756 6.38667523,2.25235746 L6.44131274,2.07167323 L6.29566156,1.95907158 C6.27681396,1.94446711 6.28651623,1.91320251 6.3099658,1.91298774 L6.49102584,1.91154571 L6.54830143,1.73175124 C6.55568804,1.70846387 6.5871691,1.70846387 6.59455572,1.73175124 Z" id="Shape"></path>
                    <path d="M6.59455572,2.87460839 L6.6518313,3.05440285 L6.83289134,3.05584489 C6.85634092,3.05605966 6.86604318,3.08735494 6.84719558,3.10192872 L6.70154441,3.21453037 L6.75618192,3.3952146 C6.76327541,3.41859402 6.73780331,3.43798482 6.71872122,3.42368717 L6.57142857,3.31347869 L6.42413592,3.42368717 C6.40505383,3.43795414 6.37964035,3.41859402 6.38667523,3.3952146 L6.44131274,3.21453037 L6.29566156,3.10192872 C6.27681396,3.08732426 6.28651623,3.05605966 6.3099658,3.05584489 L6.49102584,3.05440285 L6.54830143,2.87460839 C6.55568804,2.85132101 6.5871691,2.85132101 6.59455572,2.87460839 Z" id="Shape"></path>
                    <path d="M6.59455572,4.01744322 L6.6518313,4.19724492 L6.83289134,4.19868702 C6.85634092,4.1989018 6.86604318,4.23019834 6.84719558,4.24477271 L6.70154441,4.3573789 L6.75618192,4.5380704 C6.76327541,4.56145076 6.73780331,4.58084234 6.71872122,4.56654412 L6.57142857,4.4563312 L6.42413592,4.56654412 C6.40505383,4.58081166 6.37964035,4.56145076 6.38667523,4.5380704 L6.44131274,4.3573789 L6.29566156,4.24477271 C6.27681396,4.23016766 6.28651623,4.1989018 6.3099658,4.19868702 L6.49102584,4.19724492 L6.54830143,4.01744322 C6.55568804,3.99418559 6.5871691,3.99418559 6.59455572,4.01744322 Z" id="Shape"></path>
                    <path d="M7.16598429,0.0174655286 L7.22325988,0.197259991 L7.40431991,0.198702029 C7.42776949,0.1989168 7.43747175,0.230212082 7.41862415,0.244785865 L7.27297298,0.357387517 L7.32761049,0.538071747 C7.33470399,0.561451163 7.30923188,0.580841966 7.29014979,0.566544317 L7.14285714,0.456335834 L6.99556449,0.566544317 C6.9764824,0.580811284 6.95106892,0.561451163 6.9581038,0.538071747 L7.01274131,0.357387517 L6.86709013,0.244785865 C6.84824253,0.2301814 6.8579448,0.1989168 6.88139437,0.198702029 L7.06245441,0.197259991 L7.11973,0.0174655286 C7.12711662,-0.00582184288 7.15853905,-0.00582184288 7.16598429,0.0174655286 Z" id="Shape"></path>
                    <path d="M7.16598429,1.16030036 L7.22325988,1.34010207 L7.40431991,1.34154416 C7.42776949,1.34175894 7.43747175,1.37305548 7.41862415,1.38762985 L7.27297298,1.50023604 L7.32761049,1.68092755 C7.33470399,1.7043079 7.30923188,1.72369949 7.29014979,1.70940126 L7.14285714,1.59918834 L6.99556449,1.70940126 C6.9764824,1.7236688 6.95106892,1.7043079 6.9581038,1.68092755 L7.01274131,1.50023604 L6.86709013,1.38762985 C6.84824253,1.3730248 6.8579448,1.34175894 6.88139437,1.34154416 L7.06245441,1.34010207 L7.11973,1.16030036 C7.12711662,1.13704274 7.15853905,1.13704274 7.16598429,1.16030036 Z" id="Shape"></path>
                    <path d="M7.16598429,2.30315751 L7.22325988,2.48295921 L7.40431991,2.4844013 C7.42776949,2.48461608 7.43747175,2.51591263 7.41862415,2.530487 L7.27297298,2.64309318 L7.32761049,2.82378469 C7.33470399,2.84716505 7.30923188,2.86655663 7.29014979,2.85225841 L7.14285714,2.74204549 L6.99556449,2.85225841 C6.9764824,2.86652595 6.95106892,2.84716505 6.9581038,2.82378469 L7.01274131,2.64309318 L6.86709013,2.530487 C6.84824253,2.51588194 6.8579448,2.48461608 6.88139437,2.4844013 L7.06245441,2.48295921 L7.11973,2.30315751 C7.12711662,2.27989988 7.15853905,2.27989988 7.16598429,2.30315751 Z" id="Shape"></path>
                    <path d="M7.16598429,3.44603696 L7.22325988,3.62583142 L7.40431991,3.62727346 C7.42776949,3.62748823 7.43747175,3.65878351 7.41862415,3.67335729 L7.27297298,3.78595895 L7.32761049,3.96664318 C7.33470399,3.99002259 7.30923188,4.00941339 7.29014979,3.99511575 L7.14285714,3.88490726 L6.99556449,3.99511575 C6.9764824,4.00938271 6.95106892,3.99002259 6.9581038,3.96664318 L7.01274131,3.78595895 L6.86709013,3.67335729 C6.84824253,3.65875283 6.8579448,3.62748823 6.88139437,3.62727346 L7.06245441,3.62583142 L7.11973,3.44603696 C7.12711662,3.42274959 7.15853905,3.42274959 7.16598429,3.44603696 Z" id="Shape"></path>
                    <path d="M7.16598429,4.58891641 L7.22325988,4.76870363 L7.40431991,4.77014561 C7.42776949,4.77036037 7.43747175,4.80165439 7.41862415,4.81622759 L7.27297298,4.92882471 L7.32761049,5.10950166 C7.33470399,5.13288014 7.30923188,5.15227016 7.29014979,5.13797309 L7.14285714,5.02776904 L6.99556449,5.13797309 C6.9764824,5.15223948 6.95106892,5.13288014 6.9581038,5.10950166 L7.01274131,4.92882471 L6.86709013,4.81622759 C6.84824253,4.80162371 6.8579448,4.77036037 6.88139437,4.77014561 L7.06245441,4.76870363 L7.11973,4.58891641 C7.12711662,4.56559929 7.15853905,4.56559929 7.16598429,4.58891641 Z" id="Shape"></path>
                </g>
            </g>
        </g>
    </g>
</svg>